<?xml version="1.0" encoding="utf-8"?>
<!-- Generator: Adobe Illustrator 16.0.3, SVG Export Plug-In . SVG Version: 6.00 Build 0)  -->
<!DOCTYPE svg PUBLIC "-//W3C//DTD SVG 1.1//EN" "http://www.w3.org/Graphics/SVG/1.1/DTD/svg11.dtd">
<svg version="1.1" id="Capa_1" xmlns="http://www.w3.org/2000/svg" xmlns:xlink="http://www.w3.org/1999/xlink" x="0px" y="0px"
	 width="45.613px" height="40.882px" viewBox="0 0 45.613 40.882" enable-background="new 0 0 45.613 40.882" xml:space="preserve">
<g>
	<defs>
		<rect id="SVGID_1_" x="-388.8" y="-139.995" width="792" height="612"/>
	</defs>
	<clipPath id="SVGID_2_">
		<use xlink:href="#SVGID_1_"  overflow="visible"/>
	</clipPath>
</g>
<text transform="matrix(1 0 0 1 -199.5186 -37.7441)" fill="#7C7C7C" font-family="'MyriadPro-Regular'" font-size="32.3118">Escuchar</text>
<text transform="matrix(1 0 0 1 -199.5186 -10.0527)"><tspan x="0" y="0" fill="#7C7C7C" font-family="'MyriadPro-Regular'" font-size="32.3118">y </tspan><tspan x="22.068" y="0" fill="#7C7C7C" font-family="'MyriadPro-Regular'" font-size="32.3118">R</tspan><tspan x="39.581" y="0" fill="#7C7C7C" font-family="'MyriadPro-Regular'" font-size="32.3118">epetir</tspan></text>
<text transform="matrix(1 0 0 1 -199.5186 59.4819)"><tspan x="0" y="0" fill="#7C7C7C" font-family="'MyriadPro-Regular'" font-size="32.3118">M</tspan><tspan x="26.172" y="0" fill="#7C7C7C" font-family="'MyriadPro-Regular'" font-size="32.3118">emo</tspan><tspan x="87.047" y="0" fill="#7C7C7C" font-family="'MyriadPro-Regular'" font-size="32.3118">r</tspan><tspan x="97.742" y="0" fill="#7C7C7C" font-family="'MyriadPro-Regular'" font-size="32.3118">ia</tspan></text>
<text transform="matrix(1 0 0 1 -199.5186 262.8853)"><tspan x="0" y="0" fill="#7C7C7C" font-family="'MyriadPro-Regular'" font-size="32.3118">M</tspan><tspan x="26.172" y="0" fill="#7C7C7C" font-family="'MyriadPro-Regular'" font-size="32.3118">emo</tspan><tspan x="87.047" y="0" fill="#7C7C7C" font-family="'MyriadPro-Regular'" font-size="32.3118">r</tspan><tspan x="97.742" y="0" fill="#7C7C7C" font-family="'MyriadPro-Regular'" font-size="32.3118">ia</tspan></text>
<text transform="matrix(1 0 0 1 -199.5186 290.5757)"><tspan x="0" y="0" fill="#7C7C7C" font-family="'MyriadPro-Regular'" font-size="32.3118">por</tspan><tspan x="46.69" y="0" fill="#7C7C7C" font-family="'MyriadPro-Regular'" font-size="32.3118" letter-spacing="-1"> </tspan><tspan x="52.409" y="0" fill="#7C7C7C" font-family="'MyriadPro-Regular'" font-size="32.3118" letter-spacing="-1">V</tspan><tspan x="69.372" y="0" fill="#7C7C7C" font-family="'MyriadPro-Regular'" font-size="32.3118">o</tspan><tspan x="86.917" y="0" fill="#7C7C7C" font-family="'MyriadPro-Regular'" font-size="32.3118">z</tspan></text>
<text transform="matrix(1 0 0 1 -199.5186 367.5747)"><tspan x="0" y="0" fill="#7C7C7C" font-family="'MyriadPro-Regular'" font-size="32.3118">Di</tspan><tspan x="29.08" y="0" fill="#7C7C7C" font-family="'MyriadPro-Regular'" font-size="32.3118">r</tspan><tspan x="39.323" y="0" fill="#7C7C7C" font-family="'MyriadPro-Regular'" font-size="32.3118">e</tspan><tspan x="55.511" y="0" fill="#7C7C7C" font-family="'MyriadPro-Regular'" font-size="32.3118">c</tspan><tspan x="69.825" y="0" fill="#7C7C7C" font-family="'MyriadPro-Regular'" font-size="32.3118">cíon</tspan></text>
<text transform="matrix(1 0 0 1 -199.5186 395.2661)" fill="#7C7C7C" font-family="'MyriadPro-Regular'" font-size="32.3118">o Ubicación</text>
<text transform="matrix(1 0 0 1 67.8296 339.1733)"><tspan x="0" y="0" fill="#7C7C7C" font-family="'MyriadPro-Regular'" font-size="32.3118">S</tspan><tspan x="16.123" y="0" fill="#7C7C7C" font-family="'MyriadPro-Regular'" font-size="32.3118">ele</tspan><tspan x="56.125" y="0" fill="#7C7C7C" font-family="'MyriadPro-Regular'" font-size="32.3118">c</tspan><tspan x="70.438" y="0" fill="#7C7C7C" font-family="'MyriadPro-Regular'" font-size="32.3118">cíon Simple</tspan></text>
<g>
	<defs>
		<rect id="SVGID_3_" x="-388.8" y="-139.995" width="792" height="612"/>
	</defs>
	<clipPath id="SVGID_4_">
		<use xlink:href="#SVGID_3_"  overflow="visible"/>
	</clipPath>
	<path clip-path="url(#SVGID_4_)" fill="#FFFFFF" d="M-231.411-41.865v-4.093c0-8.287-7.532-15.006-16.824-15.006
		c-9.291,0-16.823,6.719-16.823,15.006v4.093c-1.448,0.514-2.415,1.884-2.415,3.42v4.622c0,1.936,1.52,3.531,3.453,3.625v0.405
		c0,0.388,0.314,0.702,0.701,0.702h3.076c0.388,0,0.702-0.314,0.702-0.702V-42.79c0-0.387-0.314-0.701-0.702-0.701h-1.712v-2.489
		c0-6.764,6.14-12.249,13.72-12.262c7.581,0.013,13.721,5.498,13.721,12.262v2.489h-1.712c-0.388,0-0.702,0.314-0.702,0.701v12.997
		c0,0.388,0.314,0.702,0.702,0.702h3.076c0.387,0,0.701-0.314,0.701-0.702v-0.405c1.934-0.094,3.453-1.689,3.453-3.625v-4.622
		C-228.996-39.981-229.963-41.351-231.411-41.865z"/>
	<path clip-path="url(#SVGID_4_)" fill="#FFFFFF" d="M-240.313-17.675c2.514,0,4.605-1.724,5.201-4.046h-10.417
		C-244.931-19.399-242.828-17.675-240.313-17.675"/>
	<rect x="-245.706" y="-27.117" clip-path="url(#SVGID_4_)" fill="#FFFFFF" width="10.775" height="2.698"/>
	<rect x="-245.707" y="-32.513" clip-path="url(#SVGID_4_)" fill="#FFFFFF" width="10.784" height="2.698"/>
	<path clip-path="url(#SVGID_4_)" fill="#FFFFFF" d="M-240.313-39.257c-2.515,0-4.619,1.72-5.217,4.047h10.435
		C-235.692-37.542-237.797-39.257-240.313-39.257"/>
	<path clip-path="url(#SVGID_4_)" fill="#FFFFFF" d="M-230.772-22.035c-0.017,5.402-4.575,9.175-9.546,9.175
		c-4.962,0-9.528-3.773-9.528-9.175h-3.059c0,6.143,4.894,11.217,10.795,12.087v5.902h3.602v-5.902
		c5.901-0.87,10.795-5.944,10.795-12.087H-230.772z"/>
	<path clip-path="url(#SVGID_4_)" fill="#FFFFFF" d="M-224.383,68.633l-3.074-10.956c-0.121-7.602-7.054-17.973-19.971-17.973
		c-11.698,0-18.407,7.109-18.407,19.503c0,3.968,1.788,7.507,3.365,10.63c1.148,2.273,2.232,4.419,2.232,6.082v8.769
		c0,2.168,2.05,4.218,4.217,4.218h14.507c2.651,0,4.575-1.953,4.575-4.642v-2.095c0-0.682,0.045-1.072,0.087-1.286h3.594
		c1.438,0,2.707-0.653,3.571-1.839c0.638-0.875,1.019-1.996,1.019-3.001v-5.609h2.919c0.444,0,0.862-0.207,1.13-0.561
		C-224.351,69.519-224.263,69.06-224.383,68.633 M-230.087,67.597c-0.783,0-1.418,0.635-1.418,1.419v7.027
		c0,0.311-0.324,2.002-1.753,2.002h-3.826c-2.692,0-2.692,2.89-2.692,4.124v2.095c0,0.872-0.457,1.804-1.738,1.804h-14.507
		c-0.569,0-1.379-0.714-1.379-1.38v-8.769c0-2.339-1.233-4.778-2.538-7.361c-1.504-2.979-3.06-6.059-3.06-9.351
		c0-4.945,1.219-9.043,3.523-11.85c2.624-3.195,6.677-4.815,12.047-4.815c12.109,0,17.135,9.989,17.135,15.336
		c0,0.13,0.018,0.259,0.053,0.383l2.619,9.336H-230.087z"/>
	<path clip-path="url(#SVGID_4_)" fill="#FFFFFF" d="M-238.75,49.168c0,0-0.937-2.217-3.43-2.754c-3.14-0.676-4.445,0.58-4.445,0.58
		s-1.798-1.451-4.058-0.688c-2.608,0.881-3.14,2.862-3.14,2.862s-3.362,0.148-5.024,3.768c-2.174,4.734,1.739,7.73,1.739,7.73
		s1.208,3.189,4.058,3.72c2.851,0.531,4.542-1.739,4.542-1.739s2.319,0.869,4.396-0.242c2.077-1.111,2.898-3.43,2.898-3.43
		s6.136,0.821,6.233-4.348C-234.885,49.458-238.75,49.168-238.75,49.168"/>
</g>
<text transform="matrix(1 0 0 1 -199.5186 179.0913)"><tspan x="0" y="0" fill="#7C7C7C" font-family="'MyriadPro-Regular'" font-size="32.3118">V</tspan><tspan x="17.545" y="0" fill="#7C7C7C" font-family="'MyriadPro-Regular'" font-size="32.3118">ideo</tspan></text>
<g>
	<defs>
		<rect id="SVGID_5_" x="-388.8" y="-139.995" width="792" height="612"/>
	</defs>
	<clipPath id="SVGID_6_">
		<use xlink:href="#SVGID_5_"  overflow="visible"/>
	</clipPath>
	<polygon clip-path="url(#SVGID_6_)" fill="#FFFFFF" points="-267.289,186.154 -255.775,186.154 -255.775,191.995 -239.228,191.995 
		-239.228,186.154 -234.564,186.154 -234.564,166.189 -267.289,166.189 	"/>
	<polygon clip-path="url(#SVGID_6_)" fill="#FFFFFF" points="-231.591,171.832 -231.591,179.996 -220.308,183.15 -220.308,168.888 	
		"/>
	<path clip-path="url(#SVGID_6_)" fill="#FFFFFF" d="M-260.304,163.127c5.166,0,9.353-4.188,9.353-9.353s-4.187-9.353-9.353-9.353
		c-5.165,0-9.353,4.188-9.353,9.353S-265.469,163.127-260.304,163.127 M-260.304,151.143c1.454,0,2.631,1.178,2.631,2.631
		c0,1.453-1.177,2.632-2.631,2.632c-1.453,0-2.631-1.179-2.631-2.632C-262.935,152.321-261.757,151.143-260.304,151.143"/>
	<path clip-path="url(#SVGID_6_)" fill="#FFFFFF" d="M-240.236,144.422c-5.165,0-9.353,4.187-9.353,9.353
		c0,5.165,4.188,9.352,9.353,9.352c5.166,0,9.353-4.187,9.353-9.352C-230.883,148.609-235.07,144.422-240.236,144.422
		 M-240.236,156.406c-1.453,0-2.631-1.178-2.631-2.631c0-1.454,1.178-2.632,2.631-2.632c1.454,0,2.631,1.178,2.631,2.632
		C-237.605,155.228-238.782,156.406-240.236,156.406"/>
	<path clip-path="url(#SVGID_6_)" fill="#C44D17" d="M51.891,154.87H-7.187c-3.613,0-6.569-2.956-6.569-6.569V92.012
		c0-3.613,2.956-6.569,6.569-6.569h59.078c3.613,0,6.569,2.956,6.569,6.569v56.289C58.46,151.914,55.504,154.87,51.891,154.87"/>
	<path clip-path="url(#SVGID_6_)" fill="#ED7029" d="M51.997,151.954H-7.081c-3.613,0-6.569-2.956-6.569-6.569V89.096
		c0-3.613,2.956-6.569,6.569-6.569h59.077c3.613,0,6.569,2.956,6.569,6.569v56.289C58.566,148.998,55.61,151.954,51.997,151.954"/>
</g>
<text transform="matrix(1 0 0 1 67.8169 15.8232)"><tspan x="0" y="0" fill="#7C7C7C" font-family="'MyriadPro-Regular'" font-size="32.3118">C</tspan><tspan x="18.417" y="0" fill="#7C7C7C" font-family="'MyriadPro-Regular'" font-size="32.3118">one</tspan><tspan x="70.277" y="0" fill="#7C7C7C" font-family="'MyriadPro-Regular'" font-size="32.3118">c</tspan><tspan x="85.141" y="0" fill="#7C7C7C" font-family="'MyriadPro-Regular'" font-size="32.3118">tar</tspan></text>
<text transform="matrix(1 0 0 1 67.8169 43.5146)"><tspan x="0" y="0" fill="#7C7C7C" font-family="'MyriadPro-Regular'" font-size="32.3118">C</tspan><tspan x="18.417" y="0" fill="#7C7C7C" font-family="'MyriadPro-Regular'" font-size="32.3118">olumnas</tspan></text>
<text transform="matrix(1 0 0 1 67.8169 113.0493)"><tspan x="0" y="0" fill="#7C7C7C" font-family="'MyriadPro-Regular'" font-size="32.3118">O</tspan><tspan x="22.263" y="0" fill="#7C7C7C" font-family="'MyriadPro-Regular'" font-size="32.3118">r</tspan><tspan x="32.505" y="0" fill="#7C7C7C" font-family="'MyriadPro-Regular'" font-size="32.3118">dena </tspan></text>
<text transform="matrix(1 0 0 1 67.8169 140.7407)"><tspan x="0" y="0" fill="#7C7C7C" font-family="'MyriadPro-Regular'" font-size="32.3118">la </tspan><tspan x="30.049" y="0" fill="#7C7C7C" font-family="'MyriadPro-Regular'" font-size="32.3118">L</tspan><tspan x="44.88" y="0" fill="#7C7C7C" font-family="'MyriadPro-Regular'" font-size="32.3118">et</tspan><tspan x="71.763" y="0" fill="#7C7C7C" font-family="'MyriadPro-Regular'" font-size="32.3118">r</tspan><tspan x="82.199" y="0" fill="#7C7C7C" font-family="'MyriadPro-Regular'" font-size="32.3118">as</tspan></text>
<g>
	<defs>
		<rect id="SVGID_7_" x="-388.8" y="-139.995" width="792" height="612"/>
	</defs>
	<clipPath id="SVGID_8_">
		<use xlink:href="#SVGID_7_"  overflow="visible"/>
	</clipPath>
	<path clip-path="url(#SVGID_8_)" fill="#7271A7" d="M51.891,260.218H-7.187c-3.613,0-6.569-2.956-6.569-6.569V197.36
		c0-3.613,2.956-6.569,6.569-6.569h59.078c3.613,0,6.569,2.956,6.569,6.569v56.289C58.46,257.262,55.504,260.218,51.891,260.218"/>
	<path clip-path="url(#SVGID_8_)" fill="#9491C6" d="M51.891,257.469H-7.187c-3.613,0-6.569-2.956-6.569-6.569v-56.288
		c0-3.613,2.956-6.569,6.569-6.569h59.078c3.613,0,6.569,2.956,6.569,6.569V250.9C58.46,254.513,55.504,257.469,51.891,257.469"/>
</g>
<text transform="matrix(1 0 0 1 67.8169 232.6597)"><tspan x="0" y="0" fill="#7C7C7C" font-family="'MyriadPro-Regular'" font-size="32.3118">Esc</tspan><tspan x="43.168" y="0" fill="#7C7C7C" font-family="'MyriadPro-Regular'" font-size="32.3118">r</tspan><tspan x="53.831" y="0" fill="#7C7C7C" font-family="'MyriadPro-Regular'" font-size="32.3118">ibe la </tspan><tspan x="132.863" y="0" fill="#7C7C7C" font-family="'MyriadPro-Regular'" font-size="32.3118">P</tspan><tspan x="149.245" y="0" fill="#7C7C7C" font-family="'MyriadPro-Regular'" font-size="32.3118">alab</tspan><tspan x="206.404" y="0" fill="#7C7C7C" font-family="'MyriadPro-Regular'" font-size="32.3118">r</tspan><tspan x="216.841" y="0" fill="#7C7C7C" font-family="'MyriadPro-Regular'" font-size="32.3118">a</tspan></text>
<text transform="matrix(1 0 0 1 67.8169 260.3511)"><tspan x="0" y="0" fill="#7C7C7C" font-family="'MyriadPro-Regular'" font-size="32.3118">C</tspan><tspan x="18.417" y="0" fill="#7C7C7C" font-family="'MyriadPro-Regular'" font-size="32.3118">o</tspan><tspan x="36.156" y="0" fill="#7C7C7C" font-family="'MyriadPro-Regular'" font-size="32.3118">r</tspan><tspan x="46.819" y="0" fill="#7C7C7C" font-family="'MyriadPro-Regular'" font-size="32.3118">r</tspan><tspan x="57.094" y="0" fill="#7C7C7C" font-family="'MyriadPro-Regular'" font-size="32.3118">eta</tspan></text>
<g>
	<defs>
		<rect id="SVGID_9_" x="-388.8" y="-139.995" width="792" height="612"/>
	</defs>
	<clipPath id="SVGID_10_">
		<use xlink:href="#SVGID_9_"  overflow="visible"/>
	</clipPath>
	<path clip-path="url(#SVGID_10_)" fill="#FDFFFF" d="M11.738,34.626H3.127C1.4,34.626,0,36.026,0,37.753
		c0,1.728,1.4,3.128,3.127,3.128h8.611c1.727,0,3.127-1.4,3.127-3.128C14.865,36.026,13.464,34.626,11.738,34.626"/>
	<path clip-path="url(#SVGID_10_)" fill="#FDFFFF" d="M42.485,11.542h-7.783c-0.851,0-1.62,0.342-2.184,0.893l-2.995-1.662
		l4.475-4.605c0.227,0.053,0.461,0.086,0.704,0.086h7.783c1.729,0,3.128-1.399,3.128-3.127C45.613,1.4,44.213,0,42.485,0h-7.783
		c-1.728,0-3.128,1.4-3.128,3.127c0,0.471,0.112,0.913,0.299,1.313l-4.82,4.962L14.813,2.611C14.566,1.131,13.288,0,11.738,0H3.127
		C1.4,0,0,1.4,0,3.127c0,1.728,1.4,3.127,3.127,3.127h8.611c0.891,0,1.69-0.377,2.261-0.975l11.084,6.151l-7.274,7.488l-3.158-3.131
		c0.134-0.348,0.215-0.723,0.215-1.118c0-1.727-1.401-3.127-3.127-3.127H3.127C1.4,11.542,0,12.942,0,14.669
		c0,1.728,1.4,3.128,3.127,3.128h8.611c0.319,0,0.622-0.062,0.913-0.151l3.256,3.229l-2.58,2.657
		c-0.468-0.278-1.007-0.448-1.589-0.448H3.127C1.4,23.084,0,24.484,0,26.212c0,1.727,1.4,3.127,3.127,3.127h8.611
		c1.726,0,3.127-1.4,3.127-3.127c0-0.108-0.021-0.211-0.031-0.316l3.011-3.1l13.947,13.833c-0.136,0.35-0.218,0.727-0.218,1.125
		c0,1.727,1.4,3.128,3.128,3.128h7.783c1.729,0,3.128-1.401,3.128-3.128s-1.399-3.128-3.128-3.128h-7.783
		c-0.317,0-0.617,0.062-0.906,0.15L19.745,20.84l7.81-8.039l4.059,2.252c0.191,1.544,1.493,2.744,3.089,2.744h7.783
		c1.729,0,3.128-1.4,3.128-3.128C45.613,12.942,44.213,11.542,42.485,11.542"/>
	<path clip-path="url(#SVGID_10_)" fill="#FDFFFF" d="M42.485,23.084h-7.783c-1.728,0-3.128,1.4-3.128,3.128
		c0,1.727,1.4,3.127,3.128,3.127h7.783c1.729,0,3.128-1.4,3.128-3.127C45.613,24.484,44.213,23.084,42.485,23.084"/>
	<path clip-path="url(#SVGID_10_)" fill="#FFFFFF" d="M48.847,121.797H31.283h-0.042H13.676H-3.93c-0.866,0-1.568,0.702-1.568,1.567
		v17.607c0,0.866,0.702,1.568,1.568,1.568h17.606h17.564h0.042h17.564c0.865,0,1.567-0.702,1.567-1.568v-17.607
		C50.415,122.5,49.712,121.797,48.847,121.797 M12.109,139.404H-2.364v-14.472h14.473V139.404z M29.673,139.404h-14.43v-14.472
		h14.43V139.404z M47.28,139.404H32.849v-14.472H47.28V139.404z"/>
	<path clip-path="url(#SVGID_10_)" fill="#FFFFFF" d="M1.966,112.733h4.167v-7.729c0-0.384,0.054-0.795,0.164-1.042
		c0.274-0.768,0.958-1.562,2.11-1.562c1.508,0,2.111,1.179,2.111,2.905v7.428h4.166v-7.949c0-3.947-2.056-5.756-4.797-5.756
		c-2.22,0-3.59,1.289-4.138,2.139H5.667L5.475,99.33H1.857c0.054,1.178,0.109,2.603,0.109,4.276V112.733z"/>
	<path clip-path="url(#SVGID_10_)" fill="#FFFFFF" d="M35.98,136.536h2.679v-4.969c0-0.247,0.035-0.511,0.105-0.67
		c0.177-0.493,0.617-1.004,1.356-1.004c0.97,0,1.357,0.758,1.357,1.868v4.775h2.678v-5.11c0-2.537-1.321-3.701-3.083-3.701
		c-1.428,0-2.309,0.829-2.661,1.375h-0.053l-0.123-1.181H35.91c0.035,0.758,0.07,1.674,0.07,2.749V136.536z"/>
	<path clip-path="url(#SVGID_10_)" fill="#FFFFFF" d="M21.725,110.102c-1.233,0-2.823-0.549-3.591-1.015l-0.74,2.988
		c1.015,0.548,2.576,0.932,4.331,0.932c3.837,0,5.811-1.837,5.811-4.331c-0.027-1.973-1.097-3.261-3.646-4.138
		c-1.644-0.576-2.165-0.905-2.165-1.536c0-0.685,0.575-1.096,1.59-1.096c1.15,0,2.302,0.439,2.905,0.768l0.739-2.878
		c-0.822-0.412-2.22-0.768-3.782-0.768c-3.316,0-5.454,1.892-5.454,4.386c-0.027,1.589,1.041,3.097,3.81,4.029
		c1.563,0.52,1.974,0.85,1.974,1.534C23.506,109.663,22.986,110.102,21.725,110.102"/>
	<path clip-path="url(#SVGID_10_)" fill="#FFFFFF" d="M4.538,134.675c-0.793,0-1.814-0.353-2.308-0.652l-0.476,1.921
		c0.652,0.352,1.657,0.599,2.784,0.599c2.467,0,3.735-1.181,3.735-2.785c-0.018-1.268-0.704-2.096-2.343-2.66
		c-1.057-0.37-1.392-0.581-1.392-0.987c0-0.44,0.37-0.705,1.022-0.705c0.74,0,1.48,0.282,1.868,0.494l0.477-1.85
		c-0.529-0.265-1.428-0.494-2.432-0.494c-2.132,0-3.506,1.216-3.506,2.82c-0.018,1.021,0.669,1.99,2.449,2.59
		c1.004,0.334,1.269,0.546,1.269,0.986C5.684,134.393,5.349,134.675,4.538,134.675"/>
	<path clip-path="url(#SVGID_10_)" fill="#FFFFFF" d="M34.974,113.034c2.411,0,3.673-1.371,4.193-2.192h0.082l0.192,1.891h3.617
		c-0.055-1.124-0.109-2.549-0.109-4.303v-9.101h-4.193v7.976c0,0.33-0.027,0.658-0.137,0.905c-0.274,0.658-0.933,1.453-2.084,1.453
		c-1.452,0-2.083-1.179-2.083-3.125v-7.209h-4.193v7.867C30.259,111.335,32.26,113.034,34.974,113.034"/>
	<path clip-path="url(#SVGID_10_)" fill="#FFFFFF" d="M21.211,136.543c1.551,0,2.361-0.881,2.696-1.409h0.053l0.123,1.215h2.326
		c-0.035-0.723-0.07-1.639-0.07-2.766v-5.85h-2.696v5.127c0,0.212-0.018,0.423-0.088,0.582c-0.177,0.423-0.6,0.934-1.34,0.934
		c-0.934,0-1.339-0.758-1.339-2.009v-4.634H18.18v5.057C18.18,135.451,19.467,136.543,21.211,136.543"/>
	<path clip-path="url(#SVGID_10_)" fill="#05806A" d="M51.891,361.979H-7.187c-3.613,0-6.569-2.957-6.569-6.569v-56.289
		c0-3.613,2.956-6.569,6.569-6.569h59.078c3.613,0,6.569,2.956,6.569,6.569v56.289C58.46,359.022,55.504,361.979,51.891,361.979"/>
	<path clip-path="url(#SVGID_10_)" fill="#00AC92" d="M51.882,360.07H-7.195c-3.613,0-6.569-2.957-6.569-6.569v-56.289
		c0-3.613,2.956-6.569,6.569-6.569h59.077c3.613,0,6.569,2.956,6.569,6.569V353.5C58.452,357.113,55.496,360.07,51.882,360.07"/>
	<path clip-path="url(#SVGID_10_)" fill="#FFFFFF" d="M43.454,205.598l-3.941-3.942c-2.718-2.717-7.139-2.718-9.856,0l-3.745,3.745
		L4.009,227.304c-0.005,0.004-0.007,0.009-0.011,0.014c-0.084,0.086-0.156,0.184-0.218,0.289c-0.015,0.027-0.028,0.055-0.042,0.081
		c-0.044,0.087-0.079,0.179-0.106,0.276c-0.007,0.026-0.017,0.052-0.023,0.078c-0.003,0.014-0.009,0.025-0.011,0.038l-2.575,13.621
		l-1.513,1.512c-0.402,0.402-0.402,1.055,0,1.456l0.923,0.924c0.402,0.402,1.055,0.402,1.457,0l1.501-1.502l13.64-2.579
		c0.001,0,0.003-0.001,0.004-0.001c0.029-0.006,0.058-0.017,0.087-0.024c0.062-0.017,0.123-0.032,0.183-0.056
		c0.03-0.012,0.059-0.028,0.088-0.043c0.055-0.026,0.109-0.052,0.159-0.084c0.029-0.019,0.057-0.042,0.085-0.063
		c0.048-0.035,0.094-0.071,0.137-0.112c0.011-0.009,0.023-0.017,0.033-0.027l21.903-21.903l3.744-3.744
		c1.317-1.317,2.041-3.066,2.041-4.929C45.495,208.665,44.771,206.916,43.454,205.598 M18.092,235.048
		c-0.021-0.717-0.551-1.315-1.259-1.426l-4.51-0.705l-0.226-3.903c-0.041-0.712-0.582-1.295-1.289-1.39l-2.566-0.344l14.479-14.48
		l9.588,9.587L18.138,236.56L18.092,235.048z M4.203,240.908l2.059-10.888l2.935,0.393l0.225,3.877
		c0.04,0.699,0.563,1.276,1.256,1.385l4.476,0.699l0.074,2.449L4.203,240.908z M41.349,213.349l-2.692,2.691l-9.587-9.587
		l2.691-2.692c1.556-1.555,4.089-1.557,5.646,0l3.942,3.942C42.905,209.26,42.905,211.792,41.349,213.349"/>
	<path clip-path="url(#SVGID_10_)" fill="#FFFFFF" d="M-230.451,287.57c2.206,0,4.041-1.513,4.563-3.551h-9.141
		C-234.503,286.057-232.658,287.57-230.451,287.57"/>
	<rect x="-235.184" y="279.284" clip-path="url(#SVGID_10_)" fill="#FFFFFF" width="9.456" height="2.368"/>
	<rect x="-235.184" y="274.549" clip-path="url(#SVGID_10_)" fill="#FFFFFF" width="9.464" height="2.367"/>
	<path clip-path="url(#SVGID_10_)" fill="#FFFFFF" d="M-230.451,268.63c-2.207,0-4.054,1.51-4.579,3.552h9.158
		C-226.396,270.135-228.243,268.63-230.451,268.63"/>
	<path clip-path="url(#SVGID_10_)" fill="#FFFFFF" d="M-222.078,283.744c-0.015,4.74-4.015,8.052-8.377,8.052
		c-4.355,0-8.362-3.312-8.362-8.052h-2.684c0,5.391,4.294,9.844,9.473,10.607v5.18h3.161v-5.18
		c5.179-0.764,9.473-5.217,9.473-10.607H-222.078z"/>
	<path clip-path="url(#SVGID_10_)" fill="#FFFFFF" d="M-235.808,266.505l-2.669-9.51c-0.104-6.599-6.122-15.6-17.334-15.6
		c-10.154,0-15.977,6.17-15.977,16.928c0,3.444,1.551,6.517,2.921,9.227c0.996,1.973,1.937,3.836,1.937,5.279v7.611
		c0,1.882,1.779,3.661,3.661,3.661h12.591c2.301,0,3.971-1.695,3.971-4.029v-1.818c0-0.592,0.04-0.931,0.075-1.116h3.12
		c1.249,0,2.35-0.567,3.1-1.595c0.554-0.761,0.884-1.734,0.884-2.606v-4.868h2.534c0.385,0,0.749-0.18,0.982-0.487
		C-235.78,267.275-235.704,266.877-235.808,266.505 M-240.759,265.606c-0.68,0-1.231,0.552-1.231,1.231v6.1
		c0,0.271-0.281,1.738-1.522,1.738h-3.32c-2.338,0-2.338,2.509-2.338,3.579v1.818c0,0.757-0.396,1.566-1.508,1.566h-12.591
		c-0.495,0-1.198-0.62-1.198-1.198v-7.611c0-2.03-1.07-4.147-2.202-6.39c-1.306-2.585-2.656-5.259-2.656-8.116
		c0-4.293,1.057-7.85,3.057-10.285c2.278-2.773,5.796-4.18,10.457-4.18c10.51,0,14.873,8.67,14.873,13.312
		c0,0.112,0.015,0.225,0.046,0.332l2.274,8.104H-240.759z"/>
	<path clip-path="url(#SVGID_10_)" fill="#FFFFFF" d="M-248.278,249.61c0,0-0.814-1.924-2.977-2.39
		c-2.726-0.587-3.858,0.503-3.858,0.503s-1.561-1.259-3.522-0.597c-2.265,0.765-2.726,2.483-2.726,2.483s-2.918,0.129-4.361,3.271
		c-1.887,4.109,1.509,6.709,1.509,6.709s1.049,2.768,3.523,3.229c2.474,0.462,3.941-1.51,3.941-1.51s2.013,0.755,3.816-0.209
		c1.803-0.965,2.516-2.978,2.516-2.978s5.326,0.713,5.41-3.774C-244.924,249.862-248.278,249.61-248.278,249.61"/>
	<g clip-path="url(#SVGID_10_)">
		<path fill="#FFFFFF" d="M-232.584,352.638c0,0-3.697-7.494-12.899-7.799v0.01c-9.201,0.307-12.898,7.8-12.898,7.8
			s-4.558,8.504,3.44,16.292c7.916,7.708,9.428,19.756,9.458,20.003v0.001c0,0.002,0.001,0.011,0.001,0.011v-0.022
			c0.03-0.247,1.542-12.295,9.458-20.004C-228.025,361.141-232.584,352.638-232.584,352.638z M-245.511,366.128
			c-4.104,0-7.43-3.284-7.43-7.336c0-4.053,3.326-7.337,7.43-7.337c4.103,0,7.43,3.284,7.43,7.337
			C-238.081,362.844-241.408,366.128-245.511,366.128z"/>
	</g>
	<path clip-path="url(#SVGID_10_)" fill="#FFFFFF" d="M-224.999,393.578c0,6.919-9.302,12.528-20.778,12.528
		c-11.475,0-20.778-5.609-20.778-12.528c0-5.983,6.958-10.987,16.262-12.229c1.712,3.278,3.064,6.734,4.029,10.306l0.619,2.291
		l0.746-2.469c1.059-3.507,2.546-6.87,4.428-10.014C-231.566,382.876-224.999,387.766-224.999,393.578"/>
	<path clip-path="url(#SVGID_10_)" fill="#FFFFFF" d="M25.153,298.412v17.565v0.041v17.564v17.607c0,0.865,0.702,1.567,1.568,1.567
		h17.605c0.866,0,1.567-0.702,1.567-1.567v-17.607v-17.564v-0.041v-17.565c0-0.865-0.701-1.567-1.567-1.567H26.721
		C25.855,296.844,25.153,297.546,25.153,298.412 M42.76,349.623H28.288v-14.474H42.76V349.623z M42.76,332.016H28.288v-14.431H42.76
		V332.016z M42.76,314.41H28.288v-14.432H42.76V314.41z"/>
	<rect x="-0.822" y="318.852" clip-path="url(#SVGID_10_)" fill="#FFFFFF" width="14.816" height="14.816"/>
	<polygon clip-path="url(#SVGID_10_)" fill="#FFFFFF" points="13.994,311.661 -0.822,311.661 6.585,296.844 	"/>
	<path clip-path="url(#SVGID_10_)" fill="#FFFFFF" d="M6.585,353.867L6.585,353.867c-4.304,0-7.792-3.488-7.792-7.792
		s3.488-7.792,7.792-7.792c4.304,0,7.792,3.488,7.792,7.792S10.889,353.867,6.585,353.867"/>
	<polygon clip-path="url(#SVGID_10_)" fill="#FFFFFF" points="32.406,337.981 27.341,343.045 35.184,350.887 50.439,335.632 
		47.271,332.464 37.08,342.656 	"/>
</g>
</svg>
