<?xml version="1.0" encoding="utf-8"?>
<!-- Generator: Adobe Illustrator 16.0.3, SVG Export Plug-In . SVG Version: 6.00 Build 0)  -->
<!DOCTYPE svg PUBLIC "-//W3C//DTD SVG 1.1//EN" "http://www.w3.org/Graphics/SVG/1.1/DTD/svg11.dtd">
<svg version="1.1" id="Capa_1" xmlns="http://www.w3.org/2000/svg" xmlns:xlink="http://www.w3.org/1999/xlink" x="0px" y="0px"
	 width="39.76px" height="56.918px" viewBox="0 0 39.76 56.918" enable-background="new 0 0 39.76 56.918" xml:space="preserve">
<g>
	<defs>
		<rect id="SVGID_1_" x="-121.328" y="-79.03" width="792" height="612"/>
	</defs>
	<clipPath id="SVGID_2_">
		<use xlink:href="#SVGID_1_"  overflow="visible"/>
	</clipPath>
</g>
<text transform="matrix(1 0 0 1 67.9541 23.2202)" fill="#7C7C7C" font-family="'MyriadPro-Regular'" font-size="32.3118">Escuchar</text>
<text transform="matrix(1 0 0 1 67.9541 50.9116)"><tspan x="0" y="0" fill="#7C7C7C" font-family="'MyriadPro-Regular'" font-size="32.3118">y </tspan><tspan x="22.068" y="0" fill="#7C7C7C" font-family="'MyriadPro-Regular'" font-size="32.3118">R</tspan><tspan x="39.581" y="0" fill="#7C7C7C" font-family="'MyriadPro-Regular'" font-size="32.3118">epetir</tspan></text>
<text transform="matrix(1 0 0 1 67.9541 120.4463)"><tspan x="0" y="0" fill="#7C7C7C" font-family="'MyriadPro-Regular'" font-size="32.3118">M</tspan><tspan x="26.172" y="0" fill="#7C7C7C" font-family="'MyriadPro-Regular'" font-size="32.3118">emo</tspan><tspan x="87.047" y="0" fill="#7C7C7C" font-family="'MyriadPro-Regular'" font-size="32.3118">r</tspan><tspan x="97.742" y="0" fill="#7C7C7C" font-family="'MyriadPro-Regular'" font-size="32.3118">ia</tspan></text>
<text transform="matrix(1 0 0 1 67.9541 323.8496)"><tspan x="0" y="0" fill="#7C7C7C" font-family="'MyriadPro-Regular'" font-size="32.3118">M</tspan><tspan x="26.172" y="0" fill="#7C7C7C" font-family="'MyriadPro-Regular'" font-size="32.3118">emo</tspan><tspan x="87.047" y="0" fill="#7C7C7C" font-family="'MyriadPro-Regular'" font-size="32.3118">r</tspan><tspan x="97.742" y="0" fill="#7C7C7C" font-family="'MyriadPro-Regular'" font-size="32.3118">ia</tspan></text>
<text transform="matrix(1 0 0 1 67.9541 351.54)"><tspan x="0" y="0" fill="#7C7C7C" font-family="'MyriadPro-Regular'" font-size="32.3118">por</tspan><tspan x="46.69" y="0" fill="#7C7C7C" font-family="'MyriadPro-Regular'" font-size="32.3118" letter-spacing="-1"> </tspan><tspan x="52.409" y="0" fill="#7C7C7C" font-family="'MyriadPro-Regular'" font-size="32.3118" letter-spacing="-1">V</tspan><tspan x="69.372" y="0" fill="#7C7C7C" font-family="'MyriadPro-Regular'" font-size="32.3118">o</tspan><tspan x="86.917" y="0" fill="#7C7C7C" font-family="'MyriadPro-Regular'" font-size="32.3118">z</tspan></text>
<text transform="matrix(1 0 0 1 67.9541 428.5391)"><tspan x="0" y="0" fill="#7C7C7C" font-family="'MyriadPro-Regular'" font-size="32.3118">Di</tspan><tspan x="29.08" y="0" fill="#7C7C7C" font-family="'MyriadPro-Regular'" font-size="32.3118">r</tspan><tspan x="39.323" y="0" fill="#7C7C7C" font-family="'MyriadPro-Regular'" font-size="32.3118">e</tspan><tspan x="55.511" y="0" fill="#7C7C7C" font-family="'MyriadPro-Regular'" font-size="32.3118">c</tspan><tspan x="69.825" y="0" fill="#7C7C7C" font-family="'MyriadPro-Regular'" font-size="32.3118">cíon</tspan></text>
<text transform="matrix(1 0 0 1 67.9541 456.2305)" fill="#7C7C7C" font-family="'MyriadPro-Regular'" font-size="32.3118">o Ubicación</text>
<text transform="matrix(1 0 0 1 335.3022 400.1377)"><tspan x="0" y="0" fill="#7C7C7C" font-family="'MyriadPro-Regular'" font-size="32.3118">S</tspan><tspan x="16.123" y="0" fill="#7C7C7C" font-family="'MyriadPro-Regular'" font-size="32.3118">ele</tspan><tspan x="56.125" y="0" fill="#7C7C7C" font-family="'MyriadPro-Regular'" font-size="32.3118">c</tspan><tspan x="70.438" y="0" fill="#7C7C7C" font-family="'MyriadPro-Regular'" font-size="32.3118">cíon Simple</tspan></text>
<g>
	<defs>
		<rect id="SVGID_3_" x="-121.328" y="-79.03" width="792" height="612"/>
	</defs>
	<clipPath id="SVGID_4_">
		<use xlink:href="#SVGID_3_"  overflow="visible"/>
	</clipPath>
	<path clip-path="url(#SVGID_4_)" fill="#FFFFFF" d="M36.062,19.099v-4.093C36.062,6.719,28.53,0,19.238,0
		C9.947,0,2.415,6.719,2.415,15.006v4.093C0.967,19.613,0,20.983,0,22.519v4.622c0,1.936,1.52,3.531,3.453,3.625v0.405
		c0,0.388,0.314,0.702,0.701,0.702H7.23c0.388,0,0.702-0.314,0.702-0.702V18.174c0-0.387-0.314-0.701-0.702-0.701H5.518v-2.489
		c0-6.764,6.14-12.249,13.72-12.262c7.581,0.013,13.721,5.498,13.721,12.262v2.489h-1.712c-0.388,0-0.702,0.314-0.702,0.701v12.997
		c0,0.388,0.314,0.702,0.702,0.702h3.076c0.387,0,0.701-0.314,0.701-0.702v-0.405c1.934-0.094,3.453-1.689,3.453-3.625v-4.622
		C38.477,20.983,37.51,19.613,36.062,19.099z"/>
	<path clip-path="url(#SVGID_4_)" fill="#FFFFFF" d="M27.159,43.289c2.514,0,4.605-1.724,5.201-4.046H21.943
		C22.542,41.565,24.645,43.289,27.159,43.289"/>
	<rect x="21.767" y="33.847" clip-path="url(#SVGID_4_)" fill="#FFFFFF" width="10.775" height="2.698"/>
	<rect x="21.766" y="28.452" clip-path="url(#SVGID_4_)" fill="#FFFFFF" width="10.784" height="2.698"/>
	<path clip-path="url(#SVGID_4_)" fill="#FFFFFF" d="M27.159,21.708c-2.515,0-4.619,1.72-5.217,4.047h10.435
		C31.78,23.422,29.675,21.708,27.159,21.708"/>
	<path clip-path="url(#SVGID_4_)" fill="#FFFFFF" d="M36.701,38.929c-0.017,5.402-4.575,9.175-9.546,9.175
		c-4.962,0-9.528-3.773-9.528-9.175h-3.059c0,6.143,4.894,11.217,10.795,12.087v5.902h3.602v-5.902
		c5.901-0.87,10.795-5.944,10.795-12.087H36.701z"/>
	<path clip-path="url(#SVGID_4_)" fill="#FFFFFF" d="M43.089,129.597l-3.074-10.956c-0.121-7.602-7.054-17.973-19.971-17.973
		c-11.698,0-18.407,7.109-18.407,19.503c0,3.968,1.788,7.507,3.365,10.63c1.148,2.273,2.232,4.419,2.232,6.082v8.769
		c0,2.168,2.05,4.218,4.217,4.218h14.507c2.651,0,4.575-1.953,4.575-4.642v-2.095c0-0.682,0.045-1.072,0.087-1.286h3.594
		c1.438,0,2.707-0.653,3.571-1.839c0.638-0.875,1.019-1.996,1.019-3.001v-5.609h2.919c0.444,0,0.862-0.207,1.13-0.561
		C43.122,130.483,43.209,130.024,43.089,129.597 M37.385,128.561c-0.783,0-1.418,0.635-1.418,1.419v7.027
		c0,0.311-0.324,2.002-1.753,2.002h-3.826c-2.692,0-2.692,2.89-2.692,4.124v2.095c0,0.872-0.457,1.804-1.738,1.804H11.451
		c-0.569,0-1.379-0.714-1.379-1.38v-8.769c0-2.339-1.233-4.778-2.538-7.361c-1.504-2.979-3.06-6.059-3.06-9.351
		c0-4.945,1.219-9.043,3.523-11.85c2.624-3.195,6.677-4.815,12.047-4.815c12.109,0,17.135,9.989,17.135,15.336
		c0,0.13,0.018,0.259,0.053,0.383l2.619,9.336H37.385z"/>
	<path clip-path="url(#SVGID_4_)" fill="#FFFFFF" d="M28.723,110.132c0,0-0.937-2.217-3.43-2.754c-3.14-0.676-4.445,0.58-4.445,0.58
		s-1.798-1.451-4.058-0.688c-2.608,0.881-3.14,2.862-3.14,2.862s-3.362,0.148-5.024,3.768c-2.174,4.734,1.739,7.73,1.739,7.73
		s1.208,3.189,4.058,3.72c2.851,0.531,4.542-1.739,4.542-1.739s2.319,0.869,4.396-0.242c2.077-1.111,2.898-3.43,2.898-3.43
		s6.136,0.821,6.233-4.348C32.587,110.422,28.723,110.132,28.723,110.132"/>
</g>
<text transform="matrix(1 0 0 1 67.9541 240.0557)"><tspan x="0" y="0" fill="#7C7C7C" font-family="'MyriadPro-Regular'" font-size="32.3118">V</tspan><tspan x="17.545" y="0" fill="#7C7C7C" font-family="'MyriadPro-Regular'" font-size="32.3118">ideo</tspan></text>
<g>
	<defs>
		<rect id="SVGID_5_" x="-121.328" y="-79.03" width="792" height="612"/>
	</defs>
	<clipPath id="SVGID_6_">
		<use xlink:href="#SVGID_5_"  overflow="visible"/>
	</clipPath>
	<polygon clip-path="url(#SVGID_6_)" fill="#FFFFFF" points="0.184,247.118 11.697,247.118 11.697,252.959 28.245,252.959 
		28.245,247.118 32.908,247.118 32.908,227.153 0.184,227.153 	"/>
	<polygon clip-path="url(#SVGID_6_)" fill="#FFFFFF" points="35.881,232.796 35.881,240.96 47.165,244.114 47.165,229.853 	"/>
	<path clip-path="url(#SVGID_6_)" fill="#FFFFFF" d="M7.169,224.091c5.166,0,9.353-4.188,9.353-9.353s-4.187-9.353-9.353-9.353
		c-5.165,0-9.353,4.188-9.353,9.353S2.004,224.091,7.169,224.091 M7.169,212.107c1.454,0,2.631,1.178,2.631,2.631
		c0,1.453-1.177,2.632-2.631,2.632c-1.453,0-2.631-1.179-2.631-2.632C4.538,213.286,5.716,212.107,7.169,212.107"/>
	<path clip-path="url(#SVGID_6_)" fill="#FFFFFF" d="M27.237,205.386c-5.165,0-9.353,4.187-9.353,9.353
		c0,5.165,4.188,9.352,9.353,9.352c5.166,0,9.353-4.187,9.353-9.352C36.59,209.573,32.403,205.386,27.237,205.386 M27.237,217.37
		c-1.453,0-2.631-1.178-2.631-2.631c0-1.454,1.178-2.632,2.631-2.632c1.454,0,2.631,1.178,2.631,2.632
		C29.868,216.192,28.691,217.37,27.237,217.37"/>
	<path clip-path="url(#SVGID_6_)" fill="#C1366F" d="M318.691,117.645h-59.078c-3.613,0-6.569-2.957-6.569-6.569V54.787
		c0-3.613,2.956-6.569,6.569-6.569h59.078c3.613,0,6.569,2.956,6.569,6.569v56.289C325.26,114.688,322.304,117.645,318.691,117.645"
		/>
	<path clip-path="url(#SVGID_6_)" fill="#E94F88" d="M318.691,114.926h-59.078c-3.613,0-6.569-2.957-6.569-6.569V52.068
		c0-3.613,2.956-6.569,6.569-6.569h59.078c3.613,0,6.569,2.956,6.569,6.569v56.289C325.26,111.969,322.304,114.926,318.691,114.926"
		/>
	<path clip-path="url(#SVGID_6_)" fill="#C44D17" d="M319.364,215.834h-59.078c-3.613,0-6.569-2.956-6.569-6.569v-56.289
		c0-3.613,2.956-6.569,6.569-6.569h59.078c3.613,0,6.569,2.956,6.569,6.569v56.289C325.933,212.878,322.977,215.834,319.364,215.834
		"/>
	<path clip-path="url(#SVGID_6_)" fill="#ED7029" d="M319.469,212.918h-59.077c-3.613,0-6.569-2.956-6.569-6.569v-56.289
		c0-3.613,2.956-6.569,6.569-6.569h59.077c3.613,0,6.569,2.956,6.569,6.569v56.289C326.039,209.962,323.083,212.918,319.469,212.918
		"/>
</g>
<text transform="matrix(1 0 0 1 335.2896 76.7876)"><tspan x="0" y="0" fill="#7C7C7C" font-family="'MyriadPro-Regular'" font-size="32.3118">C</tspan><tspan x="18.417" y="0" fill="#7C7C7C" font-family="'MyriadPro-Regular'" font-size="32.3118">one</tspan><tspan x="70.277" y="0" fill="#7C7C7C" font-family="'MyriadPro-Regular'" font-size="32.3118">c</tspan><tspan x="85.141" y="0" fill="#7C7C7C" font-family="'MyriadPro-Regular'" font-size="32.3118">tar</tspan></text>
<text transform="matrix(1 0 0 1 335.2896 104.479)"><tspan x="0" y="0" fill="#7C7C7C" font-family="'MyriadPro-Regular'" font-size="32.3118">C</tspan><tspan x="18.417" y="0" fill="#7C7C7C" font-family="'MyriadPro-Regular'" font-size="32.3118">olumnas</tspan></text>
<text transform="matrix(1 0 0 1 335.2896 174.0137)"><tspan x="0" y="0" fill="#7C7C7C" font-family="'MyriadPro-Regular'" font-size="32.3118">O</tspan><tspan x="22.263" y="0" fill="#7C7C7C" font-family="'MyriadPro-Regular'" font-size="32.3118">r</tspan><tspan x="32.505" y="0" fill="#7C7C7C" font-family="'MyriadPro-Regular'" font-size="32.3118">dena </tspan></text>
<text transform="matrix(1 0 0 1 335.2896 201.7051)"><tspan x="0" y="0" fill="#7C7C7C" font-family="'MyriadPro-Regular'" font-size="32.3118">la </tspan><tspan x="30.049" y="0" fill="#7C7C7C" font-family="'MyriadPro-Regular'" font-size="32.3118">L</tspan><tspan x="44.88" y="0" fill="#7C7C7C" font-family="'MyriadPro-Regular'" font-size="32.3118">et</tspan><tspan x="71.763" y="0" fill="#7C7C7C" font-family="'MyriadPro-Regular'" font-size="32.3118">r</tspan><tspan x="82.199" y="0" fill="#7C7C7C" font-family="'MyriadPro-Regular'" font-size="32.3118">as</tspan></text>
<g>
	<defs>
		<rect id="SVGID_7_" x="-121.328" y="-79.03" width="792" height="612"/>
	</defs>
	<clipPath id="SVGID_8_">
		<use xlink:href="#SVGID_7_"  overflow="visible"/>
	</clipPath>
	<path clip-path="url(#SVGID_8_)" fill="#7271A7" d="M319.364,321.183h-59.078c-3.613,0-6.569-2.956-6.569-6.569v-56.289
		c0-3.613,2.956-6.569,6.569-6.569h59.078c3.613,0,6.569,2.956,6.569,6.569v56.289C325.933,318.227,322.977,321.183,319.364,321.183
		"/>
	<path clip-path="url(#SVGID_8_)" fill="#9491C6" d="M319.364,318.434h-59.078c-3.613,0-6.569-2.956-6.569-6.569v-56.288
		c0-3.613,2.956-6.569,6.569-6.569h59.078c3.613,0,6.569,2.956,6.569,6.569v56.288C325.933,315.478,322.977,318.434,319.364,318.434
		"/>
</g>
<text transform="matrix(1 0 0 1 335.2896 293.624)"><tspan x="0" y="0" fill="#7C7C7C" font-family="'MyriadPro-Regular'" font-size="32.3118">Esc</tspan><tspan x="43.168" y="0" fill="#7C7C7C" font-family="'MyriadPro-Regular'" font-size="32.3118">r</tspan><tspan x="53.831" y="0" fill="#7C7C7C" font-family="'MyriadPro-Regular'" font-size="32.3118">ibe la </tspan><tspan x="132.863" y="0" fill="#7C7C7C" font-family="'MyriadPro-Regular'" font-size="32.3118">P</tspan><tspan x="149.245" y="0" fill="#7C7C7C" font-family="'MyriadPro-Regular'" font-size="32.3118">alab</tspan><tspan x="206.404" y="0" fill="#7C7C7C" font-family="'MyriadPro-Regular'" font-size="32.3118">r</tspan><tspan x="216.841" y="0" fill="#7C7C7C" font-family="'MyriadPro-Regular'" font-size="32.3118">a</tspan></text>
<text transform="matrix(1 0 0 1 335.2896 321.3154)"><tspan x="0" y="0" fill="#7C7C7C" font-family="'MyriadPro-Regular'" font-size="32.3118">C</tspan><tspan x="18.417" y="0" fill="#7C7C7C" font-family="'MyriadPro-Regular'" font-size="32.3118">o</tspan><tspan x="36.156" y="0" fill="#7C7C7C" font-family="'MyriadPro-Regular'" font-size="32.3118">r</tspan><tspan x="46.819" y="0" fill="#7C7C7C" font-family="'MyriadPro-Regular'" font-size="32.3118">r</tspan><tspan x="57.094" y="0" fill="#7C7C7C" font-family="'MyriadPro-Regular'" font-size="32.3118">eta</tspan></text>
<g>
	<defs>
		<rect id="SVGID_9_" x="-121.328" y="-79.03" width="792" height="612"/>
	</defs>
	<clipPath id="SVGID_10_">
		<use xlink:href="#SVGID_9_"  overflow="visible"/>
	</clipPath>
	<path clip-path="url(#SVGID_10_)" fill="#FDFFFF" d="M279.21,95.591H270.6c-1.727,0-3.127,1.4-3.127,3.127
		c0,1.728,1.4,3.128,3.127,3.128h8.611c1.727,0,3.127-1.4,3.127-3.128C282.337,96.991,280.937,95.591,279.21,95.591"/>
	<path clip-path="url(#SVGID_10_)" fill="#FDFFFF" d="M309.958,72.506h-7.783c-0.851,0-1.62,0.342-2.184,0.893l-2.995-1.662
		l4.475-4.605c0.227,0.053,0.461,0.086,0.704,0.086h7.783c1.729,0,3.128-1.399,3.128-3.127c0-1.727-1.399-3.127-3.128-3.127h-7.783
		c-1.728,0-3.128,1.4-3.128,3.127c0,0.471,0.112,0.913,0.299,1.313l-4.82,4.962l-12.239-6.791c-0.247-1.48-1.525-2.611-3.075-2.611
		H270.6c-1.727,0-3.127,1.4-3.127,3.127c0,1.728,1.4,3.127,3.127,3.127h8.611c0.891,0,1.69-0.377,2.261-0.975l11.084,6.151
		l-7.274,7.488l-3.158-3.131c0.134-0.348,0.215-0.723,0.215-1.118c0-1.727-1.401-3.127-3.127-3.127H270.6
		c-1.727,0-3.127,1.4-3.127,3.127c0,1.728,1.4,3.128,3.127,3.128h8.611c0.319,0,0.622-0.062,0.913-0.151l3.256,3.229l-2.58,2.657
		c-0.468-0.278-1.007-0.448-1.589-0.448H270.6c-1.727,0-3.127,1.4-3.127,3.128c0,1.727,1.4,3.127,3.127,3.127h8.611
		c1.726,0,3.127-1.4,3.127-3.127c0-0.108-0.021-0.211-0.031-0.316l3.011-3.1l13.947,13.833c-0.136,0.35-0.218,0.727-0.218,1.125
		c0,1.727,1.4,3.128,3.128,3.128h7.783c1.729,0,3.128-1.401,3.128-3.128s-1.399-3.128-3.128-3.128h-7.783
		c-0.317,0-0.617,0.062-0.906,0.15l-14.051-13.936l7.81-8.039l4.059,2.252c0.191,1.544,1.493,2.744,3.089,2.744h7.783
		c1.729,0,3.128-1.4,3.128-3.128C313.085,73.906,311.686,72.506,309.958,72.506"/>
	<path clip-path="url(#SVGID_10_)" fill="#FDFFFF" d="M309.958,84.048h-7.783c-1.728,0-3.128,1.4-3.128,3.128
		c0,1.727,1.4,3.127,3.128,3.127h7.783c1.729,0,3.128-1.4,3.128-3.127C313.085,85.448,311.686,84.048,309.958,84.048"/>
	<path clip-path="url(#SVGID_10_)" fill="#FFFFFF" d="M316.32,182.762h-17.564h-0.042h-17.564h-17.606
		c-0.866,0-1.568,0.702-1.568,1.567v17.607c0,0.866,0.702,1.568,1.568,1.568h17.606h17.564h0.042h17.564
		c0.865,0,1.567-0.702,1.567-1.568v-17.607C317.887,183.464,317.185,182.762,316.32,182.762 M279.582,200.369h-14.473v-14.472
		h14.473V200.369z M297.146,200.369h-14.43v-14.472h14.43V200.369z M314.752,200.369h-14.431v-14.472h14.431V200.369z"/>
	<path clip-path="url(#SVGID_10_)" fill="#FFFFFF" d="M269.438,173.697h4.167v-7.729c0-0.384,0.054-0.795,0.164-1.042
		c0.274-0.768,0.958-1.562,2.11-1.562c1.508,0,2.111,1.179,2.111,2.905v7.428h4.166v-7.949c0-3.947-2.056-5.756-4.797-5.756
		c-2.22,0-3.59,1.289-4.138,2.139h-0.082l-0.192-1.837h-3.618c0.054,1.178,0.109,2.603,0.109,4.276V173.697z"/>
	<path clip-path="url(#SVGID_10_)" fill="#FFFFFF" d="M303.453,197.5h2.679v-4.969c0-0.247,0.035-0.511,0.105-0.67
		c0.177-0.493,0.617-1.004,1.356-1.004c0.97,0,1.357,0.758,1.357,1.868v4.775h2.678v-5.11c0-2.537-1.321-3.701-3.083-3.701
		c-1.428,0-2.309,0.829-2.661,1.375h-0.053l-0.123-1.181h-2.326c0.035,0.758,0.07,1.674,0.07,2.749V197.5z"/>
	<path clip-path="url(#SVGID_10_)" fill="#FFFFFF" d="M289.198,171.066c-1.233,0-2.823-0.549-3.591-1.015l-0.74,2.988
		c1.015,0.548,2.576,0.932,4.331,0.932c3.837,0,5.811-1.837,5.811-4.331c-0.027-1.973-1.097-3.261-3.646-4.138
		c-1.644-0.576-2.165-0.905-2.165-1.536c0-0.685,0.575-1.096,1.59-1.096c1.15,0,2.302,0.439,2.905,0.768l0.739-2.878
		c-0.822-0.412-2.22-0.768-3.782-0.768c-3.316,0-5.454,1.892-5.454,4.386c-0.027,1.589,1.041,3.097,3.81,4.029
		c1.563,0.52,1.974,0.85,1.974,1.534C290.979,170.627,290.458,171.066,289.198,171.066"/>
	<path clip-path="url(#SVGID_10_)" fill="#FFFFFF" d="M272.01,195.64c-0.793,0-1.814-0.353-2.308-0.652l-0.476,1.921
		c0.652,0.352,1.657,0.599,2.784,0.599c2.467,0,3.735-1.181,3.735-2.785c-0.018-1.268-0.704-2.096-2.343-2.66
		c-1.057-0.37-1.392-0.581-1.392-0.987c0-0.44,0.37-0.705,1.022-0.705c0.74,0,1.48,0.282,1.868,0.494l0.477-1.85
		c-0.529-0.265-1.428-0.494-2.432-0.494c-2.132,0-3.506,1.216-3.506,2.82c-0.018,1.021,0.669,1.99,2.449,2.59
		c1.004,0.334,1.269,0.546,1.269,0.986C273.156,195.357,272.821,195.64,272.01,195.64"/>
	<path clip-path="url(#SVGID_10_)" fill="#FFFFFF" d="M302.447,173.999c2.411,0,3.673-1.371,4.193-2.192h0.082l0.192,1.891h3.617
		c-0.055-1.124-0.109-2.549-0.109-4.303v-9.101h-4.193v7.976c0,0.33-0.027,0.658-0.137,0.905c-0.274,0.658-0.933,1.453-2.084,1.453
		c-1.452,0-2.083-1.179-2.083-3.125v-7.209h-4.193v7.867C297.732,172.3,299.733,173.999,302.447,173.999"/>
	<path clip-path="url(#SVGID_10_)" fill="#FFFFFF" d="M288.684,197.507c1.551,0,2.361-0.881,2.696-1.409h0.053l0.123,1.215h2.326
		c-0.035-0.723-0.07-1.639-0.07-2.766v-5.85h-2.696v5.127c0,0.212-0.018,0.423-0.088,0.582c-0.177,0.423-0.6,0.934-1.34,0.934
		c-0.934,0-1.339-0.758-1.339-2.009v-4.634h-2.696v5.057C285.653,196.416,286.94,197.507,288.684,197.507"/>
	<path clip-path="url(#SVGID_10_)" fill="#05806A" d="M319.364,422.943h-59.078c-3.613,0-6.569-2.957-6.569-6.569v-56.289
		c0-3.613,2.956-6.569,6.569-6.569h59.078c3.613,0,6.569,2.956,6.569,6.569v56.289C325.933,419.986,322.977,422.943,319.364,422.943
		"/>
	<path clip-path="url(#SVGID_10_)" fill="#00AC92" d="M319.355,421.034h-59.077c-3.613,0-6.569-2.957-6.569-6.569v-56.289
		c0-3.613,2.956-6.569,6.569-6.569h59.077c3.613,0,6.569,2.956,6.569,6.569v56.289C325.924,418.077,322.968,421.034,319.355,421.034
		"/>
	<path clip-path="url(#SVGID_10_)" fill="#FFFFFF" d="M310.926,266.563l-3.941-3.942c-2.718-2.717-7.139-2.718-9.856,0l-3.745,3.745
		l-21.901,21.903c-0.005,0.004-0.007,0.009-0.011,0.014c-0.084,0.086-0.156,0.184-0.218,0.289c-0.015,0.027-0.028,0.055-0.042,0.081
		c-0.044,0.087-0.079,0.179-0.106,0.276c-0.007,0.026-0.017,0.052-0.023,0.078c-0.003,0.014-0.009,0.025-0.011,0.038l-2.575,13.621
		l-1.513,1.512c-0.402,0.402-0.402,1.055,0,1.456l0.923,0.924c0.402,0.402,1.055,0.402,1.457,0l1.501-1.502l13.64-2.579
		c0.001,0,0.003-0.001,0.004-0.001c0.029-0.006,0.058-0.017,0.087-0.024c0.062-0.017,0.123-0.032,0.183-0.056
		c0.03-0.012,0.059-0.028,0.088-0.043c0.055-0.026,0.109-0.052,0.159-0.084c0.029-0.019,0.057-0.042,0.085-0.063
		c0.048-0.035,0.094-0.071,0.137-0.112c0.011-0.009,0.023-0.017,0.033-0.027l21.903-21.903l3.744-3.744
		c1.317-1.317,2.041-3.066,2.041-4.929C312.967,269.629,312.244,267.88,310.926,266.563 M285.565,296.013
		c-0.021-0.717-0.551-1.315-1.259-1.426l-4.51-0.705l-0.226-3.903c-0.041-0.712-0.582-1.295-1.289-1.39l-2.566-0.344l14.479-14.48
		l9.588,9.587l-14.172,14.173L285.565,296.013z M271.676,301.872l2.059-10.888l2.935,0.393l0.225,3.877
		c0.04,0.699,0.563,1.276,1.256,1.385l4.476,0.699l0.074,2.449L271.676,301.872z M308.822,274.313l-2.692,2.691l-9.587-9.587
		l2.691-2.692c1.556-1.555,4.089-1.557,5.646,0l3.942,3.942C310.377,270.225,310.377,272.757,308.822,274.313"/>
	<path clip-path="url(#SVGID_10_)" fill="#FFFFFF" d="M37.022,348.534c2.206,0,4.041-1.513,4.563-3.551h-9.141
		C32.97,347.021,34.815,348.534,37.022,348.534"/>
	<rect x="32.289" y="340.248" clip-path="url(#SVGID_10_)" fill="#FFFFFF" width="9.456" height="2.368"/>
	<rect x="32.289" y="335.514" clip-path="url(#SVGID_10_)" fill="#FFFFFF" width="9.464" height="2.367"/>
	<path clip-path="url(#SVGID_10_)" fill="#FFFFFF" d="M37.022,329.595c-2.207,0-4.054,1.51-4.579,3.552h9.158
		C41.077,331.1,39.23,329.595,37.022,329.595"/>
	<path clip-path="url(#SVGID_10_)" fill="#FFFFFF" d="M45.395,344.708c-0.015,4.74-4.015,8.052-8.377,8.052
		c-4.355,0-8.362-3.312-8.362-8.052h-2.684c0,5.391,4.294,9.844,9.473,10.607v5.18h3.161v-5.18
		c5.179-0.764,9.473-5.217,9.473-10.607H45.395z"/>
	<path clip-path="url(#SVGID_10_)" fill="#FFFFFF" d="M31.665,327.47l-2.669-9.51c-0.104-6.599-6.122-15.6-17.334-15.6
		c-10.154,0-15.977,6.17-15.977,16.928c0,3.444,1.551,6.517,2.921,9.227c0.996,1.973,1.937,3.836,1.937,5.279v7.611
		c0,1.882,1.779,3.661,3.661,3.661h12.591c2.301,0,3.971-1.695,3.971-4.029v-1.818c0-0.592,0.04-0.931,0.075-1.116h3.12
		c1.249,0,2.35-0.567,3.1-1.595c0.554-0.761,0.884-1.734,0.884-2.606v-4.868h2.534c0.385,0,0.749-0.18,0.982-0.487
		C31.692,328.239,31.769,327.842,31.665,327.47 M26.713,326.57c-0.68,0-1.231,0.552-1.231,1.231v6.1
		c0,0.271-0.281,1.738-1.522,1.738h-3.32c-2.338,0-2.338,2.509-2.338,3.579v1.818c0,0.757-0.396,1.566-1.508,1.566H4.203
		c-0.495,0-1.198-0.62-1.198-1.198v-7.611c0-2.03-1.07-4.147-2.202-6.39c-1.306-2.585-2.656-5.259-2.656-8.116
		c0-4.293,1.057-7.85,3.057-10.285c2.278-2.773,5.796-4.18,10.457-4.18c10.51,0,14.873,8.67,14.873,13.312
		c0,0.112,0.015,0.225,0.046,0.332l2.274,8.104H26.713z"/>
	<path clip-path="url(#SVGID_10_)" fill="#FFFFFF" d="M19.194,310.574c0,0-0.814-1.924-2.977-2.39
		c-2.726-0.587-3.858,0.503-3.858,0.503s-1.561-1.259-3.522-0.597c-2.265,0.765-2.726,2.483-2.726,2.483s-2.918,0.129-4.361,3.271
		c-1.887,4.109,1.509,6.709,1.509,6.709s1.049,2.768,3.523,3.229c2.474,0.462,3.941-1.51,3.941-1.51s2.013,0.755,3.816-0.209
		c1.803-0.965,2.516-2.978,2.516-2.978s5.326,0.713,5.41-3.774C22.548,310.826,19.194,310.574,19.194,310.574"/>
	<g clip-path="url(#SVGID_10_)">
		<path fill="#FFFFFF" d="M34.889,413.603c0,0-3.697-7.494-12.899-7.799v0.01c-9.201,0.307-12.898,7.8-12.898,7.8
			s-4.558,8.504,3.44,16.292c7.916,7.708,9.428,19.756,9.458,20.003v0.001c0,0.002,0.001,0.011,0.001,0.011v-0.022
			c0.03-0.247,1.542-12.295,9.458-20.004C39.448,422.105,34.889,413.603,34.889,413.603z M21.962,427.093
			c-4.104,0-7.43-3.284-7.43-7.336c0-4.053,3.326-7.337,7.43-7.337c4.103,0,7.43,3.284,7.43,7.337
			C29.392,423.809,26.065,427.093,21.962,427.093z"/>
	</g>
	<path clip-path="url(#SVGID_10_)" fill="#FFFFFF" d="M42.474,454.542c0,6.919-9.302,12.528-20.778,12.528
		c-11.475,0-20.778-5.609-20.778-12.528c0-5.983,6.958-10.987,16.262-12.229c1.712,3.278,3.064,6.734,4.029,10.306l0.619,2.291
		l0.746-2.469c1.059-3.507,2.546-6.87,4.428-10.014C35.907,443.841,42.474,448.73,42.474,454.542"/>
	<path clip-path="url(#SVGID_10_)" fill="#FFFFFF" d="M292.625,359.376v17.565v0.041v17.564v17.607c0,0.865,0.702,1.567,1.568,1.567
		h17.605c0.866,0,1.567-0.702,1.567-1.567v-17.607v-17.564v-0.041v-17.565c0-0.865-0.701-1.567-1.567-1.567h-17.605
		C293.328,357.809,292.625,358.511,292.625,359.376 M310.233,410.587H295.76v-14.474h14.473V410.587z M310.233,392.98H295.76V378.55
		h14.473V392.98z M310.233,375.374H295.76v-14.432h14.473V375.374z"/>
	<rect x="266.65" y="379.816" clip-path="url(#SVGID_10_)" fill="#FFFFFF" width="14.816" height="14.816"/>
	<polygon clip-path="url(#SVGID_10_)" fill="#FFFFFF" points="281.466,372.625 266.65,372.625 274.058,357.809 	"/>
	<path clip-path="url(#SVGID_10_)" fill="#FFFFFF" d="M274.058,414.831L274.058,414.831c-4.304,0-7.792-3.488-7.792-7.792
		s3.488-7.792,7.792-7.792c4.304,0,7.792,3.488,7.792,7.792S278.362,414.831,274.058,414.831"/>
	<polygon clip-path="url(#SVGID_10_)" fill="#FFFFFF" points="299.878,398.945 294.814,404.01 302.657,411.852 317.912,396.597 
		314.744,393.429 304.552,403.62 	"/>
</g>
</svg>
