<?xml version="1.0" encoding="utf-8"?>
<!-- Generator: Adobe Illustrator 16.0.3, SVG Export Plug-In . SVG Version: 6.00 Build 0)  -->
<!DOCTYPE svg PUBLIC "-//W3C//DTD SVG 1.1//EN" "http://www.w3.org/Graphics/SVG/1.1/DTD/svg11.dtd">
<svg version="1.1" id="Capa_1" xmlns="http://www.w3.org/2000/svg" xmlns:xlink="http://www.w3.org/1999/xlink" x="0px" y="0px"
	 width="27.154px" height="27.154px" viewBox="0 0 27.154 27.154" enable-background="new 0 0 27.154 27.154" xml:space="preserve">
<g>
	<g>
		<defs>
			<rect id="SVGID_1_" x="-240.65" y="-317.452" width="792" height="612"/>
		</defs>
		<clipPath id="SVGID_2_">
			<use xlink:href="#SVGID_1_"  overflow="visible"/>
		</clipPath>
		<path clip-path="url(#SVGID_2_)" fill="#FFD900" d="M-2.849-42.315c0,7.499-6.079,13.577-13.577,13.577
			c-7.499,0-13.578-6.078-13.578-13.577s6.079-13.577,13.578-13.577C-8.928-55.892-2.849-49.814-2.849-42.315"/>
		<path clip-path="url(#SVGID_2_)" fill="#FFD900" d="M27.154-42.315c0,7.499-6.078,13.577-13.577,13.577
			C6.079-28.738,0-34.816,0-42.315s6.079-13.577,13.577-13.577C21.076-55.892,27.154-49.814,27.154-42.315"/>
		<path clip-path="url(#SVGID_2_)" fill="#BFE10E" d="M-2.849-14.369c0,7.499-6.079,13.577-13.577,13.577
			c-7.499,0-13.578-6.078-13.578-13.577c0-7.499,6.079-13.578,13.578-13.578C-8.928-27.947-2.849-21.868-2.849-14.369"/>
		<path clip-path="url(#SVGID_2_)" fill="#BFE10E" d="M27.154-14.369c0,7.499-6.078,13.577-13.577,13.577
			C6.079-0.792,0-6.87,0-14.369c0-7.499,6.079-13.578,13.577-13.578C21.076-27.947,27.154-21.868,27.154-14.369"/>
		<path clip-path="url(#SVGID_2_)" fill="#F0047F" d="M-2.849,13.577c0,7.499-6.079,13.577-13.577,13.577
			c-7.499,0-13.578-6.078-13.578-13.577S-23.925,0-16.426,0C-8.928,0-2.849,6.078-2.849,13.577"/>
		<path clip-path="url(#SVGID_2_)" fill="#F0047F" d="M27.154,13.577c0,7.499-6.078,13.577-13.577,13.577
			C6.079,27.154,0,21.076,0,13.577S6.079,0,13.577,0C21.076,0,27.154,6.078,27.154,13.577"/>
		<path clip-path="url(#SVGID_2_)" fill="#0A51A1" d="M-2.849,41.522c0,7.499-6.079,13.578-13.577,13.578
			c-7.499,0-13.578-6.079-13.578-13.578c0-7.498,6.079-13.576,13.578-13.576C-8.928,27.946-2.849,34.024-2.849,41.522"/>
		<path clip-path="url(#SVGID_2_)" fill="#0A51A1" d="M27.154,41.522c0,7.499-6.078,13.578-13.577,13.578
			C6.079,55.101,0,49.021,0,41.522c0-7.498,6.079-13.576,13.577-13.576C21.076,27.946,27.154,34.024,27.154,41.522"/>
		<path clip-path="url(#SVGID_2_)" fill="#FF8C00" d="M-2.849,69.47c0,7.498-6.079,13.576-13.577,13.576
			c-7.499,0-13.578-6.078-13.578-13.576c0-7.499,6.079-13.577,13.578-13.577C-8.928,55.893-2.849,61.971-2.849,69.47"/>
		<path clip-path="url(#SVGID_2_)" fill="#FF8C00" d="M27.154,69.47c0,7.498-6.078,13.576-13.577,13.576
			C6.079,83.046,0,76.968,0,69.47c0-7.499,6.079-13.577,13.577-13.577C21.076,55.893,27.154,61.971,27.154,69.47"/>
		<path clip-path="url(#SVGID_2_)" fill="#DE9865" d="M-23.963-16.202c0.526,1.637,1.605,1.498,1.605,1.498l-0.745-3.347
			C-23.104-18.051-24.49-17.836-23.963-16.202"/>
		<path clip-path="url(#SVGID_2_)" fill="#DE9865" d="M-9.713-18.05l-0.745,3.346c0,0,1.079,0.139,1.605-1.497
			C-8.326-17.837-9.713-18.05-9.713-18.05"/>
		<rect x="-17.659" y="-10.54" clip-path="url(#SVGID_2_)" fill="#DE9865" width="2.533" height="2.528"/>
		<polygon clip-path="url(#SVGID_2_)" fill="#010103" points="-23.531,-7.23 -10.362,-7.23 -8.923,-18.395 -24.098,-18.699 		"/>
		<rect x="-17.645" y="-10.502" clip-path="url(#SVGID_2_)" fill="#DE9865" width="2.441" height="2.573"/>
		<path clip-path="url(#SVGID_2_)" fill="#E4AA7F" d="M-16.421-25.818c-3.825,0-6.927,3.096-6.927,6.914
			c0,3.817,0.742,9.629,6.927,9.629c6.825,0,6.927-5.813,6.927-9.629C-9.495-22.722-12.596-25.818-16.421-25.818"/>
		<path clip-path="url(#SVGID_2_)" fill="#DE9865" d="M-23.348-18.904c0,3.817,0.742,9.629,6.927,9.629v-16.543
			C-20.245-25.818-23.348-22.722-23.348-18.904"/>
		<path clip-path="url(#SVGID_2_)" fill="#E4AA7F" d="M-14.634-8.029h-1.824v3.92h7.2C-9.258-7.328-14.634-8.029-14.634-8.029"/>
		<path clip-path="url(#SVGID_2_)" fill="#DE9865" d="M-23.587-4.11h7.199v-3.92h-1.824C-18.212-8.03-23.587-7.328-23.587-4.11"/>
		<path clip-path="url(#SVGID_2_)" fill="#D7D3CC" d="M-17.863-8.104c0,0-3.75,0.307-2.878,0.35
			c0.872,0.044,0.654,3.644,0.654,3.644h3.707V-6.14C-18.342-6.053-17.863-8.104-17.863-8.104"/>
		<path clip-path="url(#SVGID_2_)" fill="#E9E7E5" d="M-14.897-8.104c0,0,0.479,2.051-1.483,1.964v2.029h3.706
			c0,0-0.218-3.6,0.655-3.644C-11.147-7.797-14.897-8.104-14.897-8.104"/>
		<path clip-path="url(#SVGID_2_)" fill="#010103" d="M-24.883-17.347c0.523,2.66,1.221,3.226-0.437,4.884
			c-1.656,1.657-2.703,5.625,2.4,6.497c4.995,0.854,4.403-3.619,4.403-3.619s-0.479,0.654-1.962-0.741
			c-1.483-1.396-2.703-3.533-2.398-7.937c0.306-4.405,6.456-3.489,6.456-3.489v-4.066C-23.089-26.264-25.406-20.007-24.883-17.347"
			/>
		<path clip-path="url(#SVGID_2_)" fill="#1A1719" d="M-7.971-17.347c0.523-2.66-1.792-8.917-8.462-8.471v4.066
			c0,0,6.151-0.916,6.457,3.489c0.305,4.404-0.916,6.541-2.399,7.937c-1.483,1.396-1.962,0.741-1.962,0.741s-0.59,4.473,4.405,3.619
			c5.102-0.872,4.056-4.84,2.398-6.497C-9.191-14.121-8.493-14.687-7.971-17.347"/>
		<path clip-path="url(#SVGID_2_)" fill="#010103" d="M-23.348-17.291c0,0,5.268-0.493,6.969-0.406v-6.846
			C-16.379-24.543-23.905-24.167-23.348-17.291"/>
		<path clip-path="url(#SVGID_2_)" fill="#1A1719" d="M-16.444-24.543v6.847c1.701-0.087,6.969,0.405,6.969,0.405
			C-8.918-24.167-16.444-24.543-16.444-24.543"/>
		<rect x="-17.383" y="-15.473" clip-path="url(#SVGID_2_)" fill="#010103" width="1.004" height="0.61"/>
		<rect x="-16.401" y="-15.473" clip-path="url(#SVGID_2_)" fill="#1A1719" width="1.003" height="0.61"/>
		<path clip-path="url(#SVGID_2_)" fill="#010103" d="M-21.787-15.211c-0.176,0.611,0.218,2.792,2.181,3.054
			c2.366,0.315,2.659-3.228,2.659-3.228C-19.781-17.086-21.787-15.211-21.787-15.211"/>
		<path clip-path="url(#SVGID_2_)" fill="#1A1719" d="M-15.829-15.429c0,0,0.295,3.542,2.661,3.227
			c1.962-0.261,2.355-2.442,2.18-3.053C-10.988-15.255-12.994-17.13-15.829-15.429"/>
		<path clip-path="url(#SVGID_2_)" fill="#DE9865" d="M5.853,68.298c0.537,1.673,1.639,1.531,1.639,1.531l-0.761-3.422
			C6.731,66.407,5.316,66.626,5.853,68.298"/>
		<path clip-path="url(#SVGID_2_)" fill="#DE9865" d="M20.503,66.407l-0.76,3.422c0,0,1.101,0.142,1.639-1.531
			C21.919,66.626,20.503,66.407,20.503,66.407"/>
		<rect x="12.289" y="74.089" clip-path="url(#SVGID_2_)" fill="#DE9865" width="2.585" height="2.584"/>
		<path clip-path="url(#SVGID_2_)" fill="#E4AA7F" d="M13.551,58.463c-3.905,0-7.07,3.166-7.07,7.07c0,3.906,1.969,9.851,7.07,9.851
			c5.862,0,7.07-5.944,7.07-9.851C20.621,61.629,17.456,58.463,13.551,58.463"/>
		<path clip-path="url(#SVGID_2_)" fill="#DE9865" d="M6.482,65.533c0,3.905,1.598,9.851,7.07,9.851v-16.92
			C9.648,58.464,6.482,61.629,6.482,65.533"/>
		<path clip-path="url(#SVGID_2_)" fill="#D7D3CC" d="M15.455,76.673h-3.56c-5.301,0.685-5.613,4.009-5.613,4.009h14.637
			C20.918,77.391,15.455,76.673,15.455,76.673"/>
		<path clip-path="url(#SVGID_2_)" fill="#F5E4D7" d="M15.573,76.673h-1.861v4.009h7.348C21.06,77.391,15.573,76.673,15.573,76.673"
			/>
		<path clip-path="url(#SVGID_2_)" fill="#010103" d="M12.082,67.751H8.287c-0.483,0-0.874,0.337-0.874,0.75
			c0,0,0.479,2.765,2.779,2.765c2.301,0,2.764-2.765,2.764-2.765C12.956,68.088,12.564,67.751,12.082,67.751"/>
		<path clip-path="url(#SVGID_2_)" fill="#1A1719" d="M18.986,67.751h-3.794c-0.483,0-0.875,0.337-0.875,0.75
			c0,0,0.464,2.765,2.764,2.765c2.301,0,2.78-2.765,2.78-2.765C19.861,68.088,19.47,67.751,18.986,67.751"/>
		<path clip-path="url(#SVGID_2_)" fill="#010103" d="M12.337,68.655c0,0.189,0.152,0.342,0.342,0.342h0.974v-0.684h-0.974
			C12.489,68.313,12.337,68.467,12.337,68.655"/>
		<path clip-path="url(#SVGID_2_)" fill="#1A1719" d="M14.581,68.313h-0.927v0.684h0.927c0.188,0,0.342-0.152,0.342-0.342
			C14.922,68.467,14.769,68.313,14.581,68.313"/>
		<path clip-path="url(#SVGID_2_)" fill="#DE9865" d="M13.405,76.537v2.48c0.169,0.146,0.169,0.192,0.169,0.192l0.168-0.168
			l-0.048-2.505H13.405z"/>
		<path clip-path="url(#SVGID_2_)" fill="#E4AA7F" d="M13.577,76.539l0.004,2.671c0,0,3.321-0.636,3.32-2.218
			C16.9,76.992,16.076,76.483,13.577,76.539"/>
		<path clip-path="url(#SVGID_2_)" fill="#DE9865" d="M10.253,76.992c-0.002,1.582,3.32,2.218,3.32,2.218l0.003-2.671
			C11.079,76.483,10.253,76.992,10.253,76.992"/>
		<path clip-path="url(#SVGID_2_)" fill="#010103" d="M12.956,57.746l-1.487-0.987l-0.917,1.705l-1.871-1.423
			c-0.284,0.44-0.707,2.472-0.707,2.472c-0.565-0.283-1.978-0.495-1.978-0.495l0.286,3.143l-0.991-0.313
			c0.07,1.487,1.243,4.559,1.243,4.559s1.094-2.021,0.879-3.293c-0.216-1.271,3.78-0.988,6.16-0.177l0.898-2.471l-0.89-3.707
			L12.956,57.746z"/>
		<path clip-path="url(#SVGID_2_)" fill="#1A1719" d="M21.157,59.018c0,0-1.411,0.212-1.977,0.494c0,0-0.423-2.029-0.706-2.472
			l-1.871,1.423l-0.919-1.704l-1.486,0.988l-0.617-0.988v0.529v5.649c2.38-0.813,6.376-1.096,6.161,0.176
			c-0.215,1.271,0.878,3.294,0.878,3.294s1.173-3.072,1.243-4.561l-0.991,0.314L21.157,59.018z"/>
		<path clip-path="url(#SVGID_2_)" fill="#FBAD4B" d="M23.174,41.066c-1.923-1.406-1.968-3.749-1.968-3.749
			c0.377-4.59-7.701-2.668-7.701-2.668v11.662h9.764c1.781-1.265-0.986-2.201-0.095-2.201C24.066,44.11,25.097,42.471,23.174,41.066
			"/>
		<path clip-path="url(#SVGID_2_)" fill="#FD9B28" d="M5.948,37.317c0,0-0.046,2.343-1.969,3.749c-1.923,1.404-0.89,3.043,0,3.043
			c0.891,0-1.876,0.938-0.094,2.203h9.764V34.649C13.649,34.649,5.57,32.728,5.948,37.317"/>
		<path clip-path="url(#SVGID_2_)" fill="#DD9964" d="M5.441,39.758c0.576,1.792,1.757,1.64,1.757,1.64l-0.816-3.666
			C6.382,37.731,4.864,37.965,5.441,39.758"/>
		<path clip-path="url(#SVGID_2_)" fill="#DD9964" d="M20.914,37.743l-0.801,3.596c0,0,1.159,0.149,1.725-1.608
			C22.402,37.972,20.914,37.743,20.914,37.743"/>
		<rect x="12.267" y="45.814" clip-path="url(#SVGID_2_)" fill="#DD9964" width="2.722" height="2.718"/>
		<path clip-path="url(#SVGID_2_)" fill="#E4A97F" d="M13.597,29.395c-4.109,0-7.44,3.327-7.44,7.431s2.073,10.471,7.44,10.35
			c7.502-0.166,7.439-6.246,7.439-10.35S17.705,29.395,13.597,29.395"/>
		<path clip-path="url(#SVGID_2_)" fill="#DD9964" d="M6.158,36.825c0,4.104-0.21,9.867,7.44,10.35v-17.78
			C9.489,29.395,6.158,32.722,6.158,36.825"/>
		<path clip-path="url(#SVGID_2_)" fill="#DD9964" d="M6.146,52.689h7.464v-4.212h-1.691C11.919,48.478,6.146,49.231,6.146,52.689"
			/>
		<path clip-path="url(#SVGID_2_)" fill="#E4A97F" d="M15.266,48.478h-1.69v4.212h7.463C21.039,49.231,15.266,48.478,15.266,48.478"
			/>
		<path clip-path="url(#SVGID_2_)" fill="#680008" d="M10.748,48.436c-0.187,0.037-0.483,0.125-0.483,0.125
			c-0.376,0.363-2.633,4.071-2.633,4.071h5.684v-1.064C9.785,51.454,10.748,48.436,10.748,48.436"/>
		<path clip-path="url(#SVGID_2_)" fill="#AF090F" d="M16.196,48.583c0,0,0.907,3.019-2.624,3.132v1.063h5.739
			c0,0-2.256-3.709-2.633-4.07C16.678,48.708,16.383,48.619,16.196,48.583"/>
		<path clip-path="url(#SVGID_2_)" fill="#FD9B28" d="M10.125,36.672c0,0,1.477,0.51,3.473,1.107l-0.035-2.108
			C12,35.767,10.655,36.052,10.125,36.672"/>
		<path clip-path="url(#SVGID_2_)" fill="#FBAD4B" d="M20.771,36.194c-0.371-0.186-4.195-0.707-7.207-0.523l0.034,2.108
			c2.359,0.706,5.444,1.533,7.682,1.787C21.28,39.566,21.333,36.475,20.771,36.194"/>
		<path clip-path="url(#SVGID_2_)" fill="#680008" d="M5.948,37.317c0,0,2.935-0.795,7.706-0.795v-7.496
			C13.654,29.026,4.539,28.605,5.948,37.317"/>
		<path clip-path="url(#SVGID_2_)" fill="#AF090F" d="M13.564,29.026v7.495c4.771,0,7.706,0.796,7.706,0.796
			C22.679,28.605,13.564,29.026,13.564,29.026"/>
		<path clip-path="url(#SVGID_2_)" fill="#680008" d="M5.659,36.101C5.65,36.112,5.307,36.17,5.31,36.725
			c0.005,0.957,1.304,0.441,1.304,0.441l1.656-1.861H5.8C5.227,35.586,5.8,35.89,5.659,36.101"/>
		<path clip-path="url(#SVGID_2_)" fill="#AF090F" d="M21.476,36.101c-0.141-0.211,0.431-0.515-0.141-0.796h-2.469l1.655,1.861
			c0,0,1.299,0.516,1.304-0.441C21.828,36.17,21.485,36.112,21.476,36.101"/>
		<path clip-path="url(#SVGID_2_)" fill="#010103" d="M5.948,52.745l7.673,0.033v-1.58c-3.316,0.026-6.184-0.935-6.184-0.935
			C6.02,51.17,5.948,52.745,5.948,52.745"/>
		<path clip-path="url(#SVGID_2_)" fill="#1A1719" d="M19.769,50.263c0,0-2.868,0.963-6.184,0.937v1.58l7.674-0.035
			C21.259,52.744,21.187,51.169,19.769,50.263"/>
		<rect x="12.078" y="18.196" clip-path="url(#SVGID_2_)" fill="#DD9964" width="2.559" height="2.558"/>
		<path clip-path="url(#SVGID_2_)" fill="#E8E6E4" d="M15.067,20.754v-0.603h-3.536v0.603c-5.267,0.677-5.577,3.966-5.577,3.966
			h14.542C20.496,21.464,15.067,20.754,15.067,20.754"/>
		<path clip-path="url(#SVGID_2_)" fill="#F6F6F2" d="M15.197,20.754v-0.603h-1.843v4.568h7.272
			C20.626,21.464,15.197,20.754,15.197,20.754"/>
		<path clip-path="url(#SVGID_2_)" fill="#DD9964" d="M20.3,10.567l-0.753,3.386c0,0,1.09,0.142,1.621-1.515
			C21.7,10.783,20.3,10.567,20.3,10.567"/>
		<path clip-path="url(#SVGID_2_)" fill="#DD9964" d="M5.7,12.438c0.531,1.656,1.621,1.515,1.621,1.515l-0.753-3.386
			C6.568,10.567,5.167,10.783,5.7,12.438"/>
		<path clip-path="url(#SVGID_2_)" fill="#E4A97F" d="M13.519,2.644C9.655,2.585,6.477,5.67,6.418,9.533
			c-0.057,3.864,2.987,9.865,6.85,9.85c5.22-0.022,7.192-5.603,7.25-9.466C20.576,6.053,17.382,2.701,13.519,2.644"/>
		<path clip-path="url(#SVGID_2_)" fill="#DD9964" d="M6.353,9.917c0,3.864,2.052,9.687,7.038,9.443V2.619
			C9.528,2.619,6.353,6.053,6.353,9.917"/>
		<polygon clip-path="url(#SVGID_2_)" fill="#C7C4C6" points="11.531,20.754 12.145,21.732 13.221,20.151 11.531,20.151 		"/>
		<polygon clip-path="url(#SVGID_2_)" fill="#E8E6E4" points="14.606,21.732 15.22,20.754 15.22,20.151 13.53,20.151 		"/>
		<path clip-path="url(#SVGID_2_)" fill="#010103" d="M11.33,2.841c-6.73,1.494-4.933,8.246-4.933,8.246l1.043-1.788
			c-0.763-1.675,1.342-2.558,2.764-3.115c1.42-0.559,3.222,0.953,3.222,0.953V2.509C12.594,2.456,11.33,2.841,11.33,2.841"/>
		<path clip-path="url(#SVGID_2_)" fill="#1A1719" d="M15.523,2.841c0,0-1.265-0.385-2.098-0.332v4.628c0,0,3.348,1.882,5.791,0.394
			c0.506-0.308,0.531,1.033,0.196,1.769l1.055,1.629C20.467,10.928,21.776,4.931,15.523,2.841"/>
		<path clip-path="url(#SVGID_2_)" fill="#010103" d="M11.897,14.621c-0.827,0.629-0.795,1.788-1.39,1.39
			c0,0,1.635,1.191,2.918-0.959C13.425,15.052,12.725,13.993,11.897,14.621"/>
		<path clip-path="url(#SVGID_2_)" fill="#1A1719" d="M14.956,14.621c-0.827-0.628-1.53,0.431-1.53,0.431
			c1.285,2.15,2.92,0.959,2.92,0.959C15.749,16.409,15.783,15.25,14.956,14.621"/>
		<path clip-path="url(#SVGID_2_)" fill="#1A1719" d="M21.56,4.045c-0.1,0.034-1.433,0.348-1.433,0.348
			c-1.864-1.464-4.866-1.638-4.875-1.627c-2.877,3.429,1.512,5.638,3.778,4.871C21.296,6.87,21.66,4.01,21.56,4.045"/>
		<path clip-path="url(#SVGID_2_)" fill="#010103" d="M11.571,20.695c-0.221,0.552,0.077,0.508,0.056,0.618
			c-0.023,0.11-0.109,0.388-0.1,0.452c0.023,0.154,0.154,0.375,0.64,0.231c0.642-0.189,1.114-0.353,1.114-0.353
			s-0.188-0.508-0.286-0.872C12.995,20.772,11.792,20.145,11.571,20.695"/>
		<path clip-path="url(#SVGID_2_)" fill="#1A1719" d="M15.141,20.695c-0.221-0.551-1.424,0.077-1.424,0.077
			c-0.098,0.364-0.287,0.872-0.287,0.872s0.473,0.163,1.115,0.353c0.486,0.144,0.617-0.077,0.64-0.231
			c0.009-0.064-0.077-0.342-0.1-0.452C15.064,21.203,15.362,21.247,15.141,20.695"/>
		<path clip-path="url(#SVGID_2_)" fill="#1A1719" d="M12.995,20.772c0,0-0.354,0.927,0.353,0.949l-0.003-0.938L12.995,20.772z"/>
		<path clip-path="url(#SVGID_2_)" fill="#010103" d="M13.349,20.783l-0.002,0.938c0.706-0.021,0.353-0.949,0.353-0.949
			L13.349,20.783z"/>
		<path clip-path="url(#SVGID_2_)" fill="#1A1719" d="M-16.367-53.629c-12.261,0.082-8.062,19.541-7.284,20.594h14.542
			C-9.109-33.035-4.106-53.711-16.367-53.629"/>
		<path clip-path="url(#SVGID_2_)" fill="#010103" d="M-23.651-32.902h7.25l0.034-20.727
			C-28.628-53.548-24.428-33.957-23.651-32.902"/>
		<path clip-path="url(#SVGID_2_)" fill="#DD9964" d="M-24.075-43.833c0.532,1.656,1.621,1.515,1.621,1.515l-0.753-3.386
			C-23.207-45.704-24.607-45.488-24.075-43.833"/>
		<rect x="-17.708" y="-38.103" clip-path="url(#SVGID_2_)" fill="#DD9964" width="2.558" height="2.558"/>
		<path clip-path="url(#SVGID_2_)" fill="#E4A97F" d="M-16.405-53.564c-3.863,0-6.995,3.132-6.995,6.997
			c0,3.863,3.134,9.857,6.995,9.744c7.328-0.215,6.996-5.881,6.996-9.744C-9.409-50.432-12.541-53.564-16.405-53.564"/>
		<path clip-path="url(#SVGID_2_)" fill="#DD9964" d="M-23.4-46.567c0,3.863-0.251,9.679,6.995,9.744v-16.741
			C-20.268-53.564-23.4-50.431-23.4-46.567"/>
		<path clip-path="url(#SVGID_2_)" fill="#1A1719" d="M-16.431-53.629c0,0-0.621-0.007-1.484,0.168
			c-1.201,0.245-2.868,0.843-3.987,2.308c0,0,0.007,0.015,0.022,0.039c-2.297,2.568-1.562,5.856-1.562,5.856
			c1.313-0.716,0.977-1.787,1.856-3.207c1.954,2.173,6.619,1.721,12.745,2.762C-8.841-45.703-8.835-53.564-16.431-53.629"/>
		<path clip-path="url(#SVGID_2_)" fill="#010103" d="M-17.916-53.461L-17.916-53.461c-1.2,0.244-2.867,0.842-3.986,2.308
			c0,0,0.007,0.014,0.021,0.039c-3.091,2.604-1.561,5.856-1.561,5.856c1.312-0.716,1.411-0.728,2.29-2.148
			c0.873,0.971,1.818,0.869,4.837,0.75l-0.117-6.973C-16.432-53.629-17.053-53.636-17.916-53.461"/>
		<path clip-path="url(#SVGID_2_)" fill="#193B73" d="M-14.575-35.545h-3.522c-5.246,0.678-5.554,3.967-5.554,3.967h14.483
			C-9.167-34.835-14.575-35.545-14.575-35.545"/>
		<path clip-path="url(#SVGID_2_)" fill="#3060A3" d="M-14.589-35.545h-1.843v3.967h7.272C-9.16-34.835-14.589-35.545-14.589-35.545
			"/>
		<path clip-path="url(#SVGID_2_)" fill="#010103" d="M-25.254-40.211c-1.104,1.192-2.471,2.346-0.265,4.328
			s-0.459,2.926-1.178,3.292h3.523l1.854-4.796l-3.336-6.229C-24.656-43.616-24.151-41.402-25.254-40.211"/>
		<path clip-path="url(#SVGID_2_)" fill="#1A1719" d="M-7.333-35.893c2.206-1.981,0.838-3.137-0.266-4.328
			c-1.102-1.191-0.597-3.404-0.597-3.404l-3.335,6.228l1.853,4.796h3.523C-6.875-32.966-9.541-33.912-7.333-35.893"/>
		<path clip-path="url(#SVGID_2_)" fill="#010103" d="M-17.913-44.373h-3.754c-0.478,0-0.866,0.332-0.866,0.742
			c0,0,0.474,2.735,2.751,2.735c2.275,0,2.735-2.735,2.735-2.735C-17.046-44.041-17.434-44.373-17.913-44.373"/>
		<path clip-path="url(#SVGID_2_)" fill="#D7D3CC" d="M-18.378-43.983h-2.823c-0.36,0-0.651,0.25-0.651,0.558
			c0,0,0.357,2.056,2.069,2.056c1.711,0,2.055-2.056,2.055-2.056C-17.729-43.733-18.02-43.983-18.378-43.983"/>
		<path clip-path="url(#SVGID_2_)" fill="#1A1719" d="M-11.08-44.373h-3.754c-0.478,0-0.866,0.332-0.866,0.742
			c0,0,0.459,2.735,2.734,2.735c2.277,0,2.752-2.735,2.752-2.735C-10.213-44.041-10.601-44.373-11.08-44.373"/>
		<path clip-path="url(#SVGID_2_)" fill="#E8E6E4" d="M-11.545-43.983h-2.822c-0.361,0-0.652,0.25-0.652,0.558
			c0,0,0.345,2.056,2.057,2.056c1.711,0,2.068-2.056,2.068-2.056C-10.895-43.733-11.187-43.983-11.545-43.983"/>
		<path clip-path="url(#SVGID_2_)" fill="#010103" d="M-17.659-43.479c0,0.187,0.151,0.338,0.337,0.338h0.966v-0.676h-0.966
			C-17.508-43.817-17.659-43.666-17.659-43.479"/>
		<path clip-path="url(#SVGID_2_)" fill="#1A1719" d="M-15.439-43.817h-0.917v0.676h0.917c0.187,0,0.338-0.151,0.338-0.338
			C-15.101-43.666-15.252-43.817-15.439-43.817"/>
		<path clip-path="url(#SVGID_2_)" fill="#DD9964" d="M-16.603-35.68v2.454c0.168,0.144,0.168,0.191,0.168,0.191l0.166-0.166
			l-0.047-2.479H-16.603z"/>
		<path clip-path="url(#SVGID_2_)" fill="#E4A97F" d="M-16.432-35.678l0.004,2.643c0,0,3.286-0.629,3.285-2.194
			C-13.143-35.229-13.959-35.734-16.432-35.678"/>
		<path clip-path="url(#SVGID_2_)" fill="#DD9964" d="M-19.722-35.229c0,1.564,3.287,2.194,3.287,2.194l0.003-2.643
			C-18.905-35.734-19.722-35.229-19.722-35.229"/>
		<rect x="12.208" y="-9.866" clip-path="url(#SVGID_2_)" fill="#DD9964" width="2.558" height="2.69"/>
		<path clip-path="url(#SVGID_2_)" fill="#DD9964" d="M15.198-7.308h-3.536C6.395-6.63,6.084-3.342,6.084-3.342h14.542
			C20.532-6.271,15.198-7.308,15.198-7.308"/>
		<path clip-path="url(#SVGID_2_)" fill="#E4A97F" d="M15.328-7.308h-1.843v3.966h7.271C20.012-6.8,15.328-7.308,15.328-7.308"/>
		<path clip-path="url(#SVGID_2_)" fill="#DD9964" d="M20.443-17.466l-0.753,3.385c0,0,1.09,0.141,1.622-1.514
			C21.843-17.25,20.443-17.466,20.443-17.466"/>
		<path clip-path="url(#SVGID_2_)" fill="#DD9964" d="M5.841-15.595c0.532,1.656,1.621,1.515,1.621,1.515L6.71-17.466
			C6.71-17.466,5.311-17.25,5.841-15.595"/>
		<path clip-path="url(#SVGID_2_)" fill="#E4A97F" d="M13.537-25.392c-3.864,0-6.996,3.132-6.996,6.996
			c0,3.863,3.132,9.746,6.996,9.746c5.849,0,6.995-5.883,6.995-9.746C20.532-22.26,17.399-25.392,13.537-25.392"/>
		<path clip-path="url(#SVGID_2_)" fill="#DD9964" d="M6.516-18.331c0,3.864,1.259,9.745,6.996,9.745v-16.74
			C9.648-25.326,6.516-22.193,6.516-18.331"/>
		<path clip-path="url(#SVGID_2_)" fill="#010103" d="M11.454-25.076c-5.721,1.902-4.913,7.674-4.913,7.674l1.049-1.546
			c-0.76-1.588,0.627-3.22,2.038-3.75c1.412-0.529,3.909,1.699,3.909,1.699v-4.392C12.708-25.44,11.454-25.076,11.454-25.076"/>
		<path clip-path="url(#SVGID_2_)" fill="#1A1719" d="M15.62-25.076c0,0-1.255-0.364-2.083-0.315v4.392c0,0,2.496-2.228,3.908-1.699
			c1.412,0.53,2.798,2.162,2.039,3.75l1.048,1.546C20.532-17.402,21.339-23.174,15.62-25.076"/>
		<path clip-path="url(#SVGID_2_)" fill="#FE4C10" d="M10.851-7.176c-1.69,0.106-3.065,1.262-3.065,1.262l0.65,2.572h4.978v-1.683
			C11.241-5.019,10.851-7.176,10.851-7.176"/>
		<path clip-path="url(#SVGID_2_)" fill="#FC6739" d="M13.41-5.025v1.684h4.976l0.651-2.572c0,0-1.376-1.155-3.064-1.262
			C15.973-7.176,15.582-5.019,13.41-5.025"/>
		<path clip-path="url(#SVGID_2_)" fill="#CB7B46" d="M-16.367,57.146c-12.261,0.081-8.063,19.541-7.284,20.594h14.542
			C-9.109,77.74-4.106,57.065-16.367,57.146"/>
		<path clip-path="url(#SVGID_2_)" fill="#7D4113" d="M-23.651,77.873h7.25l0.034-20.727
			C-28.628,57.228-24.429,76.819-23.651,77.873"/>
		<rect x="-17.708" y="72.673" clip-path="url(#SVGID_2_)" fill="#DD9964" width="2.558" height="2.558"/>
		<path clip-path="url(#SVGID_2_)" fill="#E4A97F" d="M-16.405,57.212c-3.863,0-6.995,3.132-6.995,6.996s3.134,9.858,6.995,9.745
			c7.328-0.214,6.996-5.881,6.996-9.745S-12.541,57.212-16.405,57.212"/>
		<path clip-path="url(#SVGID_2_)" fill="#DD9964" d="M-23.4,64.208c0,3.863-0.251,9.68,6.995,9.744v-16.74
			C-20.268,57.212-23.4,60.345-23.4,64.208"/>
		<path clip-path="url(#SVGID_2_)" fill="#0D2E14" d="M-14.538,75.23h-3.536c-5.268,0.677-5.577,3.966-5.577,3.966h14.542
			C-9.108,75.94-14.538,75.23-14.538,75.23"/>
		<path clip-path="url(#SVGID_2_)" fill="#164C22" d="M-14.589,75.23h-1.843v3.966h7.272C-9.16,75.94-14.589,75.23-14.589,75.23"/>
		<path clip-path="url(#SVGID_2_)" fill="#7D4113" d="M-25.255,70.564c-1.103,1.191-2.471,2.346-0.264,4.328
			c2.206,1.981-0.459,2.927-1.178,3.293h3.523l1.854-4.797l-3.336-6.229C-24.656,67.159-24.151,69.373-25.255,70.564"/>
		<path clip-path="url(#SVGID_2_)" fill="#CB7B46" d="M-7.333,74.883c2.206-1.981,0.838-3.137-0.266-4.327
			c-1.102-1.192-0.597-3.406-0.597-3.406l-3.336,6.229l1.854,4.796h3.523C-6.875,77.81-9.541,76.864-7.333,74.883"/>
		<path clip-path="url(#SVGID_2_)" fill="#686562" d="M-16.428,77.741c0,0,3.286-0.63,3.286-2.195c0,0-0.453-0.149-3.263-0.936
			L-16.428,77.741z"/>
		<path clip-path="url(#SVGID_2_)" fill="#686562" d="M-16.417,77.741l0.013-3.131c-1.545,0.015-3.299,0.936-3.299,0.936
			C-19.705,77.111-16.417,77.741-16.417,77.741"/>
		<path clip-path="url(#SVGID_2_)" fill="#7D4113" d="M-23.028,60.632c-1.601,2.883-0.429,4.674-0.429,4.674
			c2.955-0.736,7.017-4.91,7.017-4.91l0.035-3.184C-17.762,57.079-21.426,57.748-23.028,60.632"/>
		<path clip-path="url(#SVGID_2_)" fill="#CB7B46" d="M-16.455,57.212l0.035,3.184c0,0,4.43,4.45,7.386,5.187
			c0,0,0.803-2.067-0.798-4.951C-11.433,57.748-15.098,57.08-16.455,57.212"/>
		<path clip-path="url(#SVGID_2_)" fill="#E8E7E0" d="M-16.405,74.61l0.593,1.305l1.389-0.651l-0.365-0.653
			C-14.788,74.61-15.639,74.464-16.405,74.61"/>
		<path clip-path="url(#SVGID_2_)" fill="#D7D3CC" d="M-18.072,74.61l-0.365,0.652l1.389,0.652l0.593-1.305
			C-17.219,74.464-18.072,74.61-18.072,74.61"/>
		<path clip-path="url(#SVGID_2_)" fill="#0D2E14" d="M-16.472,76.753c-0.147,0-0.267,0.12-0.267,0.267
			c0,0.147,0.12,0.267,0.267,0.267c0.146,0,0.266-0.119,0.266-0.267C-16.206,76.873-16.326,76.753-16.472,76.753"/>
		<path clip-path="url(#SVGID_2_)" fill="#010103" d="M9.286-34.875l0.529,0.971c0,0,1.306-0.529,3.765-0.551v-1.699
			C13.58-36.154,11.492-36.419,9.286-34.875"/>
		<path clip-path="url(#SVGID_2_)" fill="#010103" d="M13.622-36.154v1.699c2.458,0.022,3.764,0.551,3.764,0.551l0.529-0.971
			C15.708-36.419,13.622-36.154,13.622-36.154"/>
		<path clip-path="url(#SVGID_2_)" fill="#FBAD4B" d="M13.64-51.207l0.003,1.781l2.149-0.213
			C15.53-51.217,13.64-51.207,13.64-51.207"/>
		<path clip-path="url(#SVGID_2_)" fill="#3060A3" d="M11.964-49.75c0.231-0.054,1.747-0.229,1.747-0.229v-0.705
			C12.242-50.684,11.964-49.75,11.964-49.75"/>
		<path clip-path="url(#SVGID_2_)" fill="#3060A3" d="M13.678-50.684v0.705c0,0,1.516,0.175,1.747,0.229
			C15.425-49.75,15.147-50.684,13.678-50.684"/>
		<rect x="12.295" y="-36.995" clip-path="url(#SVGID_2_)" fill="#DD9964" width="2.558" height="2.558"/>
		<path clip-path="url(#SVGID_2_)" fill="#E4A97F" d="M13.677-52.456c-3.864,0-6.996,3.133-6.996,6.996s2.28,9.745,6.996,9.745
			c4.703,0,6.996-5.882,6.996-9.745S17.541-52.456,13.677-52.456"/>
		<path clip-path="url(#SVGID_2_)" fill="#DD9964" d="M6.55-45.459c0,3.863,2.313,9.745,6.996,9.745v-16.741
			C9.682-52.456,6.55-49.322,6.55-45.459"/>
		<path clip-path="url(#SVGID_2_)" fill="#E4A97F" d="M15.351-34.455h-1.843v3.966h7.272C20.78-33.745,15.351-34.455,15.351-34.455"
			/>
		<path clip-path="url(#SVGID_2_)" fill="#DD9964" d="M6.307-30.489h7.272v-3.966h-1.843C11.736-34.455,6.307-33.744,6.307-30.489"
			/>
		<polygon clip-path="url(#SVGID_2_)" fill="#DCDCD4" points="8.104,-30.489 13.598,-30.489 13.598,-32.472 9.833,-32.472 		"/>
		<polygon clip-path="url(#SVGID_2_)" fill="#DCDCD4" points="9.454,-33.858 9.833,-32.472 9.942,-32.472 9.564,-33.906 		"/>
		<polygon clip-path="url(#SVGID_2_)" fill="#F3F2EE" points="13.598,-32.472 13.598,-30.489 19.092,-30.489 17.363,-32.472 		"/>
		<polygon clip-path="url(#SVGID_2_)" fill="#F3F2EE" points="17.253,-32.472 17.362,-32.472 17.742,-33.858 17.631,-33.907 		"/>
		<path clip-path="url(#SVGID_2_)" fill="#45220F" d="M6.549-44.574l1-0.765c0.808-5.555,5.997-5.162,5.997-5.162v-2.007
			C5.257-51.921,6.549-44.574,6.549-44.574"/>
		<path clip-path="url(#SVGID_2_)" fill="#502E1A" d="M13.48-52.561v2.006c0,0,5.189-0.392,5.996,5.163l1.195,0.809
			C20.671-44.583,21.768-51.974,13.48-52.561"/>
		<path clip-path="url(#SVGID_2_)" fill="#010103" d="M8.756-34.081l-0.044,0.265l-2.074,1.72l-0.53,1.589h6.84l-0.882-2.736
			C12.066-33.243,9.947-32.096,8.756-34.081"/>
		<path clip-path="url(#SVGID_2_)" fill="#193B73" d="M10.775-34.125c-0.927-1.147,0.794-1.854,0.794-1.854
			c-1.279-0.088-2.383,0.751-2.383,0.751l-0.927,1.324l1.589,2.294l2.114-1.628C11.923-33.211,11.633-33.062,10.775-34.125"/>
		<path clip-path="url(#SVGID_2_)" fill="#193B73" d="M11.961-33.238c0.003-0.002,0.005-0.004,0.005-0.004L11.961-33.238z"/>
		<path clip-path="url(#SVGID_2_)" fill="#999694" d="M11.702-31.808c-0.22,0-0.397,0.177-0.397,0.397
			c0,0.219,0.177,0.397,0.397,0.397c0.219,0,0.397-0.178,0.397-0.397C12.099-31.631,11.92-31.808,11.702-31.808"/>
		<path clip-path="url(#SVGID_2_)" fill="#1A1719" d="M18.323-33.849l-0.044-0.265c-1.191,1.986-3.31,0.839-3.31,0.839l-0.882,2.736
			h6.84l-0.531-1.589L18.323-33.849z"/>
		<polyline clip-path="url(#SVGID_2_)" fill="#3060A3" points="15.007,-33.271 15.002,-33.275 15.007,-33.271 		"/>
		<path clip-path="url(#SVGID_2_)" fill="#3060A3" d="M15.4-36.011c0,0,1.721,0.706,0.794,1.853
			c-0.859,1.063-1.149,0.915-1.187,0.887l2.114,1.629l1.588-2.295l-0.927-1.324C17.782-35.261,16.679-36.099,15.4-36.011"/>
		<path clip-path="url(#SVGID_2_)" fill="#A19F97" d="M13.478-53.63v2.339c0,0,5.78-0.573,7.148,4.59
			C20.626-46.701,20.671-53.144,13.478-53.63"/>
		<path clip-path="url(#SVGID_2_)" fill="#6D6966" d="M6.33-46.701c1.368-5.163,7.148-4.59,7.148-4.59v-2.339
			C6.151-53.012,6.33-46.701,6.33-46.701"/>
		<path clip-path="url(#SVGID_2_)" fill="#D7D3CC" d="M4.741-45.024c0,0,0.353,1.942,2.294,2.647L6.55-44.573
			c0,0-1.396-6.55,7.09-6.634v-1.584C13.64-52.792,3.152-52.085,4.741-45.024"/>
		<path clip-path="url(#SVGID_2_)" fill="#E8E6E4" d="M13.512-52.792v1.584c8.129,0.138,7.093,6.634,7.093,6.634l-0.488,2.197
			c1.943-0.706,2.295-2.648,2.295-2.648C24.001-52.084,13.512-52.792,13.512-52.792"/>
		<path clip-path="url(#SVGID_2_)" fill="#DD9964" d="M5.729-42.657c0.532,1.655,1.621,1.514,1.621,1.514l-0.752-3.386
			C6.598-44.529,5.198-44.313,5.729-42.657"/>
		<path clip-path="url(#SVGID_2_)" fill="#DD9964" d="M20.584-44.529l-0.752,3.386c0,0,1.089,0.14,1.621-1.514
			C21.984-44.314,20.584-44.529,20.584-44.529"/>
		<path clip-path="url(#SVGID_2_)" fill="#45220F" d="M8.58-50.717c-0.485,1.191-2.25,0.839-2.25,0.839
			c1.94,3.265,7.183,1.544,7.183,1.544v-2.873C11.649-53.374,9.064-51.908,8.58-50.717"/>
		<path clip-path="url(#SVGID_2_)" fill="#502E1A" d="M15.419-50.938c-0.573-0.309-1.907-0.27-1.907-0.27v2.874
			C14.827-48.6,15.993-50.628,15.419-50.938"/>
		<path clip-path="url(#SVGID_2_)" fill="#FCAF4C" d="M-24.434,7.574c0,0,1.248,6.902,2.159,8.884
			c0.909,1.98,1.188,2.233,0.452,2.612c0,0,1.948,0.453,2.627-0.489c0,0,2.208,1.404,2.764,1.285V3.434
			C-16.432,3.434-23.121,3.494-24.434,7.574"/>
		<path clip-path="url(#SVGID_2_)" fill="#FCAF4C" d="M-16.467,3.434v16.433c0.555,0.12,2.763-1.285,2.763-1.285
			c0.68,0.943,2.627,0.49,2.627,0.49c-0.736-0.379-0.457-0.632,0.453-2.613c0.909-1.98,2.159-8.884,2.159-8.884
			C-9.78,3.494-16.467,3.434-16.467,3.434"/>
		<path clip-path="url(#SVGID_2_)" fill="#DE9865" d="M-24.031,12.112c0.53,1.635,1.617,1.497,1.617,1.497l-0.75-3.347
			C-23.164,10.263-24.561,10.477-24.031,12.112"/>
		<path clip-path="url(#SVGID_2_)" fill="#E4AA7F" d="M-9.673,10.263l-0.75,3.347c0,0,1.086,0.138,1.617-1.497
			C-8.277,10.477-9.673,10.263-9.673,10.263"/>
		<path clip-path="url(#SVGID_2_)" fill="#DCDCD5" d="M-17.7,18.923c-0.35,0-0.634,0.282-0.634,0.629s0.284,0.627,0.634,0.627
			s0.634-0.28,0.634-0.627S-17.35,18.923-17.7,18.923"/>
		<path clip-path="url(#SVGID_2_)" fill="#F5F4F0" d="M-15.135,18.96c-0.351,0-0.634,0.281-0.634,0.628s0.283,0.628,0.634,0.628
			c0.35,0,0.634-0.281,0.634-0.628S-14.785,18.96-15.135,18.96"/>
		<rect x="-17.679" y="17.772" clip-path="url(#SVGID_2_)" fill="#E4AA7F" width="2.552" height="2.528"/>
		<path clip-path="url(#SVGID_2_)" fill="#E9BD9A" d="M-16.432,2.495c-3.854,0-6.979,3.096-6.979,6.913
			c0,3.818,2.138,9.676,6.979,9.631c4.673-0.042,6.979-5.813,6.979-9.631C-9.453,5.591-12.578,2.495-16.432,2.495"/>
		<path clip-path="url(#SVGID_2_)" fill="#E4AA7F" d="M-23.41,9.408c0,3.818,2.319,10.27,6.979,9.631V2.495
			C-20.286,2.495-23.41,5.591-23.41,9.408"/>
		<path clip-path="url(#SVGID_2_)" fill="#E9BD9A" d="M-14.63,20.283h-1.839v3.92h7.255C-9.214,20.984-14.63,20.283-14.63,20.283"/>
		<path clip-path="url(#SVGID_2_)" fill="#E4AA7F" d="M-23.652,24.202h7.253v-3.92h-1.837
			C-18.236,20.282-23.652,20.984-23.652,24.202"/>
		<path clip-path="url(#SVGID_2_)" fill="#680000" d="M-17.664,20.048l-0.853,0.248c-0.001,0.217-0.068,0.447-0.215,0.681
			c-0.733,1.162-1.571,2.261-2.541,3.226h4.874v-2.293c-0.009,0-0.017,0.001-0.027,0.001C-17.534,21.91-17.946,20.843-17.664,20.048
			"/>
		<path clip-path="url(#SVGID_2_)" fill="#FE9D2A" d="M-21.848,4.215c-4.674,0.919-2.37,6.493-1.547,6.596
			c0.822,0.104,1.598-0.845,2.786-3.111c1.189-2.268,3.607-0.654,3.607-0.654C-15.503,0.104-21.848,4.215-21.848,4.215"/>
		<path clip-path="url(#SVGID_2_)" fill="#FE9D2A" d="M-13.157,1.762c-3.874-1.178-7.043-0.742-7.659,1.067
			c-0.617,1.81,3.102,3.99,3.102,3.99l1.169,0.697l4.813-3.148C-11.732,4.368-9.284,2.938-13.157,1.762"/>
		<path clip-path="url(#SVGID_2_)" fill="#FCAF4C" d="M-11.005,4.215c0,0-5.635,0.258-4.846,2.83c0,0,2.417-1.613,3.607,0.654
			c1.188,2.267,1.964,3.215,2.786,3.111C-8.635,10.707-6.332,5.134-11.005,4.215"/>
		<path clip-path="url(#SVGID_2_)" fill="#FCAF4C" d="M-16.469,7.517c0,0-3.905-5.712,5.441-3.75c0,0,0.374-0.131-0.047-0.937
			C-11.497,2.022-23.51,1.086-16.469,7.517"/>
		<path clip-path="url(#SVGID_2_)" fill="#FCAF4C" d="M-16.469,7.517c-0.877-3.967,5.259-3.512,5.259-3.512
			C-18.538,3.328-16.469,7.517-16.469,7.517"/>
		<path clip-path="url(#SVGID_2_)" fill="#FE9D2A" d="M-9.214,8.291c-0.531-1.538-1.968-5.134-4.592-2.878v0.131
			c0,0,2.416-1.875,3.667,1.973c1.252,3.848,1.813,0.905,1.813,0.905S-8.684,9.828-9.214,8.291"/>
		<path clip-path="url(#SVGID_2_)" fill="#FCAF4C" d="M-23.548,8.488c-0.531,1.537-0.889,0.131-0.889,0.131s0.562,2.943,1.813-0.904
			c1.251-3.849,3.668-1.974,3.668-1.974V5.61C-21.582,3.354-23.018,6.951-23.548,8.488"/>
		<path clip-path="url(#SVGID_2_)" fill="#B0000F" d="M-14.294,20.296l-0.853-0.249c0.283,0.796-0.129,1.863-1.237,1.863
			c-0.01,0-0.018,0-0.027,0v2.293h4.875c-0.972-0.966-1.809-2.064-2.542-3.227C-14.227,20.744-14.292,20.513-14.294,20.296"/>
		<path clip-path="url(#SVGID_2_)" fill="#DCDCD5" d="M-18.678,19.674c-0.35,0-0.633,0.281-0.633,0.627
			c0,0.347,0.283,0.628,0.633,0.628c0.351,0,0.635-0.281,0.635-0.628C-18.043,19.955-18.327,19.674-18.678,19.674"/>
		<path clip-path="url(#SVGID_2_)" fill="#DCDCD5" d="M-17.066,21.604c-0.351,0-0.634,0.281-0.634,0.628s0.283,0.628,0.634,0.628
			c0.35,0,0.634-0.281,0.634-0.628S-16.716,21.604-17.066,21.604"/>
		<path clip-path="url(#SVGID_2_)" fill="#DCDCD5" d="M-18.043,20.721c-0.351,0-0.634,0.281-0.634,0.627s0.283,0.628,0.634,0.628
			s0.634-0.282,0.634-0.628S-17.692,20.721-18.043,20.721"/>
		<path clip-path="url(#SVGID_2_)" fill="#F5F4F0" d="M-14.158,19.711c-0.351,0-0.634,0.281-0.634,0.628s0.283,0.627,0.634,0.627
			c0.35,0,0.634-0.28,0.634-0.627S-13.808,19.711-14.158,19.711"/>
		<path clip-path="url(#SVGID_2_)" fill="#F5F4F0" d="M-15.769,21.642c-0.351,0-0.634,0.281-0.634,0.629
			c0,0.346,0.283,0.627,0.634,0.627c0.35,0,0.634-0.281,0.634-0.627C-15.135,21.923-15.419,21.642-15.769,21.642"/>
		<path clip-path="url(#SVGID_2_)" fill="#F5F4F0" d="M-14.792,20.758c-0.35,0-0.634,0.28-0.634,0.628
			c0,0.346,0.284,0.627,0.634,0.627s0.634-0.281,0.634-0.627C-14.158,21.038-14.441,20.758-14.792,20.758"/>
		<path clip-path="url(#SVGID_2_)" fill="#010103" d="M-23.546,41.729c0,0-2.013-0.631-3.891,1.16c0,0,0.111,1.761,1.003,3.095
			l1.498-0.605l-1.118,1.114l0.352,0.304c0,0,2.88-0.981,2.9-3.459C-22.802,43.337-23.663,42.857-23.546,41.729"/>
		<path clip-path="url(#SVGID_2_)" fill="#680000" d="M-22.902,41.158c0,0-0.66,0.277-0.743,0.703
			c-0.085,0.426,0.045,1.946,0.98,2.012c0,0,0.295,0.114,0.521-0.346C-22.144,43.527-23.019,42.019-22.902,41.158"/>
		<path clip-path="url(#SVGID_2_)" fill="#1A1719" d="M-9.308,41.712c0.116,1.128-0.744,1.607-0.744,1.607
			c0.02,2.478,2.901,3.459,2.901,3.459l0.35-0.303l-1.116-1.115l1.498,0.606c0.892-1.334,1.003-3.095,1.003-3.095
			C-7.295,41.08-9.308,41.712-9.308,41.712"/>
		<path clip-path="url(#SVGID_2_)" fill="#B0000F" d="M-9.954,40.901c0.116,0.859-0.758,2.368-0.758,2.368
			c0.226,0.461,0.521,0.345,0.521,0.345c0.935-0.065,1.064-1.585,0.98-2.01C-9.293,41.177-9.954,40.901-9.954,40.901"/>
		<path clip-path="url(#SVGID_2_)" fill="#DE9865" d="M-24.042,40.83c0.525,1.631,1.6,1.492,1.6,1.492l-0.743-3.335
			C-23.185,38.987-24.565,39.2-24.042,40.83"/>
		<path clip-path="url(#SVGID_2_)" fill="#DE9865" d="M-9.841,38.987l-0.742,3.334c0,0,1.074,0.14,1.599-1.49
			S-9.841,38.987-9.841,38.987"/>
		<rect x="-17.76" y="46.473" clip-path="url(#SVGID_2_)" fill="#DE9865" width="2.525" height="2.52"/>
		<path clip-path="url(#SVGID_2_)" fill="#E4AA7F" d="M-16.527,31.248c-3.812,0-6.902,3.084-6.902,6.889s0.741,9.598,6.902,9.598
			c6.803,0,6.904-5.793,6.904-9.598S-12.714,31.248-16.527,31.248"/>
		<path clip-path="url(#SVGID_2_)" fill="#DE9865" d="M-23.427,38.138c0,3.804,0.739,9.597,6.902,9.597V31.248
			C-20.337,31.248-23.427,34.332-23.427,38.138"/>
		<path clip-path="url(#SVGID_2_)" fill="#E4AA7F" d="M-14.744,48.975h-1.818v3.905h7.173
			C-9.389,49.674-14.744,48.975-14.744,48.975"/>
		<path clip-path="url(#SVGID_2_)" fill="#DE9865" d="M-23.667,52.88h7.175v-3.906h-1.818
			C-18.311,48.974-23.667,49.674-23.667,52.88"/>
		<path clip-path="url(#SVGID_2_)" fill="#010103" d="M-23.667,33.931c-1.57,2.28,0.044,6.597,0.044,6.597
			c3.301-0.714,7.099-7.122,7.099-7.122v-2.157C-20.488,31.121-23.667,33.931-23.667,33.931"/>
		<path clip-path="url(#SVGID_2_)" fill="#1A1719" d="M-16.562,31.248v2.157c0,0,3.869,6.443,7.171,7.156
			c0,0,1.574-4.351,0.003-6.631C-9.388,33.931-12.599,31.121-16.562,31.248"/>
		<path clip-path="url(#SVGID_2_)" fill="#680000" d="M-22.688,50.779v2.101h6.195v-4.509l-2.417,0.711
			C-18.91,49.082-21.561,49.679-22.688,50.779"/>
		<path clip-path="url(#SVGID_2_)" fill="#B0000F" d="M-16.499,48.371v4.509h6.197v-2.101c-1.128-1.101-3.778-1.698-3.778-1.698
			L-16.499,48.371z"/>
		<path clip-path="url(#SVGID_2_)" fill="#D7D3CC" d="M-18.91,49.082c0.2,1.141,1.971,1.696,1.971,1.696l0.414-2.407l-2.19-0.241
			L-18.91,49.082z"/>
		<path clip-path="url(#SVGID_2_)" fill="#F5E4D7" d="M-16.525,48.371l0.414,2.408c0,0,1.771-0.558,1.971-1.698l-0.196-0.952
			L-16.525,48.371z"/>
		<path clip-path="url(#SVGID_2_)" fill="#010103" d="M-22.893,33.444c0.01,0.021-0.013,0.035-0.013,0.035
			c2.824-1.776,6.344-1.011,6.344-1.011v-1.754C-17.083,29.505-23.414,32.233-22.893,33.444"/>
		<path clip-path="url(#SVGID_2_)" fill="#1A1719" d="M-16.571,30.584v1.755c0,0,3.52-0.766,6.343,1.01c0,0-0.003-0.013-0.013-0.035
			C-10.369,32.971-11.535,30.294-16.571,30.584"/>
	</g>
</g>
</svg>
