<?xml version="1.0" encoding="utf-8"?>
<!-- Generator: Adobe Illustrator 16.0.3, SVG Export Plug-In . SVG Version: 6.00 Build 0)  -->
<!DOCTYPE svg PUBLIC "-//W3C//DTD SVG 1.1//EN" "http://www.w3.org/Graphics/SVG/1.1/DTD/svg11.dtd">
<svg version="1.1" id="Capa_1" xmlns="http://www.w3.org/2000/svg" xmlns:xlink="http://www.w3.org/1999/xlink" x="0px" y="0px"
	 width="27.154px" height="27.154px" viewBox="0 0 27.154 27.154" enable-background="new 0 0 27.154 27.154" xml:space="preserve">
<g>
	<g>
		<defs>
			<rect id="SVGID_1_" x="-240.65" y="-345.398" width="792" height="612"/>
		</defs>
		<clipPath id="SVGID_2_">
			<use xlink:href="#SVGID_1_"  overflow="visible"/>
		</clipPath>
		<path clip-path="url(#SVGID_2_)" fill="#FFD900" d="M-2.849-70.261c0,7.499-6.079,13.577-13.577,13.577
			c-7.499,0-13.578-6.078-13.578-13.577s6.079-13.577,13.578-13.577C-8.928-83.838-2.849-77.76-2.849-70.261"/>
		<path clip-path="url(#SVGID_2_)" fill="#FFD900" d="M27.154-70.261c0,7.499-6.078,13.577-13.577,13.577
			C6.079-56.684,0-62.762,0-70.261s6.079-13.577,13.577-13.577C21.076-83.838,27.154-77.76,27.154-70.261"/>
		<path clip-path="url(#SVGID_2_)" fill="#BFE10E" d="M-2.849-42.315c0,7.499-6.079,13.577-13.577,13.577
			c-7.499,0-13.578-6.078-13.578-13.577c0-7.499,6.079-13.578,13.578-13.578C-8.928-55.893-2.849-49.814-2.849-42.315"/>
		<path clip-path="url(#SVGID_2_)" fill="#BFE10E" d="M27.154-42.315c0,7.499-6.078,13.577-13.577,13.577
			C6.079-28.738,0-34.816,0-42.315c0-7.499,6.079-13.578,13.577-13.578C21.076-55.893,27.154-49.814,27.154-42.315"/>
		<path clip-path="url(#SVGID_2_)" fill="#F0047F" d="M-2.849-14.369c0,7.499-6.079,13.577-13.577,13.577
			c-7.499,0-13.578-6.078-13.578-13.577s6.079-13.577,13.578-13.577C-8.928-27.946-2.849-21.868-2.849-14.369"/>
		<path clip-path="url(#SVGID_2_)" fill="#F0047F" d="M27.154-14.369c0,7.499-6.078,13.577-13.577,13.577
			C6.079-0.792,0-6.87,0-14.369s6.079-13.577,13.577-13.577C21.076-27.946,27.154-21.868,27.154-14.369"/>
		<path clip-path="url(#SVGID_2_)" fill="#0A51A1" d="M-2.849,13.576c0,7.499-6.079,13.578-13.577,13.578
			c-7.499,0-13.578-6.079-13.578-13.578C-30.004,6.078-23.925,0-16.426,0C-8.928,0-2.849,6.078-2.849,13.576"/>
		<path clip-path="url(#SVGID_2_)" fill="#0A51A1" d="M27.154,13.576c0,7.499-6.078,13.578-13.577,13.578
			C6.079,27.154,0,21.075,0,13.576C0,6.078,6.079,0,13.577,0C21.076,0,27.154,6.078,27.154,13.576"/>
		<path clip-path="url(#SVGID_2_)" fill="#FF8C00" d="M-2.849,41.523c0,7.498-6.079,13.576-13.577,13.576
			c-7.499,0-13.578-6.078-13.578-13.576c0-7.499,6.079-13.577,13.578-13.577C-8.928,27.946-2.849,34.024-2.849,41.523"/>
		<path clip-path="url(#SVGID_2_)" fill="#FF8C00" d="M27.154,41.523c0,7.498-6.078,13.576-13.577,13.576
			C6.079,55.1,0,49.021,0,41.523c0-7.499,6.079-13.577,13.577-13.577C21.076,27.946,27.154,34.024,27.154,41.523"/>
		<path clip-path="url(#SVGID_2_)" fill="#DE9865" d="M-23.963-44.148c0.526,1.637,1.605,1.498,1.605,1.498l-0.745-3.347
			C-23.104-45.997-24.49-45.783-23.963-44.148"/>
		<path clip-path="url(#SVGID_2_)" fill="#DE9865" d="M-9.713-45.997l-0.745,3.346c0,0,1.079,0.139,1.605-1.497
			C-8.326-45.784-9.713-45.997-9.713-45.997"/>
		<rect x="-17.659" y="-38.486" clip-path="url(#SVGID_2_)" fill="#DE9865" width="2.533" height="2.528"/>
		<polygon clip-path="url(#SVGID_2_)" fill="#010103" points="-23.531,-35.177 -10.362,-35.177 -8.923,-46.341 -24.098,-46.646 		
			"/>
		<rect x="-17.645" y="-38.448" clip-path="url(#SVGID_2_)" fill="#DE9865" width="2.441" height="2.573"/>
		<path clip-path="url(#SVGID_2_)" fill="#E4AA7F" d="M-16.421-53.764c-3.825,0-6.927,3.096-6.927,6.914
			c0,3.817,0.742,9.629,6.927,9.629c6.825,0,6.927-5.813,6.927-9.629C-9.495-50.668-12.596-53.764-16.421-53.764"/>
		<path clip-path="url(#SVGID_2_)" fill="#DE9865" d="M-23.348-46.85c0,3.817,0.742,9.629,6.927,9.629v-16.543
			C-20.245-53.764-23.348-50.668-23.348-46.85"/>
		<path clip-path="url(#SVGID_2_)" fill="#E4AA7F" d="M-14.634-35.976h-1.824v3.92h7.2C-9.258-35.274-14.634-35.976-14.634-35.976"
			/>
		<path clip-path="url(#SVGID_2_)" fill="#DE9865" d="M-23.587-32.057h7.199v-3.92h-1.824
			C-18.212-35.977-23.587-35.274-23.587-32.057"/>
		<path clip-path="url(#SVGID_2_)" fill="#D7D3CC" d="M-17.863-36.05c0,0-3.75,0.307-2.878,0.35
			c0.872,0.044,0.654,3.644,0.654,3.644h3.707v-2.029C-18.342-33.999-17.863-36.05-17.863-36.05"/>
		<path clip-path="url(#SVGID_2_)" fill="#E9E7E5" d="M-14.897-36.05c0,0,0.479,2.051-1.483,1.964v2.029h3.706
			c0,0-0.218-3.6,0.655-3.644C-11.147-35.743-14.897-36.05-14.897-36.05"/>
		<path clip-path="url(#SVGID_2_)" fill="#010103" d="M-24.883-45.293c0.523,2.66,1.221,3.226-0.437,4.884
			c-1.656,1.657-2.703,5.625,2.4,6.497c4.995,0.854,4.403-3.619,4.403-3.619s-0.479,0.654-1.962-0.741
			c-1.483-1.396-2.703-3.533-2.398-7.937c0.306-4.405,6.456-3.489,6.456-3.489v-4.066C-23.089-54.21-25.406-47.954-24.883-45.293"/>
		<path clip-path="url(#SVGID_2_)" fill="#1A1719" d="M-7.971-45.293c0.523-2.66-1.792-8.917-8.462-8.471v4.066
			c0,0,6.151-0.916,6.457,3.489c0.305,4.404-0.916,6.541-2.399,7.937c-1.483,1.396-1.962,0.741-1.962,0.741s-0.59,4.473,4.405,3.619
			c5.102-0.872,4.056-4.84,2.398-6.497C-9.191-42.067-8.493-42.633-7.971-45.293"/>
		<path clip-path="url(#SVGID_2_)" fill="#010103" d="M-23.348-45.237c0,0,5.268-0.493,6.969-0.406v-6.846
			C-16.379-52.489-23.905-52.113-23.348-45.237"/>
		<path clip-path="url(#SVGID_2_)" fill="#1A1719" d="M-16.444-52.49v6.847c1.701-0.087,6.969,0.405,6.969,0.405
			C-8.918-52.114-16.444-52.49-16.444-52.49"/>
		<rect x="-17.383" y="-43.419" clip-path="url(#SVGID_2_)" fill="#010103" width="1.004" height="0.61"/>
		<rect x="-16.401" y="-43.419" clip-path="url(#SVGID_2_)" fill="#1A1719" width="1.003" height="0.61"/>
		<path clip-path="url(#SVGID_2_)" fill="#010103" d="M-21.787-43.158c-0.176,0.611,0.218,2.792,2.181,3.054
			c2.366,0.315,2.659-3.228,2.659-3.228C-19.781-45.033-21.787-43.158-21.787-43.158"/>
		<path clip-path="url(#SVGID_2_)" fill="#1A1719" d="M-15.829-43.375c0,0,0.295,3.542,2.661,3.227
			c1.962-0.261,2.355-2.442,2.18-3.053C-10.988-43.201-12.994-45.076-15.829-43.375"/>
		<path clip-path="url(#SVGID_2_)" fill="#DE9865" d="M5.853,40.352c0.537,1.673,1.639,1.531,1.639,1.531l-0.761-3.422
			C6.731,38.461,5.316,38.68,5.853,40.352"/>
		<path clip-path="url(#SVGID_2_)" fill="#DE9865" d="M20.503,38.461l-0.76,3.422c0,0,1.101,0.142,1.639-1.531
			C21.919,38.68,20.503,38.461,20.503,38.461"/>
		<rect x="12.289" y="46.143" clip-path="url(#SVGID_2_)" fill="#DE9865" width="2.585" height="2.584"/>
		<path clip-path="url(#SVGID_2_)" fill="#E4AA7F" d="M13.551,30.517c-3.905,0-7.07,3.166-7.07,7.07c0,3.906,1.969,9.851,7.07,9.851
			c5.862,0,7.07-5.944,7.07-9.851C20.621,33.683,17.456,30.517,13.551,30.517"/>
		<path clip-path="url(#SVGID_2_)" fill="#DE9865" d="M6.482,37.587c0,3.905,1.598,9.851,7.07,9.851v-16.92
			C9.648,30.518,6.482,33.683,6.482,37.587"/>
		<path clip-path="url(#SVGID_2_)" fill="#D7D3CC" d="M15.455,48.727h-3.56c-5.301,0.685-5.613,4.009-5.613,4.009h14.637
			C20.918,49.444,15.455,48.727,15.455,48.727"/>
		<path clip-path="url(#SVGID_2_)" fill="#F5E4D7" d="M15.573,48.727h-1.861v4.009h7.348C21.06,49.444,15.573,48.727,15.573,48.727"
			/>
		<path clip-path="url(#SVGID_2_)" fill="#010103" d="M12.082,39.805H8.287c-0.483,0-0.874,0.337-0.874,0.75
			c0,0,0.479,2.765,2.779,2.765c2.301,0,2.764-2.765,2.764-2.765C12.956,40.142,12.564,39.805,12.082,39.805"/>
		<path clip-path="url(#SVGID_2_)" fill="#1A1719" d="M18.986,39.805h-3.794c-0.483,0-0.875,0.337-0.875,0.75
			c0,0,0.464,2.765,2.764,2.765c2.301,0,2.78-2.765,2.78-2.765C19.861,40.142,19.47,39.805,18.986,39.805"/>
		<path clip-path="url(#SVGID_2_)" fill="#010103" d="M12.337,40.709c0,0.189,0.152,0.342,0.342,0.342h0.974v-0.684h-0.974
			C12.489,40.367,12.337,40.521,12.337,40.709"/>
		<path clip-path="url(#SVGID_2_)" fill="#1A1719" d="M14.581,40.367h-0.927v0.684h0.927c0.188,0,0.342-0.152,0.342-0.342
			C14.922,40.521,14.769,40.367,14.581,40.367"/>
		<path clip-path="url(#SVGID_2_)" fill="#DE9865" d="M13.405,48.591v2.48c0.169,0.146,0.169,0.192,0.169,0.192l0.168-0.168
			l-0.048-2.505H13.405z"/>
		<path clip-path="url(#SVGID_2_)" fill="#E4AA7F" d="M13.577,48.593l0.004,2.671c0,0,3.321-0.636,3.32-2.218
			C16.9,49.046,16.076,48.537,13.577,48.593"/>
		<path clip-path="url(#SVGID_2_)" fill="#DE9865" d="M10.253,49.046c-0.002,1.582,3.32,2.218,3.32,2.218l0.003-2.671
			C11.079,48.537,10.253,49.046,10.253,49.046"/>
		<path clip-path="url(#SVGID_2_)" fill="#010103" d="M12.956,29.8l-1.487-0.987l-0.917,1.705l-1.871-1.423
			c-0.284,0.44-0.707,2.472-0.707,2.472c-0.565-0.283-1.978-0.495-1.978-0.495l0.286,3.143l-0.991-0.313
			c0.07,1.487,1.243,4.559,1.243,4.559s1.094-2.021,0.879-3.293c-0.216-1.271,3.78-0.988,6.16-0.177l0.898-2.471l-0.89-3.707
			L12.956,29.8z"/>
		<path clip-path="url(#SVGID_2_)" fill="#1A1719" d="M21.157,31.071c0,0-1.411,0.212-1.977,0.494c0,0-0.423-2.029-0.706-2.472
			l-1.871,1.423l-0.919-1.704l-1.486,0.988l-0.617-0.988v0.529v5.649c2.38-0.813,6.376-1.096,6.161,0.176
			c-0.215,1.271,0.878,3.294,0.878,3.294s1.173-3.072,1.243-4.561l-0.991,0.314L21.157,31.071z"/>
		<path clip-path="url(#SVGID_2_)" fill="#FBAD4B" d="M23.174,13.12c-1.923-1.406-1.968-3.749-1.968-3.749
			c0.377-4.59-7.701-2.668-7.701-2.668v11.662h9.764c1.781-1.265-0.986-2.201-0.095-2.201C24.066,16.164,25.097,14.524,23.174,13.12
			"/>
		<path clip-path="url(#SVGID_2_)" fill="#FD9B28" d="M5.948,9.371c0,0-0.046,2.343-1.969,3.749c-1.923,1.404-0.89,3.043,0,3.043
			c0.891,0-1.876,0.938-0.094,2.203h9.764V6.703C13.649,6.703,5.57,4.781,5.948,9.371"/>
		<path clip-path="url(#SVGID_2_)" fill="#DD9964" d="M5.441,11.812c0.576,1.792,1.757,1.64,1.757,1.64L6.382,9.785
			C6.382,9.785,4.864,10.019,5.441,11.812"/>
		<path clip-path="url(#SVGID_2_)" fill="#DD9964" d="M20.914,9.797l-0.801,3.596c0,0,1.159,0.149,1.725-1.608
			C22.402,10.025,20.914,9.797,20.914,9.797"/>
		<rect x="12.267" y="17.868" clip-path="url(#SVGID_2_)" fill="#DD9964" width="2.722" height="2.718"/>
		<path clip-path="url(#SVGID_2_)" fill="#E4A97F" d="M13.597,1.448c-4.109,0-7.44,3.327-7.44,7.431s2.073,10.471,7.44,10.35
			c7.502-0.166,7.439-6.246,7.439-10.35S17.705,1.448,13.597,1.448"/>
		<path clip-path="url(#SVGID_2_)" fill="#DD9964" d="M6.158,8.879c0,4.104-0.21,9.867,7.44,10.35V1.448
			C9.489,1.448,6.158,4.775,6.158,8.879"/>
		<path clip-path="url(#SVGID_2_)" fill="#DD9964" d="M6.146,24.743h7.464v-4.212h-1.691C11.919,20.531,6.146,21.285,6.146,24.743"
			/>
		<path clip-path="url(#SVGID_2_)" fill="#E4A97F" d="M15.266,20.531h-1.69v4.212h7.463C21.039,21.285,15.266,20.531,15.266,20.531"
			/>
		<path clip-path="url(#SVGID_2_)" fill="#680008" d="M10.748,20.489c-0.187,0.037-0.483,0.125-0.483,0.125
			c-0.376,0.363-2.633,4.071-2.633,4.071h5.684v-1.064C9.785,23.508,10.748,20.489,10.748,20.489"/>
		<path clip-path="url(#SVGID_2_)" fill="#AF090F" d="M16.196,20.637c0,0,0.907,3.019-2.624,3.132v1.063h5.739
			c0,0-2.256-3.709-2.633-4.07C16.678,20.762,16.383,20.673,16.196,20.637"/>
		<path clip-path="url(#SVGID_2_)" fill="#FD9B28" d="M10.125,8.726c0,0,1.477,0.51,3.473,1.107l-0.035-2.108
			C12,7.82,10.655,8.105,10.125,8.726"/>
		<path clip-path="url(#SVGID_2_)" fill="#FBAD4B" d="M20.771,8.248c-0.371-0.186-4.195-0.707-7.207-0.523l0.034,2.108
			c2.359,0.706,5.444,1.533,7.682,1.787C21.28,11.62,21.333,8.528,20.771,8.248"/>
		<path clip-path="url(#SVGID_2_)" fill="#680008" d="M5.948,9.371c0,0,2.935-0.795,7.706-0.795V1.08
			C13.654,1.08,4.539,0.659,5.948,9.371"/>
		<path clip-path="url(#SVGID_2_)" fill="#AF090F" d="M13.564,1.08v7.495c4.771,0,7.706,0.796,7.706,0.796
			C22.679,0.659,13.564,1.08,13.564,1.08"/>
		<path clip-path="url(#SVGID_2_)" fill="#680008" d="M5.659,8.154C5.65,8.166,5.307,8.224,5.31,8.778
			C5.314,9.735,6.614,9.22,6.614,9.22L8.27,7.358H5.8C5.227,7.64,5.8,7.943,5.659,8.154"/>
		<path clip-path="url(#SVGID_2_)" fill="#AF090F" d="M21.476,8.154c-0.141-0.211,0.431-0.515-0.141-0.796h-2.469l1.655,1.861
			c0,0,1.299,0.516,1.304-0.441C21.828,8.224,21.485,8.166,21.476,8.154"/>
		<path clip-path="url(#SVGID_2_)" fill="#010103" d="M5.948,24.799l7.673,0.033v-1.58c-3.316,0.026-6.184-0.935-6.184-0.935
			C6.02,23.224,5.948,24.799,5.948,24.799"/>
		<path clip-path="url(#SVGID_2_)" fill="#1A1719" d="M19.769,22.316c0,0-2.868,0.963-6.184,0.937v1.58l7.674-0.035
			C21.259,24.798,21.187,23.223,19.769,22.316"/>
		<rect x="12.078" y="-9.75" clip-path="url(#SVGID_2_)" fill="#DD9964" width="2.559" height="2.558"/>
		<path clip-path="url(#SVGID_2_)" fill="#E8E6E4" d="M15.067-7.192v-0.603h-3.536v0.603C6.264-6.516,5.954-3.227,5.954-3.227
			h14.542C20.496-6.482,15.067-7.192,15.067-7.192"/>
		<path clip-path="url(#SVGID_2_)" fill="#F6F6F2" d="M15.197-7.192v-0.603h-1.843v4.568h7.272
			C20.626-6.482,15.197-7.192,15.197-7.192"/>
		<path clip-path="url(#SVGID_2_)" fill="#DD9964" d="M20.3-17.379l-0.753,3.386c0,0,1.09,0.142,1.621-1.515
			C21.7-17.163,20.3-17.379,20.3-17.379"/>
		<path clip-path="url(#SVGID_2_)" fill="#DD9964" d="M5.7-15.508c0.531,1.656,1.621,1.515,1.621,1.515l-0.753-3.386
			C6.568-17.379,5.167-17.163,5.7-15.508"/>
		<path clip-path="url(#SVGID_2_)" fill="#E4A97F" d="M13.519-25.303c-3.864-0.059-7.042,3.026-7.101,6.89
			c-0.057,3.864,2.987,9.865,6.85,9.85c5.22-0.022,7.192-5.603,7.25-9.466C20.576-21.894,17.382-25.245,13.519-25.303"/>
		<path clip-path="url(#SVGID_2_)" fill="#DD9964" d="M6.353-18.029c0,3.864,2.052,9.687,7.038,9.443v-16.741
			C9.528-25.327,6.353-21.894,6.353-18.029"/>
		<polygon clip-path="url(#SVGID_2_)" fill="#C7C4C6" points="11.531,-7.192 12.145,-6.214 13.221,-7.795 11.531,-7.795 		"/>
		<polygon clip-path="url(#SVGID_2_)" fill="#E8E6E4" points="14.606,-6.214 15.22,-7.192 15.22,-7.795 13.53,-7.795 		"/>
		<path clip-path="url(#SVGID_2_)" fill="#010103" d="M11.33-25.105c-6.73,1.494-4.933,8.246-4.933,8.246l1.043-1.788
			c-0.763-1.675,1.342-2.558,2.764-3.115c1.42-0.559,3.222,0.953,3.222,0.953v-4.628C12.594-25.49,11.33-25.105,11.33-25.105"/>
		<path clip-path="url(#SVGID_2_)" fill="#1A1719" d="M15.523-25.105c0,0-1.265-0.385-2.098-0.332v4.628
			c0,0,3.348,1.882,5.791,0.394c0.506-0.308,0.531,1.033,0.196,1.769l1.055,1.629C20.467-17.019,21.776-23.016,15.523-25.105"/>
		<path clip-path="url(#SVGID_2_)" fill="#010103" d="M11.897-13.325c-0.827,0.629-0.795,1.788-1.39,1.39
			c0,0,1.635,1.191,2.918-0.959C13.425-12.895,12.725-13.953,11.897-13.325"/>
		<path clip-path="url(#SVGID_2_)" fill="#1A1719" d="M14.956-13.325c-0.827-0.628-1.53,0.431-1.53,0.431
			c1.285,2.15,2.92,0.959,2.92,0.959C15.749-11.537,15.783-12.696,14.956-13.325"/>
		<path clip-path="url(#SVGID_2_)" fill="#1A1719" d="M21.56-23.901c-0.1,0.034-1.433,0.348-1.433,0.348
			c-1.864-1.464-4.866-1.638-4.875-1.627c-2.877,3.429,1.512,5.638,3.778,4.871C21.296-21.076,21.66-23.937,21.56-23.901"/>
		<path clip-path="url(#SVGID_2_)" fill="#010103" d="M11.571-7.251c-0.221,0.552,0.077,0.508,0.056,0.618
			c-0.023,0.11-0.109,0.388-0.1,0.452c0.023,0.154,0.154,0.375,0.64,0.231c0.642-0.189,1.114-0.353,1.114-0.353
			s-0.188-0.508-0.286-0.872C12.995-7.174,11.792-7.802,11.571-7.251"/>
		<path clip-path="url(#SVGID_2_)" fill="#1A1719" d="M15.141-7.251c-0.221-0.551-1.424,0.077-1.424,0.077
			C13.619-6.81,13.43-6.302,13.43-6.302s0.473,0.163,1.115,0.353c0.486,0.144,0.617-0.077,0.64-0.231
			c0.009-0.064-0.077-0.342-0.1-0.452C15.064-6.743,15.362-6.699,15.141-7.251"/>
		<path clip-path="url(#SVGID_2_)" fill="#1A1719" d="M12.995-7.174c0,0-0.354,0.927,0.353,0.949l-0.003-0.938L12.995-7.174z"/>
		<path clip-path="url(#SVGID_2_)" fill="#010103" d="M13.349-7.163l-0.002,0.938C14.053-6.246,13.7-7.174,13.7-7.174L13.349-7.163z
			"/>
		<path clip-path="url(#SVGID_2_)" fill="#1A1719" d="M-16.367-81.576c-12.261,0.082-8.062,19.541-7.284,20.594h14.542
			C-9.109-60.981-4.106-81.658-16.367-81.576"/>
		<path clip-path="url(#SVGID_2_)" fill="#010103" d="M-23.651-60.849h7.25l0.034-20.727
			C-28.628-81.495-24.428-61.903-23.651-60.849"/>
		<path clip-path="url(#SVGID_2_)" fill="#DD9964" d="M-24.075-71.779c0.532,1.656,1.621,1.515,1.621,1.515l-0.753-3.386
			C-23.207-73.65-24.607-73.435-24.075-71.779"/>
		<rect x="-17.708" y="-66.049" clip-path="url(#SVGID_2_)" fill="#DD9964" width="2.558" height="2.558"/>
		<path clip-path="url(#SVGID_2_)" fill="#E4A97F" d="M-16.405-81.51c-3.863,0-6.995,3.132-6.995,6.997
			c0,3.863,3.134,9.857,6.995,9.744c7.328-0.215,6.996-5.881,6.996-9.744C-9.409-78.378-12.541-81.51-16.405-81.51"/>
		<path clip-path="url(#SVGID_2_)" fill="#DD9964" d="M-23.4-74.514c0,3.863-0.251,9.679,6.995,9.744v-16.741
			C-20.268-81.511-23.4-78.377-23.4-74.514"/>
		<path clip-path="url(#SVGID_2_)" fill="#1A1719" d="M-16.431-81.576c0,0-0.621-0.007-1.484,0.168
			c-1.201,0.245-2.868,0.843-3.987,2.308c0,0,0.007,0.015,0.022,0.039c-2.297,2.568-1.562,5.856-1.562,5.856
			c1.313-0.716,0.977-1.787,1.856-3.207c1.954,2.173,6.619,1.721,12.745,2.762C-8.841-73.649-8.835-81.511-16.431-81.576"/>
		<path clip-path="url(#SVGID_2_)" fill="#010103" d="M-17.916-81.407L-17.916-81.407c-1.2,0.244-2.867,0.842-3.986,2.308
			c0,0,0.007,0.014,0.021,0.039c-3.091,2.604-1.561,5.856-1.561,5.856c1.312-0.716,1.411-0.728,2.29-2.148
			c0.873,0.971,1.818,0.869,4.837,0.75l-0.117-6.973C-16.432-81.575-17.053-81.582-17.916-81.407"/>
		<path clip-path="url(#SVGID_2_)" fill="#193B73" d="M-14.575-63.492h-3.522c-5.246,0.678-5.554,3.967-5.554,3.967h14.483
			C-9.167-62.782-14.575-63.492-14.575-63.492"/>
		<path clip-path="url(#SVGID_2_)" fill="#3060A3" d="M-14.589-63.492h-1.843v3.967h7.272C-9.16-62.782-14.589-63.492-14.589-63.492
			"/>
		<path clip-path="url(#SVGID_2_)" fill="#010103" d="M-25.254-68.158c-1.104,1.192-2.471,2.346-0.265,4.328
			s-0.459,2.926-1.178,3.292h3.523l1.854-4.796l-3.336-6.229C-24.656-71.563-24.151-69.349-25.254-68.158"/>
		<path clip-path="url(#SVGID_2_)" fill="#1A1719" d="M-7.333-63.839c2.206-1.981,0.838-3.137-0.266-4.328
			c-1.102-1.191-0.597-3.404-0.597-3.404l-3.335,6.228l1.853,4.796h3.523C-6.875-60.912-9.541-61.858-7.333-63.839"/>
		<path clip-path="url(#SVGID_2_)" fill="#010103" d="M-17.913-72.319h-3.754c-0.478,0-0.866,0.332-0.866,0.742
			c0,0,0.474,2.735,2.751,2.735c2.275,0,2.735-2.735,2.735-2.735C-17.046-71.987-17.434-72.319-17.913-72.319"/>
		<path clip-path="url(#SVGID_2_)" fill="#D7D3CC" d="M-18.378-71.929h-2.823c-0.36,0-0.651,0.25-0.651,0.558
			c0,0,0.357,2.056,2.069,2.056c1.711,0,2.055-2.056,2.055-2.056C-17.729-71.679-18.02-71.929-18.378-71.929"/>
		<path clip-path="url(#SVGID_2_)" fill="#1A1719" d="M-11.08-72.319h-3.754c-0.478,0-0.866,0.332-0.866,0.742
			c0,0,0.459,2.735,2.734,2.735c2.277,0,2.752-2.735,2.752-2.735C-10.213-71.987-10.601-72.319-11.08-72.319"/>
		<path clip-path="url(#SVGID_2_)" fill="#E8E6E4" d="M-11.545-71.929h-2.822c-0.361,0-0.652,0.25-0.652,0.558
			c0,0,0.345,2.056,2.057,2.056c1.711,0,2.068-2.056,2.068-2.056C-10.895-71.679-11.187-71.929-11.545-71.929"/>
		<path clip-path="url(#SVGID_2_)" fill="#010103" d="M-17.659-71.425c0,0.187,0.151,0.338,0.337,0.338h0.966v-0.676h-0.966
			C-17.508-71.763-17.659-71.612-17.659-71.425"/>
		<path clip-path="url(#SVGID_2_)" fill="#1A1719" d="M-15.439-71.764h-0.917v0.676h0.917c0.187,0,0.338-0.151,0.338-0.338
			C-15.101-71.612-15.252-71.764-15.439-71.764"/>
		<path clip-path="url(#SVGID_2_)" fill="#DD9964" d="M-16.603-63.626v2.454c0.168,0.144,0.168,0.191,0.168,0.191l0.166-0.166
			l-0.047-2.479H-16.603z"/>
		<path clip-path="url(#SVGID_2_)" fill="#E4A97F" d="M-16.432-63.625l0.004,2.643c0,0,3.286-0.629,3.285-2.194
			C-13.143-63.176-13.959-63.681-16.432-63.625"/>
		<path clip-path="url(#SVGID_2_)" fill="#DD9964" d="M-19.722-63.175c0,1.564,3.287,2.194,3.287,2.194l0.003-2.643
			C-18.905-63.68-19.722-63.175-19.722-63.175"/>
		<rect x="12.208" y="-37.813" clip-path="url(#SVGID_2_)" fill="#DD9964" width="2.558" height="2.69"/>
		<path clip-path="url(#SVGID_2_)" fill="#DD9964" d="M15.198-35.254h-3.536c-5.267,0.678-5.577,3.966-5.577,3.966h14.542
			C20.532-34.217,15.198-35.254,15.198-35.254"/>
		<path clip-path="url(#SVGID_2_)" fill="#E4A97F" d="M15.328-35.254h-1.843v3.966h7.271C20.012-34.746,15.328-35.254,15.328-35.254
			"/>
		<path clip-path="url(#SVGID_2_)" fill="#DD9964" d="M20.443-45.412l-0.753,3.385c0,0,1.09,0.141,1.622-1.514
			C21.843-45.196,20.443-45.412,20.443-45.412"/>
		<path clip-path="url(#SVGID_2_)" fill="#DD9964" d="M5.841-43.542c0.532,1.656,1.621,1.515,1.621,1.515L6.71-45.413
			C6.71-45.413,5.311-45.196,5.841-43.542"/>
		<path clip-path="url(#SVGID_2_)" fill="#E4A97F" d="M13.537-53.338c-3.864,0-6.996,3.132-6.996,6.996
			c0,3.863,3.132,9.746,6.996,9.746c5.849,0,6.995-5.883,6.995-9.746C20.532-50.206,17.399-53.338,13.537-53.338"/>
		<path clip-path="url(#SVGID_2_)" fill="#DD9964" d="M6.516-46.277c0,3.864,1.259,9.745,6.996,9.745v-16.74
			C9.648-53.272,6.516-50.14,6.516-46.277"/>
		<path clip-path="url(#SVGID_2_)" fill="#010103" d="M11.454-53.022c-5.721,1.902-4.913,7.674-4.913,7.674l1.049-1.546
			c-0.76-1.588,0.627-3.22,2.038-3.75c1.412-0.529,3.909,1.699,3.909,1.699v-4.392C12.708-53.386,11.454-53.022,11.454-53.022"/>
		<path clip-path="url(#SVGID_2_)" fill="#1A1719" d="M15.62-53.022c0,0-1.255-0.364-2.083-0.315v4.392c0,0,2.496-2.228,3.908-1.699
			c1.412,0.53,2.798,2.162,2.039,3.75l1.048,1.546C20.532-45.349,21.339-51.121,15.62-53.022"/>
		<path clip-path="url(#SVGID_2_)" fill="#FE4C10" d="M10.851-35.122c-1.69,0.106-3.065,1.262-3.065,1.262l0.65,2.572h4.978v-1.683
			C11.241-32.965,10.851-35.122,10.851-35.122"/>
		<path clip-path="url(#SVGID_2_)" fill="#FC6739" d="M13.41-32.972v1.684h4.976l0.651-2.572c0,0-1.376-1.155-3.064-1.262
			C15.973-35.122,15.582-32.965,13.41-32.972"/>
		<path clip-path="url(#SVGID_2_)" fill="#CB7B46" d="M-16.367,29.2c-12.261,0.081-8.063,19.541-7.284,20.594h14.542
			C-9.109,49.794-4.106,29.119-16.367,29.2"/>
		<path clip-path="url(#SVGID_2_)" fill="#7D4113" d="M-23.651,49.927h7.25l0.034-20.727
			C-28.628,29.281-24.429,48.873-23.651,49.927"/>
		<rect x="-17.708" y="44.727" clip-path="url(#SVGID_2_)" fill="#DD9964" width="2.558" height="2.558"/>
		<path clip-path="url(#SVGID_2_)" fill="#E4A97F" d="M-16.405,29.266c-3.863,0-6.995,3.132-6.995,6.996s3.134,9.858,6.995,9.745
			c7.328-0.214,6.996-5.881,6.996-9.745S-12.541,29.266-16.405,29.266"/>
		<path clip-path="url(#SVGID_2_)" fill="#DD9964" d="M-23.4,36.262c0,3.863-0.251,9.68,6.995,9.744v-16.74
			C-20.268,29.266-23.4,32.398-23.4,36.262"/>
		<path clip-path="url(#SVGID_2_)" fill="#0D2E14" d="M-14.538,47.284h-3.536c-5.268,0.677-5.577,3.966-5.577,3.966h14.542
			C-9.108,47.994-14.538,47.284-14.538,47.284"/>
		<path clip-path="url(#SVGID_2_)" fill="#164C22" d="M-14.589,47.284h-1.843v3.966h7.272C-9.16,47.994-14.589,47.284-14.589,47.284
			"/>
		<path clip-path="url(#SVGID_2_)" fill="#7D4113" d="M-25.255,42.618c-1.103,1.191-2.471,2.346-0.264,4.328
			c2.206,1.981-0.459,2.927-1.178,3.293h3.523l1.854-4.797l-3.336-6.229C-24.656,39.213-24.151,41.427-25.255,42.618"/>
		<path clip-path="url(#SVGID_2_)" fill="#CB7B46" d="M-7.333,46.937c2.206-1.981,0.838-3.137-0.266-4.327
			c-1.102-1.192-0.597-3.406-0.597-3.406l-3.336,6.229l1.854,4.796h3.523C-6.875,49.863-9.541,48.918-7.333,46.937"/>
		<path clip-path="url(#SVGID_2_)" fill="#686562" d="M-16.428,49.795c0,0,3.286-0.63,3.286-2.195c0,0-0.453-0.149-3.263-0.936
			L-16.428,49.795z"/>
		<path clip-path="url(#SVGID_2_)" fill="#686562" d="M-16.417,49.795l0.013-3.131c-1.545,0.015-3.299,0.936-3.299,0.936
			C-19.705,49.165-16.417,49.795-16.417,49.795"/>
		<path clip-path="url(#SVGID_2_)" fill="#7D4113" d="M-23.028,32.686c-1.601,2.883-0.429,4.674-0.429,4.674
			c2.955-0.736,7.017-4.91,7.017-4.91l0.035-3.184C-17.762,29.133-21.426,29.802-23.028,32.686"/>
		<path clip-path="url(#SVGID_2_)" fill="#CB7B46" d="M-16.455,29.266l0.035,3.184c0,0,4.43,4.45,7.386,5.187
			c0,0,0.803-2.067-0.798-4.951C-11.433,29.802-15.098,29.134-16.455,29.266"/>
		<path clip-path="url(#SVGID_2_)" fill="#E8E7E0" d="M-16.405,46.664l0.593,1.305l1.389-0.651l-0.365-0.653
			C-14.788,46.664-15.639,46.518-16.405,46.664"/>
		<path clip-path="url(#SVGID_2_)" fill="#D7D3CC" d="M-18.072,46.664l-0.365,0.652l1.389,0.652l0.593-1.305
			C-17.219,46.518-18.072,46.664-18.072,46.664"/>
		<path clip-path="url(#SVGID_2_)" fill="#0D2E14" d="M-16.472,48.807c-0.147,0-0.267,0.12-0.267,0.267
			c0,0.147,0.12,0.267,0.267,0.267c0.146,0,0.266-0.119,0.266-0.267C-16.206,48.927-16.326,48.807-16.472,48.807"/>
		<path clip-path="url(#SVGID_2_)" fill="#010103" d="M9.286-62.821l0.529,0.971c0,0,1.306-0.529,3.765-0.551v-1.699
			C13.58-64.101,11.492-64.365,9.286-62.821"/>
		<path clip-path="url(#SVGID_2_)" fill="#010103" d="M13.622-64.101v1.699c2.458,0.022,3.764,0.551,3.764,0.551l0.529-0.971
			C15.708-64.366,13.622-64.101,13.622-64.101"/>
		<path clip-path="url(#SVGID_2_)" fill="#FBAD4B" d="M13.64-79.153l0.003,1.781l2.149-0.213
			C15.53-79.163,13.64-79.153,13.64-79.153"/>
		<path clip-path="url(#SVGID_2_)" fill="#3060A3" d="M11.964-77.696c0.231-0.054,1.747-0.229,1.747-0.229v-0.705
			C12.242-78.63,11.964-77.696,11.964-77.696"/>
		<path clip-path="url(#SVGID_2_)" fill="#3060A3" d="M13.678-78.63v0.705c0,0,1.516,0.175,1.747,0.229
			C15.425-77.696,15.147-78.63,13.678-78.63"/>
		<rect x="12.295" y="-64.941" clip-path="url(#SVGID_2_)" fill="#DD9964" width="2.558" height="2.558"/>
		<path clip-path="url(#SVGID_2_)" fill="#E4A97F" d="M13.677-80.402c-3.864,0-6.996,3.133-6.996,6.996s2.28,9.745,6.996,9.745
			c4.703,0,6.996-5.882,6.996-9.745S17.541-80.402,13.677-80.402"/>
		<path clip-path="url(#SVGID_2_)" fill="#DD9964" d="M6.55-73.406c0,3.863,2.313,9.745,6.996,9.745v-16.741
			C9.682-80.402,6.55-77.269,6.55-73.406"/>
		<path clip-path="url(#SVGID_2_)" fill="#E4A97F" d="M15.351-62.401h-1.843v3.966h7.272C20.78-61.691,15.351-62.401,15.351-62.401"
			/>
		<path clip-path="url(#SVGID_2_)" fill="#DD9964" d="M6.307-58.436h7.272v-3.966h-1.843C11.736-62.401,6.307-61.69,6.307-58.436"/>
		<polygon clip-path="url(#SVGID_2_)" fill="#DCDCD4" points="8.104,-58.436 13.598,-58.436 13.598,-60.418 9.833,-60.418 		"/>
		<polygon clip-path="url(#SVGID_2_)" fill="#DCDCD4" points="9.454,-61.805 9.833,-60.418 9.942,-60.418 9.564,-61.853 		"/>
		<polygon clip-path="url(#SVGID_2_)" fill="#F3F2EE" points="13.598,-60.418 13.598,-58.436 19.092,-58.436 17.363,-60.418 		"/>
		<polygon clip-path="url(#SVGID_2_)" fill="#F3F2EE" points="17.253,-60.418 17.362,-60.418 17.742,-61.804 17.631,-61.854 		"/>
		<path clip-path="url(#SVGID_2_)" fill="#45220F" d="M6.549-72.52l1-0.765c0.808-5.555,5.997-5.162,5.997-5.162v-2.007
			C5.257-79.867,6.549-72.52,6.549-72.52"/>
		<path clip-path="url(#SVGID_2_)" fill="#502E1A" d="M13.48-80.507v2.006c0,0,5.189-0.392,5.996,5.163l1.195,0.809
			C20.671-72.529,21.768-79.92,13.48-80.507"/>
		<path clip-path="url(#SVGID_2_)" fill="#010103" d="M8.756-62.027l-0.044,0.265l-2.074,1.72l-0.53,1.589h6.84l-0.882-2.736
			C12.066-61.189,9.947-60.042,8.756-62.027"/>
		<path clip-path="url(#SVGID_2_)" fill="#193B73" d="M10.775-62.071c-0.927-1.147,0.794-1.854,0.794-1.854
			c-1.279-0.088-2.383,0.751-2.383,0.751l-0.927,1.324l1.589,2.294l2.114-1.628C11.923-61.157,11.633-61.008,10.775-62.071"/>
		<path clip-path="url(#SVGID_2_)" fill="#193B73" d="M11.961-61.185c0.003-0.002,0.005-0.004,0.005-0.004L11.961-61.185z"/>
		<path clip-path="url(#SVGID_2_)" fill="#999694" d="M11.702-59.754c-0.22,0-0.397,0.177-0.397,0.397
			c0,0.219,0.177,0.397,0.397,0.397c0.219,0,0.397-0.178,0.397-0.397C12.099-59.578,11.92-59.754,11.702-59.754"/>
		<path clip-path="url(#SVGID_2_)" fill="#1A1719" d="M18.323-61.795l-0.044-0.265c-1.191,1.986-3.31,0.839-3.31,0.839l-0.882,2.736
			h6.84l-0.531-1.589L18.323-61.795z"/>
		<polyline clip-path="url(#SVGID_2_)" fill="#3060A3" points="15.007,-61.217 15.002,-61.221 15.007,-61.217 		"/>
		<path clip-path="url(#SVGID_2_)" fill="#3060A3" d="M15.4-63.958c0,0,1.721,0.706,0.794,1.853
			c-0.859,1.063-1.149,0.915-1.187,0.887l2.114,1.629l1.588-2.295l-0.927-1.324C17.782-63.208,16.679-64.045,15.4-63.958"/>
		<path clip-path="url(#SVGID_2_)" fill="#A19F97" d="M13.478-81.576v2.339c0,0,5.78-0.573,7.148,4.59
			C20.626-74.647,20.671-81.09,13.478-81.576"/>
		<path clip-path="url(#SVGID_2_)" fill="#6D6966" d="M6.33-74.647c1.368-5.163,7.148-4.59,7.148-4.59v-2.339
			C6.151-80.958,6.33-74.647,6.33-74.647"/>
		<path clip-path="url(#SVGID_2_)" fill="#D7D3CC" d="M4.741-72.971c0,0,0.353,1.942,2.294,2.647L6.55-72.52
			c0,0-1.396-6.55,7.09-6.634v-1.584C13.64-80.738,3.152-80.032,4.741-72.971"/>
		<path clip-path="url(#SVGID_2_)" fill="#E8E6E4" d="M13.512-80.738v1.584c8.129,0.138,7.093,6.634,7.093,6.634l-0.488,2.197
			c1.943-0.706,2.295-2.648,2.295-2.648C24.001-80.031,13.512-80.738,13.512-80.738"/>
		<path clip-path="url(#SVGID_2_)" fill="#DD9964" d="M5.729-70.604c0.532,1.655,1.621,1.514,1.621,1.514l-0.752-3.386
			C6.598-72.476,5.198-72.26,5.729-70.604"/>
		<path clip-path="url(#SVGID_2_)" fill="#DD9964" d="M20.584-72.475l-0.752,3.386c0,0,1.089,0.14,1.621-1.514
			C21.984-72.26,20.584-72.475,20.584-72.475"/>
		<path clip-path="url(#SVGID_2_)" fill="#45220F" d="M8.58-78.664c-0.485,1.191-2.25,0.839-2.25,0.839
			c1.94,3.265,7.183,1.544,7.183,1.544v-2.873C11.649-81.32,9.064-79.854,8.58-78.664"/>
		<path clip-path="url(#SVGID_2_)" fill="#502E1A" d="M15.419-78.884c-0.573-0.309-1.907-0.27-1.907-0.27v2.874
			C14.827-76.546,15.993-78.575,15.419-78.884"/>
		<path clip-path="url(#SVGID_2_)" fill="#FCAF4C" d="M-24.434-20.372c0,0,1.248,6.902,2.159,8.884
			c0.909,1.98,1.188,2.233,0.452,2.612c0,0,1.948,0.453,2.627-0.489c0,0,2.208,1.404,2.764,1.285v-16.433
			C-16.432-24.513-23.121-24.452-24.434-20.372"/>
		<path clip-path="url(#SVGID_2_)" fill="#FCAF4C" d="M-16.467-24.513V-8.08c0.555,0.12,2.763-1.285,2.763-1.285
			c0.68,0.943,2.627,0.49,2.627,0.49c-0.736-0.379-0.457-0.632,0.453-2.613c0.909-1.98,2.159-8.884,2.159-8.884
			C-9.78-24.452-16.467-24.513-16.467-24.513"/>
		<path clip-path="url(#SVGID_2_)" fill="#DE9865" d="M-24.031-15.834c0.53,1.635,1.617,1.497,1.617,1.497l-0.75-3.347
			C-23.164-17.684-24.561-17.47-24.031-15.834"/>
		<path clip-path="url(#SVGID_2_)" fill="#E4AA7F" d="M-9.673-17.684l-0.75,3.347c0,0,1.086,0.138,1.617-1.497
			C-8.277-17.47-9.673-17.684-9.673-17.684"/>
		<path clip-path="url(#SVGID_2_)" fill="#DCDCD5" d="M-17.7-9.023c-0.35,0-0.634,0.282-0.634,0.629s0.284,0.627,0.634,0.627
			s0.634-0.28,0.634-0.627S-17.35-9.023-17.7-9.023"/>
		<path clip-path="url(#SVGID_2_)" fill="#F5F4F0" d="M-15.135-8.986c-0.351,0-0.634,0.281-0.634,0.628s0.283,0.628,0.634,0.628
			c0.35,0,0.634-0.281,0.634-0.628S-14.785-8.986-15.135-8.986"/>
		<rect x="-17.679" y="-10.174" clip-path="url(#SVGID_2_)" fill="#E4AA7F" width="2.552" height="2.528"/>
		<path clip-path="url(#SVGID_2_)" fill="#E9BD9A" d="M-16.432-25.451c-3.854,0-6.979,3.096-6.979,6.913
			c0,3.818,2.138,9.676,6.979,9.631c4.673-0.042,6.979-5.813,6.979-9.631C-9.453-22.355-12.578-25.451-16.432-25.451"/>
		<path clip-path="url(#SVGID_2_)" fill="#E4AA7F" d="M-23.41-18.538c0,3.818,2.319,10.27,6.979,9.631v-16.544
			C-20.286-25.451-23.41-22.355-23.41-18.538"/>
		<path clip-path="url(#SVGID_2_)" fill="#E9BD9A" d="M-14.63-7.663h-1.839v3.92h7.255C-9.214-6.962-14.63-7.663-14.63-7.663"/>
		<path clip-path="url(#SVGID_2_)" fill="#E4AA7F" d="M-23.652-3.744h7.253v-3.92h-1.837C-18.236-7.664-23.652-6.962-23.652-3.744"
			/>
		<path clip-path="url(#SVGID_2_)" fill="#680000" d="M-17.664-7.898l-0.853,0.248c-0.001,0.217-0.068,0.447-0.215,0.681
			c-0.733,1.162-1.571,2.261-2.541,3.226h4.874v-2.293c-0.009,0-0.017,0.001-0.027,0.001C-17.534-6.036-17.946-7.104-17.664-7.898"
			/>
		<path clip-path="url(#SVGID_2_)" fill="#FE9D2A" d="M-21.848-23.731c-4.674,0.919-2.37,6.493-1.547,6.596
			c0.822,0.104,1.598-0.845,2.786-3.111c1.189-2.268,3.607-0.654,3.607-0.654C-15.503-27.843-21.848-23.731-21.848-23.731"/>
		<path clip-path="url(#SVGID_2_)" fill="#FE9D2A" d="M-13.157-26.185c-3.874-1.178-7.043-0.742-7.659,1.067
			c-0.617,1.81,3.102,3.99,3.102,3.99l1.169,0.697l4.813-3.148C-11.732-23.578-9.284-25.008-13.157-26.185"/>
		<path clip-path="url(#SVGID_2_)" fill="#FCAF4C" d="M-11.005-23.731c0,0-5.635,0.258-4.846,2.83c0,0,2.417-1.613,3.607,0.654
			c1.188,2.267,1.964,3.215,2.786,3.111C-8.635-17.239-6.332-22.813-11.005-23.731"/>
		<path clip-path="url(#SVGID_2_)" fill="#FCAF4C" d="M-16.469-20.43c0,0-3.905-5.712,5.441-3.75c0,0,0.374-0.131-0.047-0.937
			C-11.497-25.924-23.51-26.86-16.469-20.43"/>
		<path clip-path="url(#SVGID_2_)" fill="#FCAF4C" d="M-16.469-20.43c-0.877-3.967,5.259-3.512,5.259-3.512
			C-18.538-24.618-16.469-20.43-16.469-20.43"/>
		<path clip-path="url(#SVGID_2_)" fill="#FE9D2A" d="M-9.214-19.655c-0.531-1.538-1.968-5.134-4.592-2.878v0.131
			c0,0,2.416-1.875,3.667,1.973c1.252,3.848,1.813,0.905,1.813,0.905S-8.684-18.118-9.214-19.655"/>
		<path clip-path="url(#SVGID_2_)" fill="#FCAF4C" d="M-23.548-19.458c-0.531,1.537-0.889,0.131-0.889,0.131
			s0.562,2.943,1.813-0.904c1.251-3.849,3.668-1.974,3.668-1.974v-0.131C-21.582-24.592-23.018-20.995-23.548-19.458"/>
		<path clip-path="url(#SVGID_2_)" fill="#B0000F" d="M-14.294-7.65l-0.853-0.249c0.283,0.796-0.129,1.863-1.237,1.863
			c-0.01,0-0.018,0-0.027,0v2.293h4.875c-0.972-0.966-1.809-2.064-2.542-3.227C-14.227-7.202-14.292-7.434-14.294-7.65"/>
		<path clip-path="url(#SVGID_2_)" fill="#DCDCD5" d="M-18.678-8.272c-0.35,0-0.633,0.281-0.633,0.627
			c0,0.347,0.283,0.628,0.633,0.628c0.351,0,0.635-0.281,0.635-0.628C-18.043-7.991-18.327-8.272-18.678-8.272"/>
		<path clip-path="url(#SVGID_2_)" fill="#DCDCD5" d="M-17.066-6.342c-0.351,0-0.634,0.281-0.634,0.628s0.283,0.628,0.634,0.628
			c0.35,0,0.634-0.281,0.634-0.628S-16.716-6.342-17.066-6.342"/>
		<path clip-path="url(#SVGID_2_)" fill="#DCDCD5" d="M-18.043-7.226c-0.351,0-0.634,0.281-0.634,0.627s0.283,0.628,0.634,0.628
			s0.634-0.282,0.634-0.628S-17.692-7.226-18.043-7.226"/>
		<path clip-path="url(#SVGID_2_)" fill="#F5F4F0" d="M-14.158-8.235c-0.351,0-0.634,0.281-0.634,0.628s0.283,0.627,0.634,0.627
			c0.35,0,0.634-0.28,0.634-0.627S-13.808-8.235-14.158-8.235"/>
		<path clip-path="url(#SVGID_2_)" fill="#F5F4F0" d="M-15.769-6.305c-0.351,0-0.634,0.281-0.634,0.629
			c0,0.346,0.283,0.627,0.634,0.627c0.35,0,0.634-0.281,0.634-0.627C-15.135-6.023-15.419-6.305-15.769-6.305"/>
		<path clip-path="url(#SVGID_2_)" fill="#F5F4F0" d="M-14.792-7.188c-0.35,0-0.634,0.28-0.634,0.628
			c0,0.346,0.284,0.627,0.634,0.627s0.634-0.281,0.634-0.627C-14.158-6.908-14.441-7.188-14.792-7.188"/>
		<path clip-path="url(#SVGID_2_)" fill="#010103" d="M-23.546,13.782c0,0-2.013-0.631-3.891,1.16c0,0,0.111,1.761,1.003,3.095
			l1.498-0.605l-1.118,1.114l0.352,0.304c0,0,2.88-0.981,2.9-3.459C-22.802,15.391-23.663,14.911-23.546,13.782"/>
		<path clip-path="url(#SVGID_2_)" fill="#680000" d="M-22.902,13.212c0,0-0.66,0.277-0.743,0.703
			c-0.085,0.426,0.045,1.946,0.98,2.012c0,0,0.295,0.114,0.521-0.346C-22.144,15.581-23.019,14.072-22.902,13.212"/>
		<path clip-path="url(#SVGID_2_)" fill="#1A1719" d="M-9.308,13.766c0.116,1.128-0.744,1.607-0.744,1.607
			c0.02,2.478,2.901,3.459,2.901,3.459l0.35-0.303l-1.116-1.115l1.498,0.606c0.892-1.334,1.003-3.095,1.003-3.095
			C-7.295,13.134-9.308,13.766-9.308,13.766"/>
		<path clip-path="url(#SVGID_2_)" fill="#B0000F" d="M-9.954,12.955c0.116,0.859-0.758,2.368-0.758,2.368
			c0.226,0.461,0.521,0.345,0.521,0.345c0.935-0.065,1.064-1.585,0.98-2.01C-9.293,13.23-9.954,12.955-9.954,12.955"/>
		<path clip-path="url(#SVGID_2_)" fill="#DE9865" d="M-24.042,12.884c0.525,1.631,1.6,1.492,1.6,1.492l-0.743-3.335
			C-23.185,11.041-24.565,11.254-24.042,12.884"/>
		<path clip-path="url(#SVGID_2_)" fill="#DE9865" d="M-9.841,11.041l-0.742,3.334c0,0,1.074,0.14,1.599-1.49
			S-9.841,11.041-9.841,11.041"/>
		<rect x="-17.76" y="18.526" clip-path="url(#SVGID_2_)" fill="#DE9865" width="2.525" height="2.52"/>
		<path clip-path="url(#SVGID_2_)" fill="#E4AA7F" d="M-16.527,3.302c-3.812,0-6.902,3.084-6.902,6.889s0.741,9.598,6.902,9.598
			c6.803,0,6.904-5.793,6.904-9.598S-12.714,3.302-16.527,3.302"/>
		<path clip-path="url(#SVGID_2_)" fill="#DE9865" d="M-23.427,10.191c0,3.804,0.739,9.597,6.902,9.597V3.302
			C-20.337,3.302-23.427,6.386-23.427,10.191"/>
		<path clip-path="url(#SVGID_2_)" fill="#E4AA7F" d="M-14.744,21.028h-1.818v3.905h7.173
			C-9.389,21.728-14.744,21.028-14.744,21.028"/>
		<path clip-path="url(#SVGID_2_)" fill="#DE9865" d="M-23.667,24.934h7.175v-3.906h-1.818
			C-18.311,21.027-23.667,21.728-23.667,24.934"/>
		<path clip-path="url(#SVGID_2_)" fill="#010103" d="M-23.667,5.984c-1.57,2.28,0.044,6.597,0.044,6.597
			c3.301-0.714,7.099-7.122,7.099-7.122V3.302C-20.488,3.175-23.667,5.984-23.667,5.984"/>
		<path clip-path="url(#SVGID_2_)" fill="#1A1719" d="M-16.562,3.302v2.157c0,0,3.869,6.443,7.171,7.156
			c0,0,1.574-4.351,0.003-6.631C-9.388,5.984-12.599,3.175-16.562,3.302"/>
		<path clip-path="url(#SVGID_2_)" fill="#680000" d="M-22.688,22.833v2.101h6.195v-4.509l-2.417,0.711
			C-18.91,21.136-21.561,21.732-22.688,22.833"/>
		<path clip-path="url(#SVGID_2_)" fill="#B0000F" d="M-16.499,20.425v4.509h6.197v-2.101c-1.128-1.101-3.778-1.698-3.778-1.698
			L-16.499,20.425z"/>
		<path clip-path="url(#SVGID_2_)" fill="#D7D3CC" d="M-18.91,21.136c0.2,1.141,1.971,1.696,1.971,1.696l0.414-2.407l-2.19-0.241
			L-18.91,21.136z"/>
		<path clip-path="url(#SVGID_2_)" fill="#F5E4D7" d="M-16.525,20.425l0.414,2.408c0,0,1.771-0.558,1.971-1.698l-0.196-0.952
			L-16.525,20.425z"/>
		<path clip-path="url(#SVGID_2_)" fill="#010103" d="M-22.893,5.498c0.01,0.021-0.013,0.035-0.013,0.035
			c2.824-1.776,6.344-1.011,6.344-1.011V2.769C-17.083,1.559-23.414,4.287-22.893,5.498"/>
		<path clip-path="url(#SVGID_2_)" fill="#1A1719" d="M-16.571,2.638v1.755c0,0,3.52-0.766,6.343,1.01c0,0-0.003-0.013-0.013-0.035
			C-10.369,5.024-11.535,2.348-16.571,2.638"/>
	</g>
</g>
</svg>
