<?xml version="1.0" encoding="utf-8"?>
<!-- Generator: Adobe Illustrator 16.0.3, SVG Export Plug-In . SVG Version: 6.00 Build 0)  -->
<!DOCTYPE svg PUBLIC "-//W3C//DTD SVG 1.1//EN" "http://www.w3.org/Graphics/SVG/1.1/DTD/svg11.dtd">
<svg version="1.1" id="Capa_1" xmlns="http://www.w3.org/2000/svg" xmlns:xlink="http://www.w3.org/1999/xlink" x="0px" y="0px"
	 width="27.155px" height="27.154px" viewBox="0 0 27.155 27.154" enable-background="new 0 0 27.155 27.154" xml:space="preserve">
<g>
	<g>
		<defs>
			<rect id="SVGID_1_" x="-210.646" y="-317.452" width="792" height="612"/>
		</defs>
		<clipPath id="SVGID_2_">
			<use xlink:href="#SVGID_1_"  overflow="visible"/>
		</clipPath>
		<path clip-path="url(#SVGID_2_)" fill="#FFD900" d="M27.155-42.315c0,7.499-6.079,13.577-13.577,13.577
			C6.079-28.738,0-34.816,0-42.315s6.079-13.577,13.578-13.577C21.076-55.892,27.155-49.814,27.155-42.315"/>
		<path clip-path="url(#SVGID_2_)" fill="#FFD900" d="M57.158-42.315c0,7.499-6.078,13.577-13.577,13.577
			c-7.498,0-13.577-6.078-13.577-13.577s6.079-13.577,13.577-13.577C51.08-55.892,57.158-49.814,57.158-42.315"/>
		<path clip-path="url(#SVGID_2_)" fill="#BFE10E" d="M27.155-14.369c0,7.499-6.079,13.577-13.577,13.577
			C6.079-0.792,0-6.87,0-14.369c0-7.499,6.079-13.578,13.578-13.578C21.076-27.947,27.155-21.868,27.155-14.369"/>
		<path clip-path="url(#SVGID_2_)" fill="#BFE10E" d="M57.158-14.369c0,7.499-6.078,13.577-13.577,13.577
			c-7.498,0-13.577-6.078-13.577-13.577c0-7.499,6.079-13.578,13.577-13.578C51.08-27.947,57.158-21.868,57.158-14.369"/>
		<path clip-path="url(#SVGID_2_)" fill="#F0047F" d="M27.155,13.577c0,7.499-6.079,13.577-13.577,13.577
			C6.079,27.154,0,21.076,0,13.577S6.079,0,13.578,0C21.076,0,27.155,6.078,27.155,13.577"/>
		<path clip-path="url(#SVGID_2_)" fill="#F0047F" d="M57.158,13.577c0,7.499-6.078,13.577-13.577,13.577
			c-7.498,0-13.577-6.078-13.577-13.577S36.083,0,43.581,0C51.08,0,57.158,6.078,57.158,13.577"/>
		<path clip-path="url(#SVGID_2_)" fill="#0A51A1" d="M27.155,41.522c0,7.499-6.079,13.578-13.577,13.578
			C6.079,55.101,0,49.021,0,41.522c0-7.498,6.079-13.576,13.578-13.576C21.076,27.946,27.155,34.024,27.155,41.522"/>
		<path clip-path="url(#SVGID_2_)" fill="#0A51A1" d="M57.158,41.522c0,7.499-6.078,13.578-13.577,13.578
			c-7.498,0-13.577-6.079-13.577-13.578c0-7.498,6.079-13.576,13.577-13.576C51.08,27.946,57.158,34.024,57.158,41.522"/>
		<path clip-path="url(#SVGID_2_)" fill="#FF8C00" d="M27.155,69.47c0,7.498-6.079,13.576-13.577,13.576
			C6.079,83.046,0,76.968,0,69.47c0-7.499,6.079-13.577,13.578-13.577C21.076,55.893,27.155,61.971,27.155,69.47"/>
		<path clip-path="url(#SVGID_2_)" fill="#FF8C00" d="M57.158,69.47c0,7.498-6.078,13.576-13.577,13.576
			c-7.498,0-13.577-6.078-13.577-13.576c0-7.499,6.079-13.577,13.577-13.577C51.08,55.893,57.158,61.971,57.158,69.47"/>
		<path clip-path="url(#SVGID_2_)" fill="#DE9865" d="M6.041-16.202c0.526,1.637,1.605,1.498,1.605,1.498L6.9-18.051
			C6.9-18.051,5.514-17.836,6.041-16.202"/>
		<path clip-path="url(#SVGID_2_)" fill="#DE9865" d="M20.291-18.05l-0.745,3.346c0,0,1.079,0.139,1.605-1.497
			C21.678-17.837,20.291-18.05,20.291-18.05"/>
		<rect x="12.345" y="-10.54" clip-path="url(#SVGID_2_)" fill="#DE9865" width="2.533" height="2.528"/>
		<polygon clip-path="url(#SVGID_2_)" fill="#010103" points="6.473,-7.23 19.642,-7.23 21.081,-18.395 5.906,-18.699 		"/>
		<rect x="12.359" y="-10.502" clip-path="url(#SVGID_2_)" fill="#DE9865" width="2.441" height="2.573"/>
		<path clip-path="url(#SVGID_2_)" fill="#E4AA7F" d="M13.583-25.818c-3.825,0-6.927,3.096-6.927,6.914
			c0,3.817,0.742,9.629,6.927,9.629c6.825,0,6.927-5.813,6.927-9.629C20.509-22.722,17.408-25.818,13.583-25.818"/>
		<path clip-path="url(#SVGID_2_)" fill="#DE9865" d="M6.656-18.904c0,3.817,0.742,9.629,6.927,9.629v-16.543
			C9.759-25.818,6.656-22.722,6.656-18.904"/>
		<path clip-path="url(#SVGID_2_)" fill="#E4AA7F" d="M15.37-8.029h-1.824v3.92h7.2C20.746-7.328,15.37-8.029,15.37-8.029"/>
		<path clip-path="url(#SVGID_2_)" fill="#DE9865" d="M6.417-4.11h7.199v-3.92h-1.824C11.792-8.03,6.417-7.328,6.417-4.11"/>
		<path clip-path="url(#SVGID_2_)" fill="#D7D3CC" d="M12.141-8.104c0,0-3.75,0.307-2.878,0.35C10.135-7.71,9.917-4.11,9.917-4.11
			h3.707V-6.14C11.662-6.053,12.141-8.104,12.141-8.104"/>
		<path clip-path="url(#SVGID_2_)" fill="#E9E7E5" d="M15.107-8.104c0,0,0.479,2.051-1.483,1.964v2.029h3.706
			c0,0-0.218-3.6,0.655-3.644C18.857-7.797,15.107-8.104,15.107-8.104"/>
		<path clip-path="url(#SVGID_2_)" fill="#010103" d="M5.121-17.347c0.523,2.66,1.221,3.226-0.437,4.884
			c-1.656,1.657-2.703,5.625,2.4,6.497c4.995,0.854,4.403-3.619,4.403-3.619s-0.479,0.654-1.962-0.741
			c-1.483-1.396-2.703-3.533-2.398-7.937c0.306-4.405,6.456-3.489,6.456-3.489v-4.066C6.915-26.264,4.598-20.007,5.121-17.347"/>
		<path clip-path="url(#SVGID_2_)" fill="#1A1719" d="M22.033-17.347c0.523-2.66-1.792-8.917-8.462-8.471v4.066
			c0,0,6.151-0.916,6.457,3.489c0.305,4.404-0.916,6.541-2.399,7.937c-1.483,1.396-1.962,0.741-1.962,0.741s-0.59,4.473,4.405,3.619
			c5.102-0.872,4.056-4.84,2.398-6.497C20.813-14.121,21.511-14.687,22.033-17.347"/>
		<path clip-path="url(#SVGID_2_)" fill="#010103" d="M6.656-17.291c0,0,5.268-0.493,6.969-0.406v-6.846
			C13.625-24.543,6.099-24.167,6.656-17.291"/>
		<path clip-path="url(#SVGID_2_)" fill="#1A1719" d="M13.56-24.543v6.847c1.701-0.087,6.969,0.405,6.969,0.405
			C21.086-24.167,13.56-24.543,13.56-24.543"/>
		<rect x="12.621" y="-15.473" clip-path="url(#SVGID_2_)" fill="#010103" width="1.004" height="0.61"/>
		<rect x="13.603" y="-15.473" clip-path="url(#SVGID_2_)" fill="#1A1719" width="1.003" height="0.61"/>
		<path clip-path="url(#SVGID_2_)" fill="#010103" d="M8.217-15.211c-0.176,0.611,0.218,2.792,2.181,3.054
			c2.366,0.315,2.659-3.228,2.659-3.228C10.223-17.086,8.217-15.211,8.217-15.211"/>
		<path clip-path="url(#SVGID_2_)" fill="#1A1719" d="M14.175-15.429c0,0,0.295,3.542,2.661,3.227
			c1.962-0.261,2.355-2.442,2.18-3.053C19.016-15.255,17.01-17.13,14.175-15.429"/>
		<path clip-path="url(#SVGID_2_)" fill="#DE9865" d="M35.857,68.298c0.537,1.673,1.639,1.531,1.639,1.531l-0.761-3.422
			C36.735,66.407,35.32,66.626,35.857,68.298"/>
		<path clip-path="url(#SVGID_2_)" fill="#DE9865" d="M50.507,66.407l-0.76,3.422c0,0,1.101,0.142,1.639-1.531
			C51.923,66.626,50.507,66.407,50.507,66.407"/>
		<rect x="42.292" y="74.089" clip-path="url(#SVGID_2_)" fill="#DE9865" width="2.585" height="2.584"/>
		<path clip-path="url(#SVGID_2_)" fill="#E4AA7F" d="M43.555,58.463c-3.905,0-7.07,3.166-7.07,7.07c0,3.906,1.969,9.851,7.07,9.851
			c5.862,0,7.07-5.944,7.07-9.851C50.625,61.629,47.46,58.463,43.555,58.463"/>
		<path clip-path="url(#SVGID_2_)" fill="#DE9865" d="M36.486,65.533c0,3.905,1.598,9.851,7.07,9.851v-16.92
			C39.652,58.464,36.486,61.629,36.486,65.533"/>
		<path clip-path="url(#SVGID_2_)" fill="#D7D3CC" d="M45.458,76.673h-3.56c-5.301,0.685-5.613,4.009-5.613,4.009h14.637
			C50.922,77.391,45.458,76.673,45.458,76.673"/>
		<path clip-path="url(#SVGID_2_)" fill="#F5E4D7" d="M45.577,76.673h-1.861v4.009h7.348C51.063,77.391,45.577,76.673,45.577,76.673
			"/>
		<path clip-path="url(#SVGID_2_)" fill="#010103" d="M42.085,67.751h-3.795c-0.483,0-0.874,0.337-0.874,0.75
			c0,0,0.479,2.765,2.779,2.765c2.301,0,2.764-2.765,2.764-2.765C42.959,68.088,42.568,67.751,42.085,67.751"/>
		<path clip-path="url(#SVGID_2_)" fill="#1A1719" d="M48.99,67.751h-3.794c-0.483,0-0.875,0.337-0.875,0.75
			c0,0,0.464,2.765,2.764,2.765c2.301,0,2.78-2.765,2.78-2.765C49.865,68.088,49.474,67.751,48.99,67.751"/>
		<path clip-path="url(#SVGID_2_)" fill="#010103" d="M42.341,68.655c0,0.189,0.152,0.342,0.342,0.342h0.974v-0.684h-0.974
			C42.493,68.313,42.341,68.467,42.341,68.655"/>
		<path clip-path="url(#SVGID_2_)" fill="#1A1719" d="M44.584,68.313h-0.927v0.684h0.927c0.188,0,0.342-0.152,0.342-0.342
			C44.926,68.467,44.772,68.313,44.584,68.313"/>
		<path clip-path="url(#SVGID_2_)" fill="#DE9865" d="M43.409,76.537v2.48c0.169,0.146,0.169,0.192,0.169,0.192l0.168-0.168
			l-0.048-2.505H43.409z"/>
		<path clip-path="url(#SVGID_2_)" fill="#E4AA7F" d="M43.581,76.539l0.004,2.671c0,0,3.321-0.636,3.32-2.218
			C46.904,76.992,46.08,76.483,43.581,76.539"/>
		<path clip-path="url(#SVGID_2_)" fill="#DE9865" d="M40.257,76.992c-0.002,1.582,3.32,2.218,3.32,2.218l0.003-2.671
			C41.083,76.483,40.257,76.992,40.257,76.992"/>
		<path clip-path="url(#SVGID_2_)" fill="#010103" d="M42.959,57.746l-1.487-0.987l-0.917,1.705l-1.871-1.423
			c-0.284,0.44-0.707,2.472-0.707,2.472C37.413,59.229,36,59.018,36,59.018l0.286,3.143l-0.991-0.313
			c0.07,1.487,1.243,4.559,1.243,4.559s1.094-2.021,0.879-3.293c-0.216-1.271,3.78-0.988,6.16-0.177l0.898-2.471l-0.89-3.707
			L42.959,57.746z"/>
		<path clip-path="url(#SVGID_2_)" fill="#1A1719" d="M51.161,59.018c0,0-1.411,0.212-1.977,0.494c0,0-0.423-2.029-0.706-2.472
			l-1.871,1.423l-0.919-1.704l-1.486,0.988l-0.617-0.988v0.529v5.649c2.38-0.813,6.376-1.096,6.161,0.176
			c-0.215,1.271,0.878,3.294,0.878,3.294s1.173-3.072,1.243-4.561l-0.991,0.314L51.161,59.018z"/>
		<path clip-path="url(#SVGID_2_)" fill="#FBAD4B" d="M53.178,41.066c-1.923-1.406-1.968-3.749-1.968-3.749
			c0.377-4.59-7.701-2.668-7.701-2.668v11.662h9.764c1.781-1.265-0.986-2.201-0.095-2.201C54.07,44.11,55.101,42.471,53.178,41.066"
			/>
		<path clip-path="url(#SVGID_2_)" fill="#FD9B28" d="M35.952,37.317c0,0-0.046,2.343-1.969,3.749c-1.923,1.404-0.89,3.043,0,3.043
			c0.891,0-1.876,0.938-0.094,2.203h9.764V34.649C43.653,34.649,35.574,32.728,35.952,37.317"/>
		<path clip-path="url(#SVGID_2_)" fill="#DD9964" d="M35.445,39.758c0.576,1.792,1.757,1.64,1.757,1.64l-0.816-3.666
			C36.386,37.731,34.868,37.965,35.445,39.758"/>
		<path clip-path="url(#SVGID_2_)" fill="#DD9964" d="M50.917,37.743l-0.801,3.596c0,0,1.159,0.149,1.725-1.608
			C52.406,37.972,50.917,37.743,50.917,37.743"/>
		<rect x="42.271" y="45.814" clip-path="url(#SVGID_2_)" fill="#DD9964" width="2.722" height="2.718"/>
		<path clip-path="url(#SVGID_2_)" fill="#E4A97F" d="M43.601,29.395c-4.109,0-7.44,3.327-7.44,7.431s2.073,10.471,7.44,10.35
			c7.502-0.166,7.439-6.246,7.439-10.35S47.709,29.395,43.601,29.395"/>
		<path clip-path="url(#SVGID_2_)" fill="#DD9964" d="M36.162,36.825c0,4.104-0.21,9.867,7.44,10.35v-17.78
			C39.493,29.395,36.162,32.722,36.162,36.825"/>
		<path clip-path="url(#SVGID_2_)" fill="#DD9964" d="M36.15,52.689h7.464v-4.212h-1.691C41.923,48.478,36.15,49.231,36.15,52.689"
			/>
		<path clip-path="url(#SVGID_2_)" fill="#E4A97F" d="M45.27,48.478h-1.69v4.212h7.463C51.043,49.231,45.27,48.478,45.27,48.478"/>
		<path clip-path="url(#SVGID_2_)" fill="#680008" d="M40.751,48.436c-0.187,0.037-0.483,0.125-0.483,0.125
			c-0.376,0.363-2.633,4.071-2.633,4.071h5.684v-1.064C39.789,51.454,40.751,48.436,40.751,48.436"/>
		<path clip-path="url(#SVGID_2_)" fill="#AF090F" d="M46.2,48.583c0,0,0.907,3.019-2.624,3.132v1.063h5.739
			c0,0-2.256-3.709-2.633-4.07C46.682,48.708,46.387,48.619,46.2,48.583"/>
		<path clip-path="url(#SVGID_2_)" fill="#FD9B28" d="M40.129,36.672c0,0,1.477,0.51,3.473,1.107l-0.035-2.108
			C42.004,35.767,40.659,36.052,40.129,36.672"/>
		<path clip-path="url(#SVGID_2_)" fill="#FBAD4B" d="M50.775,36.194c-0.371-0.186-4.195-0.707-7.207-0.523l0.034,2.108
			c2.359,0.706,5.444,1.533,7.682,1.787C51.284,39.566,51.337,36.475,50.775,36.194"/>
		<path clip-path="url(#SVGID_2_)" fill="#680008" d="M35.952,37.317c0,0,2.935-0.795,7.706-0.795v-7.496
			C43.658,29.026,34.542,28.605,35.952,37.317"/>
		<path clip-path="url(#SVGID_2_)" fill="#AF090F" d="M43.568,29.026v7.495c4.771,0,7.706,0.796,7.706,0.796
			C52.683,28.605,43.568,29.026,43.568,29.026"/>
		<path clip-path="url(#SVGID_2_)" fill="#680008" d="M35.663,36.101c-0.009,0.012-0.352,0.069-0.349,0.624
			c0.005,0.957,1.304,0.441,1.304,0.441l1.656-1.861h-2.47C35.23,35.586,35.804,35.89,35.663,36.101"/>
		<path clip-path="url(#SVGID_2_)" fill="#AF090F" d="M51.48,36.101c-0.141-0.211,0.431-0.515-0.141-0.796H48.87l1.655,1.861
			c0,0,1.299,0.516,1.304-0.441C51.832,36.17,51.489,36.112,51.48,36.101"/>
		<path clip-path="url(#SVGID_2_)" fill="#010103" d="M35.952,52.745l7.673,0.033v-1.58c-3.316,0.026-6.184-0.935-6.184-0.935
			C36.023,51.17,35.952,52.745,35.952,52.745"/>
		<path clip-path="url(#SVGID_2_)" fill="#1A1719" d="M49.773,50.263c0,0-2.868,0.963-6.184,0.937v1.58l7.674-0.035
			C51.263,52.744,51.191,51.169,49.773,50.263"/>
		<rect x="42.082" y="18.196" clip-path="url(#SVGID_2_)" fill="#DD9964" width="2.559" height="2.558"/>
		<path clip-path="url(#SVGID_2_)" fill="#E8E6E4" d="M45.071,20.754v-0.603h-3.536v0.603c-5.267,0.677-5.577,3.966-5.577,3.966
			H50.5C50.5,21.464,45.071,20.754,45.071,20.754"/>
		<path clip-path="url(#SVGID_2_)" fill="#F6F6F2" d="M45.201,20.754v-0.603h-1.843v4.568h7.272
			C50.63,21.464,45.201,20.754,45.201,20.754"/>
		<path clip-path="url(#SVGID_2_)" fill="#DD9964" d="M50.304,10.567l-0.753,3.386c0,0,1.09,0.142,1.621-1.515
			C51.704,10.783,50.304,10.567,50.304,10.567"/>
		<path clip-path="url(#SVGID_2_)" fill="#DD9964" d="M35.704,12.438c0.531,1.656,1.621,1.515,1.621,1.515l-0.753-3.386
			C36.572,10.567,35.171,10.783,35.704,12.438"/>
		<path clip-path="url(#SVGID_2_)" fill="#E4A97F" d="M43.523,2.644c-3.864-0.059-7.042,3.026-7.101,6.89
			c-0.057,3.864,2.987,9.865,6.85,9.85c5.22-0.022,7.192-5.603,7.25-9.466C50.58,6.053,47.386,2.701,43.523,2.644"/>
		<path clip-path="url(#SVGID_2_)" fill="#DD9964" d="M36.357,9.917c0,3.864,2.052,9.687,7.038,9.443V2.619
			C39.532,2.619,36.357,6.053,36.357,9.917"/>
		<polygon clip-path="url(#SVGID_2_)" fill="#C7C4C6" points="41.535,20.754 42.148,21.732 43.225,20.151 41.535,20.151 		"/>
		<polygon clip-path="url(#SVGID_2_)" fill="#E8E6E4" points="44.61,21.732 45.224,20.754 45.224,20.151 43.534,20.151 		"/>
		<path clip-path="url(#SVGID_2_)" fill="#010103" d="M41.333,2.841c-6.73,1.494-4.933,8.246-4.933,8.246l1.043-1.788
			c-0.763-1.675,1.342-2.558,2.764-3.115c1.42-0.559,3.222,0.953,3.222,0.953V2.509C42.598,2.456,41.333,2.841,41.333,2.841"/>
		<path clip-path="url(#SVGID_2_)" fill="#1A1719" d="M45.527,2.841c0,0-1.265-0.385-2.098-0.332v4.628c0,0,3.348,1.882,5.791,0.394
			c0.506-0.308,0.531,1.033,0.196,1.769l1.055,1.629C50.471,10.928,51.78,4.931,45.527,2.841"/>
		<path clip-path="url(#SVGID_2_)" fill="#010103" d="M41.901,14.621c-0.827,0.629-0.795,1.788-1.39,1.39
			c0,0,1.635,1.191,2.918-0.959C43.429,15.052,42.729,13.993,41.901,14.621"/>
		<path clip-path="url(#SVGID_2_)" fill="#1A1719" d="M44.959,14.621c-0.827-0.628-1.53,0.431-1.53,0.431
			c1.285,2.15,2.92,0.959,2.92,0.959C45.752,16.409,45.787,15.25,44.959,14.621"/>
		<path clip-path="url(#SVGID_2_)" fill="#1A1719" d="M51.564,4.045c-0.1,0.034-1.433,0.348-1.433,0.348
			c-1.864-1.464-4.866-1.638-4.875-1.627c-2.877,3.429,1.512,5.638,3.778,4.871C51.3,6.87,51.664,4.01,51.564,4.045"/>
		<path clip-path="url(#SVGID_2_)" fill="#010103" d="M41.575,20.695c-0.221,0.552,0.077,0.508,0.056,0.618
			c-0.023,0.11-0.109,0.388-0.1,0.452c0.023,0.154,0.154,0.375,0.64,0.231c0.642-0.189,1.114-0.353,1.114-0.353
			s-0.188-0.508-0.286-0.872C42.999,20.772,41.796,20.145,41.575,20.695"/>
		<path clip-path="url(#SVGID_2_)" fill="#1A1719" d="M45.145,20.695c-0.221-0.551-1.424,0.077-1.424,0.077
			c-0.098,0.364-0.287,0.872-0.287,0.872s0.473,0.163,1.115,0.353c0.486,0.144,0.617-0.077,0.64-0.231
			c0.009-0.064-0.077-0.342-0.1-0.452C45.068,21.203,45.366,21.247,45.145,20.695"/>
		<path clip-path="url(#SVGID_2_)" fill="#1A1719" d="M42.999,20.772c0,0-0.354,0.927,0.353,0.949l-0.003-0.938L42.999,20.772z"/>
		<path clip-path="url(#SVGID_2_)" fill="#010103" d="M43.353,20.783l-0.002,0.938c0.706-0.021,0.353-0.949,0.353-0.949
			L43.353,20.783z"/>
		<path clip-path="url(#SVGID_2_)" fill="#1A1719" d="M13.637-53.629C1.376-53.547,5.575-34.088,6.353-33.035h14.542
			C20.895-33.035,25.897-53.711,13.637-53.629"/>
		<path clip-path="url(#SVGID_2_)" fill="#010103" d="M6.353-32.902h7.25l0.034-20.727C1.376-53.548,5.576-33.957,6.353-32.902"/>
		<path clip-path="url(#SVGID_2_)" fill="#DD9964" d="M5.929-43.833c0.532,1.656,1.621,1.515,1.621,1.515l-0.753-3.386
			C6.797-45.704,5.397-45.488,5.929-43.833"/>
		<rect x="12.296" y="-38.103" clip-path="url(#SVGID_2_)" fill="#DD9964" width="2.558" height="2.558"/>
		<path clip-path="url(#SVGID_2_)" fill="#E4A97F" d="M13.599-53.564c-3.863,0-6.995,3.132-6.995,6.997
			c0,3.863,3.134,9.857,6.995,9.744c7.328-0.215,6.996-5.881,6.996-9.744C20.595-50.432,17.463-53.564,13.599-53.564"/>
		<path clip-path="url(#SVGID_2_)" fill="#DD9964" d="M6.604-46.567c0,3.863-0.251,9.679,6.995,9.744v-16.741
			C9.736-53.564,6.604-50.431,6.604-46.567"/>
		<path clip-path="url(#SVGID_2_)" fill="#1A1719" d="M13.573-53.629c0,0-0.621-0.007-1.484,0.168
			c-1.201,0.245-2.868,0.843-3.987,2.308c0,0,0.007,0.015,0.022,0.039c-2.297,2.568-1.562,5.856-1.562,5.856
			c1.313-0.716,0.977-1.787,1.856-3.207c1.954,2.173,6.619,1.721,12.745,2.762C21.163-45.703,21.169-53.564,13.573-53.629"/>
		<path clip-path="url(#SVGID_2_)" fill="#010103" d="M12.088-53.461L12.088-53.461c-1.2,0.244-2.867,0.842-3.986,2.308
			c0,0,0.007,0.014,0.021,0.039c-3.091,2.604-1.561,5.856-1.561,5.856c1.312-0.716,1.411-0.728,2.29-2.148
			c0.873,0.971,1.818,0.869,4.837,0.75l-0.117-6.973C13.572-53.629,12.951-53.636,12.088-53.461"/>
		<path clip-path="url(#SVGID_2_)" fill="#193B73" d="M15.429-35.545h-3.522c-5.246,0.678-5.554,3.967-5.554,3.967h14.483
			C20.836-34.835,15.429-35.545,15.429-35.545"/>
		<path clip-path="url(#SVGID_2_)" fill="#3060A3" d="M15.415-35.545h-1.843v3.967h7.272C20.844-34.835,15.415-35.545,15.415-35.545
			"/>
		<path clip-path="url(#SVGID_2_)" fill="#010103" d="M4.75-40.211c-1.104,1.192-2.471,2.346-0.265,4.328s-0.459,2.926-1.178,3.292
			H6.83l1.854-4.796l-3.336-6.229C5.348-43.616,5.853-41.402,4.75-40.211"/>
		<path clip-path="url(#SVGID_2_)" fill="#1A1719" d="M22.67-35.893c2.206-1.981,0.838-3.137-0.266-4.328
			c-1.102-1.191-0.597-3.404-0.597-3.404l-3.335,6.228l1.853,4.796h3.523C23.128-32.966,20.463-33.912,22.67-35.893"/>
		<path clip-path="url(#SVGID_2_)" fill="#010103" d="M12.091-44.373H8.337c-0.478,0-0.866,0.332-0.866,0.742
			c0,0,0.474,2.735,2.751,2.735c2.275,0,2.735-2.735,2.735-2.735C12.958-44.041,12.57-44.373,12.091-44.373"/>
		<path clip-path="url(#SVGID_2_)" fill="#D7D3CC" d="M11.625-43.983H8.803c-0.36,0-0.651,0.25-0.651,0.558
			c0,0,0.357,2.056,2.069,2.056c1.711,0,2.055-2.056,2.055-2.056C12.275-43.733,11.984-43.983,11.625-43.983"/>
		<path clip-path="url(#SVGID_2_)" fill="#1A1719" d="M18.924-44.373H15.17c-0.478,0-0.866,0.332-0.866,0.742
			c0,0,0.459,2.735,2.734,2.735c2.277,0,2.752-2.735,2.752-2.735C19.791-44.041,19.403-44.373,18.924-44.373"/>
		<path clip-path="url(#SVGID_2_)" fill="#E8E6E4" d="M18.458-43.983h-2.822c-0.361,0-0.652,0.25-0.652,0.558
			c0,0,0.345,2.056,2.057,2.056c1.711,0,2.068-2.056,2.068-2.056C19.109-43.733,18.817-43.983,18.458-43.983"/>
		<path clip-path="url(#SVGID_2_)" fill="#010103" d="M12.345-43.479c0,0.187,0.151,0.338,0.337,0.338h0.966v-0.676h-0.966
			C12.496-43.817,12.345-43.666,12.345-43.479"/>
		<path clip-path="url(#SVGID_2_)" fill="#1A1719" d="M14.565-43.817h-0.917v0.676h0.917c0.187,0,0.338-0.151,0.338-0.338
			C14.903-43.666,14.752-43.817,14.565-43.817"/>
		<path clip-path="url(#SVGID_2_)" fill="#DD9964" d="M13.401-35.68v2.454c0.168,0.144,0.168,0.191,0.168,0.191l0.166-0.166
			l-0.047-2.479H13.401z"/>
		<path clip-path="url(#SVGID_2_)" fill="#E4A97F" d="M13.572-35.678l0.004,2.643c0,0,3.286-0.629,3.285-2.194
			C16.861-35.229,16.045-35.734,13.572-35.678"/>
		<path clip-path="url(#SVGID_2_)" fill="#DD9964" d="M10.282-35.229c0,1.564,3.287,2.194,3.287,2.194l0.003-2.643
			C11.099-35.734,10.282-35.229,10.282-35.229"/>
		<rect x="42.212" y="-9.866" clip-path="url(#SVGID_2_)" fill="#DD9964" width="2.558" height="2.69"/>
		<path clip-path="url(#SVGID_2_)" fill="#DD9964" d="M45.202-7.308h-3.536c-5.267,0.678-5.577,3.966-5.577,3.966H50.63
			C50.536-6.271,45.202-7.308,45.202-7.308"/>
		<path clip-path="url(#SVGID_2_)" fill="#E4A97F" d="M45.332-7.308h-1.843v3.966h7.271C50.016-6.8,45.332-7.308,45.332-7.308"/>
		<path clip-path="url(#SVGID_2_)" fill="#DD9964" d="M50.447-17.466l-0.753,3.385c0,0,1.09,0.141,1.622-1.514
			C51.847-17.25,50.447-17.466,50.447-17.466"/>
		<path clip-path="url(#SVGID_2_)" fill="#DD9964" d="M35.845-15.595c0.532,1.656,1.621,1.515,1.621,1.515l-0.752-3.386
			C36.714-17.466,35.314-17.25,35.845-15.595"/>
		<path clip-path="url(#SVGID_2_)" fill="#E4A97F" d="M43.541-25.392c-3.864,0-6.996,3.132-6.996,6.996
			c0,3.863,3.132,9.746,6.996,9.746c5.849,0,6.995-5.883,6.995-9.746C50.536-22.26,47.403-25.392,43.541-25.392"/>
		<path clip-path="url(#SVGID_2_)" fill="#DD9964" d="M36.52-18.331c0,3.864,1.259,9.745,6.996,9.745v-16.74
			C39.652-25.326,36.52-22.193,36.52-18.331"/>
		<path clip-path="url(#SVGID_2_)" fill="#010103" d="M41.458-25.076c-5.721,1.902-4.913,7.674-4.913,7.674l1.049-1.546
			c-0.76-1.588,0.627-3.22,2.038-3.75c1.412-0.529,3.909,1.699,3.909,1.699v-4.392C42.712-25.44,41.458-25.076,41.458-25.076"/>
		<path clip-path="url(#SVGID_2_)" fill="#1A1719" d="M45.624-25.076c0,0-1.255-0.364-2.083-0.315v4.392
			c0,0,2.496-2.228,3.908-1.699c1.412,0.53,2.798,2.162,2.039,3.75l1.048,1.546C50.536-17.402,51.343-23.174,45.624-25.076"/>
		<path clip-path="url(#SVGID_2_)" fill="#FE4C10" d="M40.855-7.176c-1.69,0.106-3.065,1.262-3.065,1.262l0.65,2.572h4.978v-1.683
			C41.245-5.019,40.855-7.176,40.855-7.176"/>
		<path clip-path="url(#SVGID_2_)" fill="#FC6739" d="M43.414-5.025v1.684h4.976l0.651-2.572c0,0-1.376-1.155-3.064-1.262
			C45.977-7.176,45.585-5.019,43.414-5.025"/>
		<path clip-path="url(#SVGID_2_)" fill="#CB7B46" d="M13.637,57.146C1.376,57.228,5.574,76.688,6.353,77.74h14.542
			C20.895,77.74,25.897,57.065,13.637,57.146"/>
		<path clip-path="url(#SVGID_2_)" fill="#7D4113" d="M6.353,77.873h7.25l0.034-20.727C1.376,57.228,5.575,76.819,6.353,77.873"/>
		<rect x="12.296" y="72.673" clip-path="url(#SVGID_2_)" fill="#DD9964" width="2.558" height="2.558"/>
		<path clip-path="url(#SVGID_2_)" fill="#E4A97F" d="M13.599,57.212c-3.863,0-6.995,3.132-6.995,6.996s3.134,9.858,6.995,9.745
			c7.328-0.214,6.996-5.881,6.996-9.745S17.463,57.212,13.599,57.212"/>
		<path clip-path="url(#SVGID_2_)" fill="#DD9964" d="M6.604,64.208c0,3.863-0.251,9.68,6.995,9.744v-16.74
			C9.736,57.212,6.604,60.345,6.604,64.208"/>
		<path clip-path="url(#SVGID_2_)" fill="#0D2E14" d="M15.466,75.23H11.93c-5.268,0.677-5.577,3.966-5.577,3.966h14.542
			C20.896,75.94,15.466,75.23,15.466,75.23"/>
		<path clip-path="url(#SVGID_2_)" fill="#164C22" d="M15.415,75.23h-1.843v3.966h7.272C20.844,75.94,15.415,75.23,15.415,75.23"/>
		<path clip-path="url(#SVGID_2_)" fill="#7D4113" d="M4.749,70.564c-1.103,1.191-2.471,2.346-0.264,4.328
			c2.206,1.981-0.459,2.927-1.178,3.293H6.83l1.854-4.797l-3.336-6.229C5.348,67.159,5.853,69.373,4.749,70.564"/>
		<path clip-path="url(#SVGID_2_)" fill="#CB7B46" d="M22.67,74.883c2.206-1.981,0.838-3.137-0.266-4.327
			c-1.102-1.192-0.597-3.406-0.597-3.406l-3.336,6.229l1.854,4.796h3.523C23.129,77.81,20.463,76.864,22.67,74.883"/>
		<path clip-path="url(#SVGID_2_)" fill="#686562" d="M13.576,77.741c0,0,3.286-0.63,3.286-2.195c0,0-0.453-0.149-3.263-0.936
			L13.576,77.741z"/>
		<path clip-path="url(#SVGID_2_)" fill="#686562" d="M13.586,77.741L13.6,74.61c-1.545,0.015-3.299,0.936-3.299,0.936
			C10.299,77.111,13.586,77.741,13.586,77.741"/>
		<path clip-path="url(#SVGID_2_)" fill="#7D4113" d="M6.976,60.632c-1.601,2.883-0.429,4.674-0.429,4.674
			c2.955-0.736,7.017-4.91,7.017-4.91l0.035-3.184C12.242,57.079,8.578,57.748,6.976,60.632"/>
		<path clip-path="url(#SVGID_2_)" fill="#CB7B46" d="M13.549,57.212l0.035,3.184c0,0,4.43,4.45,7.386,5.187
			c0,0,0.803-2.067-0.798-4.951C18.571,57.748,14.906,57.08,13.549,57.212"/>
		<path clip-path="url(#SVGID_2_)" fill="#E8E7E0" d="M13.599,74.61l0.593,1.305l1.389-0.651l-0.365-0.653
			C15.216,74.61,14.365,74.464,13.599,74.61"/>
		<path clip-path="url(#SVGID_2_)" fill="#D7D3CC" d="M11.932,74.61l-0.365,0.652l1.389,0.652l0.593-1.305
			C12.785,74.464,11.932,74.61,11.932,74.61"/>
		<path clip-path="url(#SVGID_2_)" fill="#0D2E14" d="M13.532,76.753c-0.147,0-0.267,0.12-0.267,0.267
			c0,0.147,0.12,0.267,0.267,0.267c0.146,0,0.266-0.119,0.266-0.267C13.798,76.873,13.678,76.753,13.532,76.753"/>
		<path clip-path="url(#SVGID_2_)" fill="#010103" d="M39.29-34.875l0.529,0.971c0,0,1.306-0.529,3.765-0.551v-1.699
			C43.583-36.154,41.496-36.419,39.29-34.875"/>
		<path clip-path="url(#SVGID_2_)" fill="#010103" d="M43.625-36.154v1.699c2.458,0.022,3.764,0.551,3.764,0.551l0.529-0.971
			C45.711-36.419,43.625-36.154,43.625-36.154"/>
		<path clip-path="url(#SVGID_2_)" fill="#FBAD4B" d="M43.644-51.207l0.003,1.781l2.149-0.213
			C45.534-51.217,43.644-51.207,43.644-51.207"/>
		<path clip-path="url(#SVGID_2_)" fill="#3060A3" d="M41.968-49.75c0.231-0.054,1.747-0.229,1.747-0.229v-0.705
			C42.246-50.684,41.968-49.75,41.968-49.75"/>
		<path clip-path="url(#SVGID_2_)" fill="#3060A3" d="M43.682-50.684v0.705c0,0,1.516,0.175,1.747,0.229
			C45.429-49.75,45.151-50.684,43.682-50.684"/>
		<rect x="42.299" y="-36.995" clip-path="url(#SVGID_2_)" fill="#DD9964" width="2.558" height="2.558"/>
		<path clip-path="url(#SVGID_2_)" fill="#E4A97F" d="M43.681-52.456c-3.864,0-6.996,3.133-6.996,6.996s2.28,9.745,6.996,9.745
			c4.703,0,6.996-5.882,6.996-9.745S47.545-52.456,43.681-52.456"/>
		<path clip-path="url(#SVGID_2_)" fill="#DD9964" d="M36.554-45.459c0,3.863,2.313,9.745,6.996,9.745v-16.741
			C39.686-52.456,36.554-49.322,36.554-45.459"/>
		<path clip-path="url(#SVGID_2_)" fill="#E4A97F" d="M45.355-34.455h-1.843v3.966h7.272C50.784-33.745,45.355-34.455,45.355-34.455
			"/>
		<path clip-path="url(#SVGID_2_)" fill="#DD9964" d="M36.311-30.489h7.272v-3.966H41.74C41.74-34.455,36.311-33.744,36.311-30.489"
			/>
		<polygon clip-path="url(#SVGID_2_)" fill="#DCDCD4" points="38.108,-30.489 43.602,-30.489 43.602,-32.472 39.837,-32.472 		"/>
		<polygon clip-path="url(#SVGID_2_)" fill="#DCDCD4" points="39.458,-33.858 39.837,-32.472 39.946,-32.472 39.568,-33.906 		"/>
		<polygon clip-path="url(#SVGID_2_)" fill="#F3F2EE" points="43.602,-32.472 43.602,-30.489 49.096,-30.489 47.367,-32.472 		"/>
		<polygon clip-path="url(#SVGID_2_)" fill="#F3F2EE" points="47.257,-32.472 47.366,-32.472 47.746,-33.858 47.635,-33.907 		"/>
		<path clip-path="url(#SVGID_2_)" fill="#45220F" d="M36.553-44.574l1-0.765c0.808-5.555,5.997-5.162,5.997-5.162v-2.007
			C35.261-51.921,36.553-44.574,36.553-44.574"/>
		<path clip-path="url(#SVGID_2_)" fill="#502E1A" d="M43.484-52.561v2.006c0,0,5.189-0.392,5.996,5.163l1.195,0.809
			C50.675-44.583,51.772-51.974,43.484-52.561"/>
		<path clip-path="url(#SVGID_2_)" fill="#010103" d="M38.76-34.081l-0.044,0.265l-2.074,1.72l-0.53,1.589h6.84l-0.882-2.736
			C42.07-33.243,39.951-32.096,38.76-34.081"/>
		<path clip-path="url(#SVGID_2_)" fill="#193B73" d="M40.779-34.125c-0.927-1.147,0.794-1.854,0.794-1.854
			c-1.279-0.088-2.383,0.751-2.383,0.751l-0.927,1.324l1.589,2.294l2.114-1.628C41.927-33.211,41.637-33.062,40.779-34.125"/>
		<path clip-path="url(#SVGID_2_)" fill="#193B73" d="M41.965-33.238c0.003-0.002,0.005-0.004,0.005-0.004L41.965-33.238z"/>
		<path clip-path="url(#SVGID_2_)" fill="#999694" d="M41.706-31.808c-0.22,0-0.397,0.177-0.397,0.397
			c0,0.219,0.177,0.397,0.397,0.397c0.219,0,0.397-0.178,0.397-0.397C42.103-31.631,41.924-31.808,41.706-31.808"/>
		<path clip-path="url(#SVGID_2_)" fill="#1A1719" d="M48.327-33.849l-0.044-0.265c-1.191,1.986-3.31,0.839-3.31,0.839l-0.882,2.736
			h6.84l-0.531-1.589L48.327-33.849z"/>
		<polyline clip-path="url(#SVGID_2_)" fill="#3060A3" points="45.011,-33.271 45.006,-33.275 45.011,-33.271 		"/>
		<path clip-path="url(#SVGID_2_)" fill="#3060A3" d="M45.404-36.011c0,0,1.721,0.706,0.794,1.853
			c-0.859,1.063-1.149,0.915-1.187,0.887l2.114,1.629l1.588-2.295l-0.927-1.324C47.786-35.261,46.683-36.099,45.404-36.011"/>
		<path clip-path="url(#SVGID_2_)" fill="#A19F97" d="M43.482-53.63v2.339c0,0,5.78-0.573,7.148,4.59
			C50.63-46.701,50.675-53.144,43.482-53.63"/>
		<path clip-path="url(#SVGID_2_)" fill="#6D6966" d="M36.333-46.701c1.368-5.163,7.148-4.59,7.148-4.59v-2.339
			C36.155-53.012,36.333-46.701,36.333-46.701"/>
		<path clip-path="url(#SVGID_2_)" fill="#D7D3CC" d="M34.745-45.024c0,0,0.353,1.942,2.294,2.647l-0.485-2.196
			c0,0-1.396-6.55,7.09-6.634v-1.584C43.644-52.792,33.156-52.085,34.745-45.024"/>
		<path clip-path="url(#SVGID_2_)" fill="#E8E6E4" d="M43.516-52.792v1.584c8.129,0.138,7.093,6.634,7.093,6.634l-0.488,2.197
			c1.943-0.706,2.295-2.648,2.295-2.648C54.005-52.084,43.516-52.792,43.516-52.792"/>
		<path clip-path="url(#SVGID_2_)" fill="#DD9964" d="M35.733-42.657c0.532,1.655,1.621,1.514,1.621,1.514l-0.752-3.386
			C36.602-44.529,35.202-44.313,35.733-42.657"/>
		<path clip-path="url(#SVGID_2_)" fill="#DD9964" d="M50.588-44.529l-0.752,3.386c0,0,1.089,0.14,1.621-1.514
			C51.988-44.314,50.588-44.529,50.588-44.529"/>
		<path clip-path="url(#SVGID_2_)" fill="#45220F" d="M38.583-50.717c-0.485,1.191-2.25,0.839-2.25,0.839
			c1.94,3.265,7.183,1.544,7.183,1.544v-2.873C41.653-53.374,39.068-51.908,38.583-50.717"/>
		<path clip-path="url(#SVGID_2_)" fill="#502E1A" d="M45.423-50.938c-0.573-0.309-1.907-0.27-1.907-0.27v2.874
			C44.831-48.6,45.997-50.628,45.423-50.938"/>
		<path clip-path="url(#SVGID_2_)" fill="#FCAF4C" d="M5.57,7.574c0,0,1.248,6.902,2.159,8.884c0.909,1.98,1.188,2.233,0.452,2.612
			c0,0,1.948,0.453,2.627-0.489c0,0,2.208,1.404,2.764,1.285V3.434C13.572,3.434,6.883,3.494,5.57,7.574"/>
		<path clip-path="url(#SVGID_2_)" fill="#FCAF4C" d="M13.537,3.434v16.433c0.555,0.12,2.763-1.285,2.763-1.285
			c0.68,0.943,2.627,0.49,2.627,0.49c-0.736-0.379-0.457-0.632,0.453-2.613c0.909-1.98,2.159-8.884,2.159-8.884
			C20.224,3.494,13.537,3.434,13.537,3.434"/>
		<path clip-path="url(#SVGID_2_)" fill="#DE9865" d="M5.973,12.112c0.53,1.635,1.617,1.497,1.617,1.497l-0.75-3.347
			C6.84,10.263,5.443,10.477,5.973,12.112"/>
		<path clip-path="url(#SVGID_2_)" fill="#E4AA7F" d="M20.331,10.263l-0.75,3.347c0,0,1.086,0.138,1.617-1.497
			C21.727,10.477,20.331,10.263,20.331,10.263"/>
		<path clip-path="url(#SVGID_2_)" fill="#DCDCD5" d="M12.304,18.923c-0.35,0-0.634,0.282-0.634,0.629s0.284,0.627,0.634,0.627
			s0.634-0.28,0.634-0.627S12.654,18.923,12.304,18.923"/>
		<path clip-path="url(#SVGID_2_)" fill="#F5F4F0" d="M14.869,18.96c-0.351,0-0.634,0.281-0.634,0.628s0.283,0.628,0.634,0.628
			c0.35,0,0.634-0.281,0.634-0.628S15.219,18.96,14.869,18.96"/>
		<rect x="12.325" y="17.772" clip-path="url(#SVGID_2_)" fill="#E4AA7F" width="2.552" height="2.528"/>
		<path clip-path="url(#SVGID_2_)" fill="#E9BD9A" d="M13.572,2.495c-3.854,0-6.979,3.096-6.979,6.913
			c0,3.818,2.138,9.676,6.979,9.631c4.673-0.042,6.979-5.813,6.979-9.631C20.551,5.591,17.426,2.495,13.572,2.495"/>
		<path clip-path="url(#SVGID_2_)" fill="#E4AA7F" d="M6.594,9.408c0,3.818,2.319,10.27,6.979,9.631V2.495
			C9.718,2.495,6.594,5.591,6.594,9.408"/>
		<path clip-path="url(#SVGID_2_)" fill="#E9BD9A" d="M15.374,20.283h-1.839v3.92h7.255C20.79,20.984,15.374,20.283,15.374,20.283"
			/>
		<path clip-path="url(#SVGID_2_)" fill="#E4AA7F" d="M6.352,24.202h7.253v-3.92h-1.837C11.768,20.282,6.352,20.984,6.352,24.202"/>
		<path clip-path="url(#SVGID_2_)" fill="#680000" d="M12.34,20.048l-0.853,0.248c-0.001,0.217-0.068,0.447-0.215,0.681
			c-0.733,1.162-1.571,2.261-2.541,3.226h4.874v-2.293c-0.009,0-0.017,0.001-0.027,0.001C12.47,21.91,12.058,20.843,12.34,20.048"/>
		<path clip-path="url(#SVGID_2_)" fill="#FE9D2A" d="M8.156,4.215c-4.674,0.919-2.37,6.493-1.547,6.596
			c0.822,0.104,1.598-0.845,2.786-3.111c1.189-2.268,3.607-0.654,3.607-0.654C14.5,0.104,8.156,4.215,8.156,4.215"/>
		<path clip-path="url(#SVGID_2_)" fill="#FE9D2A" d="M16.847,1.762C12.973,0.584,9.804,1.02,9.188,2.829
			c-0.617,1.81,3.102,3.99,3.102,3.99l1.169,0.697l4.813-3.148C18.272,4.368,20.72,2.938,16.847,1.762"/>
		<path clip-path="url(#SVGID_2_)" fill="#FCAF4C" d="M18.999,4.215c0,0-5.635,0.258-4.846,2.83c0,0,2.417-1.613,3.607,0.654
			c1.188,2.267,1.964,3.215,2.786,3.111C21.369,10.707,23.672,5.134,18.999,4.215"/>
		<path clip-path="url(#SVGID_2_)" fill="#FCAF4C" d="M13.535,7.517c0,0-3.905-5.712,5.441-3.75c0,0,0.374-0.131-0.047-0.937
			C18.507,2.022,6.494,1.086,13.535,7.517"/>
		<path clip-path="url(#SVGID_2_)" fill="#FCAF4C" d="M13.535,7.517c-0.877-3.967,5.259-3.512,5.259-3.512
			C11.466,3.328,13.535,7.517,13.535,7.517"/>
		<path clip-path="url(#SVGID_2_)" fill="#FE9D2A" d="M20.79,8.291c-0.531-1.538-1.968-5.134-4.592-2.878v0.131
			c0,0,2.416-1.875,3.667,1.973c1.252,3.848,1.813,0.905,1.813,0.905S21.32,9.828,20.79,8.291"/>
		<path clip-path="url(#SVGID_2_)" fill="#FCAF4C" d="M6.456,8.488c-0.531,1.537-0.889,0.131-0.889,0.131s0.562,2.943,1.813-0.904
			c1.251-3.849,3.668-1.974,3.668-1.974V5.61C8.422,3.354,6.986,6.951,6.456,8.488"/>
		<path clip-path="url(#SVGID_2_)" fill="#B0000F" d="M15.709,20.296l-0.853-0.249c0.283,0.796-0.129,1.863-1.237,1.863
			c-0.01,0-0.018,0-0.027,0v2.293h4.875c-0.972-0.966-1.809-2.064-2.542-3.227C15.777,20.744,15.712,20.513,15.709,20.296"/>
		<path clip-path="url(#SVGID_2_)" fill="#DCDCD5" d="M11.326,19.674c-0.35,0-0.633,0.281-0.633,0.627
			c0,0.347,0.283,0.628,0.633,0.628c0.351,0,0.635-0.281,0.635-0.628C11.961,19.955,11.677,19.674,11.326,19.674"/>
		<path clip-path="url(#SVGID_2_)" fill="#DCDCD5" d="M12.938,21.604c-0.351,0-0.634,0.281-0.634,0.628s0.283,0.628,0.634,0.628
			c0.35,0,0.634-0.281,0.634-0.628S13.288,21.604,12.938,21.604"/>
		<path clip-path="url(#SVGID_2_)" fill="#DCDCD5" d="M11.96,20.721c-0.351,0-0.634,0.281-0.634,0.627s0.283,0.628,0.634,0.628
			s0.634-0.282,0.634-0.628S12.312,20.721,11.96,20.721"/>
		<path clip-path="url(#SVGID_2_)" fill="#F5F4F0" d="M15.846,19.711c-0.351,0-0.634,0.281-0.634,0.628s0.283,0.627,0.634,0.627
			c0.35,0,0.634-0.28,0.634-0.627S16.196,19.711,15.846,19.711"/>
		<path clip-path="url(#SVGID_2_)" fill="#F5F4F0" d="M14.235,21.642c-0.351,0-0.634,0.281-0.634,0.629
			c0,0.346,0.283,0.627,0.634,0.627c0.35,0,0.634-0.281,0.634-0.627C14.869,21.923,14.585,21.642,14.235,21.642"/>
		<path clip-path="url(#SVGID_2_)" fill="#F5F4F0" d="M15.212,20.758c-0.35,0-0.634,0.28-0.634,0.628
			c0,0.346,0.284,0.627,0.634,0.627s0.634-0.281,0.634-0.627C15.846,21.038,15.563,20.758,15.212,20.758"/>
		<path clip-path="url(#SVGID_2_)" fill="#010103" d="M6.458,41.729c0,0-2.013-0.631-3.891,1.16c0,0,0.111,1.761,1.003,3.095
			l1.498-0.605L3.95,46.492l0.352,0.304c0,0,2.88-0.981,2.9-3.459C7.202,43.337,6.341,42.857,6.458,41.729"/>
		<path clip-path="url(#SVGID_2_)" fill="#680000" d="M7.102,41.158c0,0-0.66,0.277-0.743,0.703
			c-0.085,0.426,0.045,1.946,0.98,2.012c0,0,0.295,0.114,0.521-0.346C7.86,43.527,6.985,42.019,7.102,41.158"/>
		<path clip-path="url(#SVGID_2_)" fill="#1A1719" d="M20.696,41.712c0.116,1.128-0.744,1.607-0.744,1.607
			c0.02,2.478,2.901,3.459,2.901,3.459l0.35-0.303l-1.116-1.115l1.498,0.606c0.892-1.334,1.003-3.095,1.003-3.095
			C22.709,41.08,20.696,41.712,20.696,41.712"/>
		<path clip-path="url(#SVGID_2_)" fill="#B0000F" d="M20.05,40.901c0.116,0.859-0.758,2.368-0.758,2.368
			c0.226,0.461,0.521,0.345,0.521,0.345c0.935-0.065,1.064-1.585,0.98-2.01C20.71,41.177,20.05,40.901,20.05,40.901"/>
		<path clip-path="url(#SVGID_2_)" fill="#DE9865" d="M5.962,40.83c0.525,1.631,1.6,1.492,1.6,1.492l-0.743-3.335
			C6.819,38.987,5.438,39.2,5.962,40.83"/>
		<path clip-path="url(#SVGID_2_)" fill="#DE9865" d="M20.163,38.987l-0.742,3.334c0,0,1.074,0.14,1.599-1.49
			S20.163,38.987,20.163,38.987"/>
		<rect x="12.244" y="46.473" clip-path="url(#SVGID_2_)" fill="#DE9865" width="2.525" height="2.52"/>
		<path clip-path="url(#SVGID_2_)" fill="#E4AA7F" d="M13.477,31.248c-3.812,0-6.902,3.084-6.902,6.889s0.741,9.598,6.902,9.598
			c6.803,0,6.904-5.793,6.904-9.598S17.29,31.248,13.477,31.248"/>
		<path clip-path="url(#SVGID_2_)" fill="#DE9865" d="M6.577,38.138c0,3.804,0.739,9.597,6.902,9.597V31.248
			C9.667,31.248,6.577,34.332,6.577,38.138"/>
		<path clip-path="url(#SVGID_2_)" fill="#E4AA7F" d="M15.26,48.975h-1.818v3.905h7.173C20.615,49.674,15.26,48.975,15.26,48.975"/>
		<path clip-path="url(#SVGID_2_)" fill="#DE9865" d="M6.336,52.88h7.175v-3.906h-1.818C11.693,48.974,6.336,49.674,6.336,52.88"/>
		<path clip-path="url(#SVGID_2_)" fill="#010103" d="M6.336,33.931c-1.57,2.28,0.044,6.597,0.044,6.597
			c3.301-0.714,7.099-7.122,7.099-7.122v-2.157C9.516,31.121,6.336,33.931,6.336,33.931"/>
		<path clip-path="url(#SVGID_2_)" fill="#1A1719" d="M13.442,31.248v2.157c0,0,3.869,6.443,7.171,7.156
			c0,0,1.574-4.351,0.003-6.631C20.616,33.931,17.405,31.121,13.442,31.248"/>
		<path clip-path="url(#SVGID_2_)" fill="#680000" d="M7.316,50.779v2.101h6.195v-4.509l-2.417,0.711
			C11.094,49.082,8.443,49.679,7.316,50.779"/>
		<path clip-path="url(#SVGID_2_)" fill="#B0000F" d="M13.505,48.371v4.509h6.197v-2.101c-1.128-1.101-3.778-1.698-3.778-1.698
			L13.505,48.371z"/>
		<path clip-path="url(#SVGID_2_)" fill="#D7D3CC" d="M11.094,49.082c0.2,1.141,1.971,1.696,1.971,1.696l0.414-2.407l-2.19-0.241
			L11.094,49.082z"/>
		<path clip-path="url(#SVGID_2_)" fill="#F5E4D7" d="M13.479,48.371l0.414,2.408c0,0,1.771-0.558,1.971-1.698l-0.196-0.952
			L13.479,48.371z"/>
		<path clip-path="url(#SVGID_2_)" fill="#010103" d="M7.111,33.444c0.01,0.021-0.013,0.035-0.013,0.035
			c2.824-1.776,6.344-1.011,6.344-1.011v-1.754C12.921,29.505,6.59,32.233,7.111,33.444"/>
		<path clip-path="url(#SVGID_2_)" fill="#1A1719" d="M13.433,30.584v1.755c0,0,3.52-0.766,6.343,1.01c0,0-0.003-0.013-0.013-0.035
			C19.635,32.971,18.469,30.294,13.433,30.584"/>
	</g>
</g>
</svg>
