<?xml version="1.0" encoding="utf-8"?>
<!-- Generator: Adobe Illustrator 16.0.3, SVG Export Plug-In . SVG Version: 6.00 Build 0)  -->
<!DOCTYPE svg PUBLIC "-//W3C//DTD SVG 1.1//EN" "http://www.w3.org/Graphics/SVG/1.1/DTD/svg11.dtd">
<svg version="1.1" id="Capa_1" xmlns="http://www.w3.org/2000/svg" xmlns:xlink="http://www.w3.org/1999/xlink" x="0px" y="0px"
	 width="27.155px" height="27.153px" viewBox="0 0 27.155 27.153" enable-background="new 0 0 27.155 27.153" xml:space="preserve">
<g>
	<g>
		<defs>
			<rect id="SVGID_1_" x="-210.646" y="-373.345" width="792" height="612"/>
		</defs>
		<clipPath id="SVGID_2_">
			<use xlink:href="#SVGID_1_"  overflow="visible"/>
		</clipPath>
		<path clip-path="url(#SVGID_2_)" fill="#FFD900" d="M27.155-98.208c0,7.499-6.079,13.577-13.577,13.577
			C6.079-84.63,0-90.708,0-98.208s6.079-13.577,13.578-13.577C21.076-111.785,27.155-105.707,27.155-98.208"/>
		<path clip-path="url(#SVGID_2_)" fill="#FFD900" d="M57.158-98.208c0,7.499-6.078,13.577-13.577,13.577
			c-7.498,0-13.577-6.078-13.577-13.577s6.079-13.577,13.577-13.577C51.08-111.785,57.158-105.707,57.158-98.208"/>
		<path clip-path="url(#SVGID_2_)" fill="#BFE10E" d="M27.155-70.261c0,7.499-6.079,13.577-13.577,13.577
			C6.079-56.685,0-62.763,0-70.261c0-7.499,6.079-13.578,13.578-13.578C21.076-83.839,27.155-77.76,27.155-70.261"/>
		<path clip-path="url(#SVGID_2_)" fill="#BFE10E" d="M57.158-70.261c0,7.499-6.078,13.577-13.577,13.577
			c-7.498,0-13.577-6.078-13.577-13.577c0-7.499,6.079-13.578,13.577-13.578C51.08-83.839,57.158-77.76,57.158-70.261"/>
		<path clip-path="url(#SVGID_2_)" fill="#F0047F" d="M27.155-42.315c0,7.499-6.079,13.577-13.577,13.577
			C6.079-28.738,0-34.816,0-42.315s6.079-13.577,13.578-13.577C21.076-55.893,27.155-49.814,27.155-42.315"/>
		<path clip-path="url(#SVGID_2_)" fill="#F0047F" d="M57.158-42.315c0,7.499-6.078,13.577-13.577,13.577
			c-7.498,0-13.577-6.078-13.577-13.577s6.079-13.577,13.577-13.577C51.08-55.893,57.158-49.814,57.158-42.315"/>
		<path clip-path="url(#SVGID_2_)" fill="#0A51A1" d="M27.155-14.37c0,7.499-6.079,13.578-13.577,13.578
			C6.079-0.792,0-6.871,0-14.37c0-7.498,6.079-13.576,13.578-13.576C21.076-27.946,27.155-21.868,27.155-14.37"/>
		<path clip-path="url(#SVGID_2_)" fill="#0A51A1" d="M57.158-14.37c0,7.499-6.078,13.578-13.577,13.578
			c-7.498,0-13.577-6.079-13.577-13.578c0-7.498,6.079-13.576,13.577-13.576C51.08-27.946,57.158-21.868,57.158-14.37"/>
		<path clip-path="url(#SVGID_2_)" fill="#FF8C00" d="M27.155,13.577c0,7.498-6.079,13.576-13.577,13.576
			C6.079,27.153,0,21.075,0,13.577C0,6.078,6.079,0,13.578,0C21.076,0,27.155,6.078,27.155,13.577"/>
		<path clip-path="url(#SVGID_2_)" fill="#FF8C00" d="M57.158,13.577c0,7.498-6.078,13.576-13.577,13.576
			c-7.498,0-13.577-6.078-13.577-13.576C30.004,6.078,36.083,0,43.581,0C51.08,0,57.158,6.078,57.158,13.577"/>
		<path clip-path="url(#SVGID_2_)" fill="#DE9865" d="M6.041-72.094c0.526,1.637,1.605,1.498,1.605,1.498L6.9-73.943
			C6.9-73.943,5.514-73.729,6.041-72.094"/>
		<path clip-path="url(#SVGID_2_)" fill="#DE9865" d="M20.291-73.943l-0.745,3.346c0,0,1.079,0.139,1.605-1.497
			C21.678-73.73,20.291-73.943,20.291-73.943"/>
		<rect x="12.345" y="-66.433" clip-path="url(#SVGID_2_)" fill="#DE9865" width="2.533" height="2.528"/>
		<polygon clip-path="url(#SVGID_2_)" fill="#010103" points="6.473,-63.123 19.642,-63.123 21.081,-74.287 5.906,-74.592 		"/>
		<rect x="12.359" y="-66.395" clip-path="url(#SVGID_2_)" fill="#DE9865" width="2.441" height="2.573"/>
		<path clip-path="url(#SVGID_2_)" fill="#E4AA7F" d="M13.583-81.71c-3.825,0-6.927,3.096-6.927,6.914
			c0,3.817,0.742,9.629,6.927,9.629c6.825,0,6.927-5.813,6.927-9.629C20.509-78.614,17.408-81.71,13.583-81.71"/>
		<path clip-path="url(#SVGID_2_)" fill="#DE9865" d="M6.656-74.796c0,3.817,0.742,9.629,6.927,9.629V-81.71
			C9.759-81.71,6.656-78.614,6.656-74.796"/>
		<path clip-path="url(#SVGID_2_)" fill="#E4AA7F" d="M15.37-63.922h-1.824v3.92h7.2C20.746-63.221,15.37-63.922,15.37-63.922"/>
		<path clip-path="url(#SVGID_2_)" fill="#DE9865" d="M6.417-60.003h7.199v-3.92h-1.824C11.792-63.923,6.417-63.221,6.417-60.003"/>
		<path clip-path="url(#SVGID_2_)" fill="#D7D3CC" d="M12.141-63.996c0,0-3.75,0.307-2.878,0.35
			c0.872,0.044,0.654,3.644,0.654,3.644h3.707v-2.029C11.662-61.945,12.141-63.996,12.141-63.996"/>
		<path clip-path="url(#SVGID_2_)" fill="#E9E7E5" d="M15.107-63.996c0,0,0.479,2.051-1.483,1.964v2.029h3.706
			c0,0-0.218-3.6,0.655-3.644C18.857-63.689,15.107-63.996,15.107-63.996"/>
		<path clip-path="url(#SVGID_2_)" fill="#010103" d="M5.121-73.24c0.523,2.66,1.221,3.226-0.437,4.884
			c-1.656,1.657-2.703,5.625,2.4,6.497c4.995,0.854,4.403-3.619,4.403-3.619s-0.479,0.654-1.962-0.741
			c-1.483-1.396-2.703-3.533-2.398-7.937c0.306-4.405,6.456-3.489,6.456-3.489v-4.066C6.915-82.157,4.598-75.9,5.121-73.24"/>
		<path clip-path="url(#SVGID_2_)" fill="#1A1719" d="M22.033-73.24c0.523-2.66-1.792-8.917-8.462-8.471v4.066
			c0,0,6.151-0.916,6.457,3.489c0.305,4.404-0.916,6.541-2.399,7.937c-1.483,1.396-1.962,0.741-1.962,0.741s-0.59,4.473,4.405,3.619
			c5.102-0.872,4.056-4.84,2.398-6.497C20.813-70.014,21.511-70.58,22.033-73.24"/>
		<path clip-path="url(#SVGID_2_)" fill="#010103" d="M6.656-73.184c0,0,5.268-0.493,6.969-0.406v-6.846
			C13.625-80.436,6.099-80.06,6.656-73.184"/>
		<path clip-path="url(#SVGID_2_)" fill="#1A1719" d="M13.56-80.436v6.847c1.701-0.087,6.969,0.405,6.969,0.405
			C21.086-80.06,13.56-80.436,13.56-80.436"/>
		<rect x="12.621" y="-71.366" clip-path="url(#SVGID_2_)" fill="#010103" width="1.004" height="0.61"/>
		<rect x="13.603" y="-71.366" clip-path="url(#SVGID_2_)" fill="#1A1719" width="1.003" height="0.61"/>
		<path clip-path="url(#SVGID_2_)" fill="#010103" d="M8.217-71.104c-0.176,0.611,0.218,2.792,2.181,3.054
			c2.366,0.315,2.659-3.228,2.659-3.228C10.223-72.979,8.217-71.104,8.217-71.104"/>
		<path clip-path="url(#SVGID_2_)" fill="#1A1719" d="M14.175-71.321c0,0,0.295,3.542,2.661,3.227
			c1.962-0.261,2.355-2.442,2.18-3.053C19.016-71.147,17.01-73.022,14.175-71.321"/>
		<path clip-path="url(#SVGID_2_)" fill="#DE9865" d="M35.857,12.405c0.537,1.673,1.639,1.531,1.639,1.531l-0.761-3.422
			C36.735,10.515,35.32,10.733,35.857,12.405"/>
		<path clip-path="url(#SVGID_2_)" fill="#DE9865" d="M50.507,10.515l-0.76,3.422c0,0,1.101,0.142,1.639-1.531
			C51.923,10.733,50.507,10.515,50.507,10.515"/>
		<rect x="42.292" y="18.196" clip-path="url(#SVGID_2_)" fill="#DE9865" width="2.585" height="2.584"/>
		<path clip-path="url(#SVGID_2_)" fill="#E4AA7F" d="M43.555,2.57c-3.905,0-7.07,3.166-7.07,7.07c0,3.906,1.969,9.851,7.07,9.851
			c5.862,0,7.07-5.944,7.07-9.851C50.625,5.736,47.46,2.57,43.555,2.57"/>
		<path clip-path="url(#SVGID_2_)" fill="#DE9865" d="M36.486,9.641c0,3.905,1.598,9.851,7.07,9.851V2.571
			C39.652,2.571,36.486,5.736,36.486,9.641"/>
		<path clip-path="url(#SVGID_2_)" fill="#D7D3CC" d="M45.458,20.78h-3.56c-5.301,0.685-5.613,4.009-5.613,4.009h14.637
			C50.922,21.498,45.458,20.78,45.458,20.78"/>
		<path clip-path="url(#SVGID_2_)" fill="#F5E4D7" d="M45.577,20.78h-1.861v4.009h7.348C51.063,21.498,45.577,20.78,45.577,20.78"/>
		<path clip-path="url(#SVGID_2_)" fill="#010103" d="M42.085,11.858h-3.795c-0.483,0-0.874,0.337-0.874,0.75
			c0,0,0.479,2.765,2.779,2.765c2.301,0,2.764-2.765,2.764-2.765C42.959,12.195,42.568,11.858,42.085,11.858"/>
		<path clip-path="url(#SVGID_2_)" fill="#1A1719" d="M48.99,11.858h-3.794c-0.483,0-0.875,0.337-0.875,0.75
			c0,0,0.464,2.765,2.764,2.765c2.301,0,2.78-2.765,2.78-2.765C49.865,12.195,49.474,11.858,48.99,11.858"/>
		<path clip-path="url(#SVGID_2_)" fill="#010103" d="M42.341,12.763c0,0.189,0.152,0.342,0.342,0.342h0.974v-0.684h-0.974
			C42.493,12.421,42.341,12.574,42.341,12.763"/>
		<path clip-path="url(#SVGID_2_)" fill="#1A1719" d="M44.584,12.421h-0.927v0.684h0.927c0.188,0,0.342-0.152,0.342-0.342
			C44.926,12.574,44.772,12.421,44.584,12.421"/>
		<path clip-path="url(#SVGID_2_)" fill="#DE9865" d="M43.409,20.645v2.48c0.169,0.146,0.169,0.192,0.169,0.192l0.168-0.168
			l-0.048-2.505H43.409z"/>
		<path clip-path="url(#SVGID_2_)" fill="#E4AA7F" d="M43.581,20.646l0.004,2.671c0,0,3.321-0.636,3.32-2.218
			C46.904,21.1,46.08,20.591,43.581,20.646"/>
		<path clip-path="url(#SVGID_2_)" fill="#DE9865" d="M40.257,21.1c-0.002,1.582,3.32,2.218,3.32,2.218l0.003-2.671
			C41.083,20.591,40.257,21.1,40.257,21.1"/>
		<path clip-path="url(#SVGID_2_)" fill="#010103" d="M42.959,1.854l-1.487-0.987l-0.917,1.705l-1.871-1.423
			C38.4,1.589,37.978,3.62,37.978,3.62C37.413,3.337,36,3.125,36,3.125l0.286,3.143l-0.991-0.313
			c0.07,1.487,1.243,4.559,1.243,4.559s1.094-2.021,0.879-3.293c-0.216-1.271,3.78-0.988,6.16-0.177l0.898-2.471l-0.89-3.707
			L42.959,1.854z"/>
		<path clip-path="url(#SVGID_2_)" fill="#1A1719" d="M51.161,3.125c0,0-1.411,0.212-1.977,0.494c0,0-0.423-2.029-0.706-2.472
			L46.606,2.57l-0.919-1.704l-1.486,0.988l-0.617-0.988v0.529v5.649c2.38-0.813,6.376-1.096,6.161,0.176
			c-0.215,1.271,0.878,3.294,0.878,3.294s1.173-3.072,1.243-4.561l-0.991,0.314L51.161,3.125z"/>
		<path clip-path="url(#SVGID_2_)" fill="#FBAD4B" d="M53.178-14.826c-1.923-1.406-1.968-3.749-1.968-3.749
			c0.377-4.59-7.701-2.668-7.701-2.668v11.662h9.764c1.781-1.265-0.986-2.201-0.095-2.201C54.07-11.782,55.101-13.422,53.178-14.826
			"/>
		<path clip-path="url(#SVGID_2_)" fill="#FD9B28" d="M35.952-18.575c0,0-0.046,2.343-1.969,3.749c-1.923,1.404-0.89,3.043,0,3.043
			c0.891,0-1.876,0.938-0.094,2.203h9.764v-11.663C43.653-21.243,35.574-23.165,35.952-18.575"/>
		<path clip-path="url(#SVGID_2_)" fill="#DD9964" d="M35.445-16.135c0.576,1.792,1.757,1.64,1.757,1.64l-0.816-3.666
			C36.386-18.161,34.868-17.928,35.445-16.135"/>
		<path clip-path="url(#SVGID_2_)" fill="#DD9964" d="M50.917-18.149l-0.801,3.596c0,0,1.159,0.149,1.725-1.608
			C52.406-17.921,50.917-18.149,50.917-18.149"/>
		<rect x="42.271" y="-10.078" clip-path="url(#SVGID_2_)" fill="#DD9964" width="2.722" height="2.718"/>
		<path clip-path="url(#SVGID_2_)" fill="#E4A97F" d="M43.601-26.498c-4.109,0-7.44,3.327-7.44,7.431s2.073,10.471,7.44,10.35
			c7.502-0.166,7.439-6.246,7.439-10.35S47.709-26.498,43.601-26.498"/>
		<path clip-path="url(#SVGID_2_)" fill="#DD9964" d="M36.162-19.067c0,4.104-0.21,9.867,7.44,10.35v-17.78
			C39.493-26.498,36.162-23.171,36.162-19.067"/>
		<path clip-path="url(#SVGID_2_)" fill="#DD9964" d="M36.15-3.203h7.464v-4.212h-1.691C41.923-7.415,36.15-6.661,36.15-3.203"/>
		<path clip-path="url(#SVGID_2_)" fill="#E4A97F" d="M45.27-7.415h-1.69v4.212h7.463C51.043-6.661,45.27-7.415,45.27-7.415"/>
		<path clip-path="url(#SVGID_2_)" fill="#680008" d="M40.751-7.457c-0.187,0.037-0.483,0.125-0.483,0.125
			c-0.376,0.363-2.633,4.071-2.633,4.071h5.684v-1.064C39.789-4.438,40.751-7.457,40.751-7.457"/>
		<path clip-path="url(#SVGID_2_)" fill="#AF090F" d="M46.2-7.31c0,0,0.907,3.019-2.624,3.132v1.063h5.739
			c0,0-2.256-3.709-2.633-4.07C46.682-7.185,46.387-7.273,46.2-7.31"/>
		<path clip-path="url(#SVGID_2_)" fill="#FD9B28" d="M40.129-19.221c0,0,1.477,0.51,3.473,1.107l-0.035-2.108
			C42.004-20.126,40.659-19.841,40.129-19.221"/>
		<path clip-path="url(#SVGID_2_)" fill="#FBAD4B" d="M50.775-19.698c-0.371-0.186-4.195-0.707-7.207-0.523l0.034,2.108
			c2.359,0.706,5.444,1.533,7.682,1.787C51.284-16.326,51.337-19.418,50.775-19.698"/>
		<path clip-path="url(#SVGID_2_)" fill="#680008" d="M35.952-18.575c0,0,2.935-0.795,7.706-0.795v-7.496
			C43.658-26.866,34.542-27.287,35.952-18.575"/>
		<path clip-path="url(#SVGID_2_)" fill="#AF090F" d="M43.568-26.866v7.495c4.771,0,7.706,0.796,7.706,0.796
			C52.683-27.287,43.568-26.866,43.568-26.866"/>
		<path clip-path="url(#SVGID_2_)" fill="#680008" d="M35.663-19.792c-0.009,0.012-0.352,0.069-0.349,0.624
			c0.005,0.957,1.304,0.441,1.304,0.441l1.656-1.861h-2.47C35.23-20.307,35.804-20.003,35.663-19.792"/>
		<path clip-path="url(#SVGID_2_)" fill="#AF090F" d="M51.48-19.792c-0.141-0.211,0.431-0.515-0.141-0.796H48.87l1.655,1.861
			c0,0,1.299,0.516,1.304-0.441C51.832-19.723,51.489-19.78,51.48-19.792"/>
		<path clip-path="url(#SVGID_2_)" fill="#010103" d="M35.952-3.147l7.673,0.033v-1.58c-3.316,0.026-6.184-0.935-6.184-0.935
			C36.023-4.723,35.952-3.147,35.952-3.147"/>
		<path clip-path="url(#SVGID_2_)" fill="#1A1719" d="M49.773-5.63c0,0-2.868,0.963-6.184,0.937v1.58l7.674-0.035
			C51.263-3.148,51.191-4.724,49.773-5.63"/>
		<rect x="42.082" y="-37.696" clip-path="url(#SVGID_2_)" fill="#DD9964" width="2.559" height="2.558"/>
		<path clip-path="url(#SVGID_2_)" fill="#E8E6E4" d="M45.071-35.139v-0.603h-3.536v0.603c-5.267,0.677-5.577,3.966-5.577,3.966
			H50.5C50.5-34.429,45.071-35.139,45.071-35.139"/>
		<path clip-path="url(#SVGID_2_)" fill="#F6F6F2" d="M45.201-35.139v-0.603h-1.843v4.568h7.272
			C50.63-34.429,45.201-35.139,45.201-35.139"/>
		<path clip-path="url(#SVGID_2_)" fill="#DD9964" d="M50.304-45.325l-0.753,3.386c0,0,1.09,0.142,1.621-1.515
			C51.704-45.109,50.304-45.325,50.304-45.325"/>
		<path clip-path="url(#SVGID_2_)" fill="#DD9964" d="M35.704-43.454c0.531,1.656,1.621,1.515,1.621,1.515l-0.753-3.386
			C36.572-45.325,35.171-45.109,35.704-43.454"/>
		<path clip-path="url(#SVGID_2_)" fill="#E4A97F" d="M43.523-53.249c-3.864-0.059-7.042,3.026-7.101,6.89
			c-0.057,3.864,2.987,9.865,6.85,9.85c5.22-0.022,7.192-5.603,7.25-9.466C50.58-49.84,47.386-53.191,43.523-53.249"/>
		<path clip-path="url(#SVGID_2_)" fill="#DD9964" d="M36.357-45.976c0,3.864,2.052,9.687,7.038,9.443v-16.741
			C39.532-53.273,36.357-49.84,36.357-45.976"/>
		<polygon clip-path="url(#SVGID_2_)" fill="#C7C4C6" points="41.535,-35.139 42.148,-34.16 43.225,-35.741 41.535,-35.741 		"/>
		<polygon clip-path="url(#SVGID_2_)" fill="#E8E6E4" points="44.61,-34.16 45.224,-35.139 45.224,-35.741 43.534,-35.741 		"/>
		<path clip-path="url(#SVGID_2_)" fill="#010103" d="M41.333-53.052c-6.73,1.494-4.933,8.246-4.933,8.246l1.043-1.788
			c-0.763-1.675,1.342-2.558,2.764-3.115c1.42-0.559,3.222,0.953,3.222,0.953v-4.628C42.598-53.437,41.333-53.052,41.333-53.052"/>
		<path clip-path="url(#SVGID_2_)" fill="#1A1719" d="M45.527-53.052c0,0-1.265-0.385-2.098-0.332v4.628
			c0,0,3.348,1.882,5.791,0.394c0.506-0.308,0.531,1.033,0.196,1.769l1.055,1.629C50.471-44.965,51.78-50.962,45.527-53.052"/>
		<path clip-path="url(#SVGID_2_)" fill="#010103" d="M41.901-41.271c-0.827,0.629-0.795,1.788-1.39,1.39
			c0,0,1.635,1.191,2.918-0.959C43.429-40.841,42.729-41.899,41.901-41.271"/>
		<path clip-path="url(#SVGID_2_)" fill="#1A1719" d="M44.959-41.271c-0.827-0.628-1.53,0.431-1.53,0.431
			c1.285,2.15,2.92,0.959,2.92,0.959C45.752-39.483,45.787-40.643,44.959-41.271"/>
		<path clip-path="url(#SVGID_2_)" fill="#1A1719" d="M51.564-51.848c-0.1,0.034-1.433,0.348-1.433,0.348
			c-1.864-1.464-4.866-1.638-4.875-1.627c-2.877,3.429,1.512,5.638,3.778,4.871C51.3-49.022,51.664-51.883,51.564-51.848"/>
		<path clip-path="url(#SVGID_2_)" fill="#010103" d="M41.575-35.197c-0.221,0.552,0.077,0.508,0.056,0.618
			c-0.023,0.11-0.109,0.388-0.1,0.452c0.023,0.154,0.154,0.375,0.64,0.231c0.642-0.189,1.114-0.353,1.114-0.353
			s-0.188-0.508-0.286-0.872C42.999-35.12,41.796-35.748,41.575-35.197"/>
		<path clip-path="url(#SVGID_2_)" fill="#1A1719" d="M45.145-35.197c-0.221-0.551-1.424,0.077-1.424,0.077
			c-0.098,0.364-0.287,0.872-0.287,0.872s0.473,0.163,1.115,0.353c0.486,0.144,0.617-0.077,0.64-0.231
			c0.009-0.064-0.077-0.342-0.1-0.452C45.068-34.689,45.366-34.646,45.145-35.197"/>
		<path clip-path="url(#SVGID_2_)" fill="#1A1719" d="M42.999-35.12c0,0-0.354,0.927,0.353,0.949l-0.003-0.938L42.999-35.12z"/>
		<path clip-path="url(#SVGID_2_)" fill="#010103" d="M43.353-35.109l-0.002,0.938c0.706-0.021,0.353-0.949,0.353-0.949
			L43.353-35.109z"/>
		<path clip-path="url(#SVGID_2_)" fill="#1A1719" d="M13.637-109.522C1.376-109.44,5.575-89.981,6.353-88.928h14.542
			C20.895-88.928,25.897-109.604,13.637-109.522"/>
		<path clip-path="url(#SVGID_2_)" fill="#010103" d="M6.353-88.795h7.25l0.034-20.727C1.376-109.441,5.576-89.849,6.353-88.795"/>
		<path clip-path="url(#SVGID_2_)" fill="#DD9964" d="M5.929-99.726C6.461-98.07,7.55-98.21,7.55-98.21l-0.753-3.386
			C6.797-101.597,5.397-101.381,5.929-99.726"/>
		<rect x="12.296" y="-93.996" clip-path="url(#SVGID_2_)" fill="#DD9964" width="2.558" height="2.558"/>
		<path clip-path="url(#SVGID_2_)" fill="#E4A97F" d="M13.599-109.457c-3.863,0-6.995,3.132-6.995,6.997
			c0,3.863,3.134,9.857,6.995,9.744c7.328-0.215,6.996-5.881,6.996-9.744C20.595-106.325,17.463-109.457,13.599-109.457"/>
		<path clip-path="url(#SVGID_2_)" fill="#DD9964" d="M6.604-102.46c0,3.863-0.251,9.679,6.995,9.744v-16.741
			C9.736-109.457,6.604-106.324,6.604-102.46"/>
		<path clip-path="url(#SVGID_2_)" fill="#1A1719" d="M13.573-109.522c0,0-0.621-0.007-1.484,0.168
			c-1.201,0.245-2.868,0.843-3.987,2.308c0,0,0.007,0.015,0.022,0.039c-2.297,2.568-1.562,5.856-1.562,5.856
			c1.313-0.716,0.977-1.787,1.856-3.207c1.954,2.173,6.619,1.721,12.745,2.762C21.163-101.596,21.169-109.457,13.573-109.522"/>
		<path clip-path="url(#SVGID_2_)" fill="#010103" d="M12.088-109.354L12.088-109.354c-1.2,0.244-2.867,0.842-3.986,2.308
			c0,0,0.007,0.014,0.021,0.039c-3.091,2.604-1.561,5.856-1.561,5.856c1.312-0.716,1.411-0.728,2.29-2.148
			c0.873,0.971,1.818,0.869,4.837,0.75l-0.117-6.973C13.572-109.521,12.951-109.528,12.088-109.354"/>
		<path clip-path="url(#SVGID_2_)" fill="#193B73" d="M15.429-91.438h-3.522c-5.246,0.678-5.554,3.967-5.554,3.967h14.483
			C20.836-90.728,15.429-91.438,15.429-91.438"/>
		<path clip-path="url(#SVGID_2_)" fill="#3060A3" d="M15.415-91.438h-1.843v3.967h7.272C20.844-90.728,15.415-91.438,15.415-91.438
			"/>
		<path clip-path="url(#SVGID_2_)" fill="#010103" d="M4.75-96.104c-1.104,1.192-2.471,2.346-0.265,4.328s-0.459,2.926-1.178,3.292
			H6.83l1.854-4.796l-3.336-6.229C5.348-99.509,5.853-97.295,4.75-96.104"/>
		<path clip-path="url(#SVGID_2_)" fill="#1A1719" d="M22.67-91.786c2.206-1.981,0.838-3.137-0.266-4.328
			c-1.102-1.191-0.597-3.404-0.597-3.404l-3.335,6.228l1.853,4.796h3.523C23.128-88.858,20.463-89.805,22.67-91.786"/>
		<path clip-path="url(#SVGID_2_)" fill="#010103" d="M12.091-100.266H8.337c-0.478,0-0.866,0.332-0.866,0.742
			c0,0,0.474,2.735,2.751,2.735c2.275,0,2.735-2.735,2.735-2.735C12.958-99.934,12.57-100.266,12.091-100.266"/>
		<path clip-path="url(#SVGID_2_)" fill="#D7D3CC" d="M11.625-99.875H8.803c-0.36,0-0.651,0.25-0.651,0.558
			c0,0,0.357,2.056,2.069,2.056c1.711,0,2.055-2.056,2.055-2.056C12.275-99.625,11.984-99.875,11.625-99.875"/>
		<path clip-path="url(#SVGID_2_)" fill="#1A1719" d="M18.924-100.266H15.17c-0.478,0-0.866,0.332-0.866,0.742
			c0,0,0.459,2.735,2.734,2.735c2.277,0,2.752-2.735,2.752-2.735C19.791-99.934,19.403-100.266,18.924-100.266"/>
		<path clip-path="url(#SVGID_2_)" fill="#E8E6E4" d="M18.458-99.875h-2.822c-0.361,0-0.652,0.25-0.652,0.558
			c0,0,0.345,2.056,2.057,2.056c1.711,0,2.068-2.056,2.068-2.056C19.109-99.625,18.817-99.875,18.458-99.875"/>
		<path clip-path="url(#SVGID_2_)" fill="#010103" d="M12.345-99.372c0,0.187,0.151,0.338,0.337,0.338h0.966v-0.676h-0.966
			C12.496-99.709,12.345-99.559,12.345-99.372"/>
		<path clip-path="url(#SVGID_2_)" fill="#1A1719" d="M14.565-99.71h-0.917v0.676h0.917c0.187,0,0.338-0.151,0.338-0.338
			C14.903-99.558,14.752-99.71,14.565-99.71"/>
		<path clip-path="url(#SVGID_2_)" fill="#DD9964" d="M13.401-91.572v2.454c0.168,0.144,0.168,0.191,0.168,0.191l0.166-0.166
			l-0.047-2.479H13.401z"/>
		<path clip-path="url(#SVGID_2_)" fill="#E4A97F" d="M13.572-91.571l0.004,2.643c0,0,3.286-0.629,3.285-2.194
			C16.861-91.122,16.045-91.627,13.572-91.571"/>
		<path clip-path="url(#SVGID_2_)" fill="#DD9964" d="M10.282-91.122c0,1.564,3.287,2.194,3.287,2.194l0.003-2.643
			C11.099-91.626,10.282-91.122,10.282-91.122"/>
		<rect x="42.212" y="-65.759" clip-path="url(#SVGID_2_)" fill="#DD9964" width="2.558" height="2.69"/>
		<path clip-path="url(#SVGID_2_)" fill="#DD9964" d="M45.202-63.2h-3.536c-5.267,0.678-5.577,3.966-5.577,3.966H50.63
			C50.536-62.163,45.202-63.2,45.202-63.2"/>
		<path clip-path="url(#SVGID_2_)" fill="#E4A97F" d="M45.332-63.2h-1.843v3.966h7.271C50.016-62.692,45.332-63.2,45.332-63.2"/>
		<path clip-path="url(#SVGID_2_)" fill="#DD9964" d="M50.447-73.358l-0.753,3.385c0,0,1.09,0.141,1.622-1.514
			C51.847-73.143,50.447-73.358,50.447-73.358"/>
		<path clip-path="url(#SVGID_2_)" fill="#DD9964" d="M35.845-71.488c0.532,1.656,1.621,1.515,1.621,1.515l-0.752-3.386
			C36.714-73.359,35.314-73.143,35.845-71.488"/>
		<path clip-path="url(#SVGID_2_)" fill="#E4A97F" d="M43.541-81.284c-3.864,0-6.996,3.132-6.996,6.996
			c0,3.863,3.132,9.746,6.996,9.746c5.849,0,6.995-5.883,6.995-9.746C50.536-78.152,47.403-81.284,43.541-81.284"/>
		<path clip-path="url(#SVGID_2_)" fill="#DD9964" d="M36.52-74.223c0,3.864,1.259,9.745,6.996,9.745v-16.74
			C39.652-81.218,36.52-78.086,36.52-74.223"/>
		<path clip-path="url(#SVGID_2_)" fill="#010103" d="M41.458-80.969c-5.721,1.902-4.913,7.674-4.913,7.674l1.049-1.546
			c-0.76-1.588,0.627-3.22,2.038-3.75c1.412-0.529,3.909,1.699,3.909,1.699v-4.392C42.712-81.333,41.458-80.969,41.458-80.969"/>
		<path clip-path="url(#SVGID_2_)" fill="#1A1719" d="M45.624-80.969c0,0-1.255-0.364-2.083-0.315v4.392
			c0,0,2.496-2.228,3.908-1.699c1.412,0.53,2.798,2.162,2.039,3.75l1.048,1.546C50.536-73.295,51.343-79.067,45.624-80.969"/>
		<path clip-path="url(#SVGID_2_)" fill="#FE4C10" d="M40.855-63.068c-1.69,0.106-3.065,1.262-3.065,1.262l0.65,2.572h4.978v-1.683
			C41.245-60.911,40.855-63.068,40.855-63.068"/>
		<path clip-path="url(#SVGID_2_)" fill="#FC6739" d="M43.414-60.918v1.684h4.976l0.651-2.572c0,0-1.376-1.155-3.064-1.262
			C45.977-63.068,45.585-60.911,43.414-60.918"/>
		<path clip-path="url(#SVGID_2_)" fill="#CB7B46" d="M13.637,1.254C1.376,1.335,5.574,20.795,6.353,21.848h14.542
			C20.895,21.848,25.897,1.173,13.637,1.254"/>
		<path clip-path="url(#SVGID_2_)" fill="#7D4113" d="M6.353,21.98h7.25l0.034-20.727C1.376,1.335,5.575,20.927,6.353,21.98"/>
		<rect x="12.296" y="16.78" clip-path="url(#SVGID_2_)" fill="#DD9964" width="2.558" height="2.558"/>
		<path clip-path="url(#SVGID_2_)" fill="#E4A97F" d="M13.599,1.319c-3.863,0-6.995,3.132-6.995,6.996s3.134,9.858,6.995,9.745
			c7.328-0.214,6.996-5.881,6.996-9.745S17.463,1.319,13.599,1.319"/>
		<path clip-path="url(#SVGID_2_)" fill="#DD9964" d="M6.604,8.315c0,3.863-0.251,9.68,6.995,9.744V1.319
			C9.736,1.319,6.604,4.452,6.604,8.315"/>
		<path clip-path="url(#SVGID_2_)" fill="#0D2E14" d="M15.466,19.338H11.93c-5.268,0.677-5.577,3.966-5.577,3.966h14.542
			C20.896,20.048,15.466,19.338,15.466,19.338"/>
		<path clip-path="url(#SVGID_2_)" fill="#164C22" d="M15.415,19.338h-1.843v3.966h7.272C20.844,20.048,15.415,19.338,15.415,19.338
			"/>
		<path clip-path="url(#SVGID_2_)" fill="#7D4113" d="M4.749,14.672C3.646,15.863,2.277,17.018,4.484,19
			c2.206,1.981-0.459,2.927-1.178,3.293H6.83l1.854-4.797l-3.336-6.229C5.348,11.267,5.853,13.48,4.749,14.672"/>
		<path clip-path="url(#SVGID_2_)" fill="#CB7B46" d="M22.67,18.99c2.206-1.981,0.838-3.137-0.266-4.327
			c-1.102-1.192-0.597-3.406-0.597-3.406l-3.336,6.229l1.854,4.796h3.523C23.129,21.917,20.463,20.972,22.67,18.99"/>
		<path clip-path="url(#SVGID_2_)" fill="#686562" d="M13.576,21.849c0,0,3.286-0.63,3.286-2.195c0,0-0.453-0.149-3.263-0.936
			L13.576,21.849z"/>
		<path clip-path="url(#SVGID_2_)" fill="#686562" d="M13.586,21.849l0.013-3.131c-1.545,0.015-3.299,0.936-3.299,0.936
			C10.299,21.219,13.586,21.849,13.586,21.849"/>
		<path clip-path="url(#SVGID_2_)" fill="#7D4113" d="M6.976,4.739C5.375,7.622,6.547,9.413,6.547,9.413
			c2.955-0.736,7.017-4.91,7.017-4.91l0.035-3.184C12.242,1.187,8.578,1.855,6.976,4.739"/>
		<path clip-path="url(#SVGID_2_)" fill="#CB7B46" d="M13.549,1.319l0.035,3.184c0,0,4.43,4.45,7.386,5.187
			c0,0,0.803-2.067-0.798-4.951C18.571,1.855,14.906,1.188,13.549,1.319"/>
		<path clip-path="url(#SVGID_2_)" fill="#E8E7E0" d="M13.599,18.718l0.593,1.305l1.389-0.651l-0.365-0.653
			C15.216,18.718,14.365,18.571,13.599,18.718"/>
		<path clip-path="url(#SVGID_2_)" fill="#D7D3CC" d="M11.932,18.718l-0.365,0.652l1.389,0.652l0.593-1.305
			C12.785,18.571,11.932,18.718,11.932,18.718"/>
		<path clip-path="url(#SVGID_2_)" fill="#0D2E14" d="M13.532,20.86c-0.147,0-0.267,0.12-0.267,0.267
			c0,0.147,0.12,0.267,0.267,0.267c0.146,0,0.266-0.119,0.266-0.267C13.798,20.98,13.678,20.86,13.532,20.86"/>
		<path clip-path="url(#SVGID_2_)" fill="#010103" d="M39.29-90.768l0.529,0.971c0,0,1.306-0.529,3.765-0.551v-1.699
			C43.583-92.047,41.496-92.312,39.29-90.768"/>
		<path clip-path="url(#SVGID_2_)" fill="#010103" d="M43.625-92.047v1.699c2.458,0.022,3.764,0.551,3.764,0.551l0.529-0.971
			C45.711-92.312,43.625-92.047,43.625-92.047"/>
		<path clip-path="url(#SVGID_2_)" fill="#FBAD4B" d="M43.644-107.1l0.003,1.781l2.149-0.213
			C45.534-107.109,43.644-107.1,43.644-107.1"/>
		<path clip-path="url(#SVGID_2_)" fill="#3060A3" d="M41.968-105.642c0.231-0.054,1.747-0.229,1.747-0.229v-0.705
			C42.246-106.576,41.968-105.642,41.968-105.642"/>
		<path clip-path="url(#SVGID_2_)" fill="#3060A3" d="M43.682-106.576v0.705c0,0,1.516,0.175,1.747,0.229
			C45.429-105.642,45.151-106.576,43.682-106.576"/>
		<rect x="42.299" y="-92.888" clip-path="url(#SVGID_2_)" fill="#DD9964" width="2.558" height="2.558"/>
		<path clip-path="url(#SVGID_2_)" fill="#E4A97F" d="M43.681-108.348c-3.864,0-6.996,3.133-6.996,6.996s2.28,9.745,6.996,9.745
			c4.703,0,6.996-5.882,6.996-9.745S47.545-108.348,43.681-108.348"/>
		<path clip-path="url(#SVGID_2_)" fill="#DD9964" d="M36.554-101.352c0,3.863,2.313,9.745,6.996,9.745v-16.741
			C39.686-108.348,36.554-105.215,36.554-101.352"/>
		<path clip-path="url(#SVGID_2_)" fill="#E4A97F" d="M45.355-90.348h-1.843v3.966h7.272C50.784-89.638,45.355-90.348,45.355-90.348
			"/>
		<path clip-path="url(#SVGID_2_)" fill="#DD9964" d="M36.311-86.382h7.272v-3.966H41.74C41.74-90.348,36.311-89.637,36.311-86.382"
			/>
		<polygon clip-path="url(#SVGID_2_)" fill="#DCDCD4" points="38.108,-86.382 43.602,-86.382 43.602,-88.365 39.837,-88.365 		"/>
		<polygon clip-path="url(#SVGID_2_)" fill="#DCDCD4" points="39.458,-89.751 39.837,-88.365 39.946,-88.365 39.568,-89.799 		"/>
		<polygon clip-path="url(#SVGID_2_)" fill="#F3F2EE" points="43.602,-88.365 43.602,-86.382 49.096,-86.382 47.367,-88.365 		"/>
		<polygon clip-path="url(#SVGID_2_)" fill="#F3F2EE" points="47.257,-88.365 47.366,-88.365 47.746,-89.75 47.635,-89.8 		"/>
		<path clip-path="url(#SVGID_2_)" fill="#45220F" d="M36.553-100.466l1-0.765c0.808-5.555,5.997-5.162,5.997-5.162v-2.007
			C35.261-107.813,36.553-100.466,36.553-100.466"/>
		<path clip-path="url(#SVGID_2_)" fill="#502E1A" d="M43.484-108.453v2.006c0,0,5.189-0.392,5.996,5.163l1.195,0.809
			C50.675-100.475,51.772-107.866,43.484-108.453"/>
		<path clip-path="url(#SVGID_2_)" fill="#010103" d="M38.76-89.973l-0.044,0.265l-2.074,1.72l-0.53,1.589h6.84l-0.882-2.736
			C42.07-89.135,39.951-87.988,38.76-89.973"/>
		<path clip-path="url(#SVGID_2_)" fill="#193B73" d="M40.779-90.018c-0.927-1.147,0.794-1.854,0.794-1.854
			c-1.279-0.088-2.383,0.751-2.383,0.751l-0.927,1.324l1.589,2.294l2.114-1.628C41.927-89.104,41.637-88.955,40.779-90.018"/>
		<path clip-path="url(#SVGID_2_)" fill="#193B73" d="M41.965-89.131c0.003-0.002,0.005-0.004,0.005-0.004L41.965-89.131z"/>
		<path clip-path="url(#SVGID_2_)" fill="#999694" d="M41.706-87.701c-0.22,0-0.397,0.177-0.397,0.397
			c0,0.219,0.177,0.397,0.397,0.397c0.219,0,0.397-0.178,0.397-0.397C42.103-87.524,41.924-87.701,41.706-87.701"/>
		<path clip-path="url(#SVGID_2_)" fill="#1A1719" d="M48.327-89.742l-0.044-0.265c-1.191,1.986-3.31,0.839-3.31,0.839l-0.882,2.736
			h6.84l-0.531-1.589L48.327-89.742z"/>
		<polyline clip-path="url(#SVGID_2_)" fill="#3060A3" points="45.011,-89.164 45.006,-89.167 45.011,-89.164 		"/>
		<path clip-path="url(#SVGID_2_)" fill="#3060A3" d="M45.404-91.904c0,0,1.721,0.706,0.794,1.853
			c-0.859,1.063-1.149,0.915-1.187,0.887l2.114,1.629l1.588-2.295l-0.927-1.324C47.786-91.154,46.683-91.992,45.404-91.904"/>
		<path clip-path="url(#SVGID_2_)" fill="#A19F97" d="M43.482-109.522v2.339c0,0,5.78-0.573,7.148,4.59
			C50.63-102.593,50.675-109.037,43.482-109.522"/>
		<path clip-path="url(#SVGID_2_)" fill="#6D6966" d="M36.333-102.594c1.368-5.163,7.148-4.59,7.148-4.59v-2.339
			C36.155-108.905,36.333-102.594,36.333-102.594"/>
		<path clip-path="url(#SVGID_2_)" fill="#D7D3CC" d="M34.745-100.917c0,0,0.353,1.942,2.294,2.647l-0.485-2.196
			c0,0-1.396-6.55,7.09-6.634v-1.584C43.644-108.684,33.156-107.978,34.745-100.917"/>
		<path clip-path="url(#SVGID_2_)" fill="#E8E6E4" d="M43.516-108.684v1.584c8.129,0.138,7.093,6.634,7.093,6.634l-0.488,2.197
			c1.943-0.706,2.295-2.648,2.295-2.648C54.005-107.977,43.516-108.684,43.516-108.684"/>
		<path clip-path="url(#SVGID_2_)" fill="#DD9964" d="M35.733-98.55c0.532,1.655,1.621,1.514,1.621,1.514l-0.752-3.386
			C36.602-100.422,35.202-100.206,35.733-98.55"/>
		<path clip-path="url(#SVGID_2_)" fill="#DD9964" d="M50.588-100.421l-0.752,3.386c0,0,1.089,0.14,1.621-1.514
			C51.988-100.207,50.588-100.421,50.588-100.421"/>
		<path clip-path="url(#SVGID_2_)" fill="#45220F" d="M38.583-106.61c-0.485,1.191-2.25,0.839-2.25,0.839
			c1.94,3.265,7.183,1.544,7.183,1.544v-2.873C41.653-109.267,39.068-107.801,38.583-106.61"/>
		<path clip-path="url(#SVGID_2_)" fill="#502E1A" d="M45.423-106.83c-0.573-0.309-1.907-0.27-1.907-0.27v2.874
			C44.831-104.492,45.997-106.521,45.423-106.83"/>
		<path clip-path="url(#SVGID_2_)" fill="#FCAF4C" d="M5.57-48.318c0,0,1.248,6.902,2.159,8.884c0.909,1.98,1.188,2.233,0.452,2.612
			c0,0,1.948,0.453,2.627-0.489c0,0,2.208,1.404,2.764,1.285v-16.433C13.572-52.459,6.883-52.398,5.57-48.318"/>
		<path clip-path="url(#SVGID_2_)" fill="#FCAF4C" d="M13.537-52.459v16.433c0.555,0.12,2.763-1.285,2.763-1.285
			c0.68,0.943,2.627,0.49,2.627,0.49c-0.736-0.379-0.457-0.632,0.453-2.613c0.909-1.98,2.159-8.884,2.159-8.884
			C20.224-52.398,13.537-52.459,13.537-52.459"/>
		<path clip-path="url(#SVGID_2_)" fill="#DE9865" d="M5.973-43.78c0.53,1.635,1.617,1.497,1.617,1.497L6.84-45.63
			C6.84-45.63,5.443-45.416,5.973-43.78"/>
		<path clip-path="url(#SVGID_2_)" fill="#E4AA7F" d="M20.331-45.63l-0.75,3.347c0,0,1.086,0.138,1.617-1.497
			C21.727-45.416,20.331-45.63,20.331-45.63"/>
		<path clip-path="url(#SVGID_2_)" fill="#DCDCD5" d="M12.304-36.97c-0.35,0-0.634,0.282-0.634,0.629s0.284,0.627,0.634,0.627
			s0.634-0.28,0.634-0.627S12.654-36.97,12.304-36.97"/>
		<path clip-path="url(#SVGID_2_)" fill="#F5F4F0" d="M14.869-36.933c-0.351,0-0.634,0.281-0.634,0.628s0.283,0.628,0.634,0.628
			c0.35,0,0.634-0.281,0.634-0.628S15.219-36.933,14.869-36.933"/>
		<rect x="12.325" y="-38.12" clip-path="url(#SVGID_2_)" fill="#E4AA7F" width="2.552" height="2.528"/>
		<path clip-path="url(#SVGID_2_)" fill="#E9BD9A" d="M13.572-53.397c-3.854,0-6.979,3.096-6.979,6.913
			c0,3.818,2.138,9.676,6.979,9.631c4.673-0.042,6.979-5.813,6.979-9.631C20.551-50.302,17.426-53.397,13.572-53.397"/>
		<path clip-path="url(#SVGID_2_)" fill="#E4AA7F" d="M6.594-46.484c0,3.818,2.319,10.27,6.979,9.631v-16.544
			C9.718-53.397,6.594-50.302,6.594-46.484"/>
		<path clip-path="url(#SVGID_2_)" fill="#E9BD9A" d="M15.374-35.609h-1.839v3.92h7.255C20.79-34.908,15.374-35.609,15.374-35.609"
			/>
		<path clip-path="url(#SVGID_2_)" fill="#E4AA7F" d="M6.352-31.69h7.253v-3.92h-1.837C11.768-35.61,6.352-34.908,6.352-31.69"/>
		<path clip-path="url(#SVGID_2_)" fill="#680000" d="M12.34-35.845l-0.853,0.248c-0.001,0.217-0.068,0.447-0.215,0.681
			c-0.733,1.162-1.571,2.261-2.541,3.226h4.874v-2.293c-0.009,0-0.017,0.001-0.027,0.001C12.47-33.982,12.058-35.05,12.34-35.845"/>
		<path clip-path="url(#SVGID_2_)" fill="#FE9D2A" d="M8.156-51.678c-4.674,0.919-2.37,6.493-1.547,6.596
			c0.822,0.104,1.598-0.845,2.786-3.111c1.189-2.268,3.607-0.654,3.607-0.654C14.5-55.789,8.156-51.678,8.156-51.678"/>
		<path clip-path="url(#SVGID_2_)" fill="#FE9D2A" d="M16.847-54.131c-3.874-1.178-7.043-0.742-7.659,1.067
			c-0.617,1.81,3.102,3.99,3.102,3.99l1.169,0.697l4.813-3.148C18.272-51.524,20.72-52.954,16.847-54.131"/>
		<path clip-path="url(#SVGID_2_)" fill="#FCAF4C" d="M18.999-51.678c0,0-5.635,0.258-4.846,2.83c0,0,2.417-1.613,3.607,0.654
			c1.188,2.267,1.964,3.215,2.786,3.111C21.369-45.186,23.672-50.759,18.999-51.678"/>
		<path clip-path="url(#SVGID_2_)" fill="#FCAF4C" d="M13.535-48.376c0,0-3.905-5.712,5.441-3.75c0,0,0.374-0.131-0.047-0.937
			C18.507-53.87,6.494-54.807,13.535-48.376"/>
		<path clip-path="url(#SVGID_2_)" fill="#FCAF4C" d="M13.535-48.376c-0.877-3.967,5.259-3.512,5.259-3.512
			C11.466-52.564,13.535-48.376,13.535-48.376"/>
		<path clip-path="url(#SVGID_2_)" fill="#FE9D2A" d="M20.79-47.602c-0.531-1.538-1.968-5.134-4.592-2.878v0.131
			c0,0,2.416-1.875,3.667,1.973c1.252,3.848,1.813,0.905,1.813,0.905S21.32-46.064,20.79-47.602"/>
		<path clip-path="url(#SVGID_2_)" fill="#FCAF4C" d="M6.456-47.404c-0.531,1.537-0.889,0.131-0.889,0.131s0.562,2.943,1.813-0.904
			c1.251-3.849,3.668-1.974,3.668-1.974v-0.131C8.422-52.538,6.986-48.941,6.456-47.404"/>
		<path clip-path="url(#SVGID_2_)" fill="#B0000F" d="M15.709-35.597l-0.853-0.249c0.283,0.796-0.129,1.863-1.237,1.863
			c-0.01,0-0.018,0-0.027,0v2.293h4.875c-0.972-0.966-1.809-2.064-2.542-3.227C15.777-35.148,15.712-35.38,15.709-35.597"/>
		<path clip-path="url(#SVGID_2_)" fill="#DCDCD5" d="M11.326-36.219c-0.35,0-0.633,0.281-0.633,0.627
			c0,0.347,0.283,0.628,0.633,0.628c0.351,0,0.635-0.281,0.635-0.628C11.961-35.938,11.677-36.219,11.326-36.219"/>
		<path clip-path="url(#SVGID_2_)" fill="#DCDCD5" d="M12.938-34.288c-0.351,0-0.634,0.281-0.634,0.628s0.283,0.628,0.634,0.628
			c0.35,0,0.634-0.281,0.634-0.628S13.288-34.288,12.938-34.288"/>
		<path clip-path="url(#SVGID_2_)" fill="#DCDCD5" d="M11.96-35.172c-0.351,0-0.634,0.281-0.634,0.627s0.283,0.628,0.634,0.628
			s0.634-0.282,0.634-0.628S12.312-35.172,11.96-35.172"/>
		<path clip-path="url(#SVGID_2_)" fill="#F5F4F0" d="M15.846-36.182c-0.351,0-0.634,0.281-0.634,0.628s0.283,0.627,0.634,0.627
			c0.35,0,0.634-0.28,0.634-0.627S16.196-36.182,15.846-36.182"/>
		<path clip-path="url(#SVGID_2_)" fill="#F5F4F0" d="M14.235-34.251c-0.351,0-0.634,0.281-0.634,0.629
			c0,0.346,0.283,0.627,0.634,0.627c0.35,0,0.634-0.281,0.634-0.627C14.869-33.97,14.585-34.251,14.235-34.251"/>
		<path clip-path="url(#SVGID_2_)" fill="#F5F4F0" d="M15.212-35.135c-0.35,0-0.634,0.28-0.634,0.628
			c0,0.346,0.284,0.627,0.634,0.627s0.634-0.281,0.634-0.627C15.846-34.854,15.563-35.135,15.212-35.135"/>
		<path clip-path="url(#SVGID_2_)" fill="#010103" d="M6.458-14.164c0,0-2.013-0.631-3.891,1.16c0,0,0.111,1.761,1.003,3.095
			l1.498-0.605L3.95-9.4l0.352,0.304c0,0,2.88-0.981,2.9-3.459C7.202-12.556,6.341-13.035,6.458-14.164"/>
		<path clip-path="url(#SVGID_2_)" fill="#680000" d="M7.102-14.734c0,0-0.66,0.277-0.743,0.703
			c-0.085,0.426,0.045,1.946,0.98,2.012c0,0,0.295,0.114,0.521-0.346C7.86-12.365,6.985-13.874,7.102-14.734"/>
		<path clip-path="url(#SVGID_2_)" fill="#1A1719" d="M20.696-14.181c0.116,1.128-0.744,1.607-0.744,1.607
			c0.02,2.478,2.901,3.459,2.901,3.459l0.35-0.303l-1.116-1.115l1.498,0.606c0.892-1.334,1.003-3.095,1.003-3.095
			C22.709-14.813,20.696-14.181,20.696-14.181"/>
		<path clip-path="url(#SVGID_2_)" fill="#B0000F" d="M20.05-14.991c0.116,0.859-0.758,2.368-0.758,2.368
			c0.226,0.461,0.521,0.345,0.521,0.345c0.935-0.065,1.064-1.585,0.98-2.01C20.71-14.716,20.05-14.991,20.05-14.991"/>
		<path clip-path="url(#SVGID_2_)" fill="#DE9865" d="M5.962-15.063c0.525,1.631,1.6,1.492,1.6,1.492l-0.743-3.335
			C6.819-16.905,5.438-16.692,5.962-15.063"/>
		<path clip-path="url(#SVGID_2_)" fill="#DE9865" d="M20.163-16.905l-0.742,3.334c0,0,1.074,0.14,1.599-1.49
			S20.163-16.905,20.163-16.905"/>
		<rect x="12.244" y="-9.42" clip-path="url(#SVGID_2_)" fill="#DE9865" width="2.525" height="2.52"/>
		<path clip-path="url(#SVGID_2_)" fill="#E4AA7F" d="M13.477-24.645c-3.812,0-6.902,3.084-6.902,6.889s0.741,9.598,6.902,9.598
			c6.803,0,6.904-5.793,6.904-9.598S17.29-24.645,13.477-24.645"/>
		<path clip-path="url(#SVGID_2_)" fill="#DE9865" d="M6.577-17.755c0,3.804,0.739,9.597,6.902,9.597v-16.486
			C9.667-24.645,6.577-21.561,6.577-17.755"/>
		<path clip-path="url(#SVGID_2_)" fill="#E4AA7F" d="M15.26-6.918h-1.818v3.905h7.173C20.615-6.219,15.26-6.918,15.26-6.918"/>
		<path clip-path="url(#SVGID_2_)" fill="#DE9865" d="M6.336-3.013h7.175v-3.906h-1.818C11.693-6.919,6.336-6.219,6.336-3.013"/>
		<path clip-path="url(#SVGID_2_)" fill="#010103" d="M6.336-21.962c-1.57,2.28,0.044,6.597,0.044,6.597
			c3.301-0.714,7.099-7.122,7.099-7.122v-2.157C9.516-24.771,6.336-21.962,6.336-21.962"/>
		<path clip-path="url(#SVGID_2_)" fill="#1A1719" d="M13.442-24.645v2.157c0,0,3.869,6.443,7.171,7.156
			c0,0,1.574-4.351,0.003-6.631C20.616-21.962,17.405-24.771,13.442-24.645"/>
		<path clip-path="url(#SVGID_2_)" fill="#680000" d="M7.316-5.113v2.101h6.195v-4.509l-2.417,0.711
			C11.094-6.811,8.443-6.214,7.316-5.113"/>
		<path clip-path="url(#SVGID_2_)" fill="#B0000F" d="M13.505-7.521v4.509h6.197v-2.101c-1.128-1.101-3.778-1.698-3.778-1.698
			L13.505-7.521z"/>
		<path clip-path="url(#SVGID_2_)" fill="#D7D3CC" d="M11.094-6.811c0.2,1.141,1.971,1.696,1.971,1.696l0.414-2.407l-2.19-0.241
			L11.094-6.811z"/>
		<path clip-path="url(#SVGID_2_)" fill="#F5E4D7" d="M13.479-7.521l0.414,2.408c0,0,1.771-0.558,1.971-1.698l-0.196-0.952
			L13.479-7.521z"/>
		<path clip-path="url(#SVGID_2_)" fill="#010103" d="M7.111-22.448c0.01,0.021-0.013,0.035-0.013,0.035
			c2.824-1.776,6.344-1.011,6.344-1.011v-1.754C12.921-26.388,6.59-23.659,7.111-22.448"/>
		<path clip-path="url(#SVGID_2_)" fill="#1A1719" d="M13.433-25.309v1.755c0,0,3.52-0.766,6.343,1.01c0,0-0.003-0.013-0.013-0.035
			C19.635-22.922,18.469-25.599,13.433-25.309"/>
	</g>
</g>
</svg>
