<?xml version="1.0" encoding="utf-8"?>
<!-- Generator: Adobe Illustrator 16.0.3, SVG Export Plug-In . SVG Version: 6.00 Build 0)  -->
<!DOCTYPE svg PUBLIC "-//W3C//DTD SVG 1.1//EN" "http://www.w3.org/Graphics/SVG/1.1/DTD/svg11.dtd">
<svg version="1.1" id="Capa_1" xmlns="http://www.w3.org/2000/svg" xmlns:xlink="http://www.w3.org/1999/xlink" x="0px" y="0px"
	 width="27.155px" height="27.154px" viewBox="0 0 27.155 27.154" enable-background="new 0 0 27.155 27.154" xml:space="preserve">
<g>
	<g>
		<defs>
			<rect id="SVGID_1_" x="-210.646" y="-345.398" width="792" height="612"/>
		</defs>
		<clipPath id="SVGID_2_">
			<use xlink:href="#SVGID_1_"  overflow="visible"/>
		</clipPath>
		<path clip-path="url(#SVGID_2_)" fill="#FFD900" d="M27.155-70.261c0,7.499-6.079,13.577-13.577,13.577
			C6.079-56.684,0-62.762,0-70.261s6.079-13.577,13.578-13.577C21.076-83.838,27.155-77.76,27.155-70.261"/>
		<path clip-path="url(#SVGID_2_)" fill="#FFD900" d="M57.158-70.261c0,7.499-6.078,13.577-13.577,13.577
			c-7.498,0-13.577-6.078-13.577-13.577s6.079-13.577,13.577-13.577C51.08-83.838,57.158-77.76,57.158-70.261"/>
		<path clip-path="url(#SVGID_2_)" fill="#BFE10E" d="M27.155-42.315c0,7.499-6.079,13.577-13.577,13.577
			C6.079-28.738,0-34.816,0-42.315c0-7.499,6.079-13.578,13.578-13.578C21.076-55.893,27.155-49.814,27.155-42.315"/>
		<path clip-path="url(#SVGID_2_)" fill="#BFE10E" d="M57.158-42.315c0,7.499-6.078,13.577-13.577,13.577
			c-7.498,0-13.577-6.078-13.577-13.577c0-7.499,6.079-13.578,13.577-13.578C51.08-55.893,57.158-49.814,57.158-42.315"/>
		<path clip-path="url(#SVGID_2_)" fill="#F0047F" d="M27.155-14.369c0,7.499-6.079,13.577-13.577,13.577
			C6.079-0.792,0-6.87,0-14.369s6.079-13.577,13.578-13.577C21.076-27.946,27.155-21.868,27.155-14.369"/>
		<path clip-path="url(#SVGID_2_)" fill="#F0047F" d="M57.158-14.369c0,7.499-6.078,13.577-13.577,13.577
			c-7.498,0-13.577-6.078-13.577-13.577s6.079-13.577,13.577-13.577C51.08-27.946,57.158-21.868,57.158-14.369"/>
		<path clip-path="url(#SVGID_2_)" fill="#0A51A1" d="M27.155,13.576c0,7.499-6.079,13.578-13.577,13.578
			C6.079,27.154,0,21.075,0,13.576C0,6.078,6.079,0,13.578,0C21.076,0,27.155,6.078,27.155,13.576"/>
		<path clip-path="url(#SVGID_2_)" fill="#0A51A1" d="M57.158,13.576c0,7.499-6.078,13.578-13.577,13.578
			c-7.498,0-13.577-6.079-13.577-13.578C30.004,6.078,36.083,0,43.581,0C51.08,0,57.158,6.078,57.158,13.576"/>
		<path clip-path="url(#SVGID_2_)" fill="#FF8C00" d="M27.155,41.523c0,7.498-6.079,13.576-13.577,13.576
			C6.079,55.1,0,49.021,0,41.523c0-7.499,6.079-13.577,13.578-13.577C21.076,27.946,27.155,34.024,27.155,41.523"/>
		<path clip-path="url(#SVGID_2_)" fill="#FF8C00" d="M57.158,41.523c0,7.498-6.078,13.576-13.577,13.576
			c-7.498,0-13.577-6.078-13.577-13.576c0-7.499,6.079-13.577,13.577-13.577C51.08,27.946,57.158,34.024,57.158,41.523"/>
		<path clip-path="url(#SVGID_2_)" fill="#DE9865" d="M6.041-44.148c0.526,1.637,1.605,1.498,1.605,1.498L6.9-45.997
			C6.9-45.997,5.514-45.783,6.041-44.148"/>
		<path clip-path="url(#SVGID_2_)" fill="#DE9865" d="M20.291-45.997l-0.745,3.346c0,0,1.079,0.139,1.605-1.497
			C21.678-45.784,20.291-45.997,20.291-45.997"/>
		<rect x="12.345" y="-38.486" clip-path="url(#SVGID_2_)" fill="#DE9865" width="2.533" height="2.528"/>
		<polygon clip-path="url(#SVGID_2_)" fill="#010103" points="6.473,-35.177 19.642,-35.177 21.081,-46.341 5.906,-46.646 		"/>
		<rect x="12.359" y="-38.448" clip-path="url(#SVGID_2_)" fill="#DE9865" width="2.441" height="2.573"/>
		<path clip-path="url(#SVGID_2_)" fill="#E4AA7F" d="M13.583-53.764c-3.825,0-6.927,3.096-6.927,6.914
			c0,3.817,0.742,9.629,6.927,9.629c6.825,0,6.927-5.813,6.927-9.629C20.509-50.668,17.408-53.764,13.583-53.764"/>
		<path clip-path="url(#SVGID_2_)" fill="#DE9865" d="M6.656-46.85c0,3.817,0.742,9.629,6.927,9.629v-16.543
			C9.759-53.764,6.656-50.668,6.656-46.85"/>
		<path clip-path="url(#SVGID_2_)" fill="#E4AA7F" d="M15.37-35.976h-1.824v3.92h7.2C20.746-35.274,15.37-35.976,15.37-35.976"/>
		<path clip-path="url(#SVGID_2_)" fill="#DE9865" d="M6.417-32.057h7.199v-3.92h-1.824C11.792-35.977,6.417-35.274,6.417-32.057"/>
		<path clip-path="url(#SVGID_2_)" fill="#D7D3CC" d="M12.141-36.05c0,0-3.75,0.307-2.878,0.35c0.872,0.044,0.654,3.644,0.654,3.644
			h3.707v-2.029C11.662-33.999,12.141-36.05,12.141-36.05"/>
		<path clip-path="url(#SVGID_2_)" fill="#E9E7E5" d="M15.107-36.05c0,0,0.479,2.051-1.483,1.964v2.029h3.706
			c0,0-0.218-3.6,0.655-3.644C18.857-35.743,15.107-36.05,15.107-36.05"/>
		<path clip-path="url(#SVGID_2_)" fill="#010103" d="M5.121-45.293c0.523,2.66,1.221,3.226-0.437,4.884
			c-1.656,1.657-2.703,5.625,2.4,6.497c4.995,0.854,4.403-3.619,4.403-3.619s-0.479,0.654-1.962-0.741
			c-1.483-1.396-2.703-3.533-2.398-7.937c0.306-4.405,6.456-3.489,6.456-3.489v-4.066C6.915-54.21,4.598-47.954,5.121-45.293"/>
		<path clip-path="url(#SVGID_2_)" fill="#1A1719" d="M22.033-45.293c0.523-2.66-1.792-8.917-8.462-8.471v4.066
			c0,0,6.151-0.916,6.457,3.489c0.305,4.404-0.916,6.541-2.399,7.937c-1.483,1.396-1.962,0.741-1.962,0.741s-0.59,4.473,4.405,3.619
			c5.102-0.872,4.056-4.84,2.398-6.497C20.813-42.067,21.511-42.633,22.033-45.293"/>
		<path clip-path="url(#SVGID_2_)" fill="#010103" d="M6.656-45.237c0,0,5.268-0.493,6.969-0.406v-6.846
			C13.625-52.489,6.099-52.113,6.656-45.237"/>
		<path clip-path="url(#SVGID_2_)" fill="#1A1719" d="M13.56-52.49v6.847c1.701-0.087,6.969,0.405,6.969,0.405
			C21.086-52.114,13.56-52.49,13.56-52.49"/>
		<rect x="12.621" y="-43.419" clip-path="url(#SVGID_2_)" fill="#010103" width="1.004" height="0.61"/>
		<rect x="13.603" y="-43.419" clip-path="url(#SVGID_2_)" fill="#1A1719" width="1.003" height="0.61"/>
		<path clip-path="url(#SVGID_2_)" fill="#010103" d="M8.217-43.158c-0.176,0.611,0.218,2.792,2.181,3.054
			c2.366,0.315,2.659-3.228,2.659-3.228C10.223-45.033,8.217-43.158,8.217-43.158"/>
		<path clip-path="url(#SVGID_2_)" fill="#1A1719" d="M14.175-43.375c0,0,0.295,3.542,2.661,3.227
			c1.962-0.261,2.355-2.442,2.18-3.053C19.016-43.201,17.01-45.076,14.175-43.375"/>
		<path clip-path="url(#SVGID_2_)" fill="#DE9865" d="M35.857,40.352c0.537,1.673,1.639,1.531,1.639,1.531l-0.761-3.422
			C36.735,38.461,35.32,38.68,35.857,40.352"/>
		<path clip-path="url(#SVGID_2_)" fill="#DE9865" d="M50.507,38.461l-0.76,3.422c0,0,1.101,0.142,1.639-1.531
			C51.923,38.68,50.507,38.461,50.507,38.461"/>
		<rect x="42.292" y="46.143" clip-path="url(#SVGID_2_)" fill="#DE9865" width="2.585" height="2.584"/>
		<path clip-path="url(#SVGID_2_)" fill="#E4AA7F" d="M43.555,30.517c-3.905,0-7.07,3.166-7.07,7.07c0,3.906,1.969,9.851,7.07,9.851
			c5.862,0,7.07-5.944,7.07-9.851C50.625,33.683,47.46,30.517,43.555,30.517"/>
		<path clip-path="url(#SVGID_2_)" fill="#DE9865" d="M36.486,37.587c0,3.905,1.598,9.851,7.07,9.851v-16.92
			C39.652,30.518,36.486,33.683,36.486,37.587"/>
		<path clip-path="url(#SVGID_2_)" fill="#D7D3CC" d="M45.458,48.727h-3.56c-5.301,0.685-5.613,4.009-5.613,4.009h14.637
			C50.922,49.444,45.458,48.727,45.458,48.727"/>
		<path clip-path="url(#SVGID_2_)" fill="#F5E4D7" d="M45.577,48.727h-1.861v4.009h7.348C51.063,49.444,45.577,48.727,45.577,48.727
			"/>
		<path clip-path="url(#SVGID_2_)" fill="#010103" d="M42.085,39.805h-3.795c-0.483,0-0.874,0.337-0.874,0.75
			c0,0,0.479,2.765,2.779,2.765c2.301,0,2.764-2.765,2.764-2.765C42.959,40.142,42.568,39.805,42.085,39.805"/>
		<path clip-path="url(#SVGID_2_)" fill="#1A1719" d="M48.99,39.805h-3.794c-0.483,0-0.875,0.337-0.875,0.75
			c0,0,0.464,2.765,2.764,2.765c2.301,0,2.78-2.765,2.78-2.765C49.865,40.142,49.474,39.805,48.99,39.805"/>
		<path clip-path="url(#SVGID_2_)" fill="#010103" d="M42.341,40.709c0,0.189,0.152,0.342,0.342,0.342h0.974v-0.684h-0.974
			C42.493,40.367,42.341,40.521,42.341,40.709"/>
		<path clip-path="url(#SVGID_2_)" fill="#1A1719" d="M44.584,40.367h-0.927v0.684h0.927c0.188,0,0.342-0.152,0.342-0.342
			C44.926,40.521,44.772,40.367,44.584,40.367"/>
		<path clip-path="url(#SVGID_2_)" fill="#DE9865" d="M43.409,48.591v2.48c0.169,0.146,0.169,0.192,0.169,0.192l0.168-0.168
			l-0.048-2.505H43.409z"/>
		<path clip-path="url(#SVGID_2_)" fill="#E4AA7F" d="M43.581,48.593l0.004,2.671c0,0,3.321-0.636,3.32-2.218
			C46.904,49.046,46.08,48.537,43.581,48.593"/>
		<path clip-path="url(#SVGID_2_)" fill="#DE9865" d="M40.257,49.046c-0.002,1.582,3.32,2.218,3.32,2.218l0.003-2.671
			C41.083,48.537,40.257,49.046,40.257,49.046"/>
		<path clip-path="url(#SVGID_2_)" fill="#010103" d="M42.959,29.8l-1.487-0.987l-0.917,1.705l-1.871-1.423
			c-0.284,0.44-0.707,2.472-0.707,2.472C37.413,31.283,36,31.071,36,31.071l0.286,3.143l-0.991-0.313
			c0.07,1.487,1.243,4.559,1.243,4.559s1.094-2.021,0.879-3.293c-0.216-1.271,3.78-0.988,6.16-0.177l0.898-2.471l-0.89-3.707
			L42.959,29.8z"/>
		<path clip-path="url(#SVGID_2_)" fill="#1A1719" d="M51.161,31.071c0,0-1.411,0.212-1.977,0.494c0,0-0.423-2.029-0.706-2.472
			l-1.871,1.423l-0.919-1.704l-1.486,0.988l-0.617-0.988v0.529v5.649c2.38-0.813,6.376-1.096,6.161,0.176
			c-0.215,1.271,0.878,3.294,0.878,3.294s1.173-3.072,1.243-4.561l-0.991,0.314L51.161,31.071z"/>
		<path clip-path="url(#SVGID_2_)" fill="#FBAD4B" d="M53.178,13.12c-1.923-1.406-1.968-3.749-1.968-3.749
			c0.377-4.59-7.701-2.668-7.701-2.668v11.662h9.764c1.781-1.265-0.986-2.201-0.095-2.201C54.07,16.164,55.101,14.524,53.178,13.12"
			/>
		<path clip-path="url(#SVGID_2_)" fill="#FD9B28" d="M35.952,9.371c0,0-0.046,2.343-1.969,3.749c-1.923,1.404-0.89,3.043,0,3.043
			c0.891,0-1.876,0.938-0.094,2.203h9.764V6.703C43.653,6.703,35.574,4.781,35.952,9.371"/>
		<path clip-path="url(#SVGID_2_)" fill="#DD9964" d="M35.445,11.812c0.576,1.792,1.757,1.64,1.757,1.64l-0.816-3.666
			C36.386,9.785,34.868,10.019,35.445,11.812"/>
		<path clip-path="url(#SVGID_2_)" fill="#DD9964" d="M50.917,9.797l-0.801,3.596c0,0,1.159,0.149,1.725-1.608
			C52.406,10.025,50.917,9.797,50.917,9.797"/>
		<rect x="42.271" y="17.868" clip-path="url(#SVGID_2_)" fill="#DD9964" width="2.722" height="2.718"/>
		<path clip-path="url(#SVGID_2_)" fill="#E4A97F" d="M43.601,1.448c-4.109,0-7.44,3.327-7.44,7.431s2.073,10.471,7.44,10.35
			c7.502-0.166,7.439-6.246,7.439-10.35S47.709,1.448,43.601,1.448"/>
		<path clip-path="url(#SVGID_2_)" fill="#DD9964" d="M36.162,8.879c0,4.104-0.21,9.867,7.44,10.35V1.448
			C39.493,1.448,36.162,4.775,36.162,8.879"/>
		<path clip-path="url(#SVGID_2_)" fill="#DD9964" d="M36.15,24.743h7.464v-4.212h-1.691C41.923,20.531,36.15,21.285,36.15,24.743"
			/>
		<path clip-path="url(#SVGID_2_)" fill="#E4A97F" d="M45.27,20.531h-1.69v4.212h7.463C51.043,21.285,45.27,20.531,45.27,20.531"/>
		<path clip-path="url(#SVGID_2_)" fill="#680008" d="M40.751,20.489c-0.187,0.037-0.483,0.125-0.483,0.125
			c-0.376,0.363-2.633,4.071-2.633,4.071h5.684v-1.064C39.789,23.508,40.751,20.489,40.751,20.489"/>
		<path clip-path="url(#SVGID_2_)" fill="#AF090F" d="M46.2,20.637c0,0,0.907,3.019-2.624,3.132v1.063h5.739
			c0,0-2.256-3.709-2.633-4.07C46.682,20.762,46.387,20.673,46.2,20.637"/>
		<path clip-path="url(#SVGID_2_)" fill="#FD9B28" d="M40.129,8.726c0,0,1.477,0.51,3.473,1.107l-0.035-2.108
			C42.004,7.82,40.659,8.105,40.129,8.726"/>
		<path clip-path="url(#SVGID_2_)" fill="#FBAD4B" d="M50.775,8.248c-0.371-0.186-4.195-0.707-7.207-0.523l0.034,2.108
			c2.359,0.706,5.444,1.533,7.682,1.787C51.284,11.62,51.337,8.528,50.775,8.248"/>
		<path clip-path="url(#SVGID_2_)" fill="#680008" d="M35.952,9.371c0,0,2.935-0.795,7.706-0.795V1.08
			C43.658,1.08,34.542,0.659,35.952,9.371"/>
		<path clip-path="url(#SVGID_2_)" fill="#AF090F" d="M43.568,1.08v7.495c4.771,0,7.706,0.796,7.706,0.796
			C52.683,0.659,43.568,1.08,43.568,1.08"/>
		<path clip-path="url(#SVGID_2_)" fill="#680008" d="M35.663,8.154c-0.009,0.012-0.352,0.069-0.349,0.624
			c0.005,0.957,1.304,0.441,1.304,0.441l1.656-1.861h-2.47C35.23,7.64,35.804,7.943,35.663,8.154"/>
		<path clip-path="url(#SVGID_2_)" fill="#AF090F" d="M51.48,8.154c-0.141-0.211,0.431-0.515-0.141-0.796H48.87l1.655,1.861
			c0,0,1.299,0.516,1.304-0.441C51.832,8.224,51.489,8.166,51.48,8.154"/>
		<path clip-path="url(#SVGID_2_)" fill="#010103" d="M35.952,24.799l7.673,0.033v-1.58c-3.316,0.026-6.184-0.935-6.184-0.935
			C36.023,23.224,35.952,24.799,35.952,24.799"/>
		<path clip-path="url(#SVGID_2_)" fill="#1A1719" d="M49.773,22.316c0,0-2.868,0.963-6.184,0.937v1.58l7.674-0.035
			C51.263,24.798,51.191,23.223,49.773,22.316"/>
		<rect x="42.082" y="-9.75" clip-path="url(#SVGID_2_)" fill="#DD9964" width="2.559" height="2.558"/>
		<path clip-path="url(#SVGID_2_)" fill="#E8E6E4" d="M45.071-7.192v-0.603h-3.536v0.603c-5.267,0.677-5.577,3.966-5.577,3.966H50.5
			C50.5-6.482,45.071-7.192,45.071-7.192"/>
		<path clip-path="url(#SVGID_2_)" fill="#F6F6F2" d="M45.201-7.192v-0.603h-1.843v4.568h7.272
			C50.63-6.482,45.201-7.192,45.201-7.192"/>
		<path clip-path="url(#SVGID_2_)" fill="#DD9964" d="M50.304-17.379l-0.753,3.386c0,0,1.09,0.142,1.621-1.515
			C51.704-17.163,50.304-17.379,50.304-17.379"/>
		<path clip-path="url(#SVGID_2_)" fill="#DD9964" d="M35.704-15.508c0.531,1.656,1.621,1.515,1.621,1.515l-0.753-3.386
			C36.572-17.379,35.171-17.163,35.704-15.508"/>
		<path clip-path="url(#SVGID_2_)" fill="#E4A97F" d="M43.523-25.303c-3.864-0.059-7.042,3.026-7.101,6.89
			c-0.057,3.864,2.987,9.865,6.85,9.85c5.22-0.022,7.192-5.603,7.25-9.466C50.58-21.894,47.386-25.245,43.523-25.303"/>
		<path clip-path="url(#SVGID_2_)" fill="#DD9964" d="M36.357-18.029c0,3.864,2.052,9.687,7.038,9.443v-16.741
			C39.532-25.327,36.357-21.894,36.357-18.029"/>
		<polygon clip-path="url(#SVGID_2_)" fill="#C7C4C6" points="41.535,-7.192 42.148,-6.214 43.225,-7.795 41.535,-7.795 		"/>
		<polygon clip-path="url(#SVGID_2_)" fill="#E8E6E4" points="44.61,-6.214 45.224,-7.192 45.224,-7.795 43.534,-7.795 		"/>
		<path clip-path="url(#SVGID_2_)" fill="#010103" d="M41.333-25.105c-6.73,1.494-4.933,8.246-4.933,8.246l1.043-1.788
			c-0.763-1.675,1.342-2.558,2.764-3.115c1.42-0.559,3.222,0.953,3.222,0.953v-4.628C42.598-25.49,41.333-25.105,41.333-25.105"/>
		<path clip-path="url(#SVGID_2_)" fill="#1A1719" d="M45.527-25.105c0,0-1.265-0.385-2.098-0.332v4.628
			c0,0,3.348,1.882,5.791,0.394c0.506-0.308,0.531,1.033,0.196,1.769l1.055,1.629C50.471-17.019,51.78-23.016,45.527-25.105"/>
		<path clip-path="url(#SVGID_2_)" fill="#010103" d="M41.901-13.325c-0.827,0.629-0.795,1.788-1.39,1.39
			c0,0,1.635,1.191,2.918-0.959C43.429-12.895,42.729-13.953,41.901-13.325"/>
		<path clip-path="url(#SVGID_2_)" fill="#1A1719" d="M44.959-13.325c-0.827-0.628-1.53,0.431-1.53,0.431
			c1.285,2.15,2.92,0.959,2.92,0.959C45.752-11.537,45.787-12.696,44.959-13.325"/>
		<path clip-path="url(#SVGID_2_)" fill="#1A1719" d="M51.564-23.901c-0.1,0.034-1.433,0.348-1.433,0.348
			c-1.864-1.464-4.866-1.638-4.875-1.627c-2.877,3.429,1.512,5.638,3.778,4.871C51.3-21.076,51.664-23.937,51.564-23.901"/>
		<path clip-path="url(#SVGID_2_)" fill="#010103" d="M41.575-7.251c-0.221,0.552,0.077,0.508,0.056,0.618
			c-0.023,0.11-0.109,0.388-0.1,0.452c0.023,0.154,0.154,0.375,0.64,0.231c0.642-0.189,1.114-0.353,1.114-0.353
			s-0.188-0.508-0.286-0.872C42.999-7.174,41.796-7.802,41.575-7.251"/>
		<path clip-path="url(#SVGID_2_)" fill="#1A1719" d="M45.145-7.251c-0.221-0.551-1.424,0.077-1.424,0.077
			c-0.098,0.364-0.287,0.872-0.287,0.872s0.473,0.163,1.115,0.353c0.486,0.144,0.617-0.077,0.64-0.231
			c0.009-0.064-0.077-0.342-0.1-0.452C45.068-6.743,45.366-6.699,45.145-7.251"/>
		<path clip-path="url(#SVGID_2_)" fill="#1A1719" d="M42.999-7.174c0,0-0.354,0.927,0.353,0.949l-0.003-0.938L42.999-7.174z"/>
		<path clip-path="url(#SVGID_2_)" fill="#010103" d="M43.353-7.163l-0.002,0.938c0.706-0.021,0.353-0.949,0.353-0.949L43.353-7.163
			z"/>
		<path clip-path="url(#SVGID_2_)" fill="#1A1719" d="M13.637-81.576C1.376-81.494,5.575-62.035,6.353-60.981h14.542
			C20.895-60.981,25.897-81.658,13.637-81.576"/>
		<path clip-path="url(#SVGID_2_)" fill="#010103" d="M6.353-60.849h7.25l0.034-20.727C1.376-81.495,5.576-61.903,6.353-60.849"/>
		<path clip-path="url(#SVGID_2_)" fill="#DD9964" d="M5.929-71.779c0.532,1.656,1.621,1.515,1.621,1.515L6.797-73.65
			C6.797-73.65,5.397-73.435,5.929-71.779"/>
		<rect x="12.296" y="-66.049" clip-path="url(#SVGID_2_)" fill="#DD9964" width="2.558" height="2.558"/>
		<path clip-path="url(#SVGID_2_)" fill="#E4A97F" d="M13.599-81.51c-3.863,0-6.995,3.132-6.995,6.997
			c0,3.863,3.134,9.857,6.995,9.744c7.328-0.215,6.996-5.881,6.996-9.744C20.595-78.378,17.463-81.51,13.599-81.51"/>
		<path clip-path="url(#SVGID_2_)" fill="#DD9964" d="M6.604-74.514c0,3.863-0.251,9.679,6.995,9.744v-16.741
			C9.736-81.511,6.604-78.377,6.604-74.514"/>
		<path clip-path="url(#SVGID_2_)" fill="#1A1719" d="M13.573-81.576c0,0-0.621-0.007-1.484,0.168
			c-1.201,0.245-2.868,0.843-3.987,2.308c0,0,0.007,0.015,0.022,0.039c-2.297,2.568-1.562,5.856-1.562,5.856
			c1.313-0.716,0.977-1.787,1.856-3.207c1.954,2.173,6.619,1.721,12.745,2.762C21.163-73.649,21.169-81.511,13.573-81.576"/>
		<path clip-path="url(#SVGID_2_)" fill="#010103" d="M12.088-81.407L12.088-81.407c-1.2,0.244-2.867,0.842-3.986,2.308
			c0,0,0.007,0.014,0.021,0.039c-3.091,2.604-1.561,5.856-1.561,5.856c1.312-0.716,1.411-0.728,2.29-2.148
			c0.873,0.971,1.818,0.869,4.837,0.75l-0.117-6.973C13.572-81.575,12.951-81.582,12.088-81.407"/>
		<path clip-path="url(#SVGID_2_)" fill="#193B73" d="M15.429-63.492h-3.522c-5.246,0.678-5.554,3.967-5.554,3.967h14.483
			C20.836-62.782,15.429-63.492,15.429-63.492"/>
		<path clip-path="url(#SVGID_2_)" fill="#3060A3" d="M15.415-63.492h-1.843v3.967h7.272C20.844-62.782,15.415-63.492,15.415-63.492
			"/>
		<path clip-path="url(#SVGID_2_)" fill="#010103" d="M4.75-68.158c-1.104,1.192-2.471,2.346-0.265,4.328s-0.459,2.926-1.178,3.292
			H6.83l1.854-4.796l-3.336-6.229C5.348-71.563,5.853-69.349,4.75-68.158"/>
		<path clip-path="url(#SVGID_2_)" fill="#1A1719" d="M22.67-63.839c2.206-1.981,0.838-3.137-0.266-4.328
			c-1.102-1.191-0.597-3.404-0.597-3.404l-3.335,6.228l1.853,4.796h3.523C23.128-60.912,20.463-61.858,22.67-63.839"/>
		<path clip-path="url(#SVGID_2_)" fill="#010103" d="M12.091-72.319H8.337c-0.478,0-0.866,0.332-0.866,0.742
			c0,0,0.474,2.735,2.751,2.735c2.275,0,2.735-2.735,2.735-2.735C12.958-71.987,12.57-72.319,12.091-72.319"/>
		<path clip-path="url(#SVGID_2_)" fill="#D7D3CC" d="M11.625-71.929H8.803c-0.36,0-0.651,0.25-0.651,0.558
			c0,0,0.357,2.056,2.069,2.056c1.711,0,2.055-2.056,2.055-2.056C12.275-71.679,11.984-71.929,11.625-71.929"/>
		<path clip-path="url(#SVGID_2_)" fill="#1A1719" d="M18.924-72.319H15.17c-0.478,0-0.866,0.332-0.866,0.742
			c0,0,0.459,2.735,2.734,2.735c2.277,0,2.752-2.735,2.752-2.735C19.791-71.987,19.403-72.319,18.924-72.319"/>
		<path clip-path="url(#SVGID_2_)" fill="#E8E6E4" d="M18.458-71.929h-2.822c-0.361,0-0.652,0.25-0.652,0.558
			c0,0,0.345,2.056,2.057,2.056c1.711,0,2.068-2.056,2.068-2.056C19.109-71.679,18.817-71.929,18.458-71.929"/>
		<path clip-path="url(#SVGID_2_)" fill="#010103" d="M12.345-71.425c0,0.187,0.151,0.338,0.337,0.338h0.966v-0.676h-0.966
			C12.496-71.763,12.345-71.612,12.345-71.425"/>
		<path clip-path="url(#SVGID_2_)" fill="#1A1719" d="M14.565-71.764h-0.917v0.676h0.917c0.187,0,0.338-0.151,0.338-0.338
			C14.903-71.612,14.752-71.764,14.565-71.764"/>
		<path clip-path="url(#SVGID_2_)" fill="#DD9964" d="M13.401-63.626v2.454c0.168,0.144,0.168,0.191,0.168,0.191l0.166-0.166
			l-0.047-2.479H13.401z"/>
		<path clip-path="url(#SVGID_2_)" fill="#E4A97F" d="M13.572-63.625l0.004,2.643c0,0,3.286-0.629,3.285-2.194
			C16.861-63.176,16.045-63.681,13.572-63.625"/>
		<path clip-path="url(#SVGID_2_)" fill="#DD9964" d="M10.282-63.175c0,1.564,3.287,2.194,3.287,2.194l0.003-2.643
			C11.099-63.68,10.282-63.175,10.282-63.175"/>
		<rect x="42.212" y="-37.813" clip-path="url(#SVGID_2_)" fill="#DD9964" width="2.558" height="2.69"/>
		<path clip-path="url(#SVGID_2_)" fill="#DD9964" d="M45.202-35.254h-3.536c-5.267,0.678-5.577,3.966-5.577,3.966H50.63
			C50.536-34.217,45.202-35.254,45.202-35.254"/>
		<path clip-path="url(#SVGID_2_)" fill="#E4A97F" d="M45.332-35.254h-1.843v3.966h7.271C50.016-34.746,45.332-35.254,45.332-35.254
			"/>
		<path clip-path="url(#SVGID_2_)" fill="#DD9964" d="M50.447-45.412l-0.753,3.385c0,0,1.09,0.141,1.622-1.514
			C51.847-45.196,50.447-45.412,50.447-45.412"/>
		<path clip-path="url(#SVGID_2_)" fill="#DD9964" d="M35.845-43.542c0.532,1.656,1.621,1.515,1.621,1.515l-0.752-3.386
			C36.714-45.413,35.314-45.196,35.845-43.542"/>
		<path clip-path="url(#SVGID_2_)" fill="#E4A97F" d="M43.541-53.338c-3.864,0-6.996,3.132-6.996,6.996
			c0,3.863,3.132,9.746,6.996,9.746c5.849,0,6.995-5.883,6.995-9.746C50.536-50.206,47.403-53.338,43.541-53.338"/>
		<path clip-path="url(#SVGID_2_)" fill="#DD9964" d="M36.52-46.277c0,3.864,1.259,9.745,6.996,9.745v-16.74
			C39.652-53.272,36.52-50.14,36.52-46.277"/>
		<path clip-path="url(#SVGID_2_)" fill="#010103" d="M41.458-53.022c-5.721,1.902-4.913,7.674-4.913,7.674l1.049-1.546
			c-0.76-1.588,0.627-3.22,2.038-3.75c1.412-0.529,3.909,1.699,3.909,1.699v-4.392C42.712-53.386,41.458-53.022,41.458-53.022"/>
		<path clip-path="url(#SVGID_2_)" fill="#1A1719" d="M45.624-53.022c0,0-1.255-0.364-2.083-0.315v4.392
			c0,0,2.496-2.228,3.908-1.699c1.412,0.53,2.798,2.162,2.039,3.75l1.048,1.546C50.536-45.349,51.343-51.121,45.624-53.022"/>
		<path clip-path="url(#SVGID_2_)" fill="#FE4C10" d="M40.855-35.122c-1.69,0.106-3.065,1.262-3.065,1.262l0.65,2.572h4.978v-1.683
			C41.245-32.965,40.855-35.122,40.855-35.122"/>
		<path clip-path="url(#SVGID_2_)" fill="#FC6739" d="M43.414-32.972v1.684h4.976l0.651-2.572c0,0-1.376-1.155-3.064-1.262
			C45.977-35.122,45.585-32.965,43.414-32.972"/>
		<path clip-path="url(#SVGID_2_)" fill="#CB7B46" d="M13.637,29.2C1.376,29.281,5.574,48.741,6.353,49.794h14.542
			C20.895,49.794,25.897,29.119,13.637,29.2"/>
		<path clip-path="url(#SVGID_2_)" fill="#7D4113" d="M6.353,49.927h7.25L13.637,29.2C1.376,29.281,5.575,48.873,6.353,49.927"/>
		<rect x="12.296" y="44.727" clip-path="url(#SVGID_2_)" fill="#DD9964" width="2.558" height="2.558"/>
		<path clip-path="url(#SVGID_2_)" fill="#E4A97F" d="M13.599,29.266c-3.863,0-6.995,3.132-6.995,6.996s3.134,9.858,6.995,9.745
			c7.328-0.214,6.996-5.881,6.996-9.745S17.463,29.266,13.599,29.266"/>
		<path clip-path="url(#SVGID_2_)" fill="#DD9964" d="M6.604,36.262c0,3.863-0.251,9.68,6.995,9.744v-16.74
			C9.736,29.266,6.604,32.398,6.604,36.262"/>
		<path clip-path="url(#SVGID_2_)" fill="#0D2E14" d="M15.466,47.284H11.93c-5.268,0.677-5.577,3.966-5.577,3.966h14.542
			C20.896,47.994,15.466,47.284,15.466,47.284"/>
		<path clip-path="url(#SVGID_2_)" fill="#164C22" d="M15.415,47.284h-1.843v3.966h7.272C20.844,47.994,15.415,47.284,15.415,47.284
			"/>
		<path clip-path="url(#SVGID_2_)" fill="#7D4113" d="M4.749,42.618c-1.103,1.191-2.471,2.346-0.264,4.328
			c2.206,1.981-0.459,2.927-1.178,3.293H6.83l1.854-4.797l-3.336-6.229C5.348,39.213,5.853,41.427,4.749,42.618"/>
		<path clip-path="url(#SVGID_2_)" fill="#CB7B46" d="M22.67,46.937c2.206-1.981,0.838-3.137-0.266-4.327
			c-1.102-1.192-0.597-3.406-0.597-3.406l-3.336,6.229l1.854,4.796h3.523C23.129,49.863,20.463,48.918,22.67,46.937"/>
		<path clip-path="url(#SVGID_2_)" fill="#686562" d="M13.576,49.795c0,0,3.286-0.63,3.286-2.195c0,0-0.453-0.149-3.263-0.936
			L13.576,49.795z"/>
		<path clip-path="url(#SVGID_2_)" fill="#686562" d="M13.586,49.795l0.013-3.131C12.054,46.679,10.3,47.6,10.3,47.6
			C10.299,49.165,13.586,49.795,13.586,49.795"/>
		<path clip-path="url(#SVGID_2_)" fill="#7D4113" d="M6.976,32.686c-1.601,2.883-0.429,4.674-0.429,4.674
			c2.955-0.736,7.017-4.91,7.017-4.91l0.035-3.184C12.242,29.133,8.578,29.802,6.976,32.686"/>
		<path clip-path="url(#SVGID_2_)" fill="#CB7B46" d="M13.549,29.266l0.035,3.184c0,0,4.43,4.45,7.386,5.187
			c0,0,0.803-2.067-0.798-4.951C18.571,29.802,14.906,29.134,13.549,29.266"/>
		<path clip-path="url(#SVGID_2_)" fill="#E8E7E0" d="M13.599,46.664l0.593,1.305l1.389-0.651l-0.365-0.653
			C15.216,46.664,14.365,46.518,13.599,46.664"/>
		<path clip-path="url(#SVGID_2_)" fill="#D7D3CC" d="M11.932,46.664l-0.365,0.652l1.389,0.652l0.593-1.305
			C12.785,46.518,11.932,46.664,11.932,46.664"/>
		<path clip-path="url(#SVGID_2_)" fill="#0D2E14" d="M13.532,48.807c-0.147,0-0.267,0.12-0.267,0.267
			c0,0.147,0.12,0.267,0.267,0.267c0.146,0,0.266-0.119,0.266-0.267C13.798,48.927,13.678,48.807,13.532,48.807"/>
		<path clip-path="url(#SVGID_2_)" fill="#010103" d="M39.29-62.821l0.529,0.971c0,0,1.306-0.529,3.765-0.551v-1.699
			C43.583-64.101,41.496-64.365,39.29-62.821"/>
		<path clip-path="url(#SVGID_2_)" fill="#010103" d="M43.625-64.101v1.699c2.458,0.022,3.764,0.551,3.764,0.551l0.529-0.971
			C45.711-64.366,43.625-64.101,43.625-64.101"/>
		<path clip-path="url(#SVGID_2_)" fill="#FBAD4B" d="M43.644-79.153l0.003,1.781l2.149-0.213
			C45.534-79.163,43.644-79.153,43.644-79.153"/>
		<path clip-path="url(#SVGID_2_)" fill="#3060A3" d="M41.968-77.696c0.231-0.054,1.747-0.229,1.747-0.229v-0.705
			C42.246-78.63,41.968-77.696,41.968-77.696"/>
		<path clip-path="url(#SVGID_2_)" fill="#3060A3" d="M43.682-78.63v0.705c0,0,1.516,0.175,1.747,0.229
			C45.429-77.696,45.151-78.63,43.682-78.63"/>
		<rect x="42.299" y="-64.941" clip-path="url(#SVGID_2_)" fill="#DD9964" width="2.558" height="2.558"/>
		<path clip-path="url(#SVGID_2_)" fill="#E4A97F" d="M43.681-80.402c-3.864,0-6.996,3.133-6.996,6.996s2.28,9.745,6.996,9.745
			c4.703,0,6.996-5.882,6.996-9.745S47.545-80.402,43.681-80.402"/>
		<path clip-path="url(#SVGID_2_)" fill="#DD9964" d="M36.554-73.406c0,3.863,2.313,9.745,6.996,9.745v-16.741
			C39.686-80.402,36.554-77.269,36.554-73.406"/>
		<path clip-path="url(#SVGID_2_)" fill="#E4A97F" d="M45.355-62.401h-1.843v3.966h7.272C50.784-61.691,45.355-62.401,45.355-62.401
			"/>
		<path clip-path="url(#SVGID_2_)" fill="#DD9964" d="M36.311-58.436h7.272v-3.966H41.74C41.74-62.401,36.311-61.69,36.311-58.436"
			/>
		<polygon clip-path="url(#SVGID_2_)" fill="#DCDCD4" points="38.108,-58.436 43.602,-58.436 43.602,-60.418 39.837,-60.418 		"/>
		<polygon clip-path="url(#SVGID_2_)" fill="#DCDCD4" points="39.458,-61.805 39.837,-60.418 39.946,-60.418 39.568,-61.853 		"/>
		<polygon clip-path="url(#SVGID_2_)" fill="#F3F2EE" points="43.602,-60.418 43.602,-58.436 49.096,-58.436 47.367,-60.418 		"/>
		<polygon clip-path="url(#SVGID_2_)" fill="#F3F2EE" points="47.257,-60.418 47.366,-60.418 47.746,-61.804 47.635,-61.854 		"/>
		<path clip-path="url(#SVGID_2_)" fill="#45220F" d="M36.553-72.52l1-0.765c0.808-5.555,5.997-5.162,5.997-5.162v-2.007
			C35.261-79.867,36.553-72.52,36.553-72.52"/>
		<path clip-path="url(#SVGID_2_)" fill="#502E1A" d="M43.484-80.507v2.006c0,0,5.189-0.392,5.996,5.163l1.195,0.809
			C50.675-72.529,51.772-79.92,43.484-80.507"/>
		<path clip-path="url(#SVGID_2_)" fill="#010103" d="M38.76-62.027l-0.044,0.265l-2.074,1.72l-0.53,1.589h6.84l-0.882-2.736
			C42.07-61.189,39.951-60.042,38.76-62.027"/>
		<path clip-path="url(#SVGID_2_)" fill="#193B73" d="M40.779-62.071c-0.927-1.147,0.794-1.854,0.794-1.854
			c-1.279-0.088-2.383,0.751-2.383,0.751l-0.927,1.324l1.589,2.294l2.114-1.628C41.927-61.157,41.637-61.008,40.779-62.071"/>
		<path clip-path="url(#SVGID_2_)" fill="#193B73" d="M41.965-61.185c0.003-0.002,0.005-0.004,0.005-0.004L41.965-61.185z"/>
		<path clip-path="url(#SVGID_2_)" fill="#999694" d="M41.706-59.754c-0.22,0-0.397,0.177-0.397,0.397
			c0,0.219,0.177,0.397,0.397,0.397c0.219,0,0.397-0.178,0.397-0.397C42.103-59.578,41.924-59.754,41.706-59.754"/>
		<path clip-path="url(#SVGID_2_)" fill="#1A1719" d="M48.327-61.795l-0.044-0.265c-1.191,1.986-3.31,0.839-3.31,0.839l-0.882,2.736
			h6.84l-0.531-1.589L48.327-61.795z"/>
		<polyline clip-path="url(#SVGID_2_)" fill="#3060A3" points="45.011,-61.217 45.006,-61.221 45.011,-61.217 		"/>
		<path clip-path="url(#SVGID_2_)" fill="#3060A3" d="M45.404-63.958c0,0,1.721,0.706,0.794,1.853
			c-0.859,1.063-1.149,0.915-1.187,0.887l2.114,1.629l1.588-2.295l-0.927-1.324C47.786-63.208,46.683-64.045,45.404-63.958"/>
		<path clip-path="url(#SVGID_2_)" fill="#A19F97" d="M43.482-81.576v2.339c0,0,5.78-0.573,7.148,4.59
			C50.63-74.647,50.675-81.09,43.482-81.576"/>
		<path clip-path="url(#SVGID_2_)" fill="#6D6966" d="M36.333-74.647c1.368-5.163,7.148-4.59,7.148-4.59v-2.339
			C36.155-80.958,36.333-74.647,36.333-74.647"/>
		<path clip-path="url(#SVGID_2_)" fill="#D7D3CC" d="M34.745-72.971c0,0,0.353,1.942,2.294,2.647l-0.485-2.196
			c0,0-1.396-6.55,7.09-6.634v-1.584C43.644-80.738,33.156-80.032,34.745-72.971"/>
		<path clip-path="url(#SVGID_2_)" fill="#E8E6E4" d="M43.516-80.738v1.584c8.129,0.138,7.093,6.634,7.093,6.634l-0.488,2.197
			c1.943-0.706,2.295-2.648,2.295-2.648C54.005-80.031,43.516-80.738,43.516-80.738"/>
		<path clip-path="url(#SVGID_2_)" fill="#DD9964" d="M35.733-70.604c0.532,1.655,1.621,1.514,1.621,1.514l-0.752-3.386
			C36.602-72.476,35.202-72.26,35.733-70.604"/>
		<path clip-path="url(#SVGID_2_)" fill="#DD9964" d="M50.588-72.475l-0.752,3.386c0,0,1.089,0.14,1.621-1.514
			C51.988-72.26,50.588-72.475,50.588-72.475"/>
		<path clip-path="url(#SVGID_2_)" fill="#45220F" d="M38.583-78.664c-0.485,1.191-2.25,0.839-2.25,0.839
			c1.94,3.265,7.183,1.544,7.183,1.544v-2.873C41.653-81.32,39.068-79.854,38.583-78.664"/>
		<path clip-path="url(#SVGID_2_)" fill="#502E1A" d="M45.423-78.884c-0.573-0.309-1.907-0.27-1.907-0.27v2.874
			C44.831-76.546,45.997-78.575,45.423-78.884"/>
		<path clip-path="url(#SVGID_2_)" fill="#FCAF4C" d="M5.57-20.372c0,0,1.248,6.902,2.159,8.884c0.909,1.98,1.188,2.233,0.452,2.612
			c0,0,1.948,0.453,2.627-0.489c0,0,2.208,1.404,2.764,1.285v-16.433C13.572-24.513,6.883-24.452,5.57-20.372"/>
		<path clip-path="url(#SVGID_2_)" fill="#FCAF4C" d="M13.537-24.513V-8.08C14.092-7.96,16.3-9.365,16.3-9.365
			c0.68,0.943,2.627,0.49,2.627,0.49c-0.736-0.379-0.457-0.632,0.453-2.613c0.909-1.98,2.159-8.884,2.159-8.884
			C20.224-24.452,13.537-24.513,13.537-24.513"/>
		<path clip-path="url(#SVGID_2_)" fill="#DE9865" d="M5.973-15.834c0.53,1.635,1.617,1.497,1.617,1.497l-0.75-3.347
			C6.84-17.684,5.443-17.47,5.973-15.834"/>
		<path clip-path="url(#SVGID_2_)" fill="#E4AA7F" d="M20.331-17.684l-0.75,3.347c0,0,1.086,0.138,1.617-1.497
			C21.727-17.47,20.331-17.684,20.331-17.684"/>
		<path clip-path="url(#SVGID_2_)" fill="#DCDCD5" d="M12.304-9.023c-0.35,0-0.634,0.282-0.634,0.629s0.284,0.627,0.634,0.627
			s0.634-0.28,0.634-0.627S12.654-9.023,12.304-9.023"/>
		<path clip-path="url(#SVGID_2_)" fill="#F5F4F0" d="M14.869-8.986c-0.351,0-0.634,0.281-0.634,0.628s0.283,0.628,0.634,0.628
			c0.35,0,0.634-0.281,0.634-0.628S15.219-8.986,14.869-8.986"/>
		<rect x="12.325" y="-10.174" clip-path="url(#SVGID_2_)" fill="#E4AA7F" width="2.552" height="2.528"/>
		<path clip-path="url(#SVGID_2_)" fill="#E9BD9A" d="M13.572-25.451c-3.854,0-6.979,3.096-6.979,6.913
			c0,3.818,2.138,9.676,6.979,9.631c4.673-0.042,6.979-5.813,6.979-9.631C20.551-22.355,17.426-25.451,13.572-25.451"/>
		<path clip-path="url(#SVGID_2_)" fill="#E4AA7F" d="M6.594-18.538c0,3.818,2.319,10.27,6.979,9.631v-16.544
			C9.718-25.451,6.594-22.355,6.594-18.538"/>
		<path clip-path="url(#SVGID_2_)" fill="#E9BD9A" d="M15.374-7.663h-1.839v3.92h7.255C20.79-6.962,15.374-7.663,15.374-7.663"/>
		<path clip-path="url(#SVGID_2_)" fill="#E4AA7F" d="M6.352-3.744h7.253v-3.92h-1.837C11.768-7.664,6.352-6.962,6.352-3.744"/>
		<path clip-path="url(#SVGID_2_)" fill="#680000" d="M12.34-7.898L11.487-7.65c-0.001,0.217-0.068,0.447-0.215,0.681
			c-0.733,1.162-1.571,2.261-2.541,3.226h4.874v-2.293c-0.009,0-0.017,0.001-0.027,0.001C12.47-6.036,12.058-7.104,12.34-7.898"/>
		<path clip-path="url(#SVGID_2_)" fill="#FE9D2A" d="M8.156-23.731c-4.674,0.919-2.37,6.493-1.547,6.596
			c0.822,0.104,1.598-0.845,2.786-3.111c1.189-2.268,3.607-0.654,3.607-0.654C14.5-27.843,8.156-23.731,8.156-23.731"/>
		<path clip-path="url(#SVGID_2_)" fill="#FE9D2A" d="M16.847-26.185c-3.874-1.178-7.043-0.742-7.659,1.067
			c-0.617,1.81,3.102,3.99,3.102,3.99l1.169,0.697l4.813-3.148C18.272-23.578,20.72-25.008,16.847-26.185"/>
		<path clip-path="url(#SVGID_2_)" fill="#FCAF4C" d="M18.999-23.731c0,0-5.635,0.258-4.846,2.83c0,0,2.417-1.613,3.607,0.654
			c1.188,2.267,1.964,3.215,2.786,3.111C21.369-17.239,23.672-22.813,18.999-23.731"/>
		<path clip-path="url(#SVGID_2_)" fill="#FCAF4C" d="M13.535-20.43c0,0-3.905-5.712,5.441-3.75c0,0,0.374-0.131-0.047-0.937
			C18.507-25.924,6.494-26.86,13.535-20.43"/>
		<path clip-path="url(#SVGID_2_)" fill="#FCAF4C" d="M13.535-20.43c-0.877-3.967,5.259-3.512,5.259-3.512
			C11.466-24.618,13.535-20.43,13.535-20.43"/>
		<path clip-path="url(#SVGID_2_)" fill="#FE9D2A" d="M20.79-19.655c-0.531-1.538-1.968-5.134-4.592-2.878v0.131
			c0,0,2.416-1.875,3.667,1.973c1.252,3.848,1.813,0.905,1.813,0.905S21.32-18.118,20.79-19.655"/>
		<path clip-path="url(#SVGID_2_)" fill="#FCAF4C" d="M6.456-19.458c-0.531,1.537-0.889,0.131-0.889,0.131s0.562,2.943,1.813-0.904
			c1.251-3.849,3.668-1.974,3.668-1.974v-0.131C8.422-24.592,6.986-20.995,6.456-19.458"/>
		<path clip-path="url(#SVGID_2_)" fill="#B0000F" d="M15.709-7.65l-0.853-0.249c0.283,0.796-0.129,1.863-1.237,1.863
			c-0.01,0-0.018,0-0.027,0v2.293h4.875c-0.972-0.966-1.809-2.064-2.542-3.227C15.777-7.202,15.712-7.434,15.709-7.65"/>
		<path clip-path="url(#SVGID_2_)" fill="#DCDCD5" d="M11.326-8.272c-0.35,0-0.633,0.281-0.633,0.627
			c0,0.347,0.283,0.628,0.633,0.628c0.351,0,0.635-0.281,0.635-0.628C11.961-7.991,11.677-8.272,11.326-8.272"/>
		<path clip-path="url(#SVGID_2_)" fill="#DCDCD5" d="M12.938-6.342c-0.351,0-0.634,0.281-0.634,0.628s0.283,0.628,0.634,0.628
			c0.35,0,0.634-0.281,0.634-0.628S13.288-6.342,12.938-6.342"/>
		<path clip-path="url(#SVGID_2_)" fill="#DCDCD5" d="M11.96-7.226c-0.351,0-0.634,0.281-0.634,0.627s0.283,0.628,0.634,0.628
			s0.634-0.282,0.634-0.628S12.312-7.226,11.96-7.226"/>
		<path clip-path="url(#SVGID_2_)" fill="#F5F4F0" d="M15.846-8.235c-0.351,0-0.634,0.281-0.634,0.628s0.283,0.627,0.634,0.627
			c0.35,0,0.634-0.28,0.634-0.627S16.196-8.235,15.846-8.235"/>
		<path clip-path="url(#SVGID_2_)" fill="#F5F4F0" d="M14.235-6.305c-0.351,0-0.634,0.281-0.634,0.629
			c0,0.346,0.283,0.627,0.634,0.627c0.35,0,0.634-0.281,0.634-0.627C14.869-6.023,14.585-6.305,14.235-6.305"/>
		<path clip-path="url(#SVGID_2_)" fill="#F5F4F0" d="M15.212-7.188c-0.35,0-0.634,0.28-0.634,0.628
			c0,0.346,0.284,0.627,0.634,0.627s0.634-0.281,0.634-0.627C15.846-6.908,15.563-7.188,15.212-7.188"/>
		<path clip-path="url(#SVGID_2_)" fill="#010103" d="M6.458,13.782c0,0-2.013-0.631-3.891,1.16c0,0,0.111,1.761,1.003,3.095
			l1.498-0.605L3.95,18.546l0.352,0.304c0,0,2.88-0.981,2.9-3.459C7.202,15.391,6.341,14.911,6.458,13.782"/>
		<path clip-path="url(#SVGID_2_)" fill="#680000" d="M7.102,13.212c0,0-0.66,0.277-0.743,0.703
			c-0.085,0.426,0.045,1.946,0.98,2.012c0,0,0.295,0.114,0.521-0.346C7.86,15.581,6.985,14.072,7.102,13.212"/>
		<path clip-path="url(#SVGID_2_)" fill="#1A1719" d="M20.696,13.766c0.116,1.128-0.744,1.607-0.744,1.607
			c0.02,2.478,2.901,3.459,2.901,3.459l0.35-0.303l-1.116-1.115l1.498,0.606c0.892-1.334,1.003-3.095,1.003-3.095
			C22.709,13.134,20.696,13.766,20.696,13.766"/>
		<path clip-path="url(#SVGID_2_)" fill="#B0000F" d="M20.05,12.955c0.116,0.859-0.758,2.368-0.758,2.368
			c0.226,0.461,0.521,0.345,0.521,0.345c0.935-0.065,1.064-1.585,0.98-2.01C20.71,13.23,20.05,12.955,20.05,12.955"/>
		<path clip-path="url(#SVGID_2_)" fill="#DE9865" d="M5.962,12.884c0.525,1.631,1.6,1.492,1.6,1.492l-0.743-3.335
			C6.819,11.041,5.438,11.254,5.962,12.884"/>
		<path clip-path="url(#SVGID_2_)" fill="#DE9865" d="M20.163,11.041l-0.742,3.334c0,0,1.074,0.14,1.599-1.49
			S20.163,11.041,20.163,11.041"/>
		<rect x="12.244" y="18.526" clip-path="url(#SVGID_2_)" fill="#DE9865" width="2.525" height="2.52"/>
		<path clip-path="url(#SVGID_2_)" fill="#E4AA7F" d="M13.477,3.302c-3.812,0-6.902,3.084-6.902,6.889s0.741,9.598,6.902,9.598
			c6.803,0,6.904-5.793,6.904-9.598S17.29,3.302,13.477,3.302"/>
		<path clip-path="url(#SVGID_2_)" fill="#DE9865" d="M6.577,10.191c0,3.804,0.739,9.597,6.902,9.597V3.302
			C9.667,3.302,6.577,6.386,6.577,10.191"/>
		<path clip-path="url(#SVGID_2_)" fill="#E4AA7F" d="M15.26,21.028h-1.818v3.905h7.173C20.615,21.728,15.26,21.028,15.26,21.028"/>
		<path clip-path="url(#SVGID_2_)" fill="#DE9865" d="M6.336,24.934h7.175v-3.906h-1.818C11.693,21.027,6.336,21.728,6.336,24.934"
			/>
		<path clip-path="url(#SVGID_2_)" fill="#010103" d="M6.336,5.984c-1.57,2.28,0.044,6.597,0.044,6.597
			c3.301-0.714,7.099-7.122,7.099-7.122V3.302C9.516,3.175,6.336,5.984,6.336,5.984"/>
		<path clip-path="url(#SVGID_2_)" fill="#1A1719" d="M13.442,3.302v2.157c0,0,3.869,6.443,7.171,7.156c0,0,1.574-4.351,0.003-6.631
			C20.616,5.984,17.405,3.175,13.442,3.302"/>
		<path clip-path="url(#SVGID_2_)" fill="#680000" d="M7.316,22.833v2.101h6.195v-4.509l-2.417,0.711
			C11.094,21.136,8.443,21.732,7.316,22.833"/>
		<path clip-path="url(#SVGID_2_)" fill="#B0000F" d="M13.505,20.425v4.509h6.197v-2.101c-1.128-1.101-3.778-1.698-3.778-1.698
			L13.505,20.425z"/>
		<path clip-path="url(#SVGID_2_)" fill="#D7D3CC" d="M11.094,21.136c0.2,1.141,1.971,1.696,1.971,1.696l0.414-2.407l-2.19-0.241
			L11.094,21.136z"/>
		<path clip-path="url(#SVGID_2_)" fill="#F5E4D7" d="M13.479,20.425l0.414,2.408c0,0,1.771-0.558,1.971-1.698l-0.196-0.952
			L13.479,20.425z"/>
		<path clip-path="url(#SVGID_2_)" fill="#010103" d="M7.111,5.498c0.01,0.021-0.013,0.035-0.013,0.035
			c2.824-1.776,6.344-1.011,6.344-1.011V2.769C12.921,1.559,6.59,4.287,7.111,5.498"/>
		<path clip-path="url(#SVGID_2_)" fill="#1A1719" d="M13.433,2.638v1.755c0,0,3.52-0.766,6.343,1.01c0,0-0.003-0.013-0.013-0.035
			C19.635,5.024,18.469,2.348,13.433,2.638"/>
	</g>
</g>
</svg>
