<?xml version="1.0" encoding="utf-8"?>
<!-- Generator: Adobe Illustrator 16.0.3, SVG Export Plug-In . SVG Version: 6.00 Build 0)  -->
<!DOCTYPE svg PUBLIC "-//W3C//DTD SVG 1.1//EN" "http://www.w3.org/Graphics/SVG/1.1/DTD/svg11.dtd">
<svg version="1.1" id="Capa_1" xmlns="http://www.w3.org/2000/svg" xmlns:xlink="http://www.w3.org/1999/xlink" x="0px" y="0px"
	 width="187.869px" height="448.667px" viewBox="0 0 187.869 448.667" enable-background="new 0 0 187.869 448.667"
	 xml:space="preserve">
<g>
	<defs>
		<rect id="SVGID_1_" x="-290.695" y="-86.333" width="792" height="612"/>
	</defs>
	<clipPath id="SVGID_2_">
		<use xlink:href="#SVGID_1_"  overflow="visible"/>
	</clipPath>
	<g clip-path="url(#SVGID_2_)">
		<defs>
			<rect id="SVGID_3_" x="-290.695" y="-86.333" width="792" height="612"/>
		</defs>
		<clipPath id="SVGID_4_">
			<use xlink:href="#SVGID_3_"  overflow="visible"/>
		</clipPath>
		<g clip-path="url(#SVGID_4_)">
			<g>
				<defs>
					<rect id="SVGID_5_" x="15.615" y="431.733" width="156.639" height="16.934"/>
				</defs>
				<clipPath id="SVGID_6_">
					<use xlink:href="#SVGID_5_"  overflow="visible"/>
				</clipPath>
				<path clip-path="url(#SVGID_6_)" fill="#010102" d="M172.253,440.2c0,4.676-35.063,8.467-78.319,8.467s-78.32-3.791-78.32-8.467
					s35.065-8.467,78.32-8.467S172.253,435.524,172.253,440.2"/>
			</g>
		</g>
		<path clip-path="url(#SVGID_4_)" fill="#D64C02" d="M156.026,143.58c0,10.283-8.338,18.621-18.622,18.621h-88.35
			c-10.284,0-18.622-8.338-18.622-18.621V63.695c0-10.283,8.338-18.621,18.622-18.621h88.35c10.284,0,18.622,8.338,18.622,18.621
			V143.58z"/>
		<path clip-path="url(#SVGID_4_)" fill="#FDCFB1" d="M187.282,285.779l-46.08-136.084c-1.504-4.536-5.566-7.827-10.054-8.158
			c-0.146-0.107-0.249-0.504-0.249-0.504h-21.441v-23.99H77.001v23.99H57.927c0,0-0.084,0.378-0.226,0.474
			c-4.865-0.061-9.42,3.162-11.033,8.025L0.587,285.698c-1.996,6.017,1.264,12.553,7.28,14.549
			c6.017,1.995,12.513-1.246,14.508-7.262l1.517-4.473l5.003,2.148c0,0,4.367-8.8-0.332-16.03l28.238-83.484
			c0,50.008-6.751,62.656-6.751,90.292c0,27.635,16.494,139.473,16.494,139.473l-19.955,16.467h38.568l6.455-162.284h3.295
			l6.454,162.284h38.568l-19.954-16.467c0,0,16.494-123.856,16.494-146.184c0-22.325-5.69-33.801-5.69-84.437l28.526,84.343
			c-4.699,7.229-0.332,15.983-0.332,15.983l5.003-2.118l1.517,4.495c1.996,6.016,8.492,9.282,14.509,7.287
			S189.279,291.795,187.282,285.779"/>
		<path clip-path="url(#SVGID_4_)" fill="#FDCFB1" d="M156.194,63.896c0,34.38-32.262,62.251-62.252,62.251
			S31.694,98.276,31.694,63.896c0-34.378,27.87-62.246,62.248-62.246C128.321,1.65,156.194,29.518,156.194,63.896"/>
		<g clip-path="url(#SVGID_4_)">
			<g>
				<defs>
					<rect id="SVGID_7_" x="55.867" y="112.111" width="65.419" height="14.035"/>
				</defs>
				<clipPath id="SVGID_8_">
					<use xlink:href="#SVGID_7_"  overflow="visible"/>
				</clipPath>
				<path clip-path="url(#SVGID_8_)" fill="#28191C" d="M98.712,120.834c-15.105,0-29.588-3.122-42.845-8.724
					c11.036,8.756,24.444,14.036,37.453,14.036c9.463,0,19.142-2.783,27.967-7.667C113.979,120.021,106.425,120.834,98.712,120.834"
					/>
			</g>
		</g>
		<path clip-path="url(#SVGID_4_)" fill="#FDCFB1" d="M164.516,73.027c0,5.042-4.088,9.128-9.129,9.128
			c-5.042,0-9.128-4.086-9.128-9.128c0-5.041,4.086-9.128,9.128-9.128C160.428,63.899,164.516,67.986,164.516,73.027"/>
		<path clip-path="url(#SVGID_4_)" fill="#D64C02" d="M58.01,29.777c0,0-26.782,23.05-26.276,45.776
			c0.135,6.047,9.555,35.796,9.555,35.796s-8.716-26.107-9.555-35.796c0,0-8.689-49.337,31.941-67.718
			c40.627-18.382,69.68-1.69,84.176,21.889c14.496,23.577,6.642,52.824,6.642,52.824l-4.043,27.249
			c0.604,1.202-1.336-50.587-4.549-51.659C140.096,56.204,76.873,41.386,58.01,29.777"/>
		<path clip-path="url(#SVGID_4_)" fill="#FDCFB1" d="M40.288,73.027c0,5.042-4.087,9.128-9.128,9.128
			c-5.042,0-9.13-4.086-9.13-9.128c0-5.041,4.088-9.128,9.13-9.128C36.201,63.899,40.288,67.986,40.288,73.027"/>
		<rect x="64.3" y="284.97" clip-path="url(#SVGID_4_)" fill="#FFFFFF" width="8.467" height="38.103"/>
		<path clip-path="url(#SVGID_4_)" fill="#FFFFFF" d="M70.886,283.089c0,3.378-2.738,6.116-6.115,6.116
			c-3.377,0-6.115-2.738-6.115-6.116c0-3.377,2.738-6.115,6.115-6.115C68.148,276.974,70.886,279.712,70.886,283.089"/>
		<path clip-path="url(#SVGID_4_)" fill="#FFFFFF" d="M79.353,283.089c0,3.378-2.738,6.116-6.115,6.116
			c-3.377,0-6.115-2.738-6.115-6.116c0-3.377,2.738-6.115,6.115-6.115C76.615,276.974,79.353,279.712,79.353,283.089"/>
		<path clip-path="url(#SVGID_4_)" fill="#FFFFFF" d="M70.886,322.602c0,3.377-2.738,6.115-6.115,6.115
			c-3.377,0-6.115-2.738-6.115-6.115s2.738-6.115,6.115-6.115C68.148,316.487,70.886,319.225,70.886,322.602"/>
		<path clip-path="url(#SVGID_4_)" fill="#FFFFFF" d="M79.353,322.602c0,3.377-2.738,6.115-6.115,6.115
			c-3.377,0-6.115-2.738-6.115-6.115s2.738-6.115,6.115-6.115C76.615,316.487,79.353,319.225,79.353,322.602"/>
		
			<rect x="71.458" y="361.18" transform="matrix(0.9953 -0.0966 0.0966 0.9953 -36.25 9.0173)" clip-path="url(#SVGID_4_)" fill="#FFFFFF" width="7.055" height="35.279"/>
		<path clip-path="url(#SVGID_4_)" fill="#FFFFFF" d="M74.948,359.987c0.293,3.011-1.912,5.688-4.923,5.982
			c-3.01,0.292-5.689-1.913-5.981-4.923c-0.293-3.012,1.911-5.69,4.922-5.982C71.977,354.772,74.656,356.975,74.948,359.987"/>
		<path clip-path="url(#SVGID_4_)" fill="#FFFFFF" d="M82.497,359.253c0.292,3.01-1.912,5.688-4.923,5.98
			c-3.011,0.294-5.689-1.911-5.982-4.922c-0.292-3.01,1.912-5.689,4.923-5.981C79.526,354.039,82.204,356.243,82.497,359.253"/>
		<path clip-path="url(#SVGID_4_)" fill="#FFFFFF" d="M78.37,395.214c0.292,3.01-1.912,5.688-4.922,5.981
			c-3.012,0.293-5.69-1.912-5.983-4.923c-0.292-3.011,1.912-5.688,4.923-5.98C75.399,389.999,78.077,392.204,78.37,395.214"/>
		<path clip-path="url(#SVGID_4_)" fill="#FFFFFF" d="M85.918,394.48c0.293,3.012-1.912,5.69-4.922,5.982
			c-3.011,0.292-5.69-1.911-5.982-4.923c-0.293-3.011,1.911-5.688,4.923-5.982C82.947,389.265,85.626,391.47,85.918,394.48"/>
		
			<rect x="23.281" y="218.68" transform="matrix(0.9507 0.3102 -0.3102 0.9507 74.884 3.2059)" clip-path="url(#SVGID_4_)" fill="#FFFFFF" width="8.163" height="36.732"/>
		<path clip-path="url(#SVGID_4_)" fill="#FFFFFF" d="M35.778,218.564c-1.011,3.096-4.339,4.786-7.434,3.776
			c-3.095-1.009-4.786-4.337-3.776-7.434c1.01-3.093,4.338-4.784,7.433-3.776C35.096,212.142,36.787,215.469,35.778,218.564"/>
		<path clip-path="url(#SVGID_4_)" fill="#FFFFFF" d="M43.538,221.096c-1.01,3.095-4.338,4.787-7.434,3.777
			c-3.094-1.011-4.785-4.338-3.776-7.435c1.01-3.094,4.339-4.785,7.434-3.775C42.857,214.674,44.548,218.002,43.538,221.096"/>
		<path clip-path="url(#SVGID_4_)" fill="#FFFFFF" d="M23.962,254.778c-1.009,3.097-4.338,4.787-7.433,3.777
			c-3.095-1.01-4.786-4.338-3.776-7.434c1.01-3.094,4.338-4.786,7.433-3.776C23.281,248.356,24.972,251.684,23.962,254.778"/>
		<path clip-path="url(#SVGID_4_)" fill="#FFFFFF" d="M31.723,257.31c-1.01,3.096-4.338,4.786-7.434,3.776
			c-3.094-1.009-4.786-4.337-3.775-7.434c1.01-3.095,4.338-4.784,7.433-3.774C31.042,250.887,32.731,254.215,31.723,257.31"/>
		
			<rect x="43.037" y="165.057" transform="matrix(0.9507 0.3102 -0.3102 0.9507 59.2274 -5.5679)" clip-path="url(#SVGID_4_)" fill="#FFFFFF" width="8.162" height="36.731"/>
		<path clip-path="url(#SVGID_4_)" fill="#FFFFFF" d="M55.535,164.94c-1.011,3.097-4.339,4.786-7.434,3.776
			c-3.095-1.009-4.786-4.337-3.776-7.433c1.01-3.094,4.338-4.785,7.433-3.776C54.853,158.517,56.543,161.845,55.535,164.94"/>
		<path clip-path="url(#SVGID_4_)" fill="#FFFFFF" d="M63.294,167.472c-1.01,3.095-4.338,4.788-7.434,3.777
			c-3.094-1.01-4.785-4.338-3.776-7.433c1.01-3.095,4.339-4.786,7.434-3.776C62.613,161.05,64.304,164.378,63.294,167.472"/>
		<path clip-path="url(#SVGID_4_)" fill="#FFFFFF" d="M43.719,201.153c-1.009,3.097-4.338,4.788-7.434,3.777
			c-3.094-1.009-4.786-4.338-3.775-7.433c1.01-3.094,4.338-4.786,7.433-3.776C43.038,194.731,44.729,198.059,43.719,201.153"/>
		<path clip-path="url(#SVGID_4_)" fill="#FFFFFF" d="M51.479,203.687c-1.01,3.095-4.338,4.786-7.434,3.776
			c-3.094-1.009-4.786-4.337-3.775-7.434c1.01-3.095,4.338-4.784,7.433-3.774C50.798,197.264,52.488,200.591,51.479,203.687"/>
		<path clip-path="url(#SVGID_4_)" fill="#FFFFFF" d="M132.036,151.264c0,2.143-1.737,3.881-3.881,3.881H58.303
			c-2.143,0-3.881-1.738-3.881-3.881v-0.706c0-2.142,1.738-3.88,3.881-3.88h69.852c2.144,0,3.881,1.738,3.881,3.88V151.264z"/>
		<path clip-path="url(#SVGID_4_)" fill="#FFFFFF" d="M103.813,137.152c0,2.143-1.738,3.881-3.881,3.881H86.525
			c-2.143,0-3.88-1.738-3.88-3.881v-0.706c0-2.143,1.737-3.88,3.88-3.88h13.406c2.143,0,3.881,1.737,3.881,3.88V137.152z"/>
		<path clip-path="url(#SVGID_4_)" fill="#FFFFFF" d="M103.813,250.045c0,2.143-1.738,3.881-3.881,3.881H86.525
			c-2.143,0-3.88-1.738-3.88-3.881v-0.706c0-2.143,1.737-3.88,3.88-3.88h13.406c2.143,0,3.881,1.737,3.881,3.88V250.045z"/>
		<path clip-path="url(#SVGID_4_)" fill="#FFFFFF" d="M103.813,235.934c0,2.143-1.738,3.88-3.881,3.88H86.525
			c-2.143,0-3.88-1.737-3.88-3.88v-0.706c0-2.143,1.737-3.881,3.88-3.881h13.406c2.143,0,3.881,1.738,3.881,3.881V235.934z"/>
		<path clip-path="url(#SVGID_4_)" fill="#FFFFFF" d="M103.813,223.233c0,2.144-1.738,3.881-3.881,3.881H86.525
			c-2.143,0-3.88-1.737-3.88-3.881v-0.705c0-2.143,1.737-3.881,3.88-3.881h13.406c2.143,0,3.881,1.738,3.881,3.881V223.233z"/>
		<path clip-path="url(#SVGID_4_)" fill="#FFFFFF" d="M98.168,205.946c0,3.118-2.527,5.645-5.645,5.645
			c-3.117,0-5.645-2.527-5.645-5.645v-52.213c0-3.117,2.528-5.644,5.645-5.644c3.118,0,5.645,2.527,5.645,5.644V205.946z"/>
		
			<path clip-path="url(#SVGID_4_)" fill="none" stroke="#FFFFFF" stroke-width="9.878" stroke-linecap="round" stroke-miterlimit="10" d="
			M94.627,169.962c6.763,2.906,14.809,4.632,21.937,2.133"/>
		
			<path clip-path="url(#SVGID_4_)" fill="none" stroke="#FFFFFF" stroke-width="9.878" stroke-linecap="round" stroke-miterlimit="10" d="
			M91.805,188.307c8.36,3.592,17.724,4.834,25.986,0.34"/>
		
			<path clip-path="url(#SVGID_4_)" fill="none" stroke="#FFFFFF" stroke-width="9.878" stroke-linecap="round" stroke-miterlimit="10" d="
			M90.419,169.962c-6.191,2.669-13.189,4.042-19.864,2.584"/>
		
			<path clip-path="url(#SVGID_4_)" fill="none" stroke="#FFFFFF" stroke-width="9.878" stroke-linecap="round" stroke-miterlimit="10" d="
			M94.627,207.754c6.763,2.906,14.809,4.632,21.937,2.133"/>
		
			<path clip-path="url(#SVGID_4_)" fill="none" stroke="#FFFFFF" stroke-width="9.878" stroke-linecap="round" stroke-miterlimit="10" d="
			M90.419,207.754c-6.191,2.669-13.189,4.042-19.864,2.584"/>
		
			<path clip-path="url(#SVGID_4_)" fill="none" stroke="#FFFFFF" stroke-width="9.878" stroke-linecap="round" stroke-miterlimit="10" d="
			M93.242,188.307c-7.949,3.426-17.34,4.5-25.339,0.631"/>
		<path clip-path="url(#SVGID_4_)" fill="#FFFFFF" d="M16.32,263.275c-7.056,0-7.056,12.348,0,12.348
			C24.787,275.623,24.787,263.275,16.32,263.275"/>
		<path clip-path="url(#SVGID_4_)" fill="#FFFFFF" d="M11.093,282.35c-0.288-1.874-3.274-1.757-3.657,0
			c-0.41,1.883-1.989,3.679-2.252,5.83c-0.342,2.813,3.916,3.681,5.168,1.398c0.612-1.115,0.669-2.634,0.777-3.875
			C11.227,284.576,11.265,283.474,11.093,282.35"/>
		<path clip-path="url(#SVGID_4_)" fill="#FFFFFF" d="M19.135,286.701c-0.253-0.999-1.305-1.225-2.138-0.869
			c-0.531,0.226-0.893,0.335-1.352,0.748c-0.435,0.393-0.783,0.865-1.158,1.315c-0.31,0.37-0.625,0.737-0.945,1.098
			c-0.262,0.264-0.204,0.243,0.174-0.062c-0.529,0.322-0.939,0.749-1.225,1.298c-0.663,1.276-0.55,2.802,0.497,3.849
			c1.113,1.114,3.422,1.366,4.493,0c0.203-0.258,0.403-0.518,0.603-0.778c0.107-0.255,0.215-0.509,0.322-0.764
			c0.117-0.999,0.144-1.131,0.08-0.396c0.139-0.439,0.255-0.888,0.375-1.333c0.15-0.564,0.292-1.133,0.434-1.699
			C19.516,288.224,19.346,287.541,19.135,286.701"/>
		<path clip-path="url(#SVGID_4_)" fill="#FFFFFF" d="M69.944,334.147c-9.878,0-9.878,17.364,0,17.364
			C81.234,351.511,81.234,334.147,69.944,334.147"/>
		<path clip-path="url(#SVGID_4_)" fill="#FFFFFF" d="M75.589,410.29c-7.056,0-7.056,11.841,0,11.841
			C84.056,422.13,84.056,410.29,75.589,410.29"/>
		<path clip-path="url(#SVGID_4_)" fill="#FFFFFF" d="M78.064,426.588c-2.904-1.534-5.165-0.25-7.924,0.99
			c-1.033,0.465-2.044,0.968-3.049,1.488c-1.26,0.651-2.11,1.762-3.276,2.543c-0.953,0.638-0.314,1.9,0.739,1.753
			c1.24-0.174,2.517,0.226,3.763,0.23c1.16,0.005,2.315,0.031,3.474,0.082c2.67,0.116,4.981,0.552,6.982-1.58
			C80.263,430.508,80.124,427.675,78.064,426.588"/>
		<rect x="113.691" y="284.97" clip-path="url(#SVGID_4_)" fill="#FFFFFF" width="8.467" height="38.103"/>
		<path clip-path="url(#SVGID_4_)" fill="#FFFFFF" d="M115.572,283.089c0,3.378,2.738,6.116,6.114,6.116
			c3.378,0,6.115-2.738,6.115-6.116c0-3.377-2.737-6.115-6.115-6.115C118.31,276.974,115.572,279.712,115.572,283.089"/>
		<path clip-path="url(#SVGID_4_)" fill="#FFFFFF" d="M107.105,283.089c0,3.378,2.738,6.116,6.114,6.116
			c3.378,0,6.115-2.738,6.115-6.116c0-3.377-2.737-6.115-6.115-6.115C109.843,276.974,107.105,279.712,107.105,283.089"/>
		<path clip-path="url(#SVGID_4_)" fill="#FFFFFF" d="M115.572,322.602c0,3.377,2.738,6.115,6.114,6.115
			c3.378,0,6.115-2.738,6.115-6.115s-2.737-6.115-6.115-6.115C118.31,316.487,115.572,319.225,115.572,322.602"/>
		<path clip-path="url(#SVGID_4_)" fill="#FFFFFF" d="M107.105,322.602c0,3.377,2.738,6.115,6.114,6.115
			c3.378,0,6.115-2.738,6.115-6.115s-2.737-6.115-6.115-6.115C109.843,316.487,107.105,319.225,107.105,322.602"/>
		
			<rect x="107.944" y="361.179" transform="matrix(-0.9953 -0.0966 0.0966 -0.9953 185.8184 766.6361)" clip-path="url(#SVGID_4_)" fill="#FFFFFF" width="7.054" height="35.279"/>
		<path clip-path="url(#SVGID_4_)" fill="#FFFFFF" d="M111.51,359.987c-0.293,3.011,1.91,5.688,4.923,5.982
			c3.01,0.292,5.688-1.913,5.98-4.923c0.293-3.012-1.911-5.69-4.922-5.982C114.482,354.772,111.802,356.975,111.51,359.987"/>
		<path clip-path="url(#SVGID_4_)" fill="#FFFFFF" d="M103.961,359.253c-0.292,3.01,1.911,5.688,4.923,5.98
			c3.01,0.294,5.688-1.911,5.98-4.922c0.292-3.01-1.911-5.689-4.924-5.981C106.932,354.039,104.253,356.243,103.961,359.253"/>
		<path clip-path="url(#SVGID_4_)" fill="#FFFFFF" d="M108.087,395.214c-0.292,3.01,1.913,5.688,4.923,5.981
			c3.011,0.293,5.688-1.912,5.981-4.923s-1.911-5.688-4.922-5.98C111.058,389.999,108.379,392.204,108.087,395.214"/>
		<path clip-path="url(#SVGID_4_)" fill="#FFFFFF" d="M100.538,394.48c-0.292,3.012,1.913,5.69,4.923,5.982
			c3.011,0.292,5.689-1.911,5.981-4.923c0.294-3.011-1.911-5.688-4.923-5.982C103.509,389.265,100.83,391.47,100.538,394.48"/>
		
			<rect x="155.015" y="218.68" transform="matrix(-0.9506 0.3103 -0.3103 -0.9506 383.8924 413.0251)" clip-path="url(#SVGID_4_)" fill="#FFFFFF" width="8.161" height="36.732"/>
		<path clip-path="url(#SVGID_4_)" fill="#FFFFFF" d="M150.678,218.564c1.012,3.096,4.34,4.786,7.436,3.776
			c3.095-1.009,4.785-4.337,3.775-7.434c-1.01-3.093-4.338-4.784-7.434-3.776C151.361,212.142,149.669,215.469,150.678,218.564"/>
		<path clip-path="url(#SVGID_4_)" fill="#FFFFFF" d="M142.919,221.096c1.009,3.095,4.339,4.787,7.434,3.777
			c3.096-1.011,4.785-4.338,3.776-7.435c-1.011-3.094-4.339-4.785-7.434-3.775C143.601,214.674,141.91,218.002,142.919,221.096"/>
		<path clip-path="url(#SVGID_4_)" fill="#FFFFFF" d="M162.495,254.778c1.01,3.097,4.338,4.787,7.433,3.777
			c3.096-1.01,4.788-4.338,3.776-7.434c-1.009-3.094-4.338-4.786-7.434-3.776C163.175,248.356,161.486,251.684,162.495,254.778"/>
		<path clip-path="url(#SVGID_4_)" fill="#FFFFFF" d="M154.736,257.31c1.009,3.096,4.338,4.786,7.434,3.776
			c3.094-1.009,4.784-4.337,3.775-7.434c-1.012-3.095-4.338-4.784-7.434-3.774C155.417,250.887,153.725,254.215,154.736,257.31"/>
		
			<rect x="135.258" y="165.057" transform="matrix(-0.9507 0.3103 -0.3103 -0.9507 328.7106 314.5613)" clip-path="url(#SVGID_4_)" fill="#FFFFFF" width="8.162" height="36.731"/>
		<path clip-path="url(#SVGID_4_)" fill="#FFFFFF" d="M130.922,164.94c1.012,3.097,4.34,4.786,7.435,3.776
			c3.096-1.009,4.786-4.337,3.776-7.433c-1.011-3.094-4.339-4.785-7.434-3.776C131.604,158.517,129.914,161.845,130.922,164.94"/>
		<path clip-path="url(#SVGID_4_)" fill="#FFFFFF" d="M123.164,167.472c1.009,3.095,4.338,4.788,7.434,3.777
			c3.095-1.01,4.784-4.338,3.775-7.433c-1.01-3.095-4.338-4.786-7.433-3.776C123.844,161.05,122.154,164.378,123.164,167.472"/>
		<path clip-path="url(#SVGID_4_)" fill="#FFFFFF" d="M142.738,201.153c1.011,3.097,4.339,4.788,7.434,3.777
			c3.095-1.009,4.787-4.338,3.775-7.433c-1.008-3.094-4.338-4.786-7.433-3.776C143.418,194.731,141.729,198.059,142.738,201.153"/>
		<path clip-path="url(#SVGID_4_)" fill="#FFFFFF" d="M134.979,203.687c1.009,3.095,4.339,4.786,7.434,3.776
			c3.094-1.009,4.785-4.337,3.776-7.434c-1.012-3.095-4.339-4.784-7.434-3.774C135.66,197.264,133.969,200.591,134.979,203.687"/>
		<path clip-path="url(#SVGID_4_)" fill="#FFFFFF" d="M170.137,263.275c7.056,0,7.056,12.348,0,12.348
			C161.67,275.623,161.67,263.275,170.137,263.275"/>
		<path clip-path="url(#SVGID_4_)" fill="#FFFFFF" d="M175.364,282.35c0.288-1.874,3.274-1.757,3.658,0
			c0.409,1.883,1.988,3.679,2.25,5.83c0.343,2.813-3.915,3.681-5.168,1.398c-0.611-1.115-0.667-2.634-0.775-3.875
			C175.231,284.576,175.192,283.474,175.364,282.35"/>
		<path clip-path="url(#SVGID_4_)" fill="#FFFFFF" d="M167.323,286.701c0.253-0.999,1.304-1.225,2.138-0.869
			c0.53,0.226,0.893,0.335,1.352,0.748c0.436,0.393,0.783,0.865,1.158,1.315c0.31,0.37,0.625,0.737,0.945,1.098
			c0.261,0.264,0.204,0.243-0.174-0.062c0.529,0.322,0.939,0.749,1.224,1.298c0.664,1.276,0.552,2.802-0.496,3.849
			c-1.113,1.114-3.422,1.366-4.492,0c-0.204-0.258-0.404-0.518-0.604-0.778c-0.107-0.255-0.215-0.509-0.322-0.764
			c-0.116-0.999-0.144-1.131-0.081-0.396c-0.138-0.439-0.254-0.888-0.374-1.333c-0.15-0.564-0.292-1.133-0.433-1.699
			C166.941,288.224,167.111,287.541,167.323,286.701"/>
		<path clip-path="url(#SVGID_4_)" fill="#FFFFFF" d="M116.513,334.147c9.878,0,9.878,17.364,0,17.364
			C105.223,351.511,105.223,334.147,116.513,334.147"/>
		<path clip-path="url(#SVGID_4_)" fill="#FFFFFF" d="M110.869,410.29c7.056,0,7.056,11.841,0,11.841
			C102.402,422.13,102.402,410.29,110.869,410.29"/>
		<path clip-path="url(#SVGID_4_)" fill="#FFFFFF" d="M108.393,426.588c2.905-1.534,5.165-0.25,7.924,0.99
			c1.032,0.465,2.044,0.968,3.049,1.488c1.261,0.651,2.109,1.762,3.277,2.543c0.952,0.638,0.313,1.9-0.74,1.753
			c-1.24-0.174-2.518,0.226-3.764,0.23c-1.159,0.005-2.313,0.031-3.473,0.082c-2.671,0.116-4.982,0.552-6.983-1.58
			C106.195,430.508,106.334,427.675,108.393,426.588"/>
		<path clip-path="url(#SVGID_4_)" fill="#FFFFFF" d="M93.229,260.276c-5.645,0-15.512-9.172-23.984-9.172
			c-8.473,0-17.37,9.878-9.746,14.817c7.624,4.938,35.408,9.172,35.408,9.172L93.229,260.276z"/>
		<path clip-path="url(#SVGID_4_)" fill="#FFFFFF" d="M93.229,260.276c5.645,0,15.512-9.172,23.985-9.172
			c8.472,0,17.369,9.878,9.745,14.817c-7.623,4.938-35.408,9.172-35.408,9.172L93.229,260.276z"/>
	</g>
</g>
</svg>
