<?xml version="1.0" encoding="utf-8"?>
<!-- Generator: Adobe Illustrator 16.0.3, SVG Export Plug-In . SVG Version: 6.00 Build 0)  -->
<!DOCTYPE svg PUBLIC "-//W3C//DTD SVG 1.1//EN" "http://www.w3.org/Graphics/SVG/1.1/DTD/svg11.dtd">
<svg version="1.1" id="Capa_1" xmlns="http://www.w3.org/2000/svg" xmlns:xlink="http://www.w3.org/1999/xlink" x="0px" y="0px"
	 width="556.254px" height="337.854px" viewBox="0 0 556.254 337.854" enable-background="new 0 0 556.254 337.854"
	 xml:space="preserve">
<g>
	<defs>
		<rect id="SVGID_1_" x="-128.079" y="-148.092" width="792" height="612"/>
	</defs>
	<clipPath id="SVGID_2_">
		<use xlink:href="#SVGID_1_"  overflow="visible"/>
	</clipPath>
	<g clip-path="url(#SVGID_2_)">
		<defs>
			<rect id="SVGID_3_" x="-128.079" y="-148.092" width="792" height="612"/>
		</defs>
		<clipPath id="SVGID_4_">
			<use xlink:href="#SVGID_3_"  overflow="visible"/>
		</clipPath>
		<path clip-path="url(#SVGID_4_)" fill="#FDB768" d="M271.231,125.542C117.677,144.604-3.721,190.701,0.088,228.503
			c3.809,37.782,131.382,52.969,284.933,33.901c153.561-19.063,274.953-65.16,271.146-102.951
			C552.358,121.659,424.787,106.485,271.231,125.542 M280.762,244.801c-94.046,11.674-195.765,6.613-199.021-25.757
			c-3.259-32.362,94.931-62.238,188.975-73.923c94.046-11.663,195.75-6.614,199.015,25.763
			C472.995,203.254,374.803,233.129,280.762,244.801"/>
		<path clip-path="url(#SVGID_4_)" fill="#FE8213" d="M445.22,168.927c0,93.294-75.63,168.927-168.93,168.927
			c-93.294,0-168.926-75.633-168.926-168.927C107.364,75.63,182.996,0,276.29,0C369.59,0,445.22,75.63,445.22,168.927"/>
		<path clip-path="url(#SVGID_4_)" fill="#FEA229" d="M352.097,80.66c-8.118-2.24-16.517-3.122-24.792-4.559
			c-18.661-3.256-37.594-7.357-56.643-6.832c-9.159,0.252-53.121,3.292-46.503,21.378c2.155,5.889,10.694,7.877,15.854,9.819
			c13.159,4.952,27.502,7.228,41.493,5.227c9.213-1.32,17.914-5.446,27.284-5.805c10.844-0.427,21.692-0.584,32.542-0.68
			c2.315-0.019,10.916,0.596,18.434-0.011c7.028-0.566,13.108-2.192,12.21-6.397C370.482,85.836,357.828,82.24,352.097,80.66"/>
		<path clip-path="url(#SVGID_4_)" fill="#EA4029" d="M413.385,70.28C382.71,27.728,332.753,0,276.29,0
			c-49.013,0-93.131,20.896-123.986,54.238c37.148-1.381,74.566-1.757,110.863-10.195c9.89-2.302,19.813-5.351,30.128-5.031
			c23.512,0.73,44.974,11.15,66.423,19.335C374.292,63.911,395.484,71.874,413.385,70.28"/>
		<path clip-path="url(#SVGID_4_)" fill="#EA4029" d="M402.409,198.505c-6.305-0.669-13.131-2.437-19.452-1.039
			c-4.382,0.966-12.66,5.942-6.355,10.678c1.685,1.266,6.384,1.524,8.446,1.926c13.617,2.628,27.846,4.767,41.623,6.392
			c3.817,0.449,7.644,0.713,11.472,0.876c1.881-6.305,3.395-12.767,4.538-19.354C429.301,199.473,415.816,199.925,402.409,198.505"
			/>
		<path clip-path="url(#SVGID_4_)" fill="#EA4029" d="M409.144,238.432c-6.726-0.169-72.689-11.82-74.872-3.523
			c-1.827,7.045-7.304,23.756-9.128,28.157c-1.83,4.401-18.266,9.679-18.266,9.679s-9.13-0.878-21.911,1.761
			c-41.782,8.631-81.3-54.692-120.519-26.4c-7.315,5.285-24.657,3.525-31.958,6.164c-0.615,0.222-1.159,0.373-1.676,0.5
			c29.403,49.718,83.531,83.085,145.477,83.085c67.739,0,126.128-39.883,153.056-97.429
			C423.232,239.375,416.495,238.618,409.144,238.432"/>
		<path clip-path="url(#SVGID_4_)" fill="#FEA229" d="M240.674,204.314c-9.639-0.216-19.84-2.781-29.375-0.445
			c-5.62,1.375-15.029,6.229-6.746,11.591c5.115,3.313,12.641,1.585,18.398,2.753c7.262,1.474,14.122,4.482,20.845,7.522
			c14.672,6.633,27.986,12.557,44.606,8.401c11.057-2.765,21.117-4.979,28.32-14.67c3.997-5.383,5.679-14.284,11.48-18.164
			c-7.888-4.569-17.937-1.198-26.189,0.511C281.966,205.957,261.003,204.772,240.674,204.314"/>
		<path clip-path="url(#SVGID_4_)" fill="#FE4116" d="M153.958,100.775c6.33-0.32,13.35,0.362,19.376-2.004
			c4.177-1.637,11.577-7.843,4.61-11.54c-1.859-0.985-6.538-0.508-8.64-0.581c-13.365-0.461-27.212-0.368-40.613,0.124
			c-3.48,6.236-6.562,12.724-9.24,19.418C130.763,103.357,142.28,101.374,153.958,100.775"/>
		<path clip-path="url(#SVGID_4_)" fill="#FE4116" d="M116.966,161.008c11.865,2.639,12.78,0.882,28.303,5.28
			c15.523,4.396,39.265,4.398,42.914,5.277c3.652,0.881,10.959,0.881,13.698,0.881h31.955h55.698c3.648,0,27.394-1.763,34.694-2.641
			c7.307-0.879,25.566-1.763,25.566-1.763s1.827,0,21.002-2.639s40.174-6.153,48.388-1.758c4.559,2.439,16.138,3.528,26.016,4.461
			c-0.045-9.382-0.882-18.568-2.395-27.525l-42.793-11.248l-42.911,3.52c0,0-23.739,12.314-30.134,14.074
			c-6.392,1.763-15.522,0.882-20.09,0.882c-4.562,0-29.212-1.76-29.212-1.76s-18.263-4.402-34.701-4.402
			c-16.433,0-53.873-1.76-59.346,0c-5.48,1.763-18.263,1.763-21.002,1.763h-53.334c-0.819,5.423-1.381,10.93-1.678,16.511
			C110.016,159.815,112.815,160.085,116.966,161.008"/>
		<path clip-path="url(#SVGID_4_)" fill="#FEA229" d="M224.385,118.886c0,4.194-9.501,7.588-21.227,7.588
			c-11.724,0-21.226-3.394-21.226-7.588c0-4.188,9.502-7.587,21.226-7.587C214.884,111.299,224.385,114.698,224.385,118.886"/>
		<path clip-path="url(#SVGID_4_)" fill="#FEA229" d="M404.2,179.922c0,2.669-6.058,4.837-13.526,4.837
			c-7.47,0-13.527-2.168-13.527-4.837c0-2.67,6.058-4.834,13.527-4.834C398.143,175.088,404.2,177.252,404.2,179.922"/>
		<path clip-path="url(#SVGID_4_)" fill="#FEA229" d="M162.69,190.479c0,2.672-6.058,4.836-13.53,4.836
			c-7.47,0-13.527-2.164-13.527-4.836c0-2.667,6.057-4.834,13.527-4.834C156.632,185.646,162.69,187.813,162.69,190.479"/>
		<path clip-path="url(#SVGID_4_)" fill="#FEA229" d="M418.985,109.758c0,2.307-5.232,4.174-11.681,4.174
			c-6.453,0-11.683-1.867-11.683-4.174c0-2.308,5.229-4.177,11.683-4.177C413.753,105.581,418.985,107.45,418.985,109.758"/>
		<path clip-path="url(#SVGID_4_)" fill="#FEA229" d="M315.608,253.166c0,2.307-5.235,4.177-11.684,4.177
			c-6.453,0-11.68-1.87-11.68-4.177c0-2.305,5.227-4.172,11.68-4.172C310.373,248.994,315.608,250.861,315.608,253.166"/>
		<path clip-path="url(#SVGID_4_)" fill="#FEA229" d="M179.675,67.085c0,2.307-5.235,4.177-11.683,4.177
			c-6.453,0-11.68-1.87-11.68-4.177c0-2.308,5.227-4.174,11.68-4.174C174.44,62.912,179.675,64.777,179.675,67.085"/>
		<g opacity="0.3" clip-path="url(#SVGID_4_)">
			<g>
				<defs>
					<rect id="SVGID_5_" x="125.053" y="8.279" width="220.578" height="188.921"/>
				</defs>
				<clipPath id="SVGID_6_">
					<use xlink:href="#SVGID_5_"  overflow="visible"/>
				</clipPath>
				<g clip-path="url(#SVGID_6_)">
					<defs>
						<path id="SVGID_7_" d="M336.649,41.224c24.037,39.593-1.832,99.228-57.782,133.199
							c-55.952,33.977-120.795,29.418-144.831-10.17c-24.039-39.591,1.83-99.223,57.78-133.196
							C247.765-2.919,312.61,1.639,336.649,41.224"/>
					</defs>
					<clipPath id="SVGID_8_">
						<use xlink:href="#SVGID_7_"  overflow="visible"/>
					</clipPath>
					<defs>
						<filter id="Adobe_OpacityMaskFilter" filterUnits="userSpaceOnUse" x="7.563" y="-126.69" width="455.559" height="458.861">
							<feColorMatrix  type="matrix" values="1 0 0 0 0  0 1 0 0 0  0 0 1 0 0  0 0 0 1 0"/>
						</filter>
					</defs>
					<mask maskUnits="userSpaceOnUse" x="7.563" y="-126.69" width="455.559" height="458.861" id="SVGID_9_">
						<g filter="url(#Adobe_OpacityMaskFilter)">
							
								<linearGradient id="SVGID_10_" gradientUnits="userSpaceOnUse" x1="-128.0791" y1="463.9072" x2="-127.0791" y2="463.9072" gradientTransform="matrix(81.7307 101.7221 97.7898 -80.0271 -34701.4297 50207.4844)">
								<stop  offset="0" style="stop-color:#FFFFFF"/>
								<stop  offset="1" style="stop-color:#000000"/>
							</linearGradient>
							<polygon clip-path="url(#SVGID_8_)" fill="url(#SVGID_10_)" points="261.24,-126.69 463.121,124.571 209.443,332.171 
								7.563,80.909 							"/>
						</g>
					</mask>
					
						<linearGradient id="SVGID_11_" gradientUnits="userSpaceOnUse" x1="-128.0791" y1="463.9072" x2="-127.0791" y2="463.9072" gradientTransform="matrix(81.7307 101.7221 97.7898 -80.0271 -34701.4336 50207.4844)">
						<stop  offset="0" style="stop-color:#FFFFFF"/>
						<stop  offset="1" style="stop-color:#FFFFFF"/>
					</linearGradient>
					<polygon clip-path="url(#SVGID_8_)" mask="url(#SVGID_9_)" fill="url(#SVGID_11_)" points="261.24,-126.69 463.121,124.571 
						209.443,332.171 7.563,80.909 					"/>
				</g>
			</g>
		</g>
		<path clip-path="url(#SVGID_4_)" fill="#FDB768" d="M556.167,159.453c-2.147-21.325-43.711-35.45-107.104-40.284
			c0.6,10.566,0.543,21.201-0.271,31.734c12.435,4.921,20.084,11.509,20.937,19.98c3.266,32.37-94.927,62.245-188.968,73.917
			c-94.047,11.673-195.765,6.613-199.021-25.757c-0.763-7.577,4.09-15.013,13.092-22.117c-3.43-9.8-4.295-21.288-4.048-32.042
			c-57.488,19.84-92.778,42.967-90.698,63.618c3.809,37.782,131.383,52.969,284.934,33.9
			C438.581,243.341,559.974,197.244,556.167,159.453"/>
	</g>
</g>
</svg>
