<?xml version="1.0" encoding="utf-8"?>
<!-- Generator: Adobe Illustrator 16.0.3, SVG Export Plug-In . SVG Version: 6.00 Build 0)  -->
<!DOCTYPE svg PUBLIC "-//W3C//DTD SVG 1.1//EN" "http://www.w3.org/Graphics/SVG/1.1/DTD/svg11.dtd">
<svg version="1.1" id="Capa_1" xmlns="http://www.w3.org/2000/svg" xmlns:xlink="http://www.w3.org/1999/xlink" x="0px" y="0px"
	 width="440.583px" height="470.82px" viewBox="0 0 440.583 470.82" enable-background="new 0 0 440.583 470.82"
	 xml:space="preserve">
<polygon fill="#3F3B3D" points="200.544,470.82 179.858,468.667 216.658,115.28 440.583,392.064 424.415,405.144 232.132,167.475 
	"/>
<polygon fill="#7C7977" points="224.483,98.585 203.104,104.862 185.87,46.133 207.249,39.856 "/>
<g>
	<defs>
		<rect id="SVGID_1_" x="-180.527" y="-71.804" width="792" height="612"/>
	</defs>
	<clipPath id="SVGID_2_">
		<use xlink:href="#SVGID_1_"  overflow="visible"/>
	</clipPath>
	<path clip-path="url(#SVGID_2_)" fill="#7C7977" d="M157.348,44.555L157.348,44.555c-2.316-7.894,2.203-16.171,10.095-18.489
		l44.467-13.055c7.892-2.317,16.167,2.204,18.483,10.098c2.316,7.893-2.203,16.171-10.095,18.488l-44.468,13.056
		C167.939,56.97,159.664,52.449,157.348,44.555"/>
	<path clip-path="url(#SVGID_2_)" fill="#D44354" d="M431.965,203.9c28.087,95.714-26.715,196.08-122.404,224.175
		S113.53,401.353,85.443,305.639c-28.087-95.714,26.715-196.081,122.404-224.176C303.538,53.369,403.878,108.186,431.965,203.9"/>
	<path clip-path="url(#SVGID_2_)" fill="#AC2B46" d="M431.965,203.9c28.087,95.714-26.715,196.08-122.404,224.175
		S113.53,401.353,85.443,305.639c-28.087-95.714,26.715-196.081,122.404-224.176C303.538,53.369,403.878,108.186,431.965,203.9"/>
	<path clip-path="url(#SVGID_2_)" fill="#D44354" d="M424.181,206.185c26.826,91.414-25.515,187.271-116.905,214.104
		S120.052,394.768,93.227,303.353c-26.826-91.414,25.515-187.272,116.906-214.104C301.523,62.417,397.356,114.771,424.181,206.185"
		/>
	<path clip-path="url(#SVGID_2_)" fill="#FFFFFF" d="M340.226,136.087c-34.45-23.646-78.852-32.176-122.067-19.488
		c-76.29,22.399-119.98,102.417-97.589,178.726c6.954,23.694,19.464,44.242,35.69,60.646c36.029,36.426,90.389,52.41,142.989,36.967
		c76.29-22.399,119.981-102.417,97.589-178.727C387.13,181.131,366.591,154.185,340.226,136.087"/>
	<path clip-path="url(#SVGID_2_)" fill="#EDEEE8" d="M340.226,136.087c16.226,16.404,28.736,36.952,35.688,60.647
		c22.394,76.308-21.298,156.327-97.587,178.725c-43.216,12.688-87.618,4.158-122.067-19.487
		c36.029,36.426,90.389,52.41,142.989,36.967c76.29-22.399,119.981-102.417,97.589-178.727
		C387.13,181.131,366.591,154.185,340.226,136.087"/>
	<path clip-path="url(#SVGID_2_)" fill="#AC2B46" d="M427.412,122.658c22.18-39.483,7.908-89.617-31.875-111.976
		s-90.014-8.477-112.192,31.006L427.412,122.658z"/>
	<path clip-path="url(#SVGID_2_)" fill="#D44354" d="M407.116,110.217c19.11-34.021,6.814-77.217-27.465-96.483
		s-77.56-7.305-96.67,26.716L407.116,110.217z"/>
	<path clip-path="url(#SVGID_2_)" fill="#AC2B46" d="M43.41,236.369C3.415,215.14-11.668,165.245,9.722,124.925
		c21.391-40.32,71.153-55.796,111.148-34.567L43.41,236.369z"/>
	<path clip-path="url(#SVGID_2_)" fill="#D44354" d="M54.081,216.255c-34.485-18.304-47.49-61.326-29.047-96.092
		c18.444-34.765,61.351-48.11,95.837-29.805L54.081,216.255z"/>
	<polygon clip-path="url(#SVGID_2_)" fill="#3F3B3D" points="250.867,267.908 223.481,174.587 243.437,168.732 264.965,242.093 
		323.744,224.836 329.602,244.792 	"/>
	<path clip-path="url(#SVGID_2_)" fill="#D44354" d="M277.906,249.131c3.099,10.561-2.947,21.634-13.505,24.733
		s-21.628-2.948-24.727-13.509c-3.099-10.56,2.947-21.633,13.504-24.732C263.737,232.523,274.807,238.571,277.906,249.131"/>
	<path clip-path="url(#SVGID_2_)" fill="#3F3B3D" d="M157.459,284.495c1.59,5.417-1.512,11.098-6.928,12.688
		c-5.416,1.591-11.095-1.512-12.684-6.93c-1.59-5.417,1.511-11.098,6.927-12.688S155.87,279.078,157.459,284.495"/>
	<path clip-path="url(#SVGID_2_)" fill="#3F3B3D" d="M383.411,218.155c1.59,5.417-1.513,11.098-6.928,12.688
		c-5.416,1.59-11.095-1.512-12.685-6.93c-1.59-5.417,1.512-11.097,6.927-12.688C376.141,209.635,381.821,212.738,383.411,218.155"/>
	<path clip-path="url(#SVGID_2_)" fill="#3F3B3D" d="M230.346,151.008c-5.416,1.59-11.095-1.512-12.686-6.93
		c-1.589-5.417,1.513-11.097,6.929-12.688c5.416-1.59,11.095,1.513,12.685,6.93S235.762,149.418,230.346,151.008"/>
	<path clip-path="url(#SVGID_2_)" fill="#3F3B3D" d="M296.668,377.017c-5.416,1.591-11.095-1.512-12.685-6.93
		c-1.59-5.417,1.512-11.098,6.928-12.688s11.095,1.514,12.685,6.93C305.186,369.747,302.083,375.427,296.668,377.017"/>
</g>
</svg>
