<?xml version="1.0" encoding="utf-8"?>
<!-- Generator: Adobe Illustrator 16.0.3, SVG Export Plug-In . SVG Version: 6.00 Build 0)  -->
<!DOCTYPE svg PUBLIC "-//W3C//DTD SVG 1.1//EN" "http://www.w3.org/Graphics/SVG/1.1/DTD/svg11.dtd">
<svg version="1.1" id="Capa_1" xmlns="http://www.w3.org/2000/svg" xmlns:xlink="http://www.w3.org/1999/xlink" x="0px" y="0px"
	 width="338.686px" height="496.906px" viewBox="0 0 338.686 496.906" enable-background="new 0 0 338.686 496.906"
	 xml:space="preserve">
<g>
	<defs>
		<rect id="SVGID_1_" x="-226.657" y="-57.382" width="792" height="612"/>
	</defs>
	<clipPath id="SVGID_2_">
		<use xlink:href="#SVGID_1_"  overflow="visible"/>
	</clipPath>
	<path clip-path="url(#SVGID_2_)" fill="#783919" d="M216.657,44.512c0,0,13.57-34.242-18.552-9.978
		c-32.115,24.264-8.708,44.328,17.79,57.936L216.657,44.512z"/>
	<path clip-path="url(#SVGID_2_)" fill="#FEC843" d="M269.566,114.413c10.474,0,50.079,44.591,42.533,63.799
		c-3.261,8.301-45.277-11.662-51.449-32.243C254.475,125.388,267.509,114.413,269.566,114.413"/>
	<path clip-path="url(#SVGID_2_)" fill="#FDC181" d="M209.656,117.841c0-0.685,1.827-45.049,1.827-45.049l21.954,0.916
		c0,0,9.148,40.704,9.833,40.932C243.956,114.87,209.656,117.841,209.656,117.841"/>
	<path clip-path="url(#SVGID_2_)" fill="#52453C" d="M205.489,496.906c0,0-8.854-82.31-9.631-88.983
		c-0.983-8.495,6.388-20.812,6.324-32.482c-0.064-11.683-8.265-71.84,1.525-119.242c1.602-7.755,69.976-10.757,69.976-10.757
		s10.574,88.407,9.262,102.211c-1.31,13.805,7.129,131.528,18.54,147.458h-5.875c0,0-33.104-77.432-33.628-84.829
		c-0.605-8.501,6.549-19.669,3.491-39.573c-1.454-9.433-16.494-59.13-22.993-66.187c-2.579-2.795-8.873-2.584-9.519,3.022
		c-2.943,25.691-16.919,51.324-17.44,67.896c-0.356,11.354,7.283,20.435,6.184,33.58c-2.943,35.107-16.52,74.747-10.922,87.886
		H205.489z"/>
	<path clip-path="url(#SVGID_2_)" fill="#D9D8A3" d="M200.219,500.061c-0.519-3.258,2.948-6.521,7.654-6.521
		c4.708,0,6.47,6.521,6.47,6.521H200.219z"/>
	<path clip-path="url(#SVGID_2_)" fill="#D9D8A3" d="M293.593,500.061c-0.518-3.258,0.377-6.189,5.032-7.248
		c4.777-1.088,18.871,7.248,18.871,7.248H293.593z"/>
	<path clip-path="url(#SVGID_2_)" fill="#FEC843" d="M269.566,114.413c-8.916-4.119-73.404,0.685-86.438,13.718
		c-13.035,13.036,20.503,79.738,18.445,97.574c-2.059,17.839-4.813,40.225,1.363,45.712c6.174,5.486,71.98,3.753,74.369-5.118
		C288.281,196.325,278.485,118.527,269.566,114.413"/>
	<path clip-path="url(#SVGID_2_)" fill="#FCEF7E" d="M207.131,118.353c-0.671,4.502,9.453,14.905,23.182,13.114
		c12.706-1.656,17.046-7.591,15.267-18.079C231.676,113.214,207.131,118.353,207.131,118.353"/>
	<path clip-path="url(#SVGID_2_)" fill="#FEC843" d="M184.45,127.764c-13.264,3.574-53.603,76.091-39.054,92.066
		c6.289,6.902,56.085-42.655,58.556-64.631C206.422,133.217,187.056,127.062,184.45,127.764"/>
	<path clip-path="url(#SVGID_2_)" fill="#FCEF7E" d="M300.332,188.861c-12.282-12.962-9.384-30.189,5.799-42.64
		c0,0,25.585,24.732,5.969,43.493l-3.24-8.187L300.332,188.861z"/>
	<path clip-path="url(#SVGID_2_)" fill="#FCEF7E" d="M141.188,196.645c19.184-6.765,32.662,4.178,34.224,25.65
		c0,0-37.95,15.139-42.339-13.842l9.292,0.411L141.188,196.645z"/>
	<path clip-path="url(#SVGID_2_)" fill="#FDB27B" d="M312.826,103.151c-0.897,10.491-22.95,63.333-15.188,71.352
		c7.355,7.598,20.209,5.906,24.133-2.169c6.263-12.905-4.616-51.594-5.403-70.218C316.286,100.248,312.826,103.151,312.826,103.151"
		/>
	<path clip-path="url(#SVGID_2_)" fill="#FDC181" d="M199.751,262.276c-6.827-9.396-27.117-60.934-38.267-61.485
		c-10.561-0.522-18.79,9.495-16.137,18.069c4.244,13.704,38.625,34.52,51.919,47.581
		C198.607,267.75,199.751,262.276,199.751,262.276"/>
	<path clip-path="url(#SVGID_2_)" fill="#FDC181" d="M209.656,117.841c-0.58,4.499,9.962,11.795,19.89,10.641
		c10.999-1.279,14.754-4.691,13.218-15.183c-3.666-3.324-17.364-2.129-23.708-1.021
		C211.818,113.539,209.656,117.841,209.656,117.841"/>
	<path clip-path="url(#SVGID_2_)" fill="#FCEF7E" d="M243.616,159.439l-21.49,37.098l25.328,24.817l20.212-28.142L243.616,159.439z
		 M247.412,215.417l-19.842-19.441l16.836-29.064l18.839,26.457L247.412,215.417z"/>
	<path clip-path="url(#SVGID_2_)" fill="#783919" d="M241.785,36.701c0,0,19.399,8.219,3.63-26.015
		c-16.841-36.556-79.998,30.772-50.984,51.071L241.785,36.701z"/>
	<path clip-path="url(#SVGID_2_)" fill="#FDC181" d="M205.979,69.178c0,0,5.011,23.32,10.513,26.008
		c5.503,2.697,19.318,8.155,34.828,7.745c0,0,5.933-27.088,1.693-36.439c-5.71-12.587,0.217-13.895-2.264-21.409
		c-0.572-1.726-9.688-22.175-17.382-21.307C217.005,25.633,194.456,41.924,205.979,69.178"/>
	<path clip-path="url(#SVGID_2_)" fill="#FDC181" d="M195.418,73.791c-2.893-6.875,8.694-11.488,12.378-5.412
		c3.675,6.074,8.056,14.967,4.191,14.967C208.122,83.339,198.607,81.373,195.418,73.791"/>
	<path clip-path="url(#SVGID_2_)" fill="#FDB27B" d="M311.78,108.034c6.92-9,17.857-2.841,15.776-9.925
		c-1.221-4.358-7.856-10.24-14.63,2.482L311.78,108.034z"/>
	<path clip-path="url(#SVGID_2_)" fill="#FDB27B" d="M317.485,95.373c1.797,7.79,8.752,6.714,10.784,5.679
		c2.229-1.134,2.052-7.227,0.424-9.283C327.084,89.718,316.8,92.405,317.485,95.373"/>
	<path clip-path="url(#SVGID_2_)" fill="#FDB27B" d="M329.022,92.522c2.586-1.344,3.587-2.893,3.093-3.845
		c-0.49-0.947-1.916-0.048-4.51,1.284c-2.597,1.343-6.276,2.117-5.784,3.071C322.311,93.976,326.427,93.855,329.022,92.522"/>
	<path clip-path="url(#SVGID_2_)" fill="#FDB27B" d="M329.011,96.933c2.912-0.581,3.795-2.684,3.45-3.689
		c-0.349-0.998-2.79,0.402-5.705,0.983c-2.914,0.57-4.743,1.169-4.39,2.174C322.711,97.397,326.097,97.508,329.011,96.933"/>
	<path clip-path="url(#SVGID_2_)" fill="#FDB27B" d="M327.237,101.68c2.902-0.622,4.281-1.87,3.935-2.877
		c-0.354-1.002-2.127-0.093-5.023,0.526c-2.897,0.623-4.909,1.111-4.564,2.113C321.936,102.453,324.339,102.299,327.237,101.68"/>
	<path clip-path="url(#SVGID_2_)" fill="#FDB27B" d="M328.922,100.214c-1.333-0.092-2.491-0.471-2.594-1.439
		c-0.103-0.975,0.887-1.681,2.227-1.588c1.336,0.092,2.506,0.955,2.61,1.921C331.273,100.08,330.262,100.306,328.922,100.214"/>
	<path clip-path="url(#SVGID_2_)" fill="#FDB27B" d="M335.89,88.087c1.946-1.375,3.343-2.71,2.588-3.294
		c-0.762-0.586-2.955,0.052-4.901,1.428c-1.939,1.377-2.9,2.964-2.146,3.546C332.187,90.355,333.947,89.461,335.89,88.087"/>
	<path clip-path="url(#SVGID_2_)" fill="#FDB27B" d="M329.516,93.396c-1.418-0.956-2.53-2.017-2.301-2.864
		c0.229-0.847,1.563-0.759,2.978,0.193c1.416,0.951,2.374,2.41,2.145,3.255C332.107,94.828,330.931,94.351,329.516,93.396"/>
	<path clip-path="url(#SVGID_2_)" fill="#FDB27B" d="M318.012,96.904c1.213-3.848,0.749-7.461-0.621-7.795
		c-0.474-0.11-5.639,10.098-4.067,11.992C314.439,102.439,316.8,100.749,318.012,96.904"/>
	<path clip-path="url(#SVGID_2_)" fill="#FDB27B" d="M319.227,89.161c0.067-2.352-0.909-5.013-1.819-5.315
		c-0.914-0.301-0.438,2.118-0.505,4.468c-0.074,2.351-1.4,5.167,0.056,6.029C317.843,94.873,319.15,91.522,319.227,89.161"/>
	<path clip-path="url(#SVGID_2_)" fill="#F79A60" d="M207.564,274.856c0.062-1.254,0.482-2.281-0.104-2.298
		c-0.596-0.015-1.679,0.961-1.739,2.209c-0.047,1.25,0.477,2.367,1.066,2.387C207.38,277.17,207.515,276.104,207.564,274.856"/>
	<path clip-path="url(#SVGID_2_)" fill="#F79A60" d="M200.585,274.39c0.636-1.408,1.398-2.516,2.136-2.267
		c0.741,0.251,0.822,1.592,0.184,2.998c-0.633,1.411-1.752,2.358-2.492,2.104C199.682,276.981,199.947,275.8,200.585,274.39"/>
	<path clip-path="url(#SVGID_2_)" fill="#F79A60" d="M204.979,274.636c0.019-1.581,0.51-2.884-0.233-2.907
		c-0.751-0.023-2.077,1.203-2.086,2.783c-0.017,1.585,0.964,3.003,1.712,3.032C205.114,277.571,204.968,276.219,204.979,274.636"/>
	<path clip-path="url(#SVGID_2_)" fill="#FDC181" d="M193.974,260.722c2.557,3.3,2.184,13.405,5.865,12.479
		c3.3-0.823,7.371-6.73-3.039-14.259L193.974,260.722z"/>
	<path clip-path="url(#SVGID_2_)" fill="#FDC181" d="M201.201,263.735c-5.918,1.116-4.552,7.888-3.594,9.921
		c1.055,2.232,5.777,2.551,7.253,1.152C206.336,273.414,203.467,263.314,201.201,263.735"/>
	<path clip-path="url(#SVGID_2_)" fill="#FDC181" d="M203.885,273.809c1.241,2.602,2.527,3.687,3.226,3.288
		c0.702-0.399-0.107-1.846-1.342-4.44c-1.241-2.604-2.121-6.207-2.826-5.806C202.242,267.243,202.655,271.207,203.885,273.809"/>
	<path clip-path="url(#SVGID_2_)" fill="#FDC181" d="M201.226,274.217c0.839,2.629,2.611,3.559,3.354,3.316
		c0.742-0.238-0.681-2.506-1.517-5.133c-0.833-2.636-1.537-4.297-2.284-4.055C200.035,268.586,200.396,271.59,201.226,274.217"/>
	<path clip-path="url(#SVGID_2_)" fill="#FDC181" d="M197.629,273.756c1.029,3.078,2.292,3.957,3.025,3.685
		c0.738-0.271-0.313-2.2-1.344-5.284c-1.021-3.084-1.785-5.225-2.518-4.957C196.057,267.466,196.606,270.679,197.629,273.756"/>
	<path clip-path="url(#SVGID_2_)" fill="#FDC181" d="M202.995,269.67c2.8,2.021,4.956,1.479,5.329,0.253
		c0.132-0.426-5.809-7.116-7.388-6.039C199.82,264.644,200.183,267.659,202.995,269.67"/>
	<path clip-path="url(#SVGID_2_)" fill="#FDC181" d="M209.216,271.803c0.749,0.856,1.928,1.15,1.204,1.903
		c-0.567,0.593-1.895,0.126-2.624-0.742c-1.357-1.606-4.014-4.03-0.106-3.872C208.396,269.127,208.401,270.887,209.216,271.803"/>
	<path clip-path="url(#SVGID_2_)" fill="#5D2A13" d="M90.665,66.815c-0.123-16.409,16.66-23.273,41.426-11.216
		c30.108,14.648,33.157,48.179,35.788,88.929c2.875,44.499-30.652,42.998-30.652,42.998c8.313,25.872-28.486,0.07-28.486,0.07
		c5.758,10.188-8.961,9.346-20.541-1.531l-13.171-74.67C73.289,62.76,90.665,66.815,90.665,66.815"/>
	<path clip-path="url(#SVGID_2_)" fill="#A35342" d="M29.116,386.021c6.329,9.915,35.766,21.58,48.666,19.814L66.84,372.714
		L29.116,386.021z"/>
	<path clip-path="url(#SVGID_2_)" fill="#A35342" d="M91.217,396.108c6.325,9.917,29.846,26.19,42.745,24.426l-10.944-33.126
		L91.217,396.108z"/>
	<polygon clip-path="url(#SVGID_2_)" fill="#FDC181" points="100.524,122.666 116.013,120.865 113.5,147.776 93.905,144.83 	"/>
	<path clip-path="url(#SVGID_2_)" fill="#FDC181" d="M89.045,144.12c3.797,1.67,2.197,12.03,1.091,13.843
		c-1.107,1.806-57.866-25.956-57.843-31.103C32.324,119.695,72.87,136.998,89.045,144.12"/>
	<path clip-path="url(#SVGID_2_)" fill="#FDC181" d="M68.421,251.996c1.254-2.249,46,0.814,46,0.814s16.766,28.487,18.32,39.896
		c2.444,17.911-14.248,79.788-12.62,92.005c1.63,12.208,6.921,21.981,6.107,37.045c-1.152,21.273-8.956,37.449-21.983,72.458h-4.478
		c17.097-83.044-1.221-194.585-10.178-197.029c-8.954-2.444-27.68,72.866-30.125,85.081c-2.441,12.21,3.257,24.834,0.816,39.49
		c-2.444,14.653-31.751,72.458-31.751,72.458H24.86C47.66,422.57,44.811,294.335,68.421,251.996"/>
	<path clip-path="url(#SVGID_2_)" fill="#E6A891" d="M133.962,420.534c-9.963-15.162-25.315-23.328-42.745-24.426
		c0,0,1.221-85.082-1.22-85.082c-2.442,0-12.213,94.444-12.213,94.444s-24.66-22.961-48.852-19.133
		c0,0,29.719-118.871,39.897-141.67c0,0,44.326,0.118,47.175,2.154c2.85,2.032,14.505,21.546,19.573,46.061
		C141.925,323.605,135.185,413.611,133.962,420.534"/>
	<path clip-path="url(#SVGID_2_)" fill="#D47C66" d="M32.102,386.002c-1.055,0.07-2.112,0.169-3.169,0.336
		c0,0,0.038-0.147,0.103-0.415C30.063,385.907,31.084,385.939,32.102,386.002"/>
	<path clip-path="url(#SVGID_2_)" fill="#492727" d="M124.162,260.352c-3.257-10.991-10.553-34.816-9.332-47.436
		c1.222-12.618,16.69-58.214,7.327-64.322c-9.364-6.106-36.231-9.763-38.266-6.917c-2.034,2.848-10.178,28.497-10.584,43.558
		c0,0,17.911,5.292-8.143,66.354C78.464,263.259,113.313,265.51,124.162,260.352"/>
	<path clip-path="url(#SVGID_2_)" fill="#773838" d="M119.426,147.182c-0.547,1.357-27.272,18.782-27.272,18.782l-1.797-25.313
		C99.657,141.177,110.813,142.415,119.426,147.182"/>
	<path clip-path="url(#SVGID_2_)" fill="#372020" d="M115.114,262.535c-2.832-20.071-8.279-57.431-21.165-57.706
		c-6.199-0.131-12.77,8.156-18.403,18.082c8.687-30.928-0.189-36.74-1.941-37.554c8.451,1.588,23.956,4.407,31.123,5.102
		c7.894,0.762,15.39-28.249,18.311-41.077c7.415,8.459-7.03,51.352-8.209,63.533c-1.221,12.62,6.075,36.446,9.332,47.437
		C121.99,261.388,118.845,262.116,115.114,262.535"/>
	<path clip-path="url(#SVGID_2_)" fill="#FDC181" d="M38.583,124.081c0.182,4.094-2.041,9.455-6.316,3.568
		c-3.341-4.606-20.287-50.245-16.777-51.243C17.143,75.935,38.272,117.219,38.583,124.081"/>
	<path clip-path="url(#SVGID_2_)" fill="#FDC181" d="M158.846,195.77c3.613-2.118,9.354-2.081,5.796,5.522
		c-2.783,5.95-38.111,47.97-40.446,44.441C123.097,244.069,152.793,199.318,158.846,195.77"/>
	<path clip-path="url(#SVGID_2_)" fill="#FDC181" d="M121.568,167.131c-2.974-2.701-0.453-16.253,1.125-17.666
		c1.584-1.411,42.89,41.614,42.89,46.764C165.583,203.01,134.215,178.621,121.568,167.131"/>
	<path clip-path="url(#SVGID_2_)" fill="#FDC181" d="M116.732,145.75c-0.547,1.354-23.272,16.13-23.272,16.13l-0.614-21.018
		C98.358,140.321,108.119,140.982,116.732,145.75"/>
	<path clip-path="url(#SVGID_2_)" fill="#D89155" d="M29.441,498.129H6.091c0,0,19.597-8.656,21.557-8.002
		C29.607,490.784,29.441,498.129,29.441,498.129"/>
	<path clip-path="url(#SVGID_2_)" fill="#D89155" d="M108.808,498.129h-16c0,0,8.819-9.146,10.778-8.487
		C105.545,490.291,108.808,498.129,108.808,498.129"/>
	<path clip-path="url(#SVGID_2_)" fill="#FDC181" d="M116.797,122.258c-6.421,8.635-22.941,12.67-36.544,8.338
		c0,0-8.035-13.888-2.03-31.07c3.37-9.64,4.941-6.744,4.733-8.775c-0.195-2.034,3.644-22.875,10.466-24.936
		c6.824-2.056,9.212-3.425,19.99,16.092C125.836,104.399,119.213,119.033,116.797,122.258"/>
	<path clip-path="url(#SVGID_2_)" fill="#FDC181" d="M130.375,113.29c2.038-5.812-6.386-11.082-9.565-5.738
		c-3.438,5.798-7.994,15.156-4.173,14.97C120.185,122.336,127.982,120.137,130.375,113.29"/>
	<path clip-path="url(#SVGID_2_)" fill="#5D2A13" d="M123.903,88.828c-4.709,5.455-12.271,19.668-9.096,32.845
		c0,0,4.425-16.586,12.309-15.498L123.903,88.828z"/>
	<path clip-path="url(#SVGID_2_)" fill="#FCBFB0" d="M77.784,405.471l4.733-13.327c0,0-24.74-19.841-54.136-18.127l0.654,11.906
		C29.035,385.923,55.659,384.994,77.784,405.471"/>
	<path clip-path="url(#SVGID_2_)" fill="#FCBFB0" d="M133.881,420.66l4.734-13.327c0,0-18.618-24.741-48.014-23.025l0.655,11.906
		C91.256,396.214,119.019,399.494,133.881,420.66"/>
	<path clip-path="url(#SVGID_2_)" fill="#FDC181" d="M20.788,90.473C15.766,82.02,5.724,86.187,8.243,80.312
		c1.501-3.624,7.814-7.997,12.328,3.641L20.788,90.473z"/>
	<path clip-path="url(#SVGID_2_)" fill="#FDC181" d="M17.188,78.997c-2.349,6.511-8.221,4.865-9.86,3.768
		c-1.8-1.205-1.018-6.427,0.588-8.027C9.516,73.141,18.082,76.513,17.188,78.997"/>
	<path clip-path="url(#SVGID_2_)" fill="#FDC181" d="M7.56,75.353c-2.089-1.421-2.787-2.858-2.266-3.624s1.654,0.153,3.745,1.569
		c2.096,1.421,5.182,2.466,4.661,3.236C13.18,77.294,9.655,76.769,7.56,75.353"/>
	<path clip-path="url(#SVGID_2_)" fill="#FDC181" d="M7.112,79.146c-2.441-0.799-2.987-2.699-2.585-3.527
		c0.403-0.822,2.359,0.634,4.807,1.433c2.445,0.793,3.958,1.495,3.551,2.323C12.484,80.197,9.56,79.943,7.112,79.146"/>
	<path clip-path="url(#SVGID_2_)" fill="#FDC181" d="M8.151,83.412c-2.433-0.833-3.49-2.049-3.088-2.879
		c0.406-0.827,1.837,0.139,4.265,0.971c2.43,0.834,4.11,1.462,3.707,2.288C12.63,84.624,10.577,84.244,8.151,83.412"/>
	<path clip-path="url(#SVGID_2_)" fill="#FDC181" d="M6.854,81.979c1.156,0.056,2.188-0.147,2.378-0.971
		c0.19-0.826-0.588-1.536-1.753-1.596c-1.155-0.057-2.255,0.564-2.443,1.384C4.847,81.621,5.691,81.921,6.854,81.979"/>
	<path clip-path="url(#SVGID_2_)" fill="#FDC181" d="M2.271,70.92c-1.613-1.286-2.751-2.511-2.07-2.979
		c0.688-0.466,2.55,0.195,4.163,1.485c1.611,1.286,2.36,2.706,1.68,3.173C5.358,73.068,3.883,72.208,2.271,70.92"/>
	<path clip-path="url(#SVGID_2_)" fill="#FDC181" d="M7.045,76.053c1.318-0.675,2.382-1.47,2.272-2.224
		c-0.111-0.753-1.269-0.817-2.58-0.142c-1.317,0.671-2.291,1.829-2.179,2.577C4.667,77.019,5.729,76.729,7.045,76.053"/>
	<path clip-path="url(#SVGID_2_)" fill="#FDC181" d="M16.577,80.259c-0.648-3.437,0.125-6.496,1.338-6.64
		c0.419-0.048,3.808,9.264,2.261,10.731C19.079,85.384,17.223,83.689,16.577,80.259"/>
	<path clip-path="url(#SVGID_2_)" fill="#FDC181" d="M14.032,73.973c-1.572-0.898-2.872-2.587-2.657-3.289
		c0.219-0.706,1.587,0.565,3.157,1.461c1.575,0.894,4.024,1.172,3.926,2.447C18.4,75.371,15.612,74.871,14.032,73.973"/>
	<path clip-path="url(#SVGID_2_)" fill="#F79A60" d="M118.514,252.908c-0.028-1.034-0.361-1.887,0.126-1.892
		c0.487-0.004,1.366,0.818,1.391,1.849c0.022,1.029-0.428,1.942-0.915,1.946C118.629,254.815,118.536,253.936,118.514,252.908"/>
	<path clip-path="url(#SVGID_2_)" fill="#F79A60" d="M124.268,252.636c-0.501-1.169-1.109-2.094-1.723-1.902
		c-0.612,0.196-0.7,1.299-0.199,2.467c0.5,1.174,1.404,1.969,2.018,1.772C124.972,254.783,124.77,253.808,124.268,252.636"/>
	<path clip-path="url(#SVGID_2_)" fill="#F79A60" d="M120.645,252.767c0.013-1.304-0.371-2.38,0.242-2.388
		c0.614-0.009,1.687,1.022,1.671,2.323c-0.013,1.307-0.843,2.457-1.458,2.471C120.488,255.181,120.63,254.071,120.645,252.767"/>
	<path clip-path="url(#SVGID_2_)" fill="#FDC181" d="M129.929,241.49c-2.155,2.674-2.011,11.001-5.028,10.179
		c-2.705-0.729-5.96-5.661,2.734-11.689L129.929,241.49z"/>
	<path clip-path="url(#SVGID_2_)" fill="#FDC181" d="M123.932,243.856c4.855,1.012,3.621,6.566,2.799,8.224
		c-0.903,1.818-4.799,2.007-5.99,0.831C119.548,251.74,122.074,243.472,123.932,243.856"/>
	<path clip-path="url(#SVGID_2_)" fill="#FDC181" d="M121.561,252.103c-1.064,2.122-2.14,2.994-2.709,2.655
		c-0.571-0.34,0.117-1.517,1.177-3.634c1.063-2.121,1.847-5.073,2.42-4.733C123.02,246.727,122.618,249.983,121.561,252.103"/>
	<path clip-path="url(#SVGID_2_)" fill="#FDC181" d="M123.744,252.483c-0.733,2.15-2.206,2.887-2.815,2.676
		c-0.607-0.208,0.6-2.054,1.332-4.2c0.727-2.158,1.334-3.514,1.943-3.301C124.814,247.868,124.469,250.335,123.744,252.483"/>
	<path clip-path="url(#SVGID_2_)" fill="#FDC181" d="M126.71,252.163c-0.896,2.517-1.95,3.219-2.549,2.984
		c-0.602-0.234,0.292-1.81,1.192-4.33c0.89-2.523,1.553-4.274,2.152-4.039C128.106,247.009,127.602,249.645,126.71,252.163"/>
	<path clip-path="url(#SVGID_2_)" fill="#FDC181" d="M122.361,248.714c-2.342,1.617-4.104,1.138-4.393,0.117
		c-0.1-0.35,4.896-5.763,6.179-4.849C125.054,244.626,124.708,247.103,122.361,248.714"/>
	<path clip-path="url(#SVGID_2_)" fill="#FDC181" d="M117.206,250.367c-0.633,0.692-1.605,0.916-1.025,1.546
		c0.458,0.498,1.56,0.136,2.177-0.568c1.139-1.301,3.366-3.251,0.146-3.185C117.923,248.176,117.887,249.627,117.206,250.367"/>
</g>
</svg>
