<?xml version="1.0" encoding="utf-8"?>
<!-- Generator: Adobe Illustrator 16.0.3, SVG Export Plug-In . SVG Version: 6.00 Build 0)  -->
<!DOCTYPE svg PUBLIC "-//W3C//DTD SVG 1.1//EN" "http://www.w3.org/Graphics/SVG/1.1/DTD/svg11.dtd">
<svg version="1.1" id="Capa_1" xmlns="http://www.w3.org/2000/svg" xmlns:xlink="http://www.w3.org/1999/xlink" x="0px" y="0px"
	 width="278.045px" height="437.94px" viewBox="0 0 278.045 437.94" enable-background="new 0 0 278.045 437.94"
	 xml:space="preserve">
<g>
	<defs>
		<rect id="SVGID_1_" x="-257.576" y="-86.004" width="792" height="612"/>
	</defs>
	<clipPath id="SVGID_2_">
		<use xlink:href="#SVGID_1_"  overflow="visible"/>
	</clipPath>
	<path clip-path="url(#SVGID_2_)" fill="#010103" d="M217.771,122.889c-2.599,0.589-5.315,1.09-8.216,1.432v12.607h3.058
		c-0.073-0.441-0.134-0.7-0.134-0.7s2.732,0.219,6.51,0.551C217.371,130.625,217.602,125.001,217.771,122.889"/>
	<path clip-path="url(#SVGID_2_)" fill="#010103" d="M231.097,120.569c-3.731,2.306-8.1,4.124-13.187,5.348
		C219.307,126.792,223.173,127.743,231.097,120.569"/>
	<path clip-path="url(#SVGID_2_)" fill="#E4A97F" d="M162.8,109.348c0.01,0.022,0.024,0.048,0.036,0.065
		c5.28,7.442,12.685,13.306,23.057,16.231C175.491,122.708,168.077,116.821,162.8,109.348"/>
	<path clip-path="url(#SVGID_2_)" fill="#010103" d="M202.063,64.977c-0.077,0.004-0.157,0.006-0.233,0.006
		c0.076,0.006,0.159,0.008,0.233,0.012V64.977z"/>
	<path clip-path="url(#SVGID_2_)" fill="#010103" d="M202.063,14.025c0,0-0.084,0.005-0.233,0.017
		c0.063,0.003,0.142,0.005,0.233,0.014V14.025z"/>
	<path clip-path="url(#SVGID_2_)" fill="#DD9964" d="M201.759,127.69V86.092h0.139v-4.543h-0.139V64.988
		c-0.054,0.002-0.116,0.002-0.171,0.006v-0.017c-10.824-0.45-38.764,1.909-48.209,2.75c-0.417,19.467,3.546,32.353,9.421,41.62
		c5.277,7.473,12.691,13.362,23.093,16.297c0.179-0.157,0.263-0.271,0.263-0.271s0.018,0.131,0.039,0.365
		c1.035,0.284,2.108,0.527,3.202,0.752c0.972,0.205,1.986,0.363,3.009,0.514c0.101,0.018,0.197,0.037,0.305,0.052
		c-0.021-0.002-0.04-0.002-0.06-0.01v9.908h-1.729c-0.023,0.124-0.042,0.26-0.068,0.42l1.074-0.311
		c-2.102,5.921,0.967,13.868,9.216,13.868c0.031,0,0.065-0.005,0.097-0.005v-0.006c0.021,0,0.033,0.002,0.055,0.006
		c0.018-0.004,0.034-0.006,0.051-0.006v0.006c0.032,0,0.065,0.005,0.103,0.005c0.191,0,0.364-0.028,0.553-0.033v-13.944h8.829
		v-9.773C207.998,127.51,204.98,127.69,201.759,127.69 M201.751,127.69c-1.233,0-2.417-0.042-3.587-0.108
		c1.172,0.063,2.358,0.108,3.592,0.108H201.751z"/>
	<path clip-path="url(#SVGID_2_)" fill="#E4A97F" d="M250.044,67.704c-9.661-0.856-37.241-3.174-47.981-2.727v0.018
		c-0.074-0.004-0.157-0.006-0.233-0.012c-0.022,0.006-0.047,0.006-0.07,0.006V81.55h0.139v4.542h-0.139v41.598
		c3.222,0,6.239-0.179,9.071-0.508c2.249-0.266,4.353-0.653,6.37-1.114c0.035-0.435,0.067-0.695,0.067-0.695
		s0.199,0.271,0.643,0.544c5.087-1.224,9.455-3.042,13.187-5.348c0.257-0.231,0.517-0.465,0.78-0.714
		C242.104,110.231,250.651,95.849,250.044,67.704"/>
	<path clip-path="url(#SVGID_2_)" fill="#010103" d="M174.32,150.716c6.551-3.092,9.589-8.671,10.949-13.814
		c3.287-0.288,5.759-0.489,5.759-0.489s-0.049,0.201-0.106,0.541h1.729v-9.907c-0.086-0.011-0.166-0.025-0.245-0.042
		c-1.022-0.151-2.037-0.31-3.009-0.515c-1.096-0.216-2.166-0.467-3.199-0.752h-0.003c-0.021-0.233-0.039-0.365-0.039-0.365
		s-0.084,0.114-0.263,0.271c-10.372-2.926-17.776-8.789-23.057-16.231c-0.012-0.017-0.026-0.043-0.037-0.065
		c-5.875-9.268-9.837-22.153-9.42-41.62c9.445-0.841,37.385-3.2,48.209-2.751v-50.92v-0.031c0,0,0.033,0,0.076,0.005V4.535h0.048
		c-49.609-3.293-66.843,43.261-62.948,63.055c3.891,19.803,9.089,24.024-3.249,36.359c-12.162,12.166-19.88,41.04,16.325,48.071
		c0.51,0.096,0.997,0.208,1.529,0.301C162.762,153.924,169.497,152.996,174.32,150.716"/>
	<path clip-path="url(#SVGID_2_)" fill="#1A1719" d="M201.664,14.03c-0.043-0.005-0.076-0.005-0.076-0.005v0.031v50.921v0.017
		c0.055-0.004,0.117-0.004,0.171-0.006c0.023,0,0.049,0,0.07-0.005c0.076,0,0.156-0.002,0.233-0.006
		c10.74-0.447,38.32,1.871,47.981,2.727c0.607,28.145-7.939,42.527-18.167,52.151c-0.264,0.249-0.523,0.483-0.78,0.713
		c-7.924,7.175-11.79,6.223-13.187,5.349c-0.443-0.273-0.643-0.544-0.643-0.544s-0.032,0.259-0.067,0.695
		c-0.133,1.639-0.307,6,0.946,10.776c1.395,5.326,4.594,11.129,11.627,14.161c4.699,2.024,11.116,2.811,19.868,1.374
		c0.146-0.023,0.274-0.036,0.413-0.058c37.983-6.495,30.189-36.036,17.854-48.373c-12.338-12.334-7.14-16.556-3.245-36.359
		c3.895-19.793-13.339-66.347-62.951-63.055h-0.048V14.03z M202.063,14.025v0.031c-0.092-0.009-0.171-0.011-0.233-0.014
		C201.979,14.03,202.063,14.025,202.063,14.025"/>
	<path clip-path="url(#SVGID_2_)" fill="#E6AF7E" d="M167.764,409.899l-14.73,7.665l0.009-0.004
		c-6.52,6.445,4.861,6.835,15.587,3.737c7.475-2.158,14.628-6,18.273-8.135c1.589-0.928,2.526-1.536,2.526-1.536v-94.065h-21.665
		V409.899z"/>
	<path clip-path="url(#SVGID_2_)" fill="#E6AF7E" d="M152.709,436.575l2.242-0.623c-1.594,0.359-3.247,0.72-4.994,1.08
		C150.854,436.988,151.778,436.832,152.709,436.575"/>
	<path clip-path="url(#SVGID_2_)" fill="#E6AF7E" d="M189.152,423.302c-0.058,0.203-0.12,0.432-0.194,0.692
		c0.211-0.461,0.345-0.937,0.408-1.432v0.002C189.311,422.819,189.237,423.069,189.152,423.302"/>
	<polygon clip-path="url(#SVGID_2_)" fill="#E6AF7E" points="178.586,429.365 178.609,429.357 178.595,429.363 	"/>
	<path clip-path="url(#SVGID_2_)" fill="#E6AF7E" d="M148.02,420.174c-0.104,0.067-0.199,0.135-0.302,0.203
		c0.422-0.243,0.832-0.468,1.228-0.687L148.02,420.174z"/>
	<path clip-path="url(#SVGID_2_)" fill="#0C0C0E" d="M180.564,428.855c1.284,3.173,1.167,7.005,1.167,7.005h5.106
		c-0.475-2.06,1.294-8.875,2.12-11.866c0.074-0.261,0.137-0.489,0.194-0.692C187.93,426.668,183.563,428.071,180.564,428.855"/>
	<polygon clip-path="url(#SVGID_2_)" fill="#0C0C0E" points="189.366,422.563 189.368,422.56 189.366,422.564 	"/>
	<path clip-path="url(#SVGID_2_)" fill="#D7D3CC" d="M168.629,421.298c-10.726,3.098-22.106,2.708-15.587-3.737l-0.009,0.004
		c-0.04,0.019-1.792,0.869-4.088,2.126c-0.396,0.219-0.806,0.443-1.228,0.687c-3.077,1.744-6.694,4.021-8.543,6.018
		c-3.587,3.868-5.504,13.976,10.782,10.638c1.747-0.36,3.4-0.721,4.994-1.08c13.254-2.997,21.246-5.924,23.635-6.587l0.009-0.002
		l0.015-0.006c0.512-0.144,1.186-0.305,1.955-0.502c2.999-0.784,7.365-2.188,8.588-5.554c0.085-0.232,0.158-0.482,0.214-0.737
		v-0.002c1.002-4.851,0.063-10.936,0.063-10.936s-0.938,0.608-2.526,1.536C183.257,415.298,176.104,419.14,168.629,421.298"/>
	<path clip-path="url(#SVGID_2_)" fill="#EDC49B" d="M214.021,411.877c0.026,0.014,0.937,0.608,2.478,1.508
		c3.644,2.133,10.812,5.992,18.311,8.158c10.692,3.085,22.026,2.714,15.654-3.672l-14.78-7.648v-92.661h-21.662V411.877z"/>
	<path clip-path="url(#SVGID_2_)" fill="#EDC49B" d="M255.104,420.271l-0.031-0.016c0.014,0.01,0.031,0.021,0.049,0.026
		C255.113,420.279,255.106,420.277,255.104,420.271"/>
	<path clip-path="url(#SVGID_2_)" fill="#EDC49B" d="M214.127,422.983c0.064,0.462,0.187,0.899,0.372,1.329
		c-0.076-0.293-0.148-0.545-0.209-0.762C214.223,423.365,214.173,423.177,214.127,422.983"/>
	<path clip-path="url(#SVGID_2_)" fill="#0C0C0E" d="M214.29,423.551c0.061,0.217,0.133,0.469,0.209,0.762
		c0.84,3.028,2.576,9.75,2.11,11.794h5.1c0,0-0.116-3.837,1.171-7.006C219.876,428.313,215.516,426.912,214.29,423.551"/>
	<path clip-path="url(#SVGID_2_)" fill="#E8E6E4" d="M234.809,421.543c-7.499-2.166-14.667-6.025-18.311-8.158
		c-1.54-0.899-2.451-1.494-2.478-1.508l-0.008-0.008c0,0-0.939,6.09,0.063,10.935c0.011,0.058,0.034,0.12,0.052,0.18
		c0.046,0.193,0.096,0.382,0.163,0.567c1.226,3.361,5.586,4.763,8.59,5.55c0.769,0.203,1.452,0.362,1.967,0.507
		c2.655,0.736,12.355,4.326,28.637,7.665c16.286,3.346,14.368-6.764,10.781-10.634c-1.969-2.127-5.95-4.577-9.144-6.356
		c-0.017-0.005-0.034-0.017-0.048-0.026c-2.603-1.448-4.675-2.45-4.675-2.45c0.023,0.023,0.04,0.043,0.064,0.065
		C256.835,424.257,245.501,424.628,234.809,421.543"/>
	<path clip-path="url(#SVGID_2_)" fill="#E4A97F" d="M244.9,149.495l-0.026,0.048c0.134,0.103,0.271,0.202,0.405,0.306
		C245.036,149.614,244.9,149.495,244.9,149.495"/>
	<path clip-path="url(#SVGID_2_)" fill="#DD9964" d="M134.822,260.498h1.591h2.648h1.594h2.663h1.598h0.151
		c0.044,0,0.078,0.016,0.121,0.016c0.783-14.536,3.146-43.313,10.014-65.876h-17.665c-3.655,16.222-6.255,37.724-6.006,65.861h1.461
		H134.822z"/>
	<path clip-path="url(#SVGID_2_)" fill="#D7D3CC" d="M200.748,194.637H162.54c-0.105,4.598-0.262,9.846-0.475,15.867h39.556v-15.867
		H200.748z"/>
	<path clip-path="url(#SVGID_2_)" fill="#010103" d="M201.621,219.745v-9.241h-39.556h-0.706c-0.114,2.946-0.26,6.029-0.43,9.241
		h-0.137l-9.84,55.074c0.197,0.348,0.304,0.569,0.304,0.569l-0.006,0.003c0.054,0.105,0.111,0.212,0.157,0.325l1.486,3.966
		c0.488,1.386-0.234,2.912-1.622,3.406c-0.604,0.217-1.231,0.188-1.795-0.015l-6.16,34.488h24.446h21.665h12.192v-96.327V219.745z"
		/>
	<path clip-path="url(#SVGID_2_)" fill="#E8E6E4" d="M238.745,194.637h-12.674v15.867h12.643
		C238.614,204.612,238.635,199.345,238.745,194.637"/>
	<polygon clip-path="url(#SVGID_2_)" fill="#E8E6E4" points="201.722,194.637 201.621,194.637 201.621,210.504 216.023,210.504 
		216.023,194.637 	"/>
	<path clip-path="url(#SVGID_2_)" fill="#1D1A1B" d="M249.829,279.682l0.198-0.527l-10.612-59.41h-0.137
		c-0.174-3.212-0.315-6.295-0.428-9.241h-0.137h-12.643v5.328h-10.048v-5.328h-14.402v9.241v1.49v96.327h12.399h21.663h21.202
		l-6.239-34.938C249.809,281.927,249.441,280.768,249.829,279.682"/>
	<path clip-path="url(#SVGID_2_)" fill="#010103" d="M200.748,144.134v-10.33h-9.336H187.7v1.979v2.434
		C179.996,142.057,191.586,143.554,200.748,144.134"/>
	<path clip-path="url(#SVGID_2_)" fill="#010103" d="M162.54,194.637h38.208v-27.374v-11.485
		c-32.479,0.151-33.147-8.793-26.008-14.849c0.271-0.23,0.549-0.44,0.823-0.651c-26.76,5.859-28.233,16.891-31.651,27.309
		c-2.257,6.866-6.375,27.05-6.375,27.05h17.664H162.54z"/>
	<path clip-path="url(#SVGID_2_)" fill="#1D1A1B" d="M224.784,150.14L224.784,150.14c1.612,7.919,1.255,17.447,1.255,17.447h0.032
		v27.05h12.674h8.771h17.672c0,0-1.356-5.278-2.975-11.4c-1.495-5.666-3.215-12.057-4.305-15.65
		c-2.343-7.776-7.1-13.507-12.629-17.739c-0.135-0.104-0.271-0.202-0.405-0.305c-4.983-3.722-10.554-6.257-15.576-7.959
		C234.89,147.807,224.784,150.14,224.784,150.14"/>
	<path clip-path="url(#SVGID_2_)" fill="#1D1A1B" d="M201.722,194.637h14.302v-27.05c0.613-6.178,0.419-10.677-0.154-13.967
		c-2.844,0.849-6.228,1.326-14.147,2.066v0.089c-0.336,0.005-0.646,0-0.974,0.003v11.485v27.374h0.873H201.722z"/>
	<path clip-path="url(#SVGID_2_)" fill="#1D1A1B" d="M200.748,144.134c0.326,0.02,0.653,0.043,0.974,0.061v0.052
		c3.255,0.172,6.086,0.232,7.486,0.251c-1.028-0.474-0.979-1.61,6.011-4.355c0.921-0.361,1.754-0.482,2.53-0.441
		c-1.434-0.885-3.506-1.485-3.506-1.485v-2.434v-1.979h-0.651h-3.453h-9.391V144.134z"/>
	<path clip-path="url(#SVGID_2_)" fill="#D7D3CC" d="M200.748,155.777c0.326-0.002,0.638,0.002,0.974-0.002v-0.09
		c-0.32,0.029-0.637,0.061-0.974,0.09v-11.581c0.326,0.02,0.653,0.04,0.974,0.053v-0.053c-0.32-0.017-0.647-0.04-0.974-0.06
		c-9.162-0.58-20.752-2.077-13.048-5.917v-2.434c0,0-6.284,0.012-12.138,4.494c-0.273,0.211-0.551,0.422-0.822,0.652
		C167.601,146.985,168.269,155.929,200.748,155.777"/>
	<path clip-path="url(#SVGID_2_)" fill="#EDEDE8" d="M217.749,139.703c3.824,0.2,5.91,4.922,7.032,10.438h0.003
		c0,0,10.105-2.334,4.514-8.557c-0.511-0.566-1.135-1.161-1.928-1.792c-4.881-3.905-13.127-4.008-13.127-4.008v2.434
		C214.243,138.218,216.315,138.817,217.749,139.703"/>
	<path clip-path="url(#SVGID_2_)" fill="#EDEDE8" d="M210.95,144.829c0,0-1.094-0.031-1.742-0.33c-1.4-0.02-4.23-0.079-7.486-0.251
		c-0.32-0.014-0.647-0.033-0.974-0.053v11.58c0.337-0.029,0.653-0.06,0.974-0.089c7.92-0.74,11.304-1.217,14.147-2.065
		C214.485,145.701,210.881,144.829,210.95,144.829"/>
	<path clip-path="url(#SVGID_2_)" fill="#DD9964" d="M151.272,283.088c1.388-0.494,2.11-2.021,1.622-3.406l-1.486-3.966
		c-0.046-0.113-0.104-0.22-0.157-0.325l0.006-0.003c0,0-0.106-0.222-0.304-0.569c-0.604-1.063-2.155-3.44-4.816-5.26
		c-0.291,0.156-0.655,0.26-1.07,0.26h-0.151h-0.105h-1.492h-2.663h-1.594h-0.696h-1.952h-1.591h-1.83h-1.281
		c-1.629,1.634-2.639,3.904-2.639,6.42v7.725c0,4.983,3.955,9.017,8.833,9.017c4.875,0,8.83-4.033,8.83-9.017v-5.512l1.133,3.02
		c0.278,0.783,0.891,1.342,1.61,1.603C150.041,283.276,150.668,283.305,151.272,283.088"/>
	<path clip-path="url(#SVGID_2_)" fill="#E4A97F" d="M206.907,256.016c32.13-24.375,47.318-45.404,58.28-61.379h-17.416
		c-16.833,24.804-43.16,46.12-48.298,50.512c-4.618-1.972-9.178-0.852-9.178-0.852l0.003,0.008
		c-0.114,0.025-0.233,0.048-0.349,0.086l-3.486,1.155l-0.534,0.178c-1.089,0.38-1.761,1.393-1.776,2.483
		c-0.002,0.303,0.036,0.611,0.139,0.912c0.49,1.39,2.011,2.13,3.4,1.638l3.062-1.014l-4.29,3.46
		c-3.878,3.13-4.533,8.741-1.472,12.536c3.061,3.795,8.682,4.339,12.561,1.209l6.012-4.85
		C205.522,260.519,206.654,258.307,206.907,256.016"/>
	<path clip-path="url(#SVGID_2_)" fill="#FFFFFF" d="M226.071,167.587h-0.032c0,0,0.357-9.528-1.258-17.447
		c-1.122-5.515-3.208-10.238-7.032-10.437c-0.776-0.042-1.609,0.079-2.53,0.44c-6.989,2.745-7.039,3.881-6.011,4.356
		c0.648,0.299,1.742,0.33,1.742,0.33c-0.069,0,3.535,0.871,4.919,8.791c0.573,3.29,0.768,7.789,0.154,13.967v27.05v15.867v5.328
		h10.048v-5.328v-15.867V167.587z"/>
	<path clip-path="url(#SVGID_2_)" fill="#D7D3CC" d="M146.734,268.784v-7.252c0-0.545-0.684-0.98-1.547-1.019
		c-0.043,0-0.077-0.016-0.121-0.016h-0.151v9.32h0.151c0.415,0,0.779-0.104,1.07-0.26
		C146.494,269.374,146.734,269.101,146.734,268.784"/>
	<path clip-path="url(#SVGID_2_)" fill="#D7D3CC" d="M129.731,261.532v7.252c0,0.573,0.744,1.034,1.666,1.034v-9.32
		C130.476,260.498,129.731,260.962,129.731,261.532"/>
	<rect x="132.992" y="260.498" clip-path="url(#SVGID_2_)" fill="#D7D3CC" width="1.83" height="9.32"/>
	<rect x="140.654" y="260.498" clip-path="url(#SVGID_2_)" fill="#D7D3CC" width="2.662" height="9.32"/>
	<polygon clip-path="url(#SVGID_2_)" fill="#D7D3CC" points="136.413,260.498 136.413,269.818 138.365,269.818 139.061,269.818 
		139.061,260.498 	"/>
	<polygon clip-path="url(#SVGID_2_)" fill="#FFFFFF" points="132.992,260.498 131.531,260.498 131.396,260.498 131.396,269.818 
		131.711,269.818 132.992,269.818 	"/>
	<rect x="134.822" y="260.498" clip-path="url(#SVGID_2_)" fill="#FFFFFF" width="1.591" height="9.32"/>
	<rect x="139.061" y="260.498" clip-path="url(#SVGID_2_)" fill="#FFFFFF" width="1.595" height="9.32"/>
	<polygon clip-path="url(#SVGID_2_)" fill="#FFFFFF" points="143.317,260.498 143.317,269.818 144.81,269.818 144.915,269.818 
		144.915,260.498 	"/>
	<path clip-path="url(#SVGID_2_)" fill="#C8C4BA" d="M12.792,68.528l9.887-9.565c0,0-0.392-2.368,0.205-5.661
		c0.009-0.206,0.009-0.414,0.017-0.62c0.003,0.003,0.009,0,0.009,0c0.027,0.003,0.067,0,0.099,0
		c2.259-0.044,21.033-5.482,50.057-6.959h0.034c0.032-0.002,0.064-0.002,0.098-0.007c0.066-0.002,0.136-0.005,0.205-0.01v-8.299
		h-0.038H62.326c-0.276,0.432,1.741-6.86,11.042-7.301l0.025,3.603l0.005-1.842L73.396,0.706c0,0-48.574,0.877-50.637,43.397
		c-0.025,0.008-0.051,0.016-0.079,0.026c0,0-43.948,15.551-9.489,27.059C12.633,69.641,12.792,68.528,12.792,68.528 M22.921,52.443
		c-0.006,0.003-0.006,0.003-0.008,0.013c0-0.024,0.002-0.049,0.002-0.066C22.916,52.407,22.921,52.424,22.921,52.443"/>
	<path clip-path="url(#SVGID_2_)" fill="#DD9964" d="M19.194,77.155c2.351,5.549,5.632,7.58,7.979,8.301
		c-0.746-2.505-1.394-5.042-1.934-7.577C23.223,78.147,21.055,77.921,19.194,77.155"/>
	<path clip-path="url(#SVGID_2_)" fill="#DD9964" d="M120.204,85.563c2.643-0.694,6.732-3.046,9.187-10.678
		c3.044-9.489-2.696-12.43-5.197-13.24c-0.189,1.219-0.405,2.342-0.607,3.27C123.099,71.605,122.055,78.687,120.204,85.563"/>
	<path clip-path="url(#SVGID_2_)" fill="#E8BC9C" d="M22.901,52.682c-0.008,0.206-0.008,0.414-0.017,0.62
		c0.006-0.015,0.009-0.034,0.012-0.048c0.008-0.19,0.005-0.38,0.014-0.572C22.91,52.682,22.904,52.684,22.901,52.682"/>
	<path clip-path="url(#SVGID_2_)" fill="#E8BC9C" d="M22.921,52.443c0-0.019-0.006-0.036-0.006-0.053
		c0,0.017-0.002,0.042-0.002,0.066C22.916,52.446,22.916,52.446,22.921,52.443"/>
	<path clip-path="url(#SVGID_2_)" fill="#E4A97F" d="M22.896,53.254c0.035-0.186,0.071-0.38,0.113-0.572
		c-0.032,0-0.072,0.003-0.099,0C22.901,52.874,22.904,53.064,22.896,53.254"/>
	<polygon clip-path="url(#SVGID_2_)" fill="#E4A97F" points="73.066,45.723 73.066,52.904 73.1,45.723 	"/>
	<path clip-path="url(#SVGID_2_)" fill="#010103" d="M25.239,77.879c4.345-0.572,7.985-3.425,6.368-8.074
		c-2.551-7.336,7.655-13.71,24.236-10.843c16.58,2.872,17.223-6.058,17.223-6.058v-7.181C44.042,47.2,25.268,52.638,23.01,52.682
		c-0.042,0.192-0.079,0.386-0.114,0.572c-0.003,0.014-0.006,0.034-0.012,0.048c-0.597,3.293-0.205,5.66-0.205,5.66l-9.887,9.566
		c0,0-0.158,1.113,0.398,2.66c0.556,1.557,1.828,3.558,4.707,5.311c0.406,0.253,0.845,0.466,1.297,0.656
		C21.055,77.921,23.223,78.147,25.239,77.879"/>
	<path clip-path="url(#SVGID_2_)" fill="#1A1719" d="M114.598,60.318c7.173-0.481,4.063-2.392,5.5,0.717
		c1.43,3.11,2.867,6.457,2.867,6.457s0.288-1.017,0.622-2.577c0.202-0.929,0.418-2.052,0.607-3.271
		c0.435-2.795,0.71-6.091,0.253-8.706c-6.446-1.693-12.735-3.004-18.816-4.003C106.722,53.133,109.408,60.665,114.598,60.318"/>
	<path clip-path="url(#SVGID_2_)" fill="#1A1719" d="M73.408,46.228v-0.506c-0.069,0-0.143-0.006-0.209-0.006
		c-0.035,0.006-0.066,0.006-0.099,0.008l-0.034,7.181c0,0,0.045-0.882,0.338-2.083c0.332-1.376,0.984-3.166,2.252-4.565
		C74.899,46.245,74.146,46.229,73.408,46.228"/>
	<path clip-path="url(#SVGID_2_)" fill="#1A1719" d="M102.498,48.444c-4.142-0.614-8.187-1.083-12.112-1.428
		C95.895,49.668,98.145,51.7,102.498,48.444"/>
	<polygon clip-path="url(#SVGID_2_)" fill="#010103" points="73.404,31.745 73.396,0.706 73.399,31.867 	"/>
	<path clip-path="url(#SVGID_2_)" fill="#010103" d="M73.404,37.407L73.404,37.407v8.298c-0.069,0.006-0.139,0.008-0.205,0.011
		c0.066,0,0.14,0.005,0.209,0.005L73.404,37.407z"/>
	<path clip-path="url(#SVGID_2_)" fill="#E4E3DC" d="M73.416,30.106c8.622-0.622,11.039,7.301,11.039,7.301H73.416h-0.012
		l0.004,8.314v0.507c0.739,0.002,1.491,0.017,2.248,0.028c4.69,0.072,9.612,0.311,14.73,0.761c3.925,0.344,7.97,0.813,12.112,1.427
		c1.042,0.156,2.085,0.32,3.133,0.491c6.081,0.999,12.37,2.31,18.816,4.003c0.268,0.073,0.533,0.133,0.807,0.209
		c0,0,5.443-47.442-51.858-53.147v0.706l0.008,31.039L73.416,30.106z"/>
	<path clip-path="url(#SVGID_2_)" fill="#010103" d="M73.369,30.106c-9.301,0.441-11.318,7.732-11.042,7.301h11.039l0.028-3.698
		L73.369,30.106z"/>
	<path clip-path="url(#SVGID_2_)" fill="#1A1719" d="M73.416,37.407h11.039c0,0-2.417-7.923-11.039-7.301l-0.012,1.638l-0.005,0.122
		l-0.005,1.843l-0.028,3.698h0.038H73.416z"/>
	<path clip-path="url(#SVGID_2_)" fill="#E4A97F" d="M73.403,125.539v-51.43h-0.182h-0.156v-4.464h0.156h0.182V50.821
		c-0.293,1.202-0.338,2.083-0.338,2.083s-0.642,8.929-17.223,6.058c-16.58-2.867-26.786,3.507-24.236,10.843
		c1.618,4.648-2.022,7.502-6.367,8.074c0.54,2.535,1.188,5.072,1.934,7.577c3.376,11.357,8.95,22.146,17.511,29.663
		c0.941,0.832,1.929,1.609,2.944,2.355c4.678,3.431,10.143,5.938,16.496,7.173v10.147l-0.946-0.098
		c-5.729,1.83-3.665,8.602,0.036,15.158c5.385,2.109,10.346,3.056,10.346,3.056l0.018-15.983h0.004h0.002h9.028v-1.897v-10.271
		C79.729,125.253,76.678,125.539,73.403,125.539 M73.396,125.539c-0.036,0-0.072-0.003-0.107-0.003c0.039,0,0.071,0.003,0.11,0.003
		H73.396z"/>
	<path clip-path="url(#SVGID_2_)" fill="#E8BC9C" d="M122.965,67.492c0,0-1.437-3.347-2.867-6.458
		c-1.437-3.108,1.673-1.198-5.5-0.716c-5.191,0.347-7.877-7.185-8.967-11.384c-1.049-0.17-2.091-0.335-3.133-0.49
		c-4.353,3.256-6.603,1.224-12.113-1.428c-5.117-0.449-10.039-0.689-14.729-0.76c-1.268,1.399-1.92,3.19-2.252,4.565v18.824h-0.183
		h-0.155v4.464h0.155h0.183v51.43c3.274,0,6.324-0.286,9.208-0.78c6.71-1.144,12.388-3.546,17.17-6.87
		c0.983-0.683,1.926-1.404,2.836-2.164c9.014-7.516,14.462-18.534,17.586-30.163c1.851-6.876,2.895-13.956,3.383-20.647
		C123.253,66.475,122.965,67.492,122.965,67.492"/>
	<rect x="84.983" y="306.311" clip-path="url(#SVGID_2_)" fill="#E8BC9C" width="21.147" height="119.924"/>
	<path clip-path="url(#SVGID_2_)" fill="#E8BC9C" d="M83.569,428.665c0,5.038,0,9.123,9.119,9.123h29.686
		c5.04,0,9.122-2.84,9.122-7.875c0.038-2.581-1.718-6.582-9.009-8.777l-30.549-6.453C86.901,414.683,83.569,423.625,83.569,428.665"
		/>
	<polygon clip-path="url(#SVGID_2_)" fill="#5E453E" points="78.334,327.209 112.874,327.209 114.088,247.425 78.334,247.425 	"/>
	<rect x="41.495" y="306.311" clip-path="url(#SVGID_2_)" fill="#E4A97F" width="21.15" height="119.924"/>
	<path clip-path="url(#SVGID_2_)" fill="#E4A97F" d="M64.054,428.665c0,5.038,0,9.123-9.117,9.123h-29.69
		c-5.035,0-9.117-2.84-9.117-7.875c-0.038-2.581,1.715-6.582,9.006-8.777l30.552-6.453
		C60.727,414.683,64.054,423.625,64.054,428.665"/>
	<polygon clip-path="url(#SVGID_2_)" fill="#3F2C27" points="69.286,327.209 34.753,327.209 33.532,247.425 69.286,247.425 	"/>
	<path clip-path="url(#SVGID_2_)" fill="#5E453E" d="M32.263,247.425v13.794c0,12.021,9.746,21.765,21.768,21.765h39.317
		c12.024,0,21.769-9.744,21.769-21.765v-13.794H32.263z"/>
	<path clip-path="url(#SVGID_2_)" fill="#3F2C27" d="M73.688,247.425H32.263v13.794c0,12.021,9.746,21.765,21.768,21.765h19.657
		V247.425z"/>
	<path clip-path="url(#SVGID_2_)" fill="#E4A97F" d="M30.717,188.931l-2.102-36.876c0,0-25.098,30.123-25.098,116.377H17.31
		C17.31,268.432,17.119,217.349,30.717,188.931"/>
	<path clip-path="url(#SVGID_2_)" fill="#E4A97F" d="M73.883,163.975H21.092c0,0,3.724-26.489,42.768-28.937h10.023V163.975z"/>
	<path clip-path="url(#SVGID_2_)" fill="#C3C5BE" d="M73.883,160.855v98.259H32.012V152.278
		C32.012,152.278,51.175,161.11,73.883,160.855"/>
	<path clip-path="url(#SVGID_2_)" fill="#E4A97F" d="M18.183,282.241c0,4.86-3.86,8.801-8.622,8.801
		c-4.762,0-8.621-3.94-8.621-8.801V274.7c0-4.858,3.859-8.798,8.621-8.798c4.762,0,8.622,3.939,8.622,8.798V282.241z"/>
	<path clip-path="url(#SVGID_2_)" fill="#E4A97F" d="M24.196,278.061c0.479,1.354-0.229,2.845-1.583,3.327
		c-1.354,0.481-2.842-0.227-3.327-1.58l-1.449-3.868c-0.481-1.356,0.224-2.845,1.582-3.327c1.354-0.481,2.841,0.224,3.322,1.58
		L24.196,278.061z"/>
	<path clip-path="url(#SVGID_2_)" fill="#E4A97F" d="M22.596,273.869c0,0-3.754-8.124-12.583-7.938v9.875h7.907L22.596,273.869z"/>
	<path clip-path="url(#SVGID_2_)" fill="#E8BC9C" d="M73.883,163.975h52.791c0,0-3.728-26.489-42.766-28.937H73.883V163.975z"/>
	<path clip-path="url(#SVGID_2_)" fill="#DCDCD4" d="M73.883,160.855v98.259h41.869V152.278
		C115.752,152.278,96.592,161.11,73.883,160.855"/>
	<path clip-path="url(#SVGID_2_)" fill="#E8BC9C" d="M192.472,253.08c3.793,3.038,4.459,8.511,1.483,12.227
		c-2.978,3.718-8.466,4.268-12.26,1.229l-5.886-4.714c-3.793-3.037-4.455-8.513-1.478-12.23c2.976-3.715,8.46-4.263,12.253-1.226
		L192.472,253.08z"/>
	<path clip-path="url(#SVGID_2_)" fill="#E8BC9C" d="M192.967,245.772c1.357,0.473,2.078,1.957,1.61,3.313
		c-0.472,1.358-1.956,2.078-3.312,1.607l-3.93-1.282c-1.357-0.474-2.078-1.957-1.609-3.313c0.472-1.36,1.952-2.081,3.312-1.609
		L192.967,245.772z"/>
	<path clip-path="url(#SVGID_2_)" fill="#E8BC9C" d="M188.699,244.397c0,0-8.692-2.144-14.065,4.864l7.707,6.173l4.944-6.173
		L188.699,244.397z"/>
	<path clip-path="url(#SVGID_2_)" fill="#510006" d="M19.267,257.153H1.833c0.195-60.582,17.255-98.767,17.255-98.767
		c2.046-5.396,5.254-9.7,8.914-13.114c1.173-1.213,2.498-2.385,4.058-3.46c1.964-1.356,3.999-2.552,6.059-3.601
		c4.474-2.341,8.721-3.752,11.691-4.559c4.587-1.302,6.549-2.286,12.182-2.286c0,0,3.265,11.649,11.795,11.649v15.476v1.468v89.722
		h-44.84l3.856-68.274C32.804,181.407,20.685,203.744,19.267,257.153"/>
	<rect x="41.113" y="407.914" clip-path="url(#SVGID_2_)" fill="#E9E6E2" width="21.722" height="18.739"/>
	<path clip-path="url(#SVGID_2_)" fill="#1A1719" d="M63.388,428.376v6.828H13.129v-5.521c-0.039-2.71,1.798-6.905,9.445-9.206
		c0,0,11.046-3.404,13.832-5.393c2.316-1.654,5.18-3.624,7.863-1.701c2.377,1.697,2.139,4.563,0.494,6.714
		c-0.361,0.468,0.652,1.816,0.905,2.087c1.801,1.907,4.979,2.131,7.422,2.155c1.151,0.006,2.302-0.054,3.444-0.161
		c0.883-0.08,1.748-0.247,2.608-0.414c0.699-0.133,1.233-0.389,1.895-0.605c0.78-0.259,2.353-0.628,2.351,0.659V428.376z"/>
	<rect x="12.895" y="434.495" clip-path="url(#SVGID_2_)" fill="#C5C4BD" width="50.721" height="3.445"/>
	<path clip-path="url(#SVGID_2_)" fill="#1A1719" d="M28.964,427.279c4.866-0.804,9.531-2.735,13.591-5.531
		c0.756-0.521,1.489-1.074,2.207-1.651c1.645-2.151,1.884-5.017-0.493-6.714c-2.683-1.923-5.548,0.047-7.864,1.701
		c-2.786,1.988-13.832,5.393-13.832,5.393c-0.726,0.22-1.382,0.462-2.005,0.708c-0.454,0.237-2.309,1.388-1.72,4.216
		C19.497,428.532,27.294,427.551,28.964,427.279"/>
	<path clip-path="url(#SVGID_2_)" fill="#AAABA1" d="M23.072,420.32c0.867,1.037,2.67,3.521,3.661,7.221
		c0.988-0.079,1.803-0.195,2.231-0.262c0.104-0.021,0.205-0.041,0.308-0.061c-0.899-3.588-2.491-6.217-3.623-7.737
		C24.53,419.857,23.601,420.156,23.072,420.32"/>
	<path clip-path="url(#SVGID_2_)" fill="#AAABA1" d="M28.011,418.68c0.924,1.109,2.918,3.861,3.84,7.974
		c0.825-0.217,1.641-0.452,2.444-0.728c-0.888-3.826-2.588-6.6-3.763-8.161C29.688,418.081,28.834,418.39,28.011,418.68"/>
	<path clip-path="url(#SVGID_2_)" fill="#AAABA1" d="M32.907,416.831c1.078,1.407,2.867,4.24,3.607,8.229
		c0.81-0.34,1.601-0.716,2.378-1.122c-0.817-3.759-2.424-6.538-3.616-8.19C34.609,416.092,33.8,416.462,32.907,416.831"/>
	<rect x="85.412" y="407.914" clip-path="url(#SVGID_2_)" fill="#E9E6E2" width="21.72" height="18.739"/>
	<path clip-path="url(#SVGID_2_)" fill="#1A1719" d="M84.374,428.376v6.828h50.265v-5.521c0.036-2.71-1.804-6.905-9.45-9.206
		c0,0-11.044-3.404-13.827-5.393c-2.317-1.654-5.18-3.624-7.87-1.701c-2.372,1.697-2.137,4.563-0.487,6.714
		c0.359,0.468-0.655,1.816-0.911,2.087c-1.796,1.907-4.978,2.131-7.415,2.155c-1.156,0.006-2.307-0.054-3.452-0.161
		c-0.878-0.08-1.742-0.247-2.601-0.414c-0.699-0.133-1.24-0.389-1.898-0.605c-0.783-0.259-2.354-0.628-2.354,0.659V428.376z"/>
	<rect x="84.148" y="434.495" clip-path="url(#SVGID_2_)" fill="#E2E0D7" width="50.72" height="3.445"/>
	<path clip-path="url(#SVGID_2_)" fill="#1A1719" d="M118.803,427.279c-4.872-0.804-9.534-2.735-13.593-5.531
		c-0.756-0.521-1.492-1.074-2.205-1.651c-1.65-2.151-1.886-5.017,0.486-6.714c2.691-1.923,5.554,0.047,7.871,1.701
		c2.783,1.988,13.827,5.393,13.827,5.393c0.727,0.22,1.383,0.462,2.01,0.708c0.454,0.237,2.307,1.388,1.718,4.216
		C128.27,428.532,120.47,427.551,118.803,427.279"/>
	<path clip-path="url(#SVGID_2_)" fill="#E2E0D7" d="M124.69,420.32c-0.863,1.037-2.667,3.521-3.656,7.221
		c-0.99-0.079-1.81-0.195-2.231-0.262c-0.102-0.021-0.205-0.041-0.312-0.061c0.898-3.588,2.491-6.217,3.624-7.737
		C123.235,419.857,124.161,420.156,124.69,420.32"/>
	<path clip-path="url(#SVGID_2_)" fill="#E2E0D7" d="M119.753,418.68c-0.922,1.109-2.914,3.861-3.841,7.974
		c-0.822-0.217-1.641-0.452-2.441-0.728c0.891-3.826,2.59-6.6,3.762-8.161C118.08,418.081,118.927,418.39,119.753,418.68"/>
	<path clip-path="url(#SVGID_2_)" fill="#E2E0D7" d="M114.858,416.831c-1.079,1.407-2.865,4.24-3.609,8.229
		c-0.805-0.34-1.602-0.716-2.377-1.122c0.818-3.759,2.428-6.538,3.618-8.19C113.159,416.092,113.962,416.462,114.858,416.831"/>
	<path clip-path="url(#SVGID_2_)" fill="#8D0515" d="M178.306,241.154c0,0-20.475-13.579-32.481-32.446
		c-11.443-17.982-19.074-55.088-19.074-55.088l-12.178,27.787c0,0,10.902,35.659,21.84,47.937
		c12.142,13.63,32.73,28.117,32.73,28.117L178.306,241.154z"/>
	<path clip-path="url(#SVGID_2_)" fill="#8D0515" d="M116.214,185.047l10.852-29.457c-2.003-4.108-4.686-7.518-7.687-10.317
		c-1.174-1.213-2.504-2.385-4.06-3.46c-1.961-1.356-3.999-2.552-6.061-3.601c-4.471-2.342-8.719-3.752-11.687-4.56
		c-4.593-1.302-6.548-2.285-12.181-2.285c0,0-3.268,11.649-11.796,11.649v15.476v1.467v89.723h44.84l-3.861-68.274
		C114.573,181.408,115.213,182.589,116.214,185.047"/>
</g>
</svg>
