<?xml version="1.0" encoding="utf-8"?>
<!-- Generator: Adobe Illustrator 16.0.3, SVG Export Plug-In . SVG Version: 6.00 Build 0)  -->
<!DOCTYPE svg PUBLIC "-//W3C//DTD SVG 1.1//EN" "http://www.w3.org/Graphics/SVG/1.1/DTD/svg11.dtd">
<svg version="1.1" id="Capa_1" xmlns="http://www.w3.org/2000/svg" xmlns:xlink="http://www.w3.org/1999/xlink" x="0px" y="0px"
	 width="501.991px" height="439.123px" viewBox="0 0 501.991 439.123" enable-background="new 0 0 501.991 439.123"
	 xml:space="preserve">
<g>
	<defs>
		<rect id="SVGID_1_" x="-171.667" y="-90.288" width="792" height="612"/>
	</defs>
	<clipPath id="SVGID_2_">
		<use xlink:href="#SVGID_1_"  overflow="visible"/>
	</clipPath>
	<g clip-path="url(#SVGID_2_)">
		<defs>
			<rect id="SVGID_3_" x="-171.667" y="-90.288" width="792" height="612"/>
		</defs>
		<clipPath id="SVGID_4_">
			<use xlink:href="#SVGID_3_"  overflow="visible"/>
		</clipPath>
		<path clip-path="url(#SVGID_4_)" fill="#1F1C1E" d="M190.743,247.492c-26.628-17.519-52.08-6.497-61.046,11.495
			c-10.503,21.075,4.296,25.396-8.458,35.123c-4.201,3.204-5.686,8.267-4.007,11.529c3.262,6.337,10.772,10.896,5.25,14.896
			c-8.364,6.058-4.733,14.172,7.278,21.905h74.64c0,0,21.849-9.976,10.665-19.099c-12.87-10.498,1.594-9.01,0.983-20.516
			c-0.388-7.32-8.767-9.523-7.419-17.903C210.65,272.352,206.223,251.095,190.743,247.492"/>
		<path clip-path="url(#SVGID_4_)" fill="#FDD1BA" d="M128.378,364.431c-0.971,2.313,26.782,50.95,36.109,74.691h5.15
			c9.414-24.227,37.858-75.639,36.885-77.953c-1.118-2.664,3.412-0.201-10.13-8.323c-13.543-8.123-11.745-22.638-11.865-26.765
			h-34.916c-0.119,4.127,1.679,18.642-11.864,26.765C124.205,360.968,129.498,361.767,128.378,364.431"/>
		<path clip-path="url(#SVGID_4_)" fill="#FDDAC7" d="M187.982,326.774c-0.547,0.529-1.106,1.046-1.678,1.548
			c-1.773,1.559-3.671,2.983-5.71,4.178c-1.739,1.018-3.58,1.863-5.499,2.48c-1.744,0.561-3.547,0.929-5.369,1.113
			c-2.264,0.229-4.588,0.159-6.836-0.197c-1.846-0.293-3.658-0.786-5.397-1.47c-1.952-0.767-3.807-1.768-5.551-2.931
			c-2.074-1.383-3.994-2.99-5.786-4.722c-7.627-7.363-7.561-25.97-9.402-24.655c-4.208,2.827-6.903-5.588-7.429-10.585
			c-0.527-4.997,1.753-7.101,3.857-4.997c2.104,2.104,2.13-0.237,2.717-2.98c0.19-0.884,0.422-1.759,0.678-2.625
			c0.39-1.327,0.84-2.637,1.342-3.925c0.627-1.607,1.337-3.183,2.134-4.713c0.902-1.733,1.916-3.41,3.052-5
			c1.221-1.712,2.585-3.323,4.097-4.786c1.599-1.547,3.363-2.923,5.271-4.069c2.053-1.233,4.268-2.193,6.571-2.853
			c2.701-0.771,5.454-1.09,8.253-1.09c2.694-0.003,5.39,0.385,7.982,1.145c2.288,0.671,4.486,1.641,6.524,2.881
			c1.894,1.152,3.645,2.533,5.231,4.082c1.501,1.464,2.854,3.075,4.067,4.784c1.126,1.587,2.132,3.26,3.027,4.988
			c0.79,1.524,1.494,3.094,2.116,4.694c0.497,1.281,0.943,2.583,1.33,3.902c0.25,0.854,0.478,1.714,0.665,2.584
			c0.588,2.743,0.614,5.085,2.717,2.98c2.105-2.104,4.384,0,3.858,4.997s-3.222,13.412-7.43,10.585
			C195.543,300.804,195.609,319.411,187.982,326.774"/>
		<path clip-path="url(#SVGID_4_)" fill="#F2F1ED" d="M194.514,351.525l-27.11,43.769l-27.778-43.769
			c-6.678,5.566-28.334,12.591-26.378,14.813c13.631,15.476,32.577,56.148,53.822,61.596c21.245-5.447,40.191-46.12,53.821-61.596
			C222.847,364.116,201.192,357.091,194.514,351.525"/>
		<path clip-path="url(#SVGID_4_)" fill="#E7E6E0" d="M219.556,427.628c-0.065,2.625,0.572,6.765,1.537,11.494h31.689
			c-6.182-30.064-15.702-67.842-17.383-67.697C215.599,373.128,219.783,418.524,219.556,427.628"/>
		<path clip-path="url(#SVGID_4_)" fill="#E7E6E0" d="M112.593,439.123c0.964-4.729,1.602-8.869,1.536-11.494
			c-0.226-9.104,3.957-54.5-15.843-56.203c-1.681-0.145-11.202,37.634-17.382,67.697H112.593z"/>
		<path clip-path="url(#SVGID_4_)" fill="#1F1C1E" d="M181.487,260.942c-6.969,0.789-13.79,3.313-25.279,12.455
			c-9.097,7.237-17.209,14.455-20.876,15.422c-1.013,0.268-1.048-3.613-4.52-2.895c-0.964,0.199-2.213-17.882,5.047-29.979
			c8.391-13.985,24.826-20.031,39.384-15.671c9.113,2.729,9.64,6.709,13.739,7.783c8.521,2.233,13.807,15.646,13.807,28.664
			c0,13.018-2.103,10.256-3.55,11.177c-1.446,0.92-3.25-11.47-10.219-17.256C182.05,264.857,181.487,260.942,181.487,260.942"/>
		<path clip-path="url(#SVGID_4_)" fill="#FB0000" d="M223.286,439.123c5.163-16.826,1.792-24.261,2.905-31.869
			c0.707-4.837,9.749-36.062,9.53-36.36c-1.229-1.691-26.473-11.953-31.083-13.797s-0.594-0.051-2.061,6.613
			c-0.326,1.486-0.93,5.988-8.478,15.625c-4.971,6.347-11.274,16.866-15.579,24.768c-3.865,7.092-10.253,17.398-10.919,22.104
			c-0.298,2.104-1.871,8.306-2.161,10.41c-0.117,0.859-0.219,1.681-0.322,2.506H223.286z"/>
		<path clip-path="url(#SVGID_4_)" fill="#FF0E07" d="M110.358,439.123h58.167c-0.103-0.825-0.205-1.646-0.322-2.506
			c-0.289-2.104-1.863-8.307-2.16-10.41c-0.667-4.706-7.055-15.013-10.92-22.104c-4.306-7.901-10.608-18.421-15.579-24.768
			c-7.548-9.637-8.151-14.139-8.478-15.625c-1.467-6.664,2.549-8.457-2.061-6.613c-4.609,1.844-29.491,12.02-30.72,13.709
			c-0.219,0.301,8.461,31.611,9.168,36.448C108.566,414.862,105.195,422.296,110.358,439.123"/>
		<path clip-path="url(#SVGID_4_)" fill="#D9D9D2" d="M136.958,354.404c1.577-5.548,6.218-8.877,9.147-9.904l-1.471,2.611
			c0,0-2.939,7.271,1.643,13.078c3.995,5.063,10.16,14.295,13.13,19.118h0.001c0.143,0.221,0.279,0.457,0.419,0.688
			c0.059,0.098,0.129,0.21,0.184,0.303c0.092,0.155,0.184,0.31,0.274,0.468c0.37,0.632,0.623,1.098,0.742,1.369
			c3.31,6.396,6.377,13.159,6.377,13.159s-2.7-2.424-7.523-7.908c-3.64-4.141-5.74-5.348-5.74-5.348s-2.54-0.354,0.248-1.663
			l1.796-0.813c-11.972-6.183-16.32,2.595-20.394,3.152C132.135,383.213,135.38,359.951,136.958,354.404"/>
		<path clip-path="url(#SVGID_4_)" fill="#D9D9D2" d="M196.875,354.404c-1.577-5.548-6.218-8.877-9.147-9.904l1.471,2.611
			c0,0,2.939,7.271-1.643,13.078c-3.995,5.063-10.16,14.295-13.13,19.118h-0.001c-0.143,0.221-0.279,0.457-0.418,0.688
			c-0.059,0.098-0.129,0.21-0.185,0.303c-0.092,0.155-0.183,0.31-0.274,0.468c-0.37,0.632-0.623,1.098-0.742,1.369
			c-3.31,6.396-5.403,13.159-5.403,13.159s1.726-2.424,6.549-7.908c3.641-4.141,6.139-5.524,6.139-5.524s2.141-0.177-0.647-1.486
			l-1.795-0.813c11.971-6.183,16.319,2.595,20.394,3.152C201.698,383.213,198.453,359.951,196.875,354.404"/>
		<rect x="120.744" y="422.06" clip-path="url(#SVGID_4_)" fill="#F3F2EE" width="26.749" height="9.145"/>
		<path clip-path="url(#SVGID_4_)" fill="#030305" d="M156.991,106.626c-5.624-8.753-8.173-19.325-9.22-28.89
			c1.272-5.635,3.4-29.701-14.278-30.632c-13.833-0.73-23.166-0.56-27.028-0.426c-3.871-0.134-13.226-0.304-27.093,0.426
			c-18.474,0.971-15.368,27.095-14.154,31.253c-1.09,9.398-3.658,19.707-9.159,28.269c-6.204,9.658-5.377,17.224-5.377,17.224
			s35.161,5.435,55.844,5.435c20.682,0,55.842-5.435,55.842-5.435S163.196,116.284,156.991,106.626"/>
		<path clip-path="url(#SVGID_4_)" fill="#CF8264" d="M62.035,148.44c-0.994,2.151,23.933,42.313,37.246,68.934h15.148
			c13.493-27.499,39.215-70.212,38.217-72.373c-1.297-2.808,3.956-0.211-11.747-8.775c-15.703-8.564-13.619-23.867-13.758-28.219
			H86.656c-0.14,4.352,1.945,19.655-13.758,28.219C57.195,144.79,63.332,145.632,62.035,148.44"/>
		<path clip-path="url(#SVGID_4_)" fill="#0B1824" d="M40.563,185.328c0.413,8.388,1.312,20.01,2.16,32.046h128.463
			c0.583-11.217,1.091-22.003,1.464-30.106c0.966-5.647,1.897-11.337,2.729-16.579c3.66-11.273,10.155-18.016,11.102-19.437
			c0.622-0.932-31.711-13.034-41.73-15.561c-4.314-1.785-8.039-3.569-10.564-5.518c-5.635-4.346-12.603,7.987-18.182,21.47
			c-2,0.385-16.563,0.319-18.754-0.114c-5.57-13.438-12.514-25.69-18.132-21.356c-2.785,2.148-7.023,4.096-11.907,6.067
			c-9.479,2.613-41.114,14.264-40.432,15.288c0.967,1.449,7.744,8.164,11.369,19.822C38.895,175.792,39.714,180.556,40.563,185.328"
			/>
		<path clip-path="url(#SVGID_4_)" fill="#DF8F69" d="M127.722,113.094c-0.555,0.536-1.121,1.06-1.701,1.568
			c-1.797,1.58-3.721,3.024-5.787,4.234c-1.762,1.032-3.628,1.889-5.573,2.514c-1.768,0.568-3.595,0.941-5.441,1.128
			c-2.294,0.232-4.65,0.162-6.929-0.2c-1.87-0.297-3.707-0.796-5.47-1.489c-1.978-0.776-3.858-1.791-5.625-2.97
			c-2.102-1.402-4.048-3.031-5.864-4.785c-7.73-7.463-7.663-26.32-9.529-24.987c-4.265,2.865-6.997-5.664-7.529-10.728
			c-0.533-5.065,1.776-7.197,3.908-5.065c2.133,2.133,2.159-0.241,2.755-3.02c0.192-0.896,0.428-1.783,0.686-2.661
			c0.396-1.345,0.851-2.672,1.361-3.978c0.635-1.629,1.355-3.226,2.162-4.777c0.914-1.756,1.942-3.455,3.093-5.067
			c1.238-1.734,2.621-3.368,4.153-4.85c1.62-1.568,3.409-2.963,5.342-4.124c2.081-1.25,4.325-2.223,6.66-2.89
			c2.737-0.782,5.527-1.106,8.364-1.106c2.73-0.003,5.463,0.39,8.089,1.16c2.32,0.68,4.547,1.663,6.612,2.92
			c1.92,1.168,3.694,2.568,5.302,4.136c1.521,1.484,2.892,3.117,4.121,4.849c1.142,1.609,2.162,3.304,3.069,5.056
			c0.8,1.545,1.514,3.135,2.144,4.757c0.504,1.299,0.956,2.618,1.348,3.955c0.254,0.865,0.485,1.738,0.674,2.62
			c0.596,2.779,0.622,5.153,2.754,3.02c2.132-2.132,4.442,0,3.909,5.065c-0.533,5.064-3.265,13.593-7.529,10.728
			C135.385,86.774,135.451,105.631,127.722,113.094"/>
		<path clip-path="url(#SVGID_4_)" fill="#1F1C1E" d="M86.63,52.724c-5.198-2.765-6.061,6.854-8.949,11.094
			c-2.887,4.241-0.801,12.093-2.566,10.523c-1.764-1.571-3.574-1.697-4.168-2.793c-0.34-0.628-6.478-24.077,1.061-36.485
			c2.406-3.455,5.673-4.383,6.476-5.169c0.802-0.785,2.472-7.747,17.722-11.318c11.82-2.768,32.485-1.246,43.232,16.03
			c10.747,17.276,2.773,35.136,2.452,37.02c0,0-2.892,1.854-4.015,3.691c-1.122,1.837-0.844-7.258-2.448-9.614
			c-1.604-2.355-2.478-6.499-5.846-7.127C126.212,57.948,101.583,60.678,86.63,52.724"/>
		<path clip-path="url(#SVGID_4_)" fill="#0B151B" d="M87.578,217.374h36.921c0.589-14.104-0.697-69.252-0.035-71.631
			c0.676-2.425-36.57-2.127-36.468,0C88.311,152.298,88.032,183.525,87.578,217.374"/>
		<path clip-path="url(#SVGID_4_)" fill="#0A1219" d="M140.429,133.819c0.011-1.884-1.599,0.455-4-6.178
			c-4.417-12.197-7.395-10.963-7.395-10.963c-0.048,2.848-3.034,5.473-8.385,7.856c-7.677,3.42-11.688,3.546-13.751,3.588
			c-2.063-0.042-6.074-0.168-13.751-3.588c-5.35-2.383-8.337-5.008-8.385-7.856c0,0-3.041-1.257-7.395,10.963
			c-2.323,6.52-4.01,4.294-4,6.178c0.016,2.918,1.381,16.415,31.482,18.558c-0.004,0.135-0.006,0.222-0.006,0.222
			c0.706-0.024,1.377-0.062,2.055-0.097c0.678,0.035,1.349,0.073,2.055,0.097c0,0-0.002-0.087-0.006-0.222
			C139.049,150.234,140.413,136.737,140.429,133.819"/>
		<path clip-path="url(#SVGID_4_)" fill="#080F15" d="M128.073,217.374h39.872c0.769-12.386,1.29-34.906,1.29-34.906h-40.838
			C128.618,187.639,128.094,206.474,128.073,217.374"/>
		<path clip-path="url(#SVGID_4_)" fill="#0A1219" d="M168.783,201.383c-6.292,0.37-32.198,0.74-34.418,0
			c-2.221-0.74-7.772-22.945-5.922-23.686c1.851-0.74,37.379-0.37,40.34,0C171.743,178.068,168.783,201.383,168.783,201.383"/>
		<path clip-path="url(#SVGID_4_)" fill="#E6F435" d="M171.315,217.374c0.097-2.567,0.15-4.775,0.179-6.009
			c0.031-1.37-108.365-0.977-129.101-0.503c0,0,0.002,2.936,0.328,6.512H171.315z"/>
		<path clip-path="url(#SVGID_4_)" fill="#F6E903" d="M149.278,74.928c-0.364-19.149,1.238-30.872-9.975-44.779
			c-10.792-13.385-27.416-15.03-32.547-15.135v-0.01c-0.082,0-0.2,0.004-0.291,0.005c-0.091-0.001-0.209-0.005-0.291-0.005v0.01
			c-5.132,0.105-21.756,1.75-32.547,15.135c-11.213,13.907-9.612,25.63-9.975,44.779h1.965c0,0-0.364-12.086,4.515-17.256
			c4.858-5.149,11.535-6.974,36.333-7.277c24.797,0.303,31.474,2.128,36.333,7.277c4.878,5.17,4.514,17.256,4.514,17.256H149.278z"
			/>
		<path clip-path="url(#SVGID_4_)" fill="#EDD504" d="M109.479,11.041C108.937,9.586,106.02,9.6,106.02,9.6
			s-2.917-0.013-3.458,1.441c-1.878,5.042-14.412,38.333-11.961,39.342h15.419h15.42C123.89,49.374,111.357,16.083,109.479,11.041"
			/>
		<path clip-path="url(#SVGID_4_)" fill="#1D1A17" d="M149.266,66.883c0-8.296-3.747-12.313-9.943-15.627
			c-6.197-3.314-32.857-2.882-32.857-2.882s-26.661-0.432-32.858,2.882c-6.196,3.314-9.944,7.331-9.944,15.627
			c0,8.295,0.144,15.501,0,16.222c-0.144,0.72,0.628,2.305,0.628,2.305c1.441,0,2.687,0,2.831-6.917
			c0.144-6.918-1.873-14.411,2.162-19.311c4.035-4.9,10.52-6.917,18.014-6.773c7.493,0.144,19.167-0.007,19.167-0.007
			s11.673,0.151,19.166,0.007c7.494-0.144,13.979,1.873,18.014,6.773c4.035,4.9,2.017,12.393,2.162,19.311
			c0.144,6.917,1.683,6.917,3.124,6.917c0,0,0.479-1.585,0.334-2.305C149.122,82.384,149.266,75.178,149.266,66.883"/>
		<g opacity="0.56" clip-path="url(#SVGID_4_)">
			<g>
				<defs>
					<rect id="SVGID_5_" x="62.116" y="29.555" width="88.726" height="38.069"/>
				</defs>
				<clipPath id="SVGID_6_">
					<use xlink:href="#SVGID_5_"  overflow="visible"/>
				</clipPath>
				<path clip-path="url(#SVGID_6_)" fill="#CFCCCF" d="M142.438,40.856c-13.391-12.876-35.912-11.232-35.912-11.232
					S84.004,27.98,70.615,40.856c-13.391,12.876-6.95,26.769-6.95,26.769c5.478-3.288,22.722-8.688,42.861-8.688
					c20.392,0,37.199,5.4,42.677,8.688C149.203,67.625,155.829,53.732,142.438,40.856"/>
			</g>
		</g>
		<path clip-path="url(#SVGID_4_)" fill="#0B151B" d="M42.723,217.374c0.394-1.54,0.25-3.171,0.367-5.104
			c0.384-3.36,2.167-34.462-1.203-42.164c-4.391-10.034-4.977-20.357-13.185-19.182c-6.008,0.86-11.812,9.218-18.764,24.115
			c-4.187,8.974-8.843,31.5-9.938,42.335H42.723z"/>
		<path clip-path="url(#SVGID_4_)" fill="#0B151B" d="M170.417,217.374c-0.395-1.54-0.25-3.171-0.367-5.104
			c-0.384-3.36-2.167-34.462,1.203-42.164c4.39-10.034,4.977-20.357,13.185-19.182c6.007,0.86,11.812,9.218,18.763,24.115
			c4.188,8.974,8.844,31.5,9.939,42.335H170.417z"/>
		<path clip-path="url(#SVGID_4_)" fill="#FDD1BA" d="M288.142,140.603c-0.998,2.376,27.394,52.154,37.141,76.771h5.574
			c9.839-25.134,38.942-77.759,37.943-80.139c-1.154-2.749,3.521-0.206-10.456-8.59c-13.979-8.384-12.123-23.366-12.247-27.626
			h-36.038c-0.124,4.26,1.731,19.242-12.247,27.626C283.834,137.03,289.297,137.854,288.142,140.603"/>
		<path clip-path="url(#SVGID_4_)" fill="#F3F2EE" d="M356.048,128.21l-28.327,15.179l-28.327-15.179
			c-6.893,5.746-29.245,12.996-27.226,15.288c14.068,15.975,33.624,57.956,55.553,63.578c21.928-5.622,41.483-47.603,55.553-63.578
			C385.293,141.207,362.941,133.957,356.048,128.21"/>
		<path clip-path="url(#SVGID_4_)" fill="#010103" d="M367.171,102.228c-3.302-3.363-1.8-18.738-2.043-30.749l-36.67,4.056
			l-36.669-4.056c-0.243,12.011,1.258,27.386-2.043,30.749c-3.082,3.139,33.545,7.839,38.438,8.452v0.068
			c0,0,0.113-0.014,0.274-0.034c0.162,0.02,0.274,0.034,0.274,0.034v-0.068C333.625,110.066,370.252,105.367,367.171,102.228"/>
		<path clip-path="url(#SVGID_4_)" fill="#FDDAC7" d="M349.664,101.735c-0.564,0.545-1.142,1.079-1.731,1.597
			c-1.832,1.609-3.79,3.08-5.895,4.312c-1.795,1.051-3.694,1.924-5.676,2.56c-1.8,0.579-3.66,0.959-5.541,1.149
			c-2.337,0.236-4.735,0.165-7.057-0.203c-1.905-0.303-3.775-0.811-5.57-1.517c-2.016-0.792-3.93-1.824-5.729-3.024
			c-2.141-1.429-4.122-3.088-5.972-4.874c-7.872-7.601-7.805-26.806-9.705-25.448c-4.343,2.918-7.125-5.769-7.668-10.926
			c-0.543-5.158,1.81-7.329,3.98-5.158c2.172,2.172,2.199-0.245,2.806-3.076c0.194-0.913,0.436-1.815,0.698-2.71
			c0.403-1.37,0.867-2.721,1.387-4.051c0.646-1.659,1.379-3.285,2.201-4.865c0.932-1.789,1.979-3.519,3.15-5.161
			c1.262-1.766,2.669-3.43,4.229-4.939c1.65-1.597,3.472-3.018,5.44-4.201c2.12-1.273,4.405-2.263,6.782-2.943
			c2.788-0.796,5.63-1.126,8.519-1.126c2.781-0.003,5.563,0.397,8.239,1.182c2.362,0.692,4.63,1.693,6.733,2.973
			c1.955,1.19,3.763,2.615,5.399,4.213c1.549,1.511,2.946,3.174,4.197,4.938c1.163,1.639,2.201,3.365,3.125,5.149
			c0.815,1.574,1.542,3.193,2.184,4.845c0.514,1.323,0.974,2.667,1.373,4.028c0.258,0.881,0.494,1.77,0.687,2.668
			c0.606,2.831,0.633,5.248,2.805,3.076c2.171-2.171,4.524,0,3.981,5.158c-0.543,5.157-3.325,13.844-7.668,10.926
			C357.468,74.929,357.536,94.134,349.664,101.735"/>
		<path clip-path="url(#SVGID_4_)" fill="#010103" d="M342.959,33.786c-7.193,0.814-23.592-0.878-32.331,10.451
			c-7.329,9.501-13.403,16.787-15.309,18.322c-0.843,0.679-1.081-3.729-4.665-2.988c-0.995,0.206-2.285-18.456,5.208-30.943
			c8.662-14.435,25.625-20.675,40.651-16.175c9.406,2.817,9.95,6.926,14.181,8.035c8.795,2.304,14.252,16.148,14.252,29.585
			s-2.172,10.587-3.665,11.537c-1.493,0.949-4.614-14.794-11.808-20.766C342.281,34.871,342.959,33.786,342.959,33.786"/>
		<path clip-path="url(#SVGID_4_)" fill="#807C77" d="M385.625,217.374c0.777-2.918,1.374-4.945,1.554-5.143
			c5.216-15.997,9.874-26.488,13.446-45.189c0.947-4.956,3.187-17.684,3.54-18.159c-0.185-0.397-0.362-0.803-0.588-1.113
			c-1.27-1.745-31.963-12.194-36.722-14.097c-4.758-1.903-0.612-0.052-2.127,6.826c-0.337,1.534-1.653,5.417-9.443,15.363
			c-5.131,6.552-10.943,18.174-15.389,26.328c-3.987,7.321-10.582,17.959-11.27,22.816c-0.307,2.171-1.931,8.573-2.23,10.745
			c-0.075,0.557-0.138,1.082-0.207,1.623H385.625z"/>
		<path clip-path="url(#SVGID_4_)" fill="#E7E6E0" d="M303.615,121.307c1.437-2.433,5.182,5.909,24.544,20.736
			c2.509,1.92-12.918,10.149-12.272,16.99c0.646,6.84-21.212-18.94-20.095-28.073C295.958,129.596,299.939,127.527,303.615,121.307"
			/>
		<path clip-path="url(#SVGID_4_)" fill="#E7E6E0" d="M352.542,121.307c-1.437-2.433-5.182,5.909-24.544,20.736
			c-2.509,1.92,12.917,10.149,12.271,16.99c-0.646,6.84,21.213-18.94,20.096-28.073
			C360.198,129.596,356.217,127.527,352.542,121.307"/>
		<path clip-path="url(#SVGID_4_)" fill="#8A857F" d="M269.58,211.866c0.187,0.206,0.826,2.403,1.649,5.508h59.387
			c-0.085-0.66-0.162-1.306-0.256-1.987c-0.299-2.173-1.923-8.575-2.23-10.746c-0.687-4.857-7.28-15.496-11.27-22.816
			c-4.444-8.155-10.949-19.013-16.081-25.564c-7.79-9.947-8.413-14.593-8.751-16.127c-1.513-6.878,2.632-8.729-2.126-6.826
			s-35.452,12.351-36.721,14.096c-0.226,0.31-0.404,0.716-0.589,1.114c0.354,0.475,2.594,13.203,3.541,18.159
			C259.706,185.378,264.363,195.869,269.58,211.866"/>
		<path clip-path="url(#SVGID_4_)" fill="#6C6864" d="M377.503,150.878c-2.569-1.913-2.767-5.9-6.4-12.403
			c-2.44-4.367-6.643-6.853-8.241-8.21c-3.156-2.678-4.979-1.97-4.979-1.97s1.899,0.727,2.509,4.325
			c0.219,1.291,1.956,5.296-5.236,15.495c-6.252,8.868-25.484,43.639-27.025,56.525c-1.541-12.886-20.878-47.657-27.13-56.525
			c-7.192-10.199-5.456-14.204-5.236-15.495c0.608-3.598,2.509-4.325,2.509-4.325s-1.823-0.708-4.979,1.97
			c-1.599,1.357-5.801,3.843-8.241,8.21c-3.634,6.503-3.832,10.49-6.4,12.403s20.035,3.4,20.035,3.4l-14.238,10.748
			c0,0,15.951,18.243,26.739,26.105c3.341,2.435,14.404,13.324,17.409,15.945c2.567-4.215,13.027-13.51,16.368-15.945
			c10.789-7.862,26.74-26.105,26.74-26.105l-14.239-10.748C357.467,154.278,380.072,152.792,377.503,150.878"/>
		<path clip-path="url(#SVGID_4_)" fill="#6C6864" d="M271.229,217.374c0.622-8.225,0.946-15.731,0.811-18.836
			c-0.315-7.192,1.626-50.072-18.858-51.134c-1.71-0.089-9.194,38.565-14.016,69.97H271.229z"/>
		<path clip-path="url(#SVGID_4_)" fill="#6C6864" d="M385.181,217.374c-0.622-8.225-0.946-15.731-0.811-18.836
			c0.314-7.192-1.626-50.072,18.858-51.134c1.71-0.089,9.194,38.565,14.016,69.97H385.181z"/>
		<path clip-path="url(#SVGID_4_)" fill="#FFB61B" d="M327.417,2.765c-35.703,0-40.105,30.031-40.105,44.592
			c0,0,4.891,2.275,13.694,3.64c8.804,1.365,26.411,3.185,26.411,3.185s17.607-1.82,26.411-3.185
			c8.804-1.365,13.694-3.64,13.694-3.64C367.523,32.796,363.122,2.765,327.417,2.765"/>
		<path clip-path="url(#SVGID_4_)" fill="#FEA120" d="M351.226,51.188c-7.108,1.512-23.809,2.387-23.809,2.387
			s-16.7-0.875-23.809-2.387c-16.386-3.485-17.927-5.196-17.927-2.011c0,3.185,23.639,10.617,41.735,10.617
			c18.586,0,41.735-7.432,41.735-10.617C369.153,45.992,367.613,47.703,351.226,51.188"/>
		<path clip-path="url(#SVGID_4_)" fill="#FEA120" d="M306.061,7.536c0,0,15.161,25.026,15.977,46.108h4.892h0.978h4.892
			c0.814-21.082,15.977-46.108,15.977-46.108c-4.719-4.771-13.997-7.607-22.048-7.534C319.073,0.071,310.392,3.146,306.061,7.536"/>
		<path clip-path="url(#SVGID_4_)" fill="#6B4039" d="M349.618,360.043c-1.131,2.448,29.667,51.721,42.351,79.079h9.617
			c12.819-28.059,44.453-80.242,43.319-82.695c-1.364-2.953,4.16-0.223-12.354-9.229s-14.321-25.098-14.468-29.675h-42.575
			c-0.146,4.577,2.046,20.669-14.467,29.675C344.528,356.205,350.982,357.09,349.618,360.043"/>
		<path clip-path="url(#SVGID_4_)" fill="#5F96BC" d="M368.308,343.576c-4.794,2.131-36.334,9.834-20.354,34.459
			c15.978,24.625,46.918,59.716,78.918,22.139c40.746-47.849,10.764-47.979,1.442-56.146c-9.114-7.985-31.347,26.142-31.347,26.142
			L368.308,343.576z"/>
		<path clip-path="url(#SVGID_4_)" fill="#794C41" d="M418.715,328.639c-0.574,0.555-1.161,1.098-1.762,1.625
			c-1.862,1.637-3.854,3.133-5.996,4.386c-1.825,1.069-3.759,1.957-5.773,2.604c-1.831,0.589-3.724,0.976-5.637,1.169
			c-2.377,0.24-4.817,0.168-7.179-0.207c-1.938-0.307-3.841-0.825-5.667-1.543c-2.05-0.805-3.997-1.855-5.828-3.077
			c-2.179-1.452-4.193-3.14-6.075-4.957c-8.008-7.732-7.939-27.27-9.872-25.889c-4.418,2.969-7.249-5.867-7.801-11.114
			c-0.554-5.247,1.841-7.456,4.05-5.247s2.236-0.249,2.853-3.129c0.2-0.929,0.444-1.847,0.712-2.757
			c0.41-1.394,0.882-2.769,1.409-4.121c0.658-1.688,1.404-3.342,2.24-4.949c0.947-1.819,2.013-3.58,3.205-5.25
			c1.283-1.797,2.715-3.489,4.302-5.023c1.678-1.624,3.532-3.07,5.535-4.273c2.156-1.296,4.48-2.304,6.899-2.994
			c2.836-0.811,5.728-1.146,8.665-1.146c2.828-0.003,5.659,0.403,8.382,1.201c2.402,0.705,4.71,1.723,6.85,3.025
			c1.989,1.21,3.828,2.66,5.493,4.285c1.575,1.537,2.997,3.229,4.27,5.023c1.184,1.667,2.239,3.423,3.18,5.238
			c0.829,1.601,1.567,3.248,2.222,4.929c0.522,1.346,0.99,2.713,1.396,4.098c0.263,0.896,0.503,1.8,0.698,2.714
			c0.617,2.88,0.645,5.338,2.854,3.129c2.21-2.209,4.603,0,4.051,5.247c-0.553,5.247-3.383,14.083-7.802,11.114
			C426.654,301.37,426.724,320.907,418.715,328.639"/>
		<path clip-path="url(#SVGID_4_)" fill="#1F1C1E" d="M376.144,266.093c-5.386-2.864-6.28,7.101-9.271,11.494
			s-0.832,12.529-2.658,10.902c-1.828-1.627-3.703-1.758-4.318-2.894c-0.354-0.651-6.712-24.945,1.099-37.8
			c2.493-3.58,5.878-4.542,6.709-5.355s2.562-8.026,18.361-11.726c12.246-2.868,33.655-1.291,44.789,16.607
			c11.135,17.898,2.966,36.359,2.634,38.312c-0.332,1.953-3.298,1.164-4.462,3.067c-1.163,1.903-0.664-6.721-2.326-9.161
			c-1.662-2.441-2.567-6.734-6.058-7.385C417.152,271.504,391.634,274.333,376.144,266.093"/>
		<path clip-path="url(#SVGID_4_)" fill="#24489E" d="M410.215,439.123c-3.344-24.431-9.026-60.763-9.564-62.935h-7.812
			c-0.538,2.172-6.22,38.504-9.563,62.935H410.215z"/>
		<path clip-path="url(#SVGID_4_)" fill="#2C4A9F" d="M406.071,363.973c-0.096-1.119-2.115-2.712-2.972-3.532
			c-2.621-2.512-4.26-3.991-5.582-4.613h-1.542c-1.323,0.622-2.961,2.102-5.583,4.613c-0.856,0.82-2.875,2.413-2.972,3.532
			c-0.399,4.646,2.184,7.25,4.455,12.338c0.173,0.388,0.55,0.694,0.959,0.896c0.396,0.196,0.865,0.229,1.316,0.259l2.116,0.136
			v0.062l0.479-0.03l0.479,0.03v-0.062l2.116-0.136c0.451-0.029,0.92-0.063,1.316-0.259c0.408-0.202,0.786-0.509,0.959-0.896
			C403.888,371.223,406.471,368.62,406.071,363.973"/>
		<path clip-path="url(#SVGID_4_)" fill="#AFDDEB" d="M371.315,334.253c1.457-2.466,5.252,5.989,24.879,21.019
			c2.542,1.947-13.095,10.288-12.44,17.222c0.655,6.935-21.502-19.198-20.369-28.456
			C363.553,342.655,367.587,340.558,371.315,334.253"/>
		<path clip-path="url(#SVGID_4_)" fill="#AFDDEB" d="M421.524,334.253c-1.457-2.466-5.252,5.989-24.879,21.019
			c-2.542,1.947,13.095,10.288,12.439,17.222c-0.654,6.935,21.503-19.198,20.37-28.456
			C429.286,342.655,425.25,340.558,421.524,334.253"/>
		<path clip-path="url(#SVGID_4_)" fill="#F3F2EE" d="M331.064,439.123h66.749c-0.183-10.776-0.349-17.503-0.485-18.251
			c-0.76-4.17-1.091-5.702-3.086-9.346c-1.551-2.832-7.656-13.494-9.547-16.13c-5.29-7.376-17.869-27.068-21.961-35.453
			c-3.018-6.182-3.229-11.692-8.046-9.848c-4.816,1.844-27.352,8.531-33.462,12.548c-0.197,0.129,5.422,13.374,6.438,20.237
			C329.182,393.135,333.555,424.698,331.064,439.123"/>
		<path clip-path="url(#SVGID_4_)" fill="#DCDCD4" d="M332.843,439.123c0.816-4.787-0.101-32.039-1.072-40.899
			c-1.676-15.276-3.339-29.565-8.181-35.706c-1.299-1.891-9.021,5.377-9.861,6.209c-7.559,7.462-10.322,21.643-17.3,48.164
			c-1.923,7.307-3.175,14.742-3.534,22.232H332.843z"/>
		<path clip-path="url(#SVGID_4_)" fill="#EAEAE4" d="M463.93,439.123c-2.491-14.425,1.882-45.987,3.4-56.242
			c1.017-6.863,6.635-20.108,6.438-20.237c-6.109-4.017-28.646-10.705-33.462-12.548c-4.816-1.845-7.792,2.702-10.81,8.885
			c-4.092,8.385-13.907,29.04-19.197,36.415c-1.891,2.636-7.996,13.299-9.547,16.131c-1.994,3.644-2.326,5.176-3.086,9.345
			c-0.137,0.749-0.329,7.476-0.557,18.252H463.93z"/>
		<path clip-path="url(#SVGID_4_)" fill="#D9D9D2" d="M446.315,364.029c-2.607-1.941-2.808-5.989-6.497-12.591
			c-2.479-4.433-6.742-6.956-8.365-8.333c-3.204-2.719-4.81-2.294-4.81-2.294s2.484,0.984,2.303,4.684
			c-0.053,1.064,1.814,5.223-5.316,15.729c-6.184,9.114-25.319,40.813-26.884,53.895c-1.564-13.081-21.744-44.893-28.09-53.895
			c-7.301-10.354-5.622-14.436-5.316-15.729c0.633-2.671,2.548-4.391,2.548-4.391s-1.851-0.718-5.054,2.001
			c-1.623,1.377-5.889,3.9-8.365,8.333c-3.689,6.602-3.891,10.649-6.498,12.591s20.339,3.451,20.339,3.451l-14.454,10.91
			c0,0,16.191,18.52,27.144,26.501c3.392,2.472,6.732,7.041,9.527,10.169c3.221,3.604,5.96,7.254,9.011,9.915
			c2.606-4.278,3.002-6.311,6.224-9.915c2.794-3.128,6.135-7.697,9.526-10.169c10.951-7.981,27.144-26.501,27.144-26.501
			l-14.453-10.91C425.977,367.48,448.921,365.97,446.315,364.029"/>
		<path clip-path="url(#SVGID_4_)" fill="#010103" d="M425.223,337.05c-0.619-0.243-1.205-0.177-1.688,0.21
			c0.043,0.037,0.083,0.109,0.121,0.158c1.454,1.904,1.822,2.131,2.986,3.393c0.571,0.618,1.328,1.237,1.869,2.005
			c16.273,10.633,13.298,35.894,11.502,49.979c-0.427,3.349-0.764,5.993-0.764,7.816c0,0.986,0.8,1.785,1.785,1.785
			c0.986,0,1.786-0.799,1.786-1.785c0-1.597,0.34-4.27,0.735-7.365C445.636,376.941,449.504,346.589,425.223,337.05"/>
		<path clip-path="url(#SVGID_4_)" fill="#938F88" d="M446.055,406.463c0,3.342-2.709,6.051-6.051,6.051s-6.052-2.709-6.052-6.051
			s2.71-6.051,6.052-6.051S446.055,403.122,446.055,406.463"/>
		<path clip-path="url(#SVGID_4_)" fill="#FFFFFF" d="M444.22,406.463c0,2.328-1.887,4.216-4.216,4.216
			c-2.328,0-4.216-1.888-4.216-4.216s1.888-4.216,4.216-4.216C442.333,402.248,444.22,404.135,444.22,406.463"/>
		<path clip-path="url(#SVGID_4_)" fill="#010103" d="M369.194,337.439c0.013-0.03,0.277-0.396,0.293-0.424
			c-0.438-0.231-1.21,0.038-1.707,0.225c-3.39,1.274-20.252,9.641-19.372,49.373c0.021,0.985,0.839,1.767,1.823,1.746
			c0.036-0.002,0.072-0.003,0.108-0.006c0.934-0.076,1.659-0.869,1.638-1.819c-0.61-27.566,7.952-40.28,13.246-44.714
			C366.347,340.736,368.183,338.776,369.194,337.439"/>
		<path clip-path="url(#SVGID_4_)" fill="#E1E0D8" d="M339.093,436.108c0.046,0.864,0.104,1.915,0.262,3.015h1.215
			c-0.169-1.104-0.24-2.188-0.288-3.107l-0.036-0.688c-0.674-12.985-1.076-20.311-1.194-21.771
			c-0.026-0.328-0.314-0.572-0.642-0.546c-0.328,0.026-0.572,0.313-0.545,0.642c0.117,1.45,0.519,8.764,1.192,21.736
			L339.093,436.108z"/>
		<path clip-path="url(#SVGID_4_)" fill="#E1E0D8" d="M370.05,433.593c0.176,1.574,0.379,3.626,0.021,5.529h1.232
			c0.327-2.022,0.102-4.111-0.067-5.631l-0.079-0.716c-1.434-12.911-2.22-20.193-2.338-21.644c-0.026-0.327-0.313-0.571-0.641-0.544
			c-0.328,0.026-0.572,0.313-0.546,0.642c0.119,1.461,0.906,8.754,2.342,21.678L370.05,433.593z"/>
		<path clip-path="url(#SVGID_4_)" fill="#010103" d="M368.938,411.124l-1.669,0.136c-0.516,0.042-0.962-0.336-1.018-0.851
			c-0.895-8.357-5.09-21.146-15.77-20.276c-10.467,0.852-10.313,18.017-10.105,22.353c0.026,0.539-0.381,0.993-0.919,1.037
			l-1.566,0.128c-0.564,0.046-1.052-0.378-1.082-0.943c-0.126-2.436-0.218-8.069,1.145-13.496
			c2.467-9.822,8.017-12.294,12.238-12.637c11.854-0.965,18.331,10.962,19.618,23.512
			C369.865,410.612,369.465,411.081,368.938,411.124"/>
		<path clip-path="url(#SVGID_4_)" fill="#DCDCD4" d="M462.042,439.123c-0.816-4.787,0.101-32.039,1.072-40.899
			c1.676-15.276,3.339-29.565,8.181-35.706c1.299-1.891,9.021,5.377,9.861,6.209c7.559,7.462,10.322,21.643,17.3,48.164
			c1.923,7.307,3.174,14.742,3.534,22.232H462.042z"/>
	</g>
</g>
</svg>
