<?xml version="1.0" encoding="utf-8"?>
<!-- Generator: Adobe Illustrator 16.0.3, SVG Export Plug-In . SVG Version: 6.00 Build 0)  -->
<!DOCTYPE svg PUBLIC "-//W3C//DTD SVG 1.1//EN" "http://www.w3.org/Graphics/SVG/1.1/DTD/svg11.dtd">
<svg version="1.1" id="Capa_1" xmlns="http://www.w3.org/2000/svg" xmlns:xlink="http://www.w3.org/1999/xlink" x="0px" y="0px"
	 width="172.478px" height="470.961px" viewBox="0 0 172.478 470.961" enable-background="new 0 0 172.478 470.961"
	 xml:space="preserve">
<g>
	<defs>
		<rect id="SVGID_1_" x="-306.176" y="-70.775" width="792" height="612"/>
	</defs>
	<clipPath id="SVGID_2_">
		<use xlink:href="#SVGID_1_"  overflow="visible"/>
	</clipPath>
	<path clip-path="url(#SVGID_2_)" fill="#010103" d="M30.472,88.642c0,0-15.767-4.947-30.472,9.084c0,0,0.861,13.801,7.857,24.247
		l11.73-4.751l-8.75,8.732l2.745,2.375c0,0,22.563-7.687,22.72-27.091C36.302,101.238,29.563,97.478,30.472,88.642"/>
	<path clip-path="url(#SVGID_2_)" fill="#0D2E14" d="M35.523,84.174c0,0-5.173,2.18-5.83,5.508
		c-0.657,3.342,0.357,15.237,7.679,15.75c0,0,2.323,0.905,4.086-2.711C41.458,102.721,34.609,90.918,35.523,84.174"/>
	<path clip-path="url(#SVGID_2_)" fill="#1D1A1B" d="M141.999,88.507c0.909,8.832-5.83,12.595-5.83,12.595
		c0.156,19.4,22.729,27.097,22.729,27.097l2.74-2.38l-8.753-8.732l11.729,4.755c7-10.45,7.864-24.251,7.864-24.251
		C157.761,83.556,141.999,88.507,141.999,88.507"/>
	<path clip-path="url(#SVGID_2_)" fill="#164C22" d="M136.943,82.155c0.909,6.739-5.936,18.552-5.936,18.552
		c1.759,3.606,4.081,2.706,4.081,2.706c7.319-0.514,8.337-12.422,7.681-15.746C142.112,84.322,136.943,82.155,136.943,82.155"/>
	<path clip-path="url(#SVGID_2_)" fill="#CB9767" d="M26.596,81.607c4.112,12.77,12.53,11.686,12.53,11.686l-5.817-26.117
		C33.309,67.176,22.489,68.842,26.596,81.607"/>
	<path clip-path="url(#SVGID_2_)" fill="#CB9767" d="M137.818,67.176l-5.809,26.117c0,0,8.413,1.084,12.521-11.686
		C148.642,68.843,137.818,67.176,137.818,67.176"/>
	<rect x="75.803" y="125.798" clip-path="url(#SVGID_2_)" fill="#CB9767" width="19.77" height="19.739"/>
	<path clip-path="url(#SVGID_2_)" fill="#D3AB80" d="M85.461,6.549c-29.863,0-54.066,24.155-54.066,53.958
		c0,29.811,5.803,75.167,54.066,75.167c53.275,0,54.066-45.356,54.066-75.167C139.527,30.704,115.329,6.549,85.461,6.549"/>
	<path clip-path="url(#SVGID_2_)" fill="#CB9767" d="M31.403,60.506c0,29.811,5.795,75.167,54.07,75.167V6.548
		C55.611,6.548,31.403,30.705,31.403,60.506"/>
	<path clip-path="url(#SVGID_2_)" fill="#010103" d="M29.523,27.563c-12.294,17.855,0.349,51.669,0.349,51.669
		c25.851-5.586,55.601-55.789,55.601-55.789V6.548C54.427,5.547,29.523,27.563,29.523,27.563"/>
	<path clip-path="url(#SVGID_2_)" fill="#1D1A1B" d="M85.178,6.549v16.894c0,0,30.315,50.472,56.159,56.05
		c0,0,12.338-34.075,0.034-51.93C141.372,27.563,116.225,5.548,85.178,6.549"/>
	<path clip-path="url(#SVGID_2_)" fill="#010103" d="M35.597,23.751c0.07,0.179-0.104,0.274-0.104,0.274
		c22.115-13.896,49.685-7.905,49.685-7.905V2.373C81.089-7.112,31.508,14.271,35.597,23.751"/>
	<path clip-path="url(#SVGID_2_)" fill="#1D1A1B" d="M85.108,1.35v13.744c0,0,27.575-5.987,49.685,7.909
		c0,0-0.025-0.095-0.096-0.278C133.693,20.05,124.566-0.925,85.108,1.35"/>
	<rect x="94.484" y="326.657" clip-path="url(#SVGID_2_)" fill="#EDC49B" width="22.794" height="129.251"/>
	<path clip-path="url(#SVGID_2_)" fill="#EDC49B" d="M92.961,458.536c0,5.43,0,9.832,9.828,9.832h32.004
		c5.43,0,9.824-3.071,9.824-8.492c0.043-2.784-1.849-7.092-9.711-9.459l-32.926-6.956C96.555,443.46,92.961,453.106,92.961,458.536"
		/>
	<rect x="54.053" y="326.657" clip-path="url(#SVGID_2_)" fill="#E6AF7E" width="22.785" height="129.251"/>
	<path clip-path="url(#SVGID_2_)" fill="#E6AF7E" d="M78.365,458.536c0,5.43,0,9.832-9.837,9.832H36.537
		c-5.429,0-9.832-3.071-9.832-8.492c-0.035-2.784,1.853-7.092,9.72-9.459l32.921-6.956C74.78,443.46,78.365,453.106,78.365,458.536"
		/>
	<path clip-path="url(#SVGID_2_)" fill="#EDC49B" d="M29.941,175.982h56.194v-30.594h-14.24
		C71.896,145.388,29.941,150.871,29.941,175.982"/>
	<path clip-path="url(#SVGID_2_)" fill="#E6AF7E" d="M48.462,180.168l-10.855-20.64c0,0-30.472,25.956-27.47,126.597H23.92
		C23.92,286.125,25.403,204.185,48.462,180.168"/>
	<path clip-path="url(#SVGID_2_)" fill="#E6AF7E" d="M25.943,296.889c0,5.238-4.163,9.489-9.293,9.489
		c-5.134,0-9.289-4.251-9.289-9.489v-8.132c0-5.229,4.155-9.479,9.289-9.479c5.13,0,9.293,4.25,9.293,9.479V296.889z"/>
	<path clip-path="url(#SVGID_2_)" fill="#E6AF7E" d="M32.421,292.39c0.522,1.462-0.239,3.063-1.701,3.577
		c-1.462,0.521-3.063-0.235-3.585-1.702l-1.567-4.167c-0.522-1.458,0.244-3.063,1.702-3.581c1.462-0.531,3.071,0.234,3.585,1.696
		L32.421,292.39z"/>
	<path clip-path="url(#SVGID_2_)" fill="#E6AF7E" d="M30.703,287.871c0,0-4.051-8.759-13.565-8.559v10.643h8.526L30.703,287.871z"/>
	<path clip-path="url(#SVGID_2_)" fill="#1D1A1D" d="M67.201,146.228c0,0-20.766,4.677-29.594,13.3c0,0,10.751,6.57,6.861,78.962
		h-0.143L25.943,341.397h60.192V238.49v-62.508v-35.318L67.201,146.228z"/>
	<path clip-path="url(#SVGID_2_)" fill="#D7D3CC" d="M67.201,146.228c1.566,8.932,15.436,13.3,15.436,13.3l3.246-18.864
		l-17.146-1.888L67.201,146.228z"/>
	<path clip-path="url(#SVGID_2_)" fill="#EDC49B" d="M141.441,175.982H85.239v-30.594h14.245
		C99.484,145.388,141.441,150.871,141.441,175.982"/>
	<path clip-path="url(#SVGID_2_)" fill="#EDC49B" d="M122.908,180.168l10.859-20.64c0,0,30.481,25.956,27.475,126.597h-13.788
		C147.454,286.125,145.97,204.185,122.908,180.168"/>
	<path clip-path="url(#SVGID_2_)" fill="#EDC49B" d="M145.435,296.889c0,5.238,4.16,9.489,9.289,9.489
		c5.13,0,9.293-4.251,9.293-9.489v-8.132c0-5.229-4.163-9.479-9.293-9.479c-5.129,0-9.289,4.25-9.289,9.479V296.889z"/>
	<path clip-path="url(#SVGID_2_)" fill="#EDC49B" d="M138.949,292.39c-0.514,1.462,0.248,3.063,1.705,3.577
		c1.467,0.521,3.066-0.235,3.59-1.702l1.562-4.167c0.522-1.458-0.244-3.063-1.701-3.581c-1.457-0.531-3.067,0.234-3.585,1.696
		L138.949,292.39z"/>
	<path clip-path="url(#SVGID_2_)" fill="#EDC49B" d="M140.676,287.871c0,0,4.046-8.759,13.561-8.559v10.643h-8.522L140.676,287.871z
		"/>
	<path clip-path="url(#SVGID_2_)" fill="#3E393C" d="M104.178,146.228c0,0,20.761,4.677,29.589,13.3c0,0-10.751,6.57-6.857,78.962
		h0.14l18.386,102.907H85.239V238.49v-62.508v-35.318L104.178,146.228z"/>
	<path clip-path="url(#SVGID_2_)" fill="#D7D3CC" d="M104.178,146.228c-1.575,8.932-15.441,13.3-15.441,13.3l-3.242-18.864
		l17.147-1.888L104.178,146.228z"/>
	<path clip-path="url(#SVGID_2_)" fill="#2B272A" d="M34.083,451.244c0,0,6.708,2.628,7.222,14.514h11.229
		c0,0-0.474-11.485-8.24-17.002C44.294,448.755,37.002,449.73,34.083,451.244"/>
	<path clip-path="url(#SVGID_2_)" fill="#2B272A" d="M49.659,459.415c0,0,22.875-1.244,27.179-8.302c0,0,1.379,2.045,1.296,4.795
		c0,0-5.382,5.995-28.475,7.021V459.415z"/>
	<path clip-path="url(#SVGID_2_)" fill="#131113" d="M78.909,468.794c0,1.201-0.974,2.167-2.18,2.167H28.332
		c-1.196,0-2.171-0.966-2.171-2.167v-0.861c0-1.201,0.975-2.176,2.171-2.176h48.397c1.206,0,2.18,0.975,2.18,2.176V468.794z"/>
	<path clip-path="url(#SVGID_2_)" fill="#2B272A" d="M137.244,451.244c0,0-6.709,2.628-7.227,14.514h-11.229
		c0,0,0.482-11.485,8.244-17.002C127.032,448.755,134.32,449.73,137.244,451.244"/>
	<path clip-path="url(#SVGID_2_)" fill="#2B272A" d="M121.671,459.415c0,0-22.88-1.244-27.187-8.302c0,0-1.38,2.045-1.292,4.795
		c0,0,5.377,5.995,28.479,7.021V459.415z"/>
	<path clip-path="url(#SVGID_2_)" fill="#131113" d="M92.422,468.794c0,1.201,0.97,2.167,2.171,2.167h48.397
		c1.2,0,2.175-0.966,2.175-2.167v-0.861c0-1.201-0.975-2.176-2.175-2.176H94.593c-1.201,0-2.171,0.975-2.171,2.176V468.794z"/>
	<path clip-path="url(#SVGID_2_)" fill="#2B272A" d="M25.139,276.084c0.096,0.84-0.458,1.592-1.227,1.679l-13.209,1.507
		c-0.766,0.095-1.475-0.515-1.566-1.358c-0.096-0.845,0.448-1.598,1.218-1.68l13.213-1.51
		C24.337,274.64,25.038,275.24,25.139,276.084"/>
	<polygon clip-path="url(#SVGID_2_)" fill="#A2804F" points="25.147,273.857 25.147,273.857 9.127,273.857 9.127,267.453 
		25.147,267.453 	"/>
	<path clip-path="url(#SVGID_2_)" fill="#699889" d="M98.4,142.047c3.594,0.304,8.18,1.062,13.131,2.471
		c3.197,0.862,7.774,2.389,12.604,4.908c2.219,1.131,4.407,2.423,6.526,3.885c1.675,1.157,3.106,2.423,4.368,3.729
		c3.95,3.68,7.404,8.318,9.615,14.131l3.768,7.939l-18.695,9.103l0.135,7.774l4.168,73.583H85.692v-96.704v-1.574v-16.685
		C94.875,154.608,98.4,142.047,98.4,142.047"/>
	<path clip-path="url(#SVGID_2_)" fill="#647C75" d="M73.875,142.047c-3.598,0.304-8.188,1.062-13.13,2.471
		c-3.198,0.862-7.779,2.389-12.6,4.908c-2.228,1.131-4.416,2.423-6.531,3.885c-1.679,1.157-3.11,2.423-4.372,3.729
		c-3.946,3.68-7.405,8.318-9.611,14.131l-3.772,7.939l18.7,9.103l-0.144,7.774l-4.155,73.583h48.327v-96.704v-1.574v-16.685
		C77.399,154.608,73.875,142.047,73.875,142.047"/>
	<path clip-path="url(#SVGID_2_)" fill="#1D1A1B" d="M76.503,141.921l-4.286,0.213c0,14.428,14.37,13.957,14.37,13.957v-4.115
		C77.808,151.976,76.503,141.921,76.503,141.921"/>
	<path clip-path="url(#SVGID_2_)" fill="#1D1A1B" d="M96.468,141.921l4.281,0.213c0,14.428-14.37,13.957-14.37,13.957v-4.115
		C95.163,151.976,96.468,141.921,96.468,141.921"/>
</g>
</svg>
