<?xml version="1.0" encoding="utf-8"?>
<!-- Generator: Adobe Illustrator 16.0.3, SVG Export Plug-In . SVG Version: 6.00 Build 0)  -->
<!DOCTYPE svg PUBLIC "-//W3C//DTD SVG 1.1//EN" "http://www.w3.org/Graphics/SVG/1.1/DTD/svg11.dtd">
<svg version="1.1" id="Capa_1" xmlns="http://www.w3.org/2000/svg" xmlns:xlink="http://www.w3.org/1999/xlink" x="0px" y="0px"
	 width="426.782px" height="285.524px" viewBox="0 0 426.782 285.524" enable-background="new 0 0 426.782 285.524"
	 xml:space="preserve">
<g>
	<defs>
		<path id="SVGID_1_" d="M0,44.617c0,24.64,19.975,44.615,44.616,44.615s44.617-19.975,44.617-44.615
			C89.233,19.976,69.257,0,44.616,0S0,19.976,0,44.617"/>
	</defs>
	<clipPath id="SVGID_2_">
		<use xlink:href="#SVGID_1_"  overflow="visible"/>
	</clipPath>
	
		<radialGradient id="SVGID_3_" cx="-183.0552" cy="422.2012" r="1.0002" gradientTransform="matrix(44.6163 0 0 -44.6163 8211.8496 18881.6699)" gradientUnits="userSpaceOnUse">
		<stop  offset="0" style="stop-color:#0475A3"/>
		<stop  offset="1" style="stop-color:#08427F"/>
	</radialGradient>
	<rect clip-path="url(#SVGID_2_)" fill="url(#SVGID_3_)" width="89.233" height="89.232"/>
</g>
<g>
	<defs>
		<path id="SVGID_4_" d="M284.536,240.908c0,24.642,19.978,44.616,44.617,44.616s44.617-19.975,44.617-44.616
			c0-24.641-19.978-44.616-44.617-44.616S284.536,216.268,284.536,240.908"/>
	</defs>
	<clipPath id="SVGID_5_">
		<use xlink:href="#SVGID_4_"  overflow="visible"/>
	</clipPath>
	
		<radialGradient id="SVGID_6_" cx="-183.0557" cy="422.2012" r="1" gradientTransform="matrix(44.6163 0 0 -44.6163 8496.4121 19077.9824)" gradientUnits="userSpaceOnUse">
		<stop  offset="0" style="stop-color:#0C2C5F"/>
		<stop  offset="1" style="stop-color:#06113A"/>
	</radialGradient>
	<rect x="284.536" y="196.292" clip-path="url(#SVGID_5_)" fill="url(#SVGID_6_)" width="89.234" height="89.232"/>
</g>
<g>
	<polygon fill="#4CB9CF" points="194.108,140.77 211.077,108.043 161.275,108.099 144.305,140.826 161.408,176.347 211.211,176.292 
			"/>
	<polygon fill="#F53483" points="201.614,42.49 184.872,77.261 235.128,77.261 251.842,42.547 234.455,9.013 184.256,9.013 	"/>
	<polygon fill="#FE5717" points="148.304,42.49 131.562,77.261 181.096,77.261 197.81,42.547 180.423,9.013 130.947,9.013 	"/>
	<polygon fill="#4CB9CF" points="288.913,9.014 238.289,9.014 255.647,42.491 238.905,77.262 289.585,77.262 306.3,42.547 	"/>
	<path fill="#3EAB7B" d="M418.562,56.454l-25.403,32.788L358.017,88.7c0.326,1.242,0.517,2.538,0.517,3.88
		c0,5.355-2.767,10.071-6.95,12.81l12.182,33.614l39.184,11.952c14.735-15.074,23.833-35.682,23.833-58.376
		C426.782,79.648,423.829,67.394,418.562,56.454"/>
	<path fill="#3166AB" d="M111.82,176.4l45.813-0.05l-17.132-35.581l16.939-32.666l-51.9,0.057c-1.339,0-2.669,0.034-3.992,0.097
		L89.59,144.463L111.82,176.4z"/>
	<path fill="#8678B7" d="M363.08,46.733l-21.25,30.528h1.387c5.803,0,10.861,3.244,13.46,8.014l34.834,0.538l25.341-32.71
		c-12.99-24.133-37.498-41.183-66.116-43.747L363.08,46.733z"/>
	<polygon fill="#FE5717" points="120.538,275.293 170.07,275.293 186.606,240.949 169.026,207.045 119.55,207.045 137.1,240.893 	
		"/>
	<path fill="#3166AB" d="M310.105,42.49l-16.742,34.771h44.319l21.631-31.077L347.067,9.105c-1.276-0.058-2.56-0.092-3.851-0.092
		h-50.47L310.105,42.49z"/>
	<polygon fill="#F53483" points="248.14,140.77 265.14,107.984 214.912,108.041 197.912,140.826 214.986,176.289 265.215,176.232 	
		"/>
	<path fill="#3EAB7B" d="M79.22,233.074l14.046-32.22c-1.903-2.553-3.046-5.706-3.046-9.128c0-0.975,0.102-1.924,0.276-2.848
		l-38.005,2.632l-25.192-29.136c-3.439,9.136-5.326,19.026-5.326,29.352c0,19.103,6.448,36.726,17.275,50.816L79.22,233.074z"/>
	<path fill="#4CB9CF" d="M296.517,207.045h-69.625l17.551,33.848l-16.563,34.4h69.183c-8.983-8.704-14.576-20.888-14.576-34.385
		C282.487,227.684,287.849,215.71,296.517,207.045"/>
	<path fill="#F4CE13" d="M133.296,240.949l-17.58-33.904H105.54c-3.693,0-7.085-1.314-9.733-3.499l-14.147,32.448l-39.71,9.583
		c15.341,18.216,37.967,29.716,63.59,29.716h11.221L133.296,240.949z"/>
	<path fill="#F4CE13" d="M361.144,141.763l-12.623-34.837c-1.666,0.619-3.461,0.973-5.343,0.973l-20.862,0.023l-17.062,32.904
		l17.018,35.344l20.944-0.023c21.989,0,42.021-8.543,56.957-22.479L361.144,141.763z"/>
	<path fill="#F4CE13" d="M91.282,44.617c0,12.619-4.89,24.091-12.868,32.645h49.371l16.714-34.715L127.113,9.014H75.41
		C85.153,17.779,91.282,30.479,91.282,44.617"/>
	<path fill="#8678B7" d="M53.952,187.999l37.658-2.609c2.418-5.29,7.754-8.981,13.967-8.981l2.099-0.003l-21.852-31.393
		l12.054-36.498c-31.091,2.839-57.311,22.778-69.15,50.308L53.952,187.999z"/>
	<polygon fill="#FE5717" points="301.45,140.77 318.48,107.927 268.976,107.98 251.945,140.826 268.991,176.229 318.497,176.174 	
		"/>
	<polygon fill="#F53483" points="240.639,240.949 223.058,207.045 172.859,207.045 190.41,240.893 173.847,275.293 224.103,275.293 
			"/>
</g>
<g>
	<path fill="#FFFFFF" d="M29.692,75.753c0.485,0.269,1.328,0.466,1.992,0.466c1.095,0,1.651-0.574,1.651-1.364
		c0-0.879-0.539-1.31-1.562-1.974c-1.651-1.005-2.279-2.279-2.279-3.374c0-1.938,1.292-3.553,3.804-3.553
		c0.808,0,1.561,0.215,1.902,0.431l-0.377,2.028c-0.341-0.215-0.861-0.413-1.525-0.413c-1.005,0-1.489,0.61-1.489,1.256
		c0,0.718,0.359,1.095,1.651,1.884c1.615,0.969,2.189,2.189,2.189,3.463c0,2.207-1.633,3.66-3.983,3.66
		c-0.969,0-1.902-0.251-2.315-0.484L29.692,75.753z"/>
	<path fill="#FFFFFF" d="M39.65,67.104v2.279h1.723v1.669H39.65v4.001c0,1.023,0.431,1.274,0.879,1.274
		c0.233,0,0.413-0.018,0.628-0.054l0.018,1.831c-0.323,0.09-0.826,0.161-1.436,0.161c-0.682,0-1.274-0.161-1.705-0.556
		c-0.467-0.466-0.736-1.13-0.736-2.512v-4.145h-1.041v-1.669H37.3v-1.543L39.65,67.104z"/>
	<path fill="#FFFFFF" d="M48.389,76.147c0,0.7,0.036,1.417,0.125,2.01h-2.1l-0.125-0.861h-0.054
		c-0.466,0.664-1.167,1.005-1.938,1.005c-1.328,0-2.315-1.112-2.315-2.656c0-2.315,2.028-3.248,4.02-3.266v-0.197
		c0-0.7-0.395-1.202-1.238-1.202c-0.7,0-1.256,0.197-1.795,0.521l-0.431-1.597c0.503-0.269,1.508-0.664,2.746-0.664
		c2.674,0,3.104,1.866,3.104,3.661V76.147z M46.074,73.887c-0.771,0.018-1.866,0.287-1.866,1.507c0,0.861,0.484,1.185,0.844,1.185
		c0.395,0,0.807-0.233,0.969-0.754c0.036-0.125,0.054-0.251,0.054-0.413V73.887z"/>
	<path fill="#FFFFFF" d="M50.02,72.021c0-0.861-0.036-1.813-0.071-2.638h2.027l0.126,1.274h0.071
		c0.377-0.933,1.095-1.436,1.723-1.436c0.251,0,0.377,0.018,0.503,0.054v2.315c-0.144-0.018-0.305-0.018-0.503-0.018
		c-0.502,0-1.166,0.341-1.417,1.238c-0.072,0.198-0.107,0.521-0.107,0.879v4.468H50.02V72.021z"/>
	<path fill="#FFFFFF" d="M58.364,67.104v2.279h1.723v1.669h-1.723v4.001c0,1.023,0.431,1.274,0.879,1.274
		c0.233,0,0.413-0.018,0.628-0.054l0.018,1.831c-0.323,0.09-0.826,0.161-1.436,0.161c-0.682,0-1.274-0.161-1.705-0.556
		c-0.466-0.466-0.735-1.13-0.735-2.512v-4.145h-1.041v-1.669h1.041v-1.543L58.364,67.104z"/>
</g>
<g>
	<path fill="#FFFFFF" d="M308.393,258.775h6.357v2.473h-3.516v3.754h3.299v2.365h-3.299v6.032h-2.842V258.775z"/>
	<path fill="#FFFFFF" d="M319.31,259.99c0.021,0.911-0.63,1.54-1.497,1.54c-0.781,0-1.433-0.629-1.411-1.54
		c-0.021-0.955,0.673-1.563,1.454-1.563C318.68,258.428,319.31,259.035,319.31,259.99z M316.467,273.399v-10.61h2.843v10.61H316.467
		z"/>
	<path fill="#FFFFFF" d="M321.307,265.979c0-1.149-0.043-2.17-0.087-3.189h2.452l0.151,1.215h0.044
		c0.542-0.824,1.454-1.389,2.561-1.389c2.018,0,2.82,1.605,2.82,3.971v6.813h-2.843v-6.64c0-0.89-0.217-1.758-1.041-1.758
		c-0.478,0-0.868,0.326-1.063,0.955c-0.087,0.217-0.151,0.564-0.151,0.977v6.466h-2.843V265.979z"/>
	<path fill="#FFFFFF" d="M334.07,259.99c0.021,0.911-0.63,1.54-1.497,1.54c-0.781,0-1.433-0.629-1.411-1.54
		c-0.021-0.955,0.673-1.563,1.454-1.563C333.44,258.428,334.07,259.035,334.07,259.99z M331.227,273.399v-10.61h2.843v10.61H331.227
		z"/>
	<path fill="#FFFFFF" d="M335.98,270.839c0.412,0.261,1.193,0.564,1.909,0.564c0.738,0,1.15-0.325,1.15-0.955
		c0-0.542-0.304-0.89-1.236-1.432c-1.715-0.977-2.148-2.083-2.148-3.06c0-1.909,1.367-3.363,3.493-3.363
		c0.89,0,1.584,0.217,2.148,0.499l-0.499,2.083c-0.412-0.238-0.911-0.434-1.476-0.434c-0.738,0-1.063,0.434-1.063,0.911
		c0,0.456,0.239,0.737,1.237,1.323c1.562,0.89,2.147,1.996,2.147,3.212c0,2.169-1.562,3.341-3.754,3.341
		c-0.89,0-1.931-0.238-2.408-0.607L335.98,270.839z"/>
	<path fill="#FFFFFF" d="M343.099,258.385h2.843v5.511h0.043c0.261-0.369,0.564-0.65,0.911-0.89
		c0.412-0.238,0.912-0.391,1.433-0.391c1.952,0,2.712,1.649,2.712,4.34v6.444h-2.843v-6.444c0-1.041-0.194-1.953-1.041-1.953
		c-0.478,0-0.89,0.282-1.106,0.998c-0.044,0.174-0.108,0.564-0.108,0.803v6.597h-2.843V258.385z"/>
</g>
</svg>
