<?xml version="1.0" encoding="utf-8"?>
<!-- Generator: Adobe Illustrator 16.0.3, SVG Export Plug-In . SVG Version: 6.00 Build 0)  -->
<!DOCTYPE svg PUBLIC "-//W3C//DTD SVG 1.1//EN" "http://www.w3.org/Graphics/SVG/1.1/DTD/svg11.dtd">
<svg version="1.1" id="Capa_1" xmlns="http://www.w3.org/2000/svg" xmlns:xlink="http://www.w3.org/1999/xlink" x="0px" y="0px"
	 width="538.631px" height="473.277px" viewBox="0 0 538.631 473.277" enable-background="new 0 0 538.631 473.277"
	 xml:space="preserve">
<g>
	<defs>
		<rect id="SVGID_1_" x="-140.369" y="-77.933" width="792" height="612"/>
	</defs>
	<clipPath id="SVGID_2_">
		<use xlink:href="#SVGID_1_"  overflow="visible"/>
	</clipPath>
	<path clip-path="url(#SVGID_2_)" fill="#FA6C5C" d="M339.26,255.549c0,0-3.946-17.913-5.686-21.794
		c-17.855-18.468-18.143-34.643-18.534-40.076s9.923-48.724,9.923-48.724s9.511,2.848,10.814,6.285
		c2.623,25.947-2.854,43.299-2.854,43.299s9.827,11.211,14.85,20.947c2.139,4.147,11.414,18.605,11.414,18.605L339.26,255.549z"/>
	<path clip-path="url(#SVGID_2_)" fill="#FA6C5C" d="M349.794,238.965l1.469,12.905c0,0,11.78,1.135,16.01-3.396
		c4.23-4.53,5.361-14.72,5.361-14.72l-4.683-11.838L349.794,238.965z"/>
	<path clip-path="url(#SVGID_2_)" fill="#FB9A85" d="M322.6,324.629c0,0-21.898,17.843-25.854,21.392
		c-5.538,4.968-5.176,10.611-2.218,16.241c2.682,5.104,7.589,15.292,11.697,23.392c4.107,8.101,10.222,24.926,10.222,24.926
		s0.362,1.294,6.707,1.717c3.515,0.233,7.168-4.475,7.168-4.475s-5.658-25.349-6.202-30.621c-0.966-9.353-8.963-16.657-8.963-16.657
		l24.352-12.489C339.508,348.054,327.627,325.939,322.6,324.629"/>
	<path clip-path="url(#SVGID_2_)" fill="#FB9A85" d="M355.082,365.166c0,0,3.26-9.944,17.771-7.56
		c14.513,2.386,12.579,6.079,12.579,6.079s-7.736,17.128-9.025,22.307s7.131,12.316,7.453,23.026
		c0.148,4.917-0.159,32.853-0.159,32.853h-13.096c0,0-3.999-15.067-6.313-24.252c-3.357-13.324-7.767-18.593-11.445-28.886
		C350.932,383.371,355.082,368.809,355.082,365.166"/>
	<path clip-path="url(#SVGID_2_)" fill="#374CA0" d="M313.275,409.084c-0.59-0.087-1.205-0.107-1.828-0.081
		c-2.103,2.191-5.442,5.604-8.635,8.585c-3.567,3.331-5.549,6.519-9.309,9.234c-3.242,2.343,1.415,5.261,6.704,6.886
		c2.646,0.813,6.553,0.332,9.248-0.419c3.826-1.065,4.472-3.199,9.338-7.769c-0.005-1.978-0.017-3.986-0.04-5.837
		C318.662,412.136,313.275,409.084,313.275,409.084"/>
	<path clip-path="url(#SVGID_2_)" fill="#1C3595" d="M328.805,419.551c3.172-1.888,5.178-5.717,5.178-5.717
		s-0.337-10.122-3.73-10.458c-2.274-0.226-0.748,6.984-4.271,6.645c-4.204-0.405-9.465-4.185-12.38-3.286
		c0,0-0.839,0.898-2.154,2.269c0.623-0.026,1.238-0.006,1.828,0.081c0,0,5.387,3.052,5.479,10.6
		c0.022,1.851,0.034,3.859,0.039,5.837c0.099-0.093,0.173-0.171,0.275-0.266C321.511,422.994,325.94,421.255,328.805,419.551"/>
	<path clip-path="url(#SVGID_2_)" fill="#FFFFFF" d="M315.157,415.871c0,0,0.807,3.618,0,9.024c-0.528,3.548-2.511,6.79-2.511,6.79
		l4.284-4.336C316.931,427.35,318.864,418.771,315.157,415.871"/>
	<path clip-path="url(#SVGID_2_)" fill="#FFFFFF" d="M318.794,411.721c0,0,2.868,5,2.437,11.425
		c-0.432,6.424,2.871-1.584,2.871-1.584S323.396,413.372,318.794,411.721"/>
	<path clip-path="url(#SVGID_2_)" fill="#FFFFFF" d="M315.167,406.639c-3.24,2.67-5.406,6.18-7.734,8.944
		c-2.329,2.765,0.309,4.483,3.097,1.725c3.125-3.092,8.226-9.637,8.226-9.637S316.063,406.375,315.167,406.639"/>
	<path clip-path="url(#SVGID_2_)" fill="#060507" d="M292.46,428.3c0,0,3.192-0.459,5.343,1.861c2.149,2.32,4.548,3.201,9.037,2.8
		c4.488-0.403,7.248-4.918,12.051-8.303s9.333-4.782,11.229-6.157c2.47-1.79,3.568-7.951,3.568-7.951s1.25,3.213,1.108,4.46
		c-0.253,2.217-1.958,4.158-2.974,5.023c-1.384,1.178-2.653,2.403-5.968,3.414c-1.694,0.517-5.427,2.515-7.007,3.784
		s-4.719,6.852-10.065,7.909c-5.346,1.058-11.325,0.34-14.374-2.543C291.359,429.716,292.46,428.3,292.46,428.3"/>
	<path clip-path="url(#SVGID_2_)" fill="#FA6C5C" d="M356.932,389.258c1.889,1.066,5.757,2.717,6.401,5.599l0.645,2.88
		c0,0-4.629-3.271-6.285-4.834C356.035,391.341,356.932,389.258,356.932,389.258"/>
	<path clip-path="url(#SVGID_2_)" fill="#374CA0" d="M365.244,444.593c-1.841,5.028-4.26,11.701-5.598,15.643
		c-1.729,5.092-1.475,7.285-1.475,7.285s6.213,6.355,10.5,5.711c4.286-0.645,8.4-3.479,9.992-5.905
		c0.621-0.947,1.241-2.377,1.83-3.986c-0.82-6.049-2.345-14.47-4.731-17.254C373.624,443.591,368.976,443.857,365.244,444.593"/>
	<path clip-path="url(#SVGID_2_)" fill="#1C3595" d="M383.82,439.284c0,0-9.584-7.084-16.116-1.379c0,0-1.063,2.872-2.46,6.688
		c3.731-0.735,8.38-1.002,10.519,1.493c2.387,2.784,3.911,11.205,4.731,17.254c1.492-4.077,2.777-9.35,3.326-11.162
		C385.518,446.569,383.82,439.284,383.82,439.284"/>
	<path clip-path="url(#SVGID_2_)" fill="#FFFFFF" d="M378.775,466.349c0.982-5.396-2.69-14.551-2.69-14.551
		s-0.601,8.29-0.096,16.727C376.618,467.501,377.606,466.739,378.775,466.349"/>
	<path clip-path="url(#SVGID_2_)" fill="#FFFFFF" d="M382.814,459.514c2.793-8.862-3.864-14.395-3.864-14.395
		s2.816,8.164,2.759,16.634C381.896,460.925,382.254,460.146,382.814,459.514"/>
	<path clip-path="url(#SVGID_2_)" fill="#FFFFFF" d="M370.705,436.175c0,0-2.475,9.105-3.302,12.813s2.957,7.918,5.375,0.617
		c2.417-7.302,4.463-13.43,4.463-13.43S373.96,433.754,370.705,436.175"/>
	<path clip-path="url(#SVGID_2_)" fill="#060507" d="M358.172,467.521c0,0,3.729-2.417,7.115-1.128
		c3.385,1.289,4.996,6.124,9.348,1.934c4.352-4.189,7.063-8.529,7.595-10.423c0.533-1.895,2.346-10.22,2.346-10.22
		s0.593,3.297,0,6.813s-3.996,10.993-6.718,13.669c-2.721,2.677-7.252,7.253-16.438,3.546
		C356.019,469.532,358.172,467.521,358.172,467.521"/>
	<path clip-path="url(#SVGID_2_)" fill="#FA6C5C" d="M295.867,355.884c0,0,3.553,3.474,4.52,5.73l0.968,2.256
		C301.354,363.87,297.569,362.646,295.867,355.884"/>
	<path clip-path="url(#SVGID_2_)" fill="#060507" d="M313.271,373.173c5.414-2.404,6.699-5.419,7.057-6.229
		c-1.449-2.739-5.172-6.401-5.172-6.401l6.291-3.085c-0.968-2.638-2.271-7.347-4.912-10.567c-3.643-4.441-8.748-7.08-11.893-7.526
		c-2.611,2.047-7.047,5.957-8.176,6.97c-5.537,4.967-5.537,11.735-2.579,17.365c1.584,3.013,4.076,6.71,6.694,10.89
		C304.891,374.682,310.31,374.487,313.271,373.173"/>
	<path clip-path="url(#SVGID_2_)" fill="#060507" d="M368.142,372.885c-6.906-2.384-12.835,2.089-15.222,5.496
		c-0.684,4.374-0.758,8.426,0.118,10.877c1.651,4.618,4.111,9.26,5.896,13.037c12.431,3.758,18.396-3.243,20.588-6.941
		c-1.595-3.037-3.692-6.997-3.143-9.201c0.176-0.708,0.48-1.651,0.861-2.731C376.891,380.869,376.106,375.635,368.142,372.885"/>
	<path clip-path="url(#SVGID_2_)" fill="#060507" d="M337.072,306.181c0,0-9.767,10.421-13.733,15.139
		c-2.521,2.998-11.892,12.435-11.892,12.435s6.119,1.32,11.268,7.657c4.355,5.36,5.21,12.57,5.21,12.57s6.34-0.875,14.826-4.512
		c7.897-3.385,13.39-7.951,13.39-7.951l-1.617,27.775c0,0,3.913-5.135,13.369-3.708c8.542,1.289,12.788,9.023,12.788,9.023
		s10.239-15.912,12.824-30.636c1.785-10.169,0-22.29,0-22.29S351.055,300.067,337.072,306.181"/>
	<path clip-path="url(#SVGID_2_)" fill="#060507" d="M372.634,233.755c0,0-0.98,5.419-6.676,10.207
		c-3.535,2.973-10.421,4.942-15.41,1.961c1.129-6.211,2.325-8.966,2.325-8.966l-8.08-1.161c0,0-6.649,15.065-7.947,21.778
		c-3.838,19.861,0.318,49.456,0.318,49.456l-4.24,3.614c0,0,17.798,12.609,20.958,32.752c0.635-0.696,1.455-1.192,2.259-1.878
		c6.496-17.405,18.66-20.629,29.179-21.187c3.55-0.188,8.186,1.352,8.186,1.352s-3.555-12.68-4.931-16.379
		c-1.877-5.044-3.065-11.925-3.47-15.001c-0.857-6.527,11.95-34.523,7.008-42.474C385.793,237.664,372.634,233.755,372.634,233.755"
		/>
	<path clip-path="url(#SVGID_2_)" fill="#FB9A85" d="M366.831,204.889c-4.65-5.279-20.771-9.459-27.771,3.271
		c-1.54,2.803-1.549,8.265-1.752,11.377c-0.766,11.71,6.639,23.765,12.43,22.278c4.105-1.055,13.137-5.713,16.632-12.802
		C370.303,221.033,372.89,211.766,366.831,204.889"/>
	<path clip-path="url(#SVGID_2_)" fill="#FFFFFF" d="M335.982,307.997c0,0,4.327,9.127,17.725,13.107
		c19.178,5.699,38.39-4.359,38.39-4.359s0.29-4.343-1.642-5.633c-4.938,0.968-18.093,8.429-35.777,3.976
		c-11.924-3.002-17.981-10.545-17.981-10.545S335.768,306.385,335.982,307.997"/>
	<path clip-path="url(#SVGID_2_)" fill="#FA6C5C" d="M324.963,140.442c0,0,2.495-1.773,3.373-1.773s12.162,5.927,12.162,5.927v6.644
		L324.963,140.442z"/>
	<path clip-path="url(#SVGID_2_)" fill="#FB9A85" d="M377.241,239.174c14.346-7.831,19.893,3.272,23.159,3.688
		c3.266,0.414,8.213-3.688,19.387-3.688c6.534-6.919,12.087-24.919,12.087-24.919s-7.925-7.459,0.168-15.697
		c0.412-0.874,1.417-1.183,3.032-0.787c1.742-0.815,2.924,0.152,3.406,1.306c1.882-0.67,2.744,0.287,2.956,1.787
		c1.504-0.792,3.33,0.551,3.062,2.109c-0.343,1.991,0.664,7.259-0.752,14.558c-0.684,3.525-2.448,13.195-3.008,16.224
		c-1.72,9.304-5.536,18.813-13.216,22.089c-15.042,6.417-19.63,8.973-26.443,9.758c-6.813,0.786-14.726,0.493-14.726,0.493
		L377.241,239.174z"/>
	<path clip-path="url(#SVGID_2_)" fill="#FB9A85" d="M384.575,265.602c2.593,0.13,7.238,0.435,8.55,0.521
		c0.372-3.389,0.176-6.909-1.013-10.279c-4.773-13.538-14.871-16.67-14.871-16.67c-6.019,4.358-4.488,14.307-4.607,17.466
		c-0.089,2.363,2.194,9.424,3.604,15.284C378.896,269.13,382.678,265.507,384.575,265.602"/>
	<path clip-path="url(#SVGID_2_)" fill="#FA6C5C" d="M393.125,266.123c-1.121,10.221-7.432,19.229-7.432,19.229
		s7.212-6.903,7.812-19.204C393.505,266.148,393.35,266.138,393.125,266.123"/>
	<path clip-path="url(#SVGID_2_)" fill="#FA6C5C" d="M384.575,265.602c-1.897-0.095-5.679,3.528-8.338,6.322
		c0.475,1.974,0.852,3.813,1.004,5.288c0.605,5.858,8.452,8.141,8.452,8.141s6.311-9.009,7.432-19.229
		C391.813,266.036,387.168,265.731,384.575,265.602"/>
	<path clip-path="url(#SVGID_2_)" fill="#060507" d="M296.294,123.629c0.38-0.189,0.772-0.349,1.186-0.439l-41.643-24.042
		c-1.73-0.999-3.962-0.401-4.961,1.329s-0.401,3.963,1.329,4.961l40.582,23.43C292.638,126.604,293.806,124.248,296.294,123.629"/>
	<path clip-path="url(#SVGID_2_)" fill="#1C3595" d="M311.511,98.844c5.502,20.533-0.591,47.732-13.608,60.75
		s-28.031,6.925-33.533-13.609c-5.502-20.534,0.591-47.732,13.608-60.75S306.009,78.31,311.511,98.844"/>
	<polygon clip-path="url(#SVGID_2_)" fill="#1C3595" points="276.138,164.281 282.074,167.738 305.378,83.846 298.922,80.089 	"/>
	<path clip-path="url(#SVGID_2_)" fill="#374CA0" d="M316.829,101.946c5.502,20.534-0.591,47.733-13.608,60.75
		c-13.019,13.019-28.031,6.925-33.533-13.608c-5.502-20.534,0.591-47.732,13.608-60.75S311.327,81.413,316.829,101.946"/>
	<path clip-path="url(#SVGID_2_)" fill="#1C3595" d="M320.374,104.137c5.502,20.534-0.591,47.732-13.609,60.75
		c-13.018,13.018-28.03,6.925-33.532-13.608c-5.502-20.534,0.591-47.733,13.608-60.75
		C299.858,77.511,314.872,83.604,320.374,104.137"/>
	<polygon clip-path="url(#SVGID_2_)" fill="#1C3595" points="285.001,169.575 290.938,173.032 314.241,89.14 307.784,85.383 	"/>
	<path clip-path="url(#SVGID_2_)" fill="#374CA0" d="M325.692,107.241c5.502,20.534-0.591,47.732-13.609,60.75
		c-13.018,13.018-28.03,6.925-33.532-13.608c-5.502-20.534,0.591-47.733,13.608-60.751
		C305.177,80.615,320.19,86.707,325.692,107.241"/>
	<path clip-path="url(#SVGID_2_)" fill="#060507" d="M490.28,235.712c0.376-0.198,0.761-0.371,1.145-0.547L304.557,127.276
		l-0.149-0.086c0,0-1.102-0.347-1.867,0.42c-1.115,1.117-1.625,3.443-1.166,5.206c0.313,1.207,1.182,1.692,1.182,1.692
		l185.703,107.217C487.323,239.643,487.661,237.09,490.28,235.712"/>
	<path clip-path="url(#SVGID_2_)" fill="#FB9A85" d="M431.552,200.072c0,0-3.142,4.751-3.868,6.867
		c-1.128,3.286,4.19,7.315,4.19,7.315l5.371,1.643c0,0-0.896-4.487-1.825-5.782c-0.735-1.024-4.029-3.176-4.029-3.176
		S436.064,204.745,431.552,200.072"/>
	<path clip-path="url(#SVGID_2_)" fill="#FA6C5C" d="M340.704,146.276c0,0,0.466,5.677,0.083,7.881
		c-0.594,3.424-7.195,4.393-7.195,4.393l-5.498-1.146c0,0,2.946-3.502,4.385-4.189c1.137-0.543,5.061-0.843,5.061-0.843
		S334.499,148.199,340.704,146.276"/>
	<path clip-path="url(#SVGID_2_)" fill="#FB9A85" d="M432.765,196.407c0,0-1.478,0.728-3.256,3.894
		c-1.778,3.167-1.231,4.903,0,5.019c1.231,0.116,5.221-5.671,5.221-5.671S436.41,196.407,432.765,196.407"/>
	<path clip-path="url(#SVGID_2_)" fill="#FB9A85" d="M435.439,197.769c0,0-1.479,0.728-3.256,3.895
		c-1.778,3.167-1.232,4.903,0,5.019c1.231,0.115,5.221-5.672,5.221-5.672S439.086,197.769,435.439,197.769"/>
	<path clip-path="url(#SVGID_2_)" fill="#FB9A85" d="M438.569,199.414c0,0-1.479,0.728-3.257,3.895
		c-1.778,3.166-1.231,4.903,0,5.019c1.231,0.115,5.221-5.672,5.221-5.672S442.215,199.414,438.569,199.414"/>
	<path clip-path="url(#SVGID_2_)" fill="#FB9A85" d="M441.942,201.2c0,0-1.479,0.728-3.257,3.895c-1.778,3.167-1.231,4.903,0,5.019
		c1.231,0.115,5.221-5.672,5.221-5.672S445.588,201.2,441.942,201.2"/>
	<path clip-path="url(#SVGID_2_)" fill="#FA6C5C" d="M329.164,137.83c0,0-1.479,0.728-3.257,3.895c-1.778,3.166-1.231,4.902,0,5.018
		c1.231,0.116,5.222-5.671,5.222-5.671S332.811,137.83,329.164,137.83"/>
	<path clip-path="url(#SVGID_2_)" fill="#FA6C5C" d="M331.839,139.192c0,0-1.479,0.728-3.257,3.895
		c-1.778,3.167-1.231,4.903,0,5.019c1.231,0.115,5.221-5.672,5.221-5.672S335.484,139.192,331.839,139.192"/>
	<path clip-path="url(#SVGID_2_)" fill="#FA6C5C" d="M334.968,140.836c0,0-1.479,0.728-3.257,3.895
		c-1.778,3.166-1.231,4.903,0,5.019c1.231,0.115,5.222-5.672,5.222-5.672S338.613,140.836,334.968,140.836"/>
	<path clip-path="url(#SVGID_2_)" fill="#FA6C5C" d="M338.341,142.623c0,0-1.479,0.728-3.257,3.894
		c-1.778,3.167-1.231,4.903,0,5.019s5.221-5.671,5.221-5.671S341.987,142.623,338.341,142.623"/>
	<path clip-path="url(#SVGID_2_)" fill="#FA6C5C" d="M425.911,253.696c0,0-4.19-1.01-6.446,0c-2.257,1.01-5.479,3.588-5.479,3.588
		s2.9,1.935,5.963,0C423.01,255.351,425.911,253.696,425.911,253.696"/>
	<polygon clip-path="url(#SVGID_2_)" fill="#FFFFFF" points="356.154,260.003 354.708,262.735 367.272,269.766 368.537,266.123 	"/>
	<path clip-path="url(#SVGID_2_)" fill="#1C3595" d="M503.751,209.203c5.502,20.534-0.591,47.733-13.608,60.75
		s-28.031,6.925-33.533-13.608c-5.502-20.534,0.591-47.733,13.608-60.75C483.235,182.577,498.249,188.669,503.751,209.203"/>
	<polygon clip-path="url(#SVGID_2_)" fill="#1C3595" points="468.379,274.641 474.315,278.097 497.619,194.205 491.162,190.448 	"/>
	<path clip-path="url(#SVGID_2_)" fill="#374CA0" d="M509.069,212.306c5.502,20.534-0.591,47.732-13.608,60.75
		c-13.018,13.018-28.031,6.925-33.533-13.609c-5.502-20.533,0.591-47.732,13.608-60.75
		C488.555,185.679,503.567,191.772,509.069,212.306"/>
	<path clip-path="url(#SVGID_2_)" fill="#1C3595" d="M514.416,216.565c5.502,20.534-0.591,47.733-13.608,60.75
		s-28.031,6.925-33.533-13.609c-5.502-20.533,0.591-47.732,13.609-60.749C493.901,189.939,508.914,196.031,514.416,216.565"/>
	<polygon clip-path="url(#SVGID_2_)" fill="#1C3595" points="479.044,282.002 484.98,285.459 508.284,201.567 501.827,197.81 	"/>
	<path clip-path="url(#SVGID_2_)" fill="#374CA0" d="M519.734,219.668c5.502,20.534-0.591,47.732-13.608,60.75
		c-13.018,13.019-28.031,6.926-33.533-13.608c-5.503-20.533,0.591-47.732,13.608-60.75
		C499.22,193.042,514.232,199.134,519.734,219.668"/>
	<path clip-path="url(#SVGID_2_)" fill="#060507" d="M537.395,262.088c0.005-0.005,0.009-0.011,0.014-0.016l-43.445-25.083
		c0,0-0.955-0.342-1.766,0.463c-1.13,1.12-1.651,3.476-1.176,5.25c0.183,0.683,0.487,1.176,0.856,1.466l2.138,1.239l40.723,23.511
		c-0.19-0.278-0.352-0.622-0.465-1.043c-0.487-1.819,0.053-4.23,1.206-5.384C536.123,261.848,536.818,261.748,537.395,262.088"/>
	<path clip-path="url(#SVGID_2_)" fill="#A7A49B" d="M538.451,263.697c-0.487-1.819-1.817-2.359-2.972-1.206
		c-1.153,1.153-1.693,3.564-1.206,5.384c0.113,0.421,0.274,0.765,0.465,1.043c0,0,0.699,0.437,0.949,0.548
		c0.518,0.231,1.164,0.009,1.558-0.385C538.399,267.927,538.938,265.517,538.451,263.697"/>
	<path clip-path="url(#SVGID_2_)" fill="#640B01" d="M339.062,208.16c0,0,1.758,5.754,7.468,6.971
		c6.07,1.292,14.216-2.512,14.216-2.512s2.899,4.53,2.47,6.702c3.604-1.037,5.329,4.133,5.329,4.133s3.675-5.068,1.888-13.338
		C368.645,201.845,350.589,189.539,339.062,208.16"/>
	<path clip-path="url(#SVGID_2_)" fill="#FA6C5C" d="M176.811,329.596c0,0-0.544,24.744,1.099,37.475
		c0.942,7.296,0.679,15.173,12.08,14.611c3.458-0.17,19.442-3.436,36.366-8.543c17.403-5.252,34.177-7.348,34.4-7.972l6.099-12.872
		l-8.581-1.494c0,0-20.378,3.834-36.549,3.766c-11.485-0.049-24.823,6.993-24.823,6.993l9.719-35.195L176.811,329.596z"/>
	<path clip-path="url(#SVGID_2_)" fill="#FB9A85" d="M162.438,308.814l11.167,10.174c0,0,12.023,1.719,19.759,0
		c7.736-1.719,12.033-10.174,12.033-10.174l-8.496-15.303C196.901,293.512,182.225,314.973,162.438,308.814"/>
	<path clip-path="url(#SVGID_2_)" fill="#FA6C5C" d="M143.909,264.895c0,0-5.538-3.439-16.281,3.114
		c-8.325,5.079-17.76,4.92-24.875,13.753c-3.023,3.752-17.367,21.617-20.144,27.078c-2.777,5.461-3.873,9.882-2.825,17.524
		c1.049,7.644,13.848,9.814,13.848,9.814s5.741-7.954,4.782-10.73c-0.995-2.879-9.152-8.478-9.152-8.478
		s10.752-10.339,19.133-23.459c5.059-7.921,16.649-7.32,22.482-8.85c7.803-2.045,12.707-4.246,12.707-4.246L143.909,264.895z"/>
	<path clip-path="url(#SVGID_2_)" fill="#D1013D" d="M162.438,301.245c4.994,3.804,10.742,6.823,18.209,7.569
		c5.411,0.541,13.956-7.714,18.266-12.315c-1.493-3.472-4.027-9.347-5.549-12.752c-1.718-6.017-3.748-11.294-12.231-17.457
		c-8.484-6.163-24.249-8.978-24.249-8.978l-16.989,7.582c0,0,0.021,14.668,0,19.557c-0.017,3.912-0.085,11.413,5.893,14.495
		C150.649,298.667,158.998,298.625,162.438,301.245"/>
	<path clip-path="url(#SVGID_2_)" fill="#9E0035" d="M170.094,312.112c19.359,3.438,30.022-12.813,30.022-12.813
		s-0.481-1.122-1.202-2.8c-4.311,4.602-12.855,12.856-18.266,12.315c-7.468-0.746-13.215-3.766-18.209-7.569
		c-3.441-2.62-11.789-2.578-16.651-2.299c0.064,0.032,0.119,0.072,0.184,0.104C153.974,302.964,163.685,310.974,170.094,312.112"/>
	<path clip-path="url(#SVGID_2_)" fill="#FA6C5C" d="M139.896,264.895c0,0,3.962,2.576,5.41,9.349
		c2.289,10.708,2.289,19.269,6.571,20.556c2.882,0.866,5.909-9.865,9.041-18.913c1.875-5.417,3.413-11.975,3.413-11.975
		l-13.905-9.354L139.896,264.895z"/>
	<path clip-path="url(#SVGID_2_)" fill="#FB9A85" d="M130.903,239.416c-7.125,7.407-4.251,33.022,6.218,34.702
		c6.788,1.089,16.322-4.946,19.764-16.807C159.769,247.375,144.388,225.396,130.903,239.416"/>
	<path clip-path="url(#SVGID_2_)" fill="#640B01" d="M127.628,245.552c0,0,9.158-1.64,13.505,3.148
		c2.776,3.059,6.348,5.856,9.292,5.856c5.822-3.711,6.459,2.756,3.195,6.272c-0.931,1.607,0.336,4.065,0.336,4.065
		s7.474-7.037,6.054-17.555c-1.419-10.518-10.486-19.202-25.205-12.45C128.948,237.577,127.628,245.552,127.628,245.552"/>
	<path clip-path="url(#SVGID_2_)" fill="#640B01" d="M150.734,236.648c0,0,6.044-9.585,12.733-6.17
		c6.69,3.416,10.988,7.087,17.004,4.393c6.017-2.695,8.596-10.432,8.596-10.432s2.836,14.19-6.876,22.164
		c-11.742,9.639-27.773,1.587-27.773,1.587L150.734,236.648z"/>
	<path clip-path="url(#SVGID_2_)" fill="#FB9A85" d="M265.168,263.785c-11.141-7.463-19.524-10.887-34.843-13.222
		c-3.969-0.604-6.823,0.778-10.386,2.618c-5.939,3.063-27.491,10.396-29.949,10.529c-11.688,0.641-13.855,0.408-16.385,3.724
		c-1.98,2.598-3.067,6.938-4.007,12.438c-2.204,12.885,8.543,17.723,13.48,21.373c3.41-1.167,13.824-8.863,13.824-8.863
		s-0.744-2.726-2.606-9.129c11.102-3.211,26.247-14.722,31.103-16.963c5.587-2.579,28.032,2.62,35.357,7.953
		c2.776,2.021,4.033,5.877,9.146,8.833c4.192,2.423,11.631-4.954,11.796-8.833C282.008,266.986,269.09,266.412,265.168,263.785"/>
	<path clip-path="url(#SVGID_2_)" fill="#D1013D" d="M170.094,315.789l-0.089,10.575l13.914-2.219l35.377,12.033
		c0,0,0.767-5.424,0.555-8.165c-0.633-8.172-14.453-19.199-14.453-19.199S192.986,322.333,170.094,315.789"/>
	<path clip-path="url(#SVGID_2_)" fill="#FB9A85" d="M176.084,323.268c-6.374,1.208-39.412,14.84-42.458,16.768
		c-3.906,2.473-6.963,7.396-8.924,10.756c-6.745,11.552-40.244,47.274-40.244,47.274l9.617,10.181c0,0,25.175-21.866,32.903-29.788
		c10.389-10.649,10.581-15.771,16.931-20.848c5.901-4.718,23.169-3.312,29.155-3.998c9.256-1.063,30.174-2.165,34.606-4.162
		c11.446-5.158,11.625-13.271,11.625-13.271S207.823,317.251,176.084,323.268"/>
	<path clip-path="url(#SVGID_2_)" fill="#D1013D" d="M258.273,350.801c0,0,4.781,4.854,3.209,7.94
		c-2.482,4.873-2.513,7.215-2.513,7.215s4.231,0.905,8.1,3.483c3.868,2.579,9.025,9.025,10.959,12.248
		c1.935,3.224,6.231,4.036,6.231,4.036s-1.946-26.274-3.444-34.494c-1.498-8.221-8.76-6.58-8.76-6.58L258.273,350.801z"/>
	<path clip-path="url(#SVGID_2_)" fill="#FA6C5C" d="M194.296,283.253c0,0-4.307,1.139-7.808,1.677
		c-2.722,0.418-3.41,16.315-3.41,16.315s9.427,0.06,13.823-8.863C196.158,288.527,194.296,283.253,194.296,283.253"/>
	<path clip-path="url(#SVGID_2_)" fill="#D1013D" d="M68.303,392.957c3.008,5.968,7.538,11.72,9.571,15.29
		c2.033,3.57,5.979,7.438,6.584,7.438h6.846c3.671-5.156,7.11-10.691,7.11-10.691s-5.185,0.807-3.895-4.29
		c1.411-5.58-5.595-7.747-5.595-7.747s-12.632,0.2-15.554-2.757c-2.921-2.957-9.803-5.363-12.276-4.16
		c-0.424,0.206-0.84,0.514-1.248,0.853C62.023,387.323,66.149,388.685,68.303,392.957"/>
	<path clip-path="url(#SVGID_2_)" fill="#9E0035" d="M56.23,391.291c0,0,16.54,14.732,20.412,21.386s9.359,9.948,11.618,7.093
		c0.987-1.246,2.023-2.651,3.043-4.084h-6.845c-0.606,0-4.552-3.868-6.585-7.438c-2.033-3.57-6.562-9.322-9.571-15.29
		c-2.154-4.272-6.28-5.634-8.456-6.064C57.877,388.529,56.23,391.291,56.23,391.291"/>
	<path clip-path="url(#SVGID_2_)" fill="#9E0035" d="M74.867,391.162c0,0,1.554,4.109,4.264,6.688
		c2.71,2.579,10.032,2.364,12.173,1.72c2.14-0.645,4.345-1.504,7.11-4.942c2.766-3.438-2.063-10.189-5.343-6.426
		c-3.281,3.764-3.011,4.517-6.019,4.743C84.042,393.172,74.867,391.162,74.867,391.162"/>
	<path clip-path="url(#SVGID_2_)" fill="#9E0035" d="M260.756,365.167c0,0-3.806,0.894-8.117,1.738
		c-4.311,0.846-5.343,1.054-5.343,1.054s0.864,3.246,3.228,3.676c2.363,0.43,8.645-3.46,10.232-3.234
		c1.586,0.226,7.404,1.64,9.042,3.268c1.639,1.628,6.005,6.79,6.005,6.79s0.077-3.171-1.212-5.534
		C273.301,370.561,269.483,364.501,260.756,365.167"/>
	<path clip-path="url(#SVGID_2_)" fill="#9E0035" d="M272.056,344.649c0,0,0.601,2.703,2.75,4.638
		c2.148,1.934,2.676,0.215,3.701,4.082c1.025,3.868,2.96,15.992,2.53,18.418c-0.43,2.425-0.737,10.811,0.062,12.742
		c0.798,1.933,4.739,2.162,4.739,2.162s-2.935-21.896-3.502-25.74c-0.568-3.844-0.557-12.232-3.829-15.28
		C275.235,342.625,272.056,344.649,272.056,344.649"/>
	<path clip-path="url(#SVGID_2_)" fill="#FA6C5C" d="M133.266,346.628l-5.638,8.381c0,0,3.704,0.322,5.638-1.934
		C135.2,350.818,133.266,346.628,133.266,346.628"/>
	<path clip-path="url(#SVGID_2_)" fill="#FA6C5C" d="M82.558,156.942c0,0-8.595,20.035-8.166,26.955
		c0.43,6.92,10.619,7.344,17.128,6.272c6.51-1.072,54.429-7.005,54.429-7.005l8.359-4.972l-1.878-19.754L82.558,156.942z"/>
	<path clip-path="url(#SVGID_2_)" fill="#D1013D" d="M145.948,183.164c0,0,5.694,2.723,6.769,7.451
		c0.695,3.06,1.253,6.648,5.3,7.293c4.047,0.645,6.256-6.837,5.981-14.744c-0.276-7.907,5.678-14.458,1.831-18.953
		c-2.714-3.171-13.4-5.773-13.4-5.773s0.991,12.172-1.647,16.416C149.64,176.692,145.948,183.164,145.948,183.164"/>
	<path clip-path="url(#SVGID_2_)" fill="#FB9A85" d="M109.202,158.438c0,0-5.078,5.612-11.993,16.417s-12.072,30.574-15.51,40.029
		c-3.439,9.454-18.466,44.591-18.466,44.591l12.011,7.783c0,0,16.819-21.517,24.871-38.899c7.835-16.914,7.749-25.318,12.097-30.412
		c4.347-5.094,29.453-28.127,29.453-28.127S130.663,144.203,109.202,158.438"/>
	<path clip-path="url(#SVGID_2_)" fill="#060507" d="M106.508,111.574c0,0-11.398,15.1-14.989,19.773
		c-3.59,4.674-17.127,30.499-17.127,30.499s3.867,6.407,6.446,8.341c2.579,1.934,16.37,4.667,16.37,4.667l11.993-16.417
		c0,0,11.458-5.948,19.267,0c7.81,5.949,18.497,16.417,18.497,16.417s15.099-10.644,14.411-27.851
		c-0.363-9.061-0.601-19.257-0.601-19.257L106.508,111.574z"/>
	<path clip-path="url(#SVGID_2_)" fill="#FA6C5C" d="M40.629,98.211c0,0-11.048,8.87-15.346,11.448
		c-4.297,2.578-3.07,7.237,0.975,11.448c2.357,2.455,4.94,1.942,7.154,0.843c0.797-0.395,1.54-1.831-1.782-3.188
		c-1.793-0.732,1.005-5.196,1.504-5.519c2.578-1.669,5.985-1.332,4.513,0c-4.513,4.083-3.166,5.83-2.364,5.519
		c1.915-0.743,8.331-3.067,8.595-4.23c0.43-1.891,3.438-5.228,3.438-5.228L40.629,98.211z"/>
	<path clip-path="url(#SVGID_2_)" fill="#FB9A85" d="M213.427,114.179c-0.111,3.021-1.012,8.11,0,11.173s2.909,9.045,5.231,7.945
		c2.323-1.1-1.913-6.191-1.816-7.945s2.934-2.373,4.611,0c1.677,2.374,1.991,4.152,1.662,8.078
		c-0.329,3.927,1.391,6.127,2.767,6.747c1.376,0.619,5.159-12.383,5.159-14.825c0-2.442-2.12-14.48-2.12-14.48L213.427,114.179z"/>
	<path clip-path="url(#SVGID_2_)" fill="#D1013D" d="M116.707,35.946c0,0-10.904-2.321-19.499,10.402
		c-1.746,2.585-22.386,22.826-27.543,26.058c-5.158,3.233-6.017,9.844-7.736,12.555c-1.719,2.711-7.101,0.444-8.596,2.073
		c-5.157,5.622-18.05,15.336-18.05,15.336l12.034,6.934c0,0,15.446-2.586,23.207-6.96c17.191-9.688,35.21-31.693,35.21-31.693
		s5.289,19.341,4.617,21.892c-0.672,2.551-4.382,8.939-6.53,12.682c-3.643,6.349-0.166,10.124-0.166,10.124l-3.022,3.998
		c0,0,12.347,13.42,18.505,16.114c14.991,6.559,42.256-2.286,42.256-2.286s2.14-19.676-0.619-37.208
		c-0.738-4.691-2.687-18.806-2.687-18.806s12.239-1.196,19.29,3.74c3.43,2.401,9.666,2.087,12.761,6.359
		c2.868,3.957,7.381-2.299,8.026,0.734c0.733,3.453,3.924,7.004,6.446,10.217c1.46,1.86,8.797,17.138,8.797,17.138l15.859-2.471
		c0,0-4.488-23.437-12.73-30.768c-1.877-1.67-2.685-6.464-5.802-9.704c-1.279-1.33-4.409-0.561-5.865-2.093
		c-2.193-2.307-0.329-4.94-1.871-6.165c-3.33-2.647-9.616-2.766-14.12-5.081c-13.492-6.937-15.641-12.719-27.485-18.166
		c-7.424-3.414-30.93-10.564-30.93-10.564L116.707,35.946z"/>
	<path clip-path="url(#SVGID_2_)" fill="#FA6C5C" d="M120.229,42.618c0,0,1.253,13.173,2.358,13.771
		c5.404,2.919,16.297-4.146,21.227-13.771c-6.749-6.722-13.35-12.28-13.35-12.28L120.229,42.618z"/>
	<path clip-path="url(#SVGID_2_)" fill="#FB9A85" d="M137.526,11.772c-4.651-5.279-20.771-9.46-27.77,3.271
		c-1.541,2.802-1.549,8.265-1.752,11.377c-0.766,11.71,6.638,23.765,12.429,22.277c4.105-1.054,13.137-5.712,16.632-12.802
		C140.999,27.917,143.585,18.648,137.526,11.772"/>
	<path clip-path="url(#SVGID_2_)" fill="#640B01" d="M109.757,15.043c0,0,1.758,5.755,7.468,6.971
		c6.07,1.292,14.216-2.512,14.216-2.512s2.899,4.531,2.469,6.702c3.604-1.037,5.329,4.133,5.329,4.133s4.165-4.876,2.378-13.146
		c-0.822-3.804-2.425-9.281-7.912-11.391c-0.997-0.383-3.616-1.096-6.452-1.717C123.129,3.18,120.229,0,120.229,0
		s-0.711,1.504-0.496,5.05c-2.98-2.056-5.48-4.62-5.48-4.62s-1.182,3.76-0.646,6.217c-2.04-1.358-4.441-1.358-4.441-1.358
		S108.858,12.581,109.757,15.043"/>
	<path clip-path="url(#SVGID_2_)" fill="#D1013D" d="M54.46,251.483c0,0,5.975-4.574,11.181-4.095
		c5.205,0.479,9.059,4.669,10.74,10.148c1.681,5.479,2.523,17.406-6.412,25.188C65.023,287.031,54.46,251.483,54.46,251.483"/>
	<path clip-path="url(#SVGID_2_)" fill="#060507" d="M53.119,270.378c0,0-6.06-16.736,3.223-19.848
		c9.283-3.11,16.467,6.867,18.05,12.058c3.224,10.571-3.223,14.72-3.868,18.479c-0.644,3.76-3.867,4.873-10.314,1.47
		C53.764,279.133,55.013,279.701,53.119,270.378"/>
	<path clip-path="url(#SVGID_2_)" fill="#060507" d="M154.308,196.265c0,0,4.533-0.937,5.178-3.837
		c0.349-1.573-1.29-12.034,0-14.236c1.289-2.203,6.514-5.557,6.654-8.562c0.14-3.005-0.311-5.42-0.311-5.42s6.227,2.432,2.359,9.568
		c-1.836,3.388-4.19,7.861-4.19,9.385c0,1.525,1.893,13.455-2.599,17C156.907,203.709,154.308,196.265,154.308,196.265"/>
	<path clip-path="url(#SVGID_2_)" fill="#FFFFFF" d="M114.342,75.209v8.9c0,0,10.333,0.139,14.2,2.925
		c3.868,2.787,15.272,6.077,15.272,6.077v-8.951c0,0-9.473-5.476-14.736-6.999C123.815,75.64,114.342,75.209,114.342,75.209"/>
	<path clip-path="url(#SVGID_2_)" fill="#FFFFFF" d="M167.127,52.13l-5.246,9.756c0,0,9.208,3.438,13.505,5.158
		c4.298,1.718,6.447,3.008,6.447,3.008l3.868-8.961C185.702,61.091,173.48,52.688,167.127,52.13"/>
	<path clip-path="url(#SVGID_2_)" fill="#9E0035" d="M210.352,109.091c0,0,2.042-1.029,7.564-3.369
		c5.472-2.318,8.498-4.076,8.498-4.076l-1.096-3.435c0,0-6.955,2.474-9.533,4.133c-2.579,1.659-6.597,4.396-6.597,4.396
		L210.352,109.091z"/>
	<path clip-path="url(#SVGID_2_)" fill="#9E0035" d="M103.655,115.35c0,0,6.623,6.06,11.135,11.217
		c4.512,5.157,7.848,7.091,16.009,6.339s20.736-2.794,20.736-2.794s-3.531-2.149-9.87-2.793c-6.339-0.645-14.627,2.471-17.097,0.967
		c-2.472-1.504-11.497-10.53-15.257-11.711C105.55,115.393,103.655,115.35,103.655,115.35"/>
	<path clip-path="url(#SVGID_2_)" fill="#9E0035" d="M117.261,115.35c0,0,4.157,6.475,7.843,7.563
		c14.182,4.191,25.464-4.404,25.464-4.404s-8.272-0.425-12.678,0.322C127.145,120.652,122.203,114.018,117.261,115.35"/>
	<path clip-path="url(#SVGID_2_)" fill="#9E0035" d="M40.629,98.211c0,0,5.828,3.369,7.547,5.44c1.719,2.071,3.472,4.81,3.472,4.81
		l2.188-0.481c0,0-1.578-4.836-4.156-7.2c-2.578-2.364-6.266-4.818-6.266-4.818L40.629,98.211z"/>
	<path clip-path="url(#SVGID_2_)" fill="#9E0035" d="M105.734,70.651c0,0,0.184-4.682,0-6.831c-0.184-2.148,0.082-6.766,0.082-6.766
		s-5.853,4.832-7.142,8.271c-1.29,3.438,1.639,11.512,1.639,11.512L105.734,70.651z"/>
	<path clip-path="url(#SVGID_2_)" fill="#9E0035" d="M158.088,77.162l-1.551-12.267c0,0-5.002,4.513-5.97,7.092
		c-0.966,2.578-0.766,11.729,8.804,14.352C158.84,82.11,158.088,77.162,158.088,77.162"/>
	<path clip-path="url(#SVGID_2_)" fill="#FA6C5C" d="M100.178,190.614c-2.579,2.351-5.587,10.507-5.587,10.507
		s4.298-3.859,5.587-5.148C101.468,194.684,100.178,190.614,100.178,190.614"/>
	<path clip-path="url(#SVGID_2_)" fill="#FFFFFF" d="M154.778,134.986c-0.158,0.039,0.799,11.134-0.47,14.573
		c-1.269,3.438-16.729,16.532-16.729,16.532l1.823,1.646c0,0,10.178-7.374,14.906-13.606c4.727-6.231,4.103-8.87,4.103-12.953
		v-7.129L154.778,134.986z"/>
	<path clip-path="url(#SVGID_2_)" fill="#FFFFFF" d="M132.021,156.005l5.558,5.372c0,0,3.886-3.653,6.234-6.232
		c2.35-2.578,4.196-4.252,4.196-4.252l-5.3-3.807L132.021,156.005z"/>
	<path clip-path="url(#SVGID_2_)" fill="#060507" d="M36.142,209.799c0.187,1.1,0.305,2.223,0.305,3.376
		c0,11.085-8.986,20.072-20.072,20.072c-6.583,0-12.408-3.184-16.068-8.08c1.608,9.474,9.834,16.696,19.766,16.696
		c11.086,0,20.072-8.986,20.072-20.072C40.145,217.289,38.645,213.147,36.142,209.799"/>
	<path clip-path="url(#SVGID_2_)" fill="#FFFFFF" d="M16.375,233.247c11.085,0,20.072-8.986,20.072-20.072
		c0-1.153-0.119-2.276-0.305-3.376c-3.661-4.896-9.486-8.08-16.069-8.08C8.987,201.719,0,210.705,0,221.791
		c0,1.153,0.12,2.276,0.306,3.376C3.966,230.063,9.792,233.247,16.375,233.247"/>
	<path clip-path="url(#SVGID_2_)" fill="#060507" d="M36.447,223.049c-0.902-3.905-2.023-13.25-7.825-16.294
		c-5.802-3.046-9.992,9.266-11.604,15.036c-1.612,5.771,0,15.979,0,15.979l-7.413-2.844c0,0-2.433-12.049,5.801-22.514
		c4.82-6.124,9.707-10.811,13.061-8.829c3.355,1.983,10.766,12.287,10.766,12.287L36.447,223.049z"/>
	<path clip-path="url(#SVGID_2_)" fill="#060507" d="M1.454,214.312c0,0,5.895-2.222,10.407-6.09
		c4.512-3.868,6.363-6.418,6.363-6.418s-5.038,0.191-8.955,3.085C2.621,209.799,1.454,214.312,1.454,214.312"/>
</g>
</svg>
