<?xml version="1.0" encoding="utf-8"?>
<!-- Generator: Adobe Illustrator 16.0.3, SVG Export Plug-In . SVG Version: 6.00 Build 0)  -->
<!DOCTYPE svg PUBLIC "-//W3C//DTD SVG 1.1//EN" "http://www.w3.org/Graphics/SVG/1.1/DTD/svg11.dtd">
<svg version="1.1" id="Capa_1" xmlns="http://www.w3.org/2000/svg" xmlns:xlink="http://www.w3.org/1999/xlink" x="0px" y="0px"
	 width="509.785px" height="356.23px" viewBox="0 0 509.785 356.23" enable-background="new 0 0 509.785 356.23"
	 xml:space="preserve">
<g>
	<defs>
		<rect id="SVGID_1_" x="-151.215" y="-144.102" width="792" height="612"/>
	</defs>
	<clipPath id="SVGID_2_">
		<use xlink:href="#SVGID_1_"  overflow="visible"/>
	</clipPath>
	<path clip-path="url(#SVGID_2_)" fill="#FED715" d="M105.005,211.288c0,0-35.733-2.7-63.947,10.806
		c-42.082,20.145-41.056,73.618-41.056,73.618s33.732,25.014,78.58,7.708c44.847-17.307,59.735-51.387,59.735-51.387
		L105.005,211.288z"/>
	<path clip-path="url(#SVGID_2_)" fill="#FF8C0B" d="M105.738,221.214c0,0-31.663-1.922-54.7,12.436
		c-20.465,12.754-28.209,46.998-24.959,46.02c0,0,41.167,16.921,64.204,2.563c23.037-14.357,37.705-31.626,37.705-31.626
		L105.738,221.214z"/>
	<polygon clip-path="url(#SVGID_2_)" fill="#FC0606" points="183.034,70.967 124.104,60.713 18.147,152.022 128.537,150.445 	"/>
	<polygon clip-path="url(#SVGID_2_)" fill="#FC0606" points="289.348,259.408 266.796,314.81 133.199,356.23 193.066,263.473 	"/>
	<path clip-path="url(#SVGID_2_)" fill="#FC0606" d="M119.417,155.5l-23.586,23.404c0,0-9.339,21.865,11.556,55.981
		c20.896,34.116,42.156,40.214,42.156,40.214l44.775-11.703L119.417,155.5z"/>
	<path clip-path="url(#SVGID_2_)" fill="#FED715" d="M110.646,150.427c0,0,61.144-109.785,180.743-139.912
		c119.599-30.126,218.396,14.06,218.396,14.06s-31.55,154.578-152.118,209.481c-120.57,54.904-179.227,40.127-179.227,40.127
		s-24.081-21.225-42.816-55.743C116.891,183.921,110.646,150.427,110.646,150.427"/>
	<path clip-path="url(#SVGID_2_)" fill="#FC0606" d="M403.404,98.075c7.742,41.525-19.645,81.464-61.168,89.207
		c-41.524,7.742-81.464-19.644-89.207-61.168c-7.742-41.525,19.644-81.464,61.168-89.207
		C355.723,29.164,395.661,56.55,403.404,98.075"/>
	<path clip-path="url(#SVGID_2_)" fill="#FFFFFF" d="M382.944,101.89c5.636,30.225-14.298,59.296-44.522,64.932
		c-30.226,5.636-59.297-14.298-64.933-44.523c-5.636-30.225,14.298-59.296,44.523-64.932
		C348.237,51.731,377.309,71.665,382.944,101.89"/>
	<polygon clip-path="url(#SVGID_2_)" fill="#FC0606" points="222.892,149.576 247.882,186.2 67.05,263.393 	"/>
</g>
</svg>
