<?xml version="1.0" encoding="utf-8"?>
<!-- Generator: Adobe Illustrator 16.0.3, SVG Export Plug-In . SVG Version: 6.00 Build 0)  -->
<!DOCTYPE svg PUBLIC "-//W3C//DTD SVG 1.1//EN" "http://www.w3.org/Graphics/SVG/1.1/DTD/svg11.dtd">
<svg version="1.1" id="Capa_1" xmlns="http://www.w3.org/2000/svg" xmlns:xlink="http://www.w3.org/1999/xlink" x="0px" y="0px"
	 width="217.76px" height="474.985px" viewBox="0 0 217.76 474.985" enable-background="new 0 0 217.76 474.985"
	 xml:space="preserve">
<g>
	<defs>
		<rect id="SVGID_1_" x="-290.573" y="-73.972" width="792" height="612"/>
	</defs>
	<clipPath id="SVGID_2_">
		<use xlink:href="#SVGID_1_"  overflow="visible"/>
	</clipPath>
	<g clip-path="url(#SVGID_2_)">
		<defs>
			<rect id="SVGID_3_" x="-290.573" y="-73.972" width="792" height="612"/>
		</defs>
		<clipPath id="SVGID_4_">
			<use xlink:href="#SVGID_3_"  overflow="visible"/>
		</clipPath>
		<path clip-path="url(#SVGID_4_)" fill="#EAC7A8" d="M6.954,92.695c0.273-0.032,0.556-0.062,0.818-0.013
			c2.442,0.457,3.451,2.206,5.671,3.332c0.99,0.503,3.423-1.006,3.695,1.358c0.1,0.872,0.055,3.048,0.252,4.91
			c0.287,2.716,2.239,5.979,4.252,8.274c2.705,3.084,5.637,6.284,8.732,8.895c6.502,5.486,14.325,10.852,21.728,14.965
			c7.115-12.335,21.294-19.913,35.144-18.785c1.447,0.117,2.941,0.342,4.162,1.154c1.032,0.687,1.785,1.743,2.39,2.847
			c6.4,11.676-4.577,17.444-13.234,22.475c-5.403,3.14-11.08,5.973-16.876,8.256c-8.115,3.198-15.025,0.233-21.953-4.793
			c-7.342-5.327-14.688-10.859-20.792-17.706c-2.967-3.327-5.114-6.992-7.611-10.654c-2.468-3.62-3.889-2.282-6.836-4.877
			c-1.645-1.448-3.585-2.603-4.946-4.349c-2.439-3.13-1.409-7.143-0.844-10.74c0.141-0.895,0.233-1.501,0.729-2.179
			c0.808-1.103,2.059-1.462,3.287-1.865C5.45,92.962,6.199,92.782,6.954,92.695"/>
		<path clip-path="url(#SVGID_4_)" fill="#8C9493" d="M79.111,150.375c-4.394,1.972-8.786,3.711-13.08,5.215
			c-6.401,2.243-13.435,4.485-19.758,2.016c-2.438-0.951-4.581-2.548-6.684-4.139c-9.969-7.539-19.755-15.336-29.346-23.382
			c2.768-6.064,6.431-11.692,10.825-16.627c1.232-1.384,2.663-2.791,4.468-3.034c2.682-0.362,4.946,1.918,6.745,4.005
			c2.93,3.4,5.861,6.799,8.791,10.199c0.951,1.103,2.046,2.284,3.471,2.407c0.93,0.08,1.83-0.315,2.679-0.716
			c16.054-7.577,27.972-17.105,41.518-28.577c5.972-5.056,12.197-10.248,19.666-12.263c15.948-4.304,29.008,13.607,19.042,27.909
			C116.083,129.695,97.582,142.087,79.111,150.375"/>
		<polygon clip-path="url(#SVGID_4_)" fill="#040A1A" points="182.458,455.688 182.919,463.814 167.656,472.895 159.332,465.244 
			166.732,456.641 181.997,447.561 		"/>
		<polygon clip-path="url(#SVGID_4_)" fill="#061234" points="193.242,208.869 194.642,233.551 168.872,342.434 183.132,453.019 
			167.72,457.188 123.927,324.52 122.879,284.506 132.959,202.16 		"/>
		<polygon clip-path="url(#SVGID_4_)" fill="#061234" points="94.435,222.15 83.479,325.447 89.699,460.692 104.195,462.159 
			125.009,340.056 156.504,219.032 		"/>
		<polygon clip-path="url(#SVGID_4_)" fill="#040A1A" points="104.281,460.368 103.513,468.47 87.069,474.985 79.998,466.089 
			88.604,458.781 		"/>
		<path clip-path="url(#SVGID_4_)" fill="#8C9493" d="M207.042,221.957c1.033,9.422,1.868,22.172-1.6,22.969
			c-0.649,0.149-1.31-0.127-1.913-0.397c-6.37-2.853-11.088-7.268-17.36-10.012c-6.575-2.876-13.909-4.043-21.057-4.67
			c-10.691-0.994-21.549-1.213-32.282-0.396c-8.437,0.642-16.834,2.182-25.158,3.694c-6.926,1.258-13.231,4.008-20.385,4.169
			c-7.332,0.165-14.713-1.466-21.291-4.835c-0.241-0.124-0.497-0.266-0.614-0.516c-0.129-0.273-0.056-0.597,0.019-0.891
			c1.117-4.356,1.818-8.631,4.213-12.377c2.674-4.183,4.381-9.339,6.172-13.982c3.73-9.677,7.156-19.774,9.464-29.926
			c3.621-13.846,7.955-27.408,11.412-41.283c2.395-9.616,4.493-19.372,8.079-28.613c2.809-7.236,8.01-17.911,15.079-21.646
			c2.394-1.265,5.125-1.616,7.794-1.948c8.094-1.006,16.188-2.012,24.283-3.018c2.95-0.367,6.022-0.721,8.83,0.284
			c4.21,1.508,6.881,5.68,9.239,9.585c10.575,17.51,18.031,36.761,23.03,56.867c2.61,10.498,5.097,21.029,7.245,31.632
			c2.396,11.832,4.378,23.759,5.634,35.773C206.015,213.753,206.55,217.479,207.042,221.957"/>
		<path clip-path="url(#SVGID_4_)" fill="#FFFFFF" d="M143.958,125.819c0.113,4.782,1.189,9.478,2.26,14.133
			c6.52,28.355,13.039,56.711,19.559,85.066c-21.809,1.858-43.617,3.717-65.426,5.574c-0.161-10.838-0.321-21.678-0.482-32.517
			c-0.103-6.948-0.205-13.922,0.607-20.827c1.309-11.138,4.963-21.85,8.593-32.462c6.708-19.607,13.415-39.214,20.123-58.821
			c0.358-1.049,0.738-2.133,1.499-2.935c0.911-0.961,2.234-1.379,3.503-1.732c6.131-1.706,13.081-3.315,19.425-2.956
			c2.085,5.743-2.785,16.528-4.44,22.209C146.767,108.818,143.75,117.083,143.958,125.819"/>
		<path clip-path="url(#SVGID_4_)" fill="#F5C298" d="M136.32,85.22c4.499-0.628,8.998-1.257,13.496-1.886
			c-0.084-3.74-0.459-7.474-1.118-11.153c0.08,0.446,6.961-4.174,7.521-5.128c1.614-2.745,1.447-7.086,1.942-10.218
			c1.057-6.673,1.942-14.157-1.901-19.628c-3.98-5.666-11.628-7.013-18.389-6.56c-8.487,0.57-17.717,4.012-21.408,11.933
			c-3.334,7.154,2.511,16.69,4.56,23.73c1.011,3.471,2.433,7.406,5.743,8.599c1.759,0.634,3.799,0.355,5.404,1.33
			C135.001,77.957,134.775,82.226,136.32,85.22"/>
		<path clip-path="url(#SVGID_4_)" fill="#061234" d="M101.977,30.869c-0.93-4.791-1.86-9.581-2.791-14.371
			c-0.345-1.779-0.69-3.627-0.279-5.391c0.683-2.933,3.322-4.975,6.06-6.024c2.737-1.05,5.689-1.358,8.472-2.272
			c2.97-0.975,5.793-2.649,8.906-2.8c5.919-0.287,10.931,4.94,16.844,5.353c8.186,0.572,15.259-3.947,20.996,5.409
			c1.055,1.719,1.485,3.771,2.438,5.553c1.232,2.3,3.255,4.016,4.896,6.025c7.213,8.835,6.413,23.351-0.614,32.078
			c-3.407,4.231-4.631,7.883-9.687,9.613c1.927-5.193-2.944-24.697-9.616-26.309c-1.768-0.425-6.729,2.229-8.604,2.696
			c-4.152,1.032-8.183,2.115-11.992,4.184c-5.654,3.069-11.877,5.454-18.193,6.544c-0.809,0.139-1.715,0.256-2.378-0.241
			c-0.624-0.467-0.82-1.323-0.972-2.104C104.3,42.831,103.139,36.85,101.977,30.869"/>
		<polygon clip-path="url(#SVGID_4_)" fill="#29A796" points="147.887,335.708 20.9,287.29 83.026,113.169 210.013,161.586 		"/>
		<g opacity="0.26" clip-path="url(#SVGID_4_)">
			<g>
				<defs>
					<rect id="SVGID_5_" x="33.043" y="164.243" width="168.587" height="166.236"/>
				</defs>
				<clipPath id="SVGID_6_">
					<use xlink:href="#SVGID_5_"  overflow="visible"/>
				</clipPath>
				<polygon clip-path="url(#SVGID_6_)" fill="#010204" points="33.043,283.423 34.943,284.147 145.81,330.479 201.63,164.691 
					195.869,164.244 				"/>
			</g>
		</g>
		<polygon clip-path="url(#SVGID_4_)" fill="#FCFCFB" points="144.152,325.786 29.973,282.252 87.452,121.156 201.63,164.69 		"/>
		<g opacity="0.05" clip-path="url(#SVGID_4_)">
			<g>
				<defs>
					<rect id="SVGID_7_" x="61.569" y="120.303" width="107.606" height="70.986"/>
				</defs>
				<clipPath id="SVGID_8_">
					<use xlink:href="#SVGID_7_"  overflow="visible"/>
				</clipPath>
				<polygon clip-path="url(#SVGID_8_)" fill="#010103" points="87.051,120.304 169.175,151.616 61.569,191.289 				"/>
			</g>
		</g>
		<g opacity="0.12" clip-path="url(#SVGID_4_)">
			<g>
				<defs>
					<rect id="SVGID_9_" x="118.344" y="132.618" width="51.295" height="23.69"/>
				</defs>
				<clipPath id="SVGID_10_">
					<use xlink:href="#SVGID_9_"  overflow="visible"/>
				</clipPath>
				<polygon clip-path="url(#SVGID_10_)" fill="#010103" points="167.933,156.309 118.344,137.402 120.051,132.619 169.639,151.525 
									"/>
			</g>
		</g>
		<path clip-path="url(#SVGID_4_)" fill="#D7DFDC" d="M164.637,133.182l-0.77-0.293l0.19-0.533
			c1.792-5.022-1.307-10.828-6.92-12.968l-7.394-2.819c-5.613-2.14-11.616,0.195-13.408,5.217l-0.189,0.533l-0.77-0.293
			c-5.613-2.14-11.617,0.195-13.408,5.217l-3.625,10.158l49.589,18.907l3.624-10.158
			C173.349,141.128,170.25,135.323,164.637,133.182 M156.465,130.304l-13.065-4.981c-1.335-0.51-2.027-2.049-1.537-3.421
			c0.489-1.372,1.982-2.078,3.317-1.569l13.065,4.981c1.335,0.51,2.027,2.049,1.538,3.421
			C159.293,130.107,157.8,130.813,156.465,130.304"/>
		<g opacity="0.47" clip-path="url(#SVGID_4_)">
			<g>
				<defs>
					<rect id="SVGID_11_" x="56.403" y="171.9" width="47.491" height="89.227"/>
				</defs>
				<clipPath id="SVGID_12_">
					<use xlink:href="#SVGID_11_"  overflow="visible"/>
				</clipPath>
				<path clip-path="url(#SVGID_12_)" fill="#757E7B" d="M103.287,178.349c-5.588-2.13-11.176-4.261-16.764-6.391
					c-0.471-0.18-1.019,0.078-1.193,0.564c-2.048,5.741-4.097,11.483-6.145,17.225c-0.173,0.485,0.08,1.049,0.553,1.23
					c5.588,2.13,11.176,4.261,16.763,6.391c0.256,0.098,0.485,0.077,0.676-0.014c0.014-0.005,0.027-0.012,0.04-0.018
					c0.008-0.004,0.015-0.007,0.023-0.012c0.193-0.088,0.36-0.254,0.454-0.52c2.049-5.742,4.097-11.483,6.146-17.225
					C104.013,179.095,103.76,178.53,103.287,178.349 M96.268,195.241c-5.005-1.908-10.011-3.817-15.017-5.726
					c1.835-5.143,3.67-10.287,5.505-15.43l15.018,5.726C99.938,184.954,98.103,190.097,96.268,195.241"/>
				<path clip-path="url(#SVGID_12_)" fill="#757E7B" d="M91.924,210.197c-5.588-2.13-11.176-4.261-16.764-6.392
					c-0.471-0.18-1.019,0.078-1.193,0.565c-2.048,5.741-4.097,11.483-6.145,17.224c-0.173,0.485,0.08,1.05,0.553,1.23
					c5.588,2.131,11.176,4.261,16.763,6.392c0.256,0.098,0.485,0.076,0.676-0.015c0.014-0.005,0.027-0.011,0.04-0.017
					c0.008-0.004,0.015-0.008,0.023-0.012c0.193-0.089,0.36-0.254,0.454-0.521c2.049-5.741,4.097-11.482,6.146-17.224
					C92.65,210.942,92.397,210.377,91.924,210.197 M84.905,227.089c-5.005-1.909-10.011-3.817-15.017-5.726
					c1.835-5.144,3.67-10.287,5.505-15.431l15.018,5.726C88.575,216.802,86.74,221.945,84.905,227.089"/>
				<path clip-path="url(#SVGID_12_)" fill="#757E7B" d="M80.561,242.045l-16.764-6.393c-0.471-0.18-1.019,0.079-1.193,0.564
					c-2.048,5.742-4.097,11.483-6.145,17.225c-0.173,0.485,0.08,1.05,0.553,1.23c5.588,2.131,11.176,4.261,16.763,6.392
					c0.256,0.098,0.485,0.076,0.676-0.015c0.014-0.005,0.027-0.012,0.04-0.018c0.008-0.004,0.015-0.007,0.023-0.012
					c0.193-0.089,0.36-0.255,0.454-0.521c2.049-5.741,4.097-11.483,6.146-17.225C81.287,242.79,81.034,242.225,80.561,242.045
					 M73.542,258.937c-5.005-1.909-10.011-3.817-15.017-5.727c1.835-5.144,3.67-10.286,5.505-15.43
					c5.006,1.908,10.012,3.817,15.018,5.726C77.211,248.649,75.376,253.793,73.542,258.937"/>
			</g>
		</g>
		<polygon clip-path="url(#SVGID_4_)" fill="#29A796" points="89.844,180.627 94.168,180.776 94.896,185.551 118.169,178.935 
			120.154,180.19 92.313,190.064 		"/>
		<polygon clip-path="url(#SVGID_4_)" fill="#29A796" points="76.796,212.75 81.12,212.899 81.848,217.674 105.122,211.057 
			107.105,212.313 79.265,222.187 		"/>
		<polygon clip-path="url(#SVGID_4_)" fill="#29A796" points="65.692,242.76 70.016,242.909 70.744,247.685 94.017,241.066 
			96.001,242.323 68.161,252.196 		"/>
		<g opacity="0.32" clip-path="url(#SVGID_4_)">
			<g>
				<defs>
					<rect id="SVGID_13_" x="85.759" y="253.147" width="62.211" height="31.161"/>
				</defs>
				<clipPath id="SVGID_14_">
					<use xlink:href="#SVGID_13_"  overflow="visible"/>
				</clipPath>
				<polygon clip-path="url(#SVGID_14_)" fill="#757E7B" points="144.897,284.309 85.759,261.76 88.832,253.147 147.97,275.696 				
					"/>
			</g>
		</g>
		<g opacity="0.32" clip-path="url(#SVGID_4_)">
			<g>
				<defs>
					<rect id="SVGID_15_" x="97.794" y="219.417" width="62.211" height="31.16"/>
				</defs>
				<clipPath id="SVGID_16_">
					<use xlink:href="#SVGID_15_"  overflow="visible"/>
				</clipPath>
				<polygon clip-path="url(#SVGID_16_)" fill="#757E7B" points="156.933,250.577 97.795,228.028 100.868,219.416 160.005,241.965 
									"/>
			</g>
		</g>
		<g opacity="0.32" clip-path="url(#SVGID_4_)">
			<g>
				<defs>
					<rect id="SVGID_17_" x="109.831" y="185.685" width="62.211" height="31.161"/>
				</defs>
				<clipPath id="SVGID_18_">
					<use xlink:href="#SVGID_17_"  overflow="visible"/>
				</clipPath>
				<polygon clip-path="url(#SVGID_18_)" fill="#757E7B" points="168.968,216.845 109.831,194.297 112.903,185.684 172.042,208.233 
									"/>
			</g>
		</g>
		<path clip-path="url(#SVGID_4_)" fill="#F5C298" d="M194.253,170.521c0.387,1.071,0.384,2.569-0.625,3.036
			c-0.605,0.279-1.301,0.043-1.953-0.077c-2.469-0.451-5.144,1.069-6.097,3.465c-1.123,2.823,0.175,6.219,2.444,8.17
			c2.269,1.952,5.291,2.701,8.231,2.97c1.847,0.168,3.909,0.096,5.263-1.214c0.694-0.673,1.109-1.593,1.47-2.505
			c1.85-4.68,3.393-10.786-0.187-15.043C199.985,165.975,191.636,163.278,194.253,170.521"/>
		<path clip-path="url(#SVGID_4_)" fill="#8C9493" d="M215.404,169.569c-0.371-0.479-0.797-0.926-1.283-1.333
			c-3.925-3.287-9.003-6.446-14.228-4.771c1.573,10.004,0.076,20.5-4.224,29.61c-0.34,0.721-0.702,1.557-0.388,2.29
			c0.594,1.377,4.885,2.357,6.174,2.416c5.687,0.261,11.55-2.67,14.017-7.004c1.446-2.543,1.765-5.376,2.039-8.141
			C217.937,178.367,218.13,173.09,215.404,169.569"/>
	</g>
</g>
</svg>
