<?xml version="1.0" encoding="utf-8"?>
<!-- Generator: Adobe Illustrator 16.0.3, SVG Export Plug-In . SVG Version: 6.00 Build 0)  -->
<!DOCTYPE svg PUBLIC "-//W3C//DTD SVG 1.1//EN" "http://www.w3.org/Graphics/SVG/1.1/DTD/svg11.dtd">
<svg version="1.1" id="Capa_1" xmlns="http://www.w3.org/2000/svg" xmlns:xlink="http://www.w3.org/1999/xlink" x="0px" y="0px"
	 width="34.155px" height="12.667px" viewBox="0 0 34.155 12.667" enable-background="new 0 0 34.155 12.667" xml:space="preserve">
<g>
	<g>
		<path fill="#FFFFFF" d="M7.511,10.249c-0.399,0.2-1.3,0.414-2.471,0.414C1.714,10.663,0,8.593,0,5.852
			c0-3.284,2.343-5.111,5.254-5.111c1.128,0,1.985,0.228,2.37,0.428L7.183,2.896C6.739,2.711,6.125,2.54,5.355,2.54
			c-1.729,0-3.071,1.042-3.071,3.184c0,1.927,1.144,3.14,3.084,3.14c0.658,0,1.385-0.142,1.814-0.314L7.511,10.249z"/>
		<path fill="#FFFFFF" d="M11.15,10.521V9.208l1.198-1.085c2.027-1.814,3.013-2.856,3.04-3.941c0-0.757-0.456-1.356-1.526-1.356
			c-0.8,0-1.499,0.4-1.984,0.771l-0.615-1.556c0.699-0.529,1.785-0.957,3.041-0.957c2.1,0,3.256,1.228,3.256,2.913
			c0,1.556-1.128,2.798-2.471,3.997l-0.855,0.714v0.028h3.498v1.785H11.15z"/>
		<polygon fill="#FFFFFF" points="19.872,3.168 19.844,3.168 18.072,4.01 17.716,2.383 20.172,1.241 21.971,1.241 21.971,10.521 
			19.872,10.521 		"/>
		<path fill="#FF0000" d="M10.639,6.331c0,0.901-0.73,1.631-1.632,1.631c-0.9,0-1.631-0.73-1.631-1.631
			c0-0.9,0.73-1.631,1.631-1.631C9.908,4.7,10.639,5.431,10.639,6.331"/>
		<path fill="#FFD900" d="M26.583,8.96c0,0-0.956,0.221-1.491,0.891c-0.798,0.998-0.021,2.681-0.021,2.681s1.22,0.502,2.128-0.431
			c0.909-0.933,0.813-2.139,0.813-2.139L26.583,8.96z"/>
		<path fill="#FF8C00" d="M26.741,9.268c0,0-0.842,0.211-1.23,0.863c-0.347,0.579-0.064,1.729,0.005,1.67
			c0,0,1.295,0.182,1.687-0.47c0.39-0.652,0.523-1.324,0.523-1.324L26.741,9.268z"/>
		<polygon fill="#FF0000" points="26.627,5.062 25.095,5.529 23.667,8.993 26.285,7.62 		"/>
		<polygon fill="#FF0000" points="31.447,8.278 31.578,9.875 28.886,12.481 29.195,9.541 		"/>
		<path fill="#FF0000" d="M26.13,7.851l-0.281,0.844c0,0,0.042,0.636,0.953,1.198c0.912,0.563,1.494,0.452,1.494,0.452l0.929-0.822
			L26.13,7.851z"/>
		<path fill="#FFFFFF" d="M25.858,7.836c0,0,0.133-3.363,2.627-5.53C30.978,0.139,33.874,0,33.874,0s1.116,4.076-1.102,6.846
			c-2.218,2.771-3.798,3.127-3.798,3.127s-0.832-0.216-1.696-0.814C26.413,8.561,25.858,7.836,25.858,7.836"/>
		<path fill="#FF0000" d="M32.222,3.043c0.687,0.898,0.516,2.184-0.384,2.872c-0.898,0.687-2.184,0.516-2.872-0.383
			c-0.687-0.899-0.516-2.184,0.384-2.872C30.247,1.974,31.534,2.145,32.222,3.043"/>
	</g>
</g>
<g>
	<g>
		<defs>
			<path id="SVGID_1_" d="M29.688,3.104c-0.652,0.5-0.777,1.435-0.278,2.09c0.501,0.654,1.436,0.779,2.092,0.279
				c0.651-0.502,0.775-1.437,0.276-2.091c-0.294-0.383-0.734-0.585-1.185-0.585C30.276,2.797,29.959,2.897,29.688,3.104"/>
		</defs>
		<clipPath id="SVGID_2_">
			<use xlink:href="#SVGID_1_"  overflow="visible"/>
		</clipPath>
		
			<linearGradient id="SVGID_3_" gradientUnits="userSpaceOnUse" x1="-571.1162" y1="520.5049" x2="-570.1162" y2="520.5049" gradientTransform="matrix(2.9823 0 0 2.9823 1732.364 -1547.936)">
			<stop  offset="0" style="stop-color:#C0E7F1"/>
			<stop  offset="0.7317" style="stop-color:#40B7D4"/>
			<stop  offset="1" style="stop-color:#056CA2"/>
		</linearGradient>
		<rect x="28.91" y="2.797" clip-path="url(#SVGID_2_)" fill="url(#SVGID_3_)" width="3.366" height="3.176"/>
	</g>
	<g>
		<polygon fill="#FF0000" points="28.53,6.458 29.57,7.031 26.183,11.063 		"/>
	</g>
</g>
</svg>
