<?xml version="1.0" encoding="utf-8"?>
<!-- Generator: Adobe Illustrator 16.0.3, SVG Export Plug-In . SVG Version: 6.00 Build 0)  -->
<!DOCTYPE svg PUBLIC "-//W3C//DTD SVG 1.1//EN" "http://www.w3.org/Graphics/SVG/1.1/DTD/svg11.dtd">
<svg version="1.1" id="Capa_1" xmlns="http://www.w3.org/2000/svg" xmlns:xlink="http://www.w3.org/1999/xlink" x="0px" y="0px"
	 width="63.683px" height="17.212px" viewBox="0 0 63.683 17.212" enable-background="new 0 0 63.683 17.212" xml:space="preserve">
<polygon fill="#0B307F" points="5.369,5.072 0,5.426 0.148,14.061 5.135,13.998 5.308,11.375 2.383,11.646 2.555,10.237 
	4.841,10.364 5.049,8.38 2.579,8.525 2.413,6.972 5.127,7.094 "/>
<path fill="#0B307F" d="M10.767,7.554c-0.325-0.282-0.73-0.61-1.541-0.521C8.159,7.151,7.771,7.587,7.586,7.88H7.565V7.24
	l-1.89,0.114l0.207,5.908l1.652,0.09l0.15-3.367c0-0.369,0-1.259,1.031-1.259c0.945,0,0.945,0.825,0.945,1.248l-0.035,3.422
	l1.991-0.19l-0.155-3.708C11.381,8.29,11.093,7.836,10.767,7.554"/>
<path fill="#0B307F" d="M16.735,7.804h-0.022c-0.325-0.521-0.987-0.759-1.66-0.759c-1.563,0-2.999,1.115-2.999,3.176
	c0,1.933,1.361,3.236,2.999,3.236c0.945,0,1.465-0.51,1.65-0.857h0.021v0.185c0,1.618-1.37,1.738-1.598,1.738
	c-0.119,0-0.778-0.267-1.039-0.863l-2.121,0.336c0.119,0.858,1.069,1.948,3.163,1.948c1.487,0,2.583-0.663,3.049-1.422
	c0.293-0.51,0.359-1.085,0.359-1.986l0.13-5.401L16.735,7.24V7.804z M15.229,11.904c-0.749,0-1.331-0.731-1.331-1.697
	c0-0.879,0.736-1.58,1.507-1.58c0.803,0,1.33,0.686,1.33,1.652C16.735,11.147,16.098,11.904,15.229,11.904"/>
<polygon fill="#0B307F" points="19.224,13.396 20.924,13.263 21.023,5.072 19.123,5.232 "/>
<polygon fill="#0B307F" points="21.915,13.368 23.408,13.089 23.832,7.047 21.782,7.24 "/>
<polygon fill="#0B307F" points="23.759,5.072 21.959,5.013 21.782,6.599 23.671,6.711 "/>
<path fill="#0B307F" d="M26.85,9.53c-0.574,0.004-0.922-0.326-0.922-0.651c0-0.163,0.13-0.402,0.51-0.402
	c0.532,0,0.529,0.4,0.54,0.531l1.931-0.235c-0.152-1.584-1.814-1.741-2.648-1.667c-1.243,0.109-2.15,0.869-2.15,2.062
	c0,0.814,0.643,1.244,1.448,1.424c1.203,0.271,1.828,0.5,1.828,0.967c0,0.293-0.558,0.467-0.862,0.467
	c-0.076,0-0.671-0.212-0.747-0.766l-1.887,0.321c0.162,1.585,1.7,1.888,2.612,1.888c1.335,0,2.567-0.6,2.567-2.135
	C29.069,9.871,27.929,9.53,26.85,9.53"/>
<path fill="#0B307F" d="M34.542,7.705c-0.381-0.456-0.946-0.687-1.521-0.687c-0.641,0-1.482,0.232-1.786,0.775h-0.021l0.095-2.619
	L29.274,5.35l0.118,8.09l1.821-0.177l-0.066-3.276c0-0.293,0.083-1.073,1.075-1.261c0.988-0.187,0.965,0.966,0.965,1.259
	l-0.124,3.471l2.005-0.498l-0.079-3.06C34.989,8.824,35.051,8.302,34.542,7.705"/>
<path fill="#0B307F" d="M42.676,7.573c0-1.139-0.871-2.493-2.662-2.493c-0.586,0-1.834,0.098-2.519,1.162
	c-0.433,0.662-0.549,1.176-0.569,1.697l2.164,0.205c0.033-0.467,0.178-1.376,0.981-1.376c0.575,0,0.628,0.655,0.628,0.981
	c0,0.814-0.818,1.766-1.066,2.048c-0.761,0.846-1.742,1.27-2.752,1.932l-0.263,1.521l6.086,0.248l0.409-2.223l-3.262,0.438
	C41.122,10.596,42.676,9.277,42.676,7.573"/>
<polygon fill="#0B307F" points="43.54,5.876 43.583,7.516 44.636,7.002 43.948,13.28 46.377,13.104 46.713,4.765 "/>
<polygon fill="#FFD900" points="5.642,4.754 0.273,5.108 0.421,13.743 5.408,13.68 5.581,11.057 2.656,11.329 2.828,9.918 
	5.114,10.045 5.322,8.062 2.852,8.207 2.686,6.654 5.4,6.775 "/>
<path fill="#FFD900" d="M11.039,7.236c-0.325-0.282-0.73-0.61-1.541-0.521C8.431,6.833,8.044,7.27,7.859,7.563H7.838V6.921
	l-1.89,0.115l0.208,5.907l1.651,0.09l0.15-3.366c0-0.369,0-1.259,1.031-1.259c0.945,0,0.945,0.825,0.945,1.248l-0.035,3.422
	l1.991-0.19l-0.155-3.71C11.654,7.972,11.365,7.519,11.039,7.236"/>
<path fill="#FFD900" d="M17.008,7.486h-0.022c-0.325-0.521-0.987-0.76-1.66-0.76c-1.562,0-2.999,1.115-2.999,3.177
	c0,1.934,1.361,3.237,2.999,3.237c0.945,0,1.465-0.511,1.65-0.856h0.021v0.184c0,1.617-1.369,1.738-1.598,1.738
	c-0.119,0-0.778-0.267-1.038-0.865l-2.122,0.338c0.12,0.857,1.069,1.947,3.163,1.947c1.487,0,2.583-0.662,3.049-1.422
	c0.294-0.51,0.359-1.084,0.359-1.986l0.13-5.401l-1.932,0.105V7.486z M15.502,11.586c-0.749,0-1.331-0.731-1.331-1.697
	c0-0.879,0.736-1.58,1.507-1.58c0.803,0,1.33,0.686,1.33,1.652C17.008,10.829,16.37,11.586,15.502,11.586"/>
<polygon fill="#FFD900" points="19.496,13.079 21.197,12.945 21.296,4.754 19.395,4.914 "/>
<polygon fill="#FFD900" points="22.188,13.049 23.681,12.771 24.104,6.729 22.055,6.922 "/>
<polygon fill="#FFD900" points="24.031,4.754 22.232,4.695 22.054,6.281 23.943,6.392 "/>
<path fill="#FFD900" d="M27.122,9.211C26.548,9.215,26.2,8.885,26.2,8.561c0-0.163,0.13-0.402,0.51-0.402
	c0.532,0,0.529,0.401,0.54,0.531l1.932-0.234c-0.153-1.585-1.815-1.741-2.649-1.668c-1.243,0.109-2.15,0.869-2.15,2.063
	c0,0.814,0.643,1.243,1.448,1.423c1.203,0.272,1.829,0.5,1.829,0.967c0,0.294-0.559,0.467-0.863,0.467
	c-0.076,0-0.671-0.212-0.746-0.766l-1.888,0.322c0.163,1.584,1.7,1.887,2.612,1.887c1.335,0,2.567-0.6,2.567-2.135
	C29.342,9.552,28.201,9.211,27.122,9.211"/>
<path fill="#FFD900" d="M34.813,7.387C34.434,6.931,33.868,6.7,33.292,6.7c-0.64,0-1.482,0.232-1.786,0.775h-0.021l0.095-2.619
	l-2.034,0.176l0.118,8.089l1.821-0.176l-0.066-3.276c0-0.293,0.083-1.073,1.075-1.261c0.988-0.187,0.965,0.966,0.965,1.259
	l-0.124,3.47l2.005-0.498L35.261,9.58C35.261,8.506,35.325,7.984,34.813,7.387"/>
<path fill="#FFD900" d="M42.948,7.255c0-1.14-0.871-2.494-2.662-2.494c-0.586,0-1.832,0.099-2.517,1.163
	c-0.435,0.662-0.549,1.176-0.571,1.697l2.166,0.205c0.032-0.467,0.178-1.376,0.98-1.376c0.574,0,0.628,0.655,0.628,0.981
	c0,0.814-0.817,1.766-1.067,2.048c-0.76,0.845-1.74,1.269-2.75,1.931l-0.264,1.521l6.086,0.248l0.409-2.223l-3.261,0.439
	C41.394,10.278,42.948,8.959,42.948,7.255"/>
<polygon fill="#FFD900" points="43.811,5.558 43.856,7.197 44.909,6.685 44.221,12.961 46.649,12.786 46.987,4.446 "/>
<path fill="#FFD900" d="M53.223,12.722c0,0-1.207,0.5-1.9,1.401c-1.037,1.348-0.123,3.068-0.123,3.068s1.506,0.258,2.679-1.041
	c1.173-1.301,1.097-2.652,1.097-2.652L53.223,12.722z"/>
<path fill="#FF8C00" d="M53.409,13.032c0,0-1.061,0.459-1.571,1.305c-0.455,0.751-0.144,1.99-0.056,1.904
	c0,0,1.616-0.127,2.129-0.971c0.513-0.846,0.705-1.648,0.705-1.648L53.409,13.032z"/>
<polygon fill="#FF0000" points="53.45,6.88 51.366,7.516 49.426,12.225 52.987,10.359 "/>
<polygon fill="#FF0000" points="60.002,11.254 60.18,13.424 56.522,16.967 56.941,12.969 "/>
<path fill="#FF0000" d="M52.774,10.672l-0.383,1.148c0,0,0.057,0.863,1.297,1.629c1.239,0.765,2.03,0.613,2.03,0.613l1.263-1.117
	L52.774,10.672z"/>
<path fill="#FFD900" d="M52.405,10.652c0,0,0.182-4.572,3.57-7.518C59.366,0.189,63.301,0,63.301,0s1.518,5.54-1.497,9.307
	c-3.013,3.766-5.162,4.251-5.162,4.251s-1.132-0.294-2.307-1.107C53.159,11.637,52.405,10.652,52.405,10.652"/>
<path fill="#FF0000" d="M61.055,4.137c0.935,1.222,0.701,2.97-0.521,3.904c-1.221,0.934-2.969,0.701-3.902-0.52
	c-0.935-1.222-0.703-2.97,0.52-3.904C58.372,2.682,60.12,2.915,61.055,4.137"/>
<path fill="#FFFFFF" d="M60.454,4.597c0.68,0.889,0.51,2.162-0.379,2.842c-0.891,0.68-2.162,0.511-2.843-0.379
	c-0.679-0.889-0.51-2.162,0.379-2.841C58.5,3.538,59.772,3.708,60.454,4.597"/>
<polygon fill="#FF0000" points="56.038,8.778 57.452,9.557 52.846,15.04 "/>
</svg>
