<?xml version="1.0" encoding="utf-8"?>
<!-- Generator: Adobe Illustrator 16.0.3, SVG Export Plug-In . SVG Version: 6.00 Build 0)  -->
<!DOCTYPE svg PUBLIC "-//W3C//DTD SVG 1.1//EN" "http://www.w3.org/Graphics/SVG/1.1/DTD/svg11.dtd">
<svg version="1.1" id="Capa_1" xmlns="http://www.w3.org/2000/svg" xmlns:xlink="http://www.w3.org/1999/xlink" x="0px" y="0px"
	 width="81.72px" height="98.655px" viewBox="0 0 81.72 98.655" enable-background="new 0 0 81.72 98.655" xml:space="preserve">
<path fill="#FFD900" d="M21.76,72.92c0,0-6.908,2.864-10.89,8.038c-5.937,7.719-0.706,17.578-0.706,17.578s8.64,1.479,15.359-5.971
	c6.719-7.45,6.279-15.199,6.279-15.199L21.76,72.92z"/>
<path fill="#FF8C00" d="M22.831,74.698c0,0-6.076,2.626-9.014,7.471c-2.607,4.305-0.822,11.41-0.309,10.922
	c0,0,9.26-0.729,12.195-5.574c2.938-4.845,4.04-9.443,4.04-9.443L22.831,74.698z"/>
<polygon fill="#FF0000" points="23.062,39.436 11.123,43.082 0,70.07 20.406,59.372 "/>
<polygon fill="#FF0000" points="60.62,64.504 61.643,76.946 40.671,97.251 43.075,74.336 "/>
<path fill="#FF0000" d="M19.185,61.173l-2.187,6.581c0,0,0.323,4.952,7.429,9.335c7.107,4.383,11.641,3.514,11.641,3.514
	l7.233-6.398L19.185,61.173z"/>
<path fill="#FFD900" d="M17.072,61.055c0,0,1.037-26.205,20.469-43.088C56.971,1.084,79.531,0,79.531,0s8.695,31.756-8.579,53.344
	C53.677,74.932,41.361,77.708,41.361,77.708s-6.484-1.682-13.226-6.343C21.393,66.703,17.072,61.055,17.072,61.055"/>
<path fill="#FF0000" d="M66.651,23.713c5.355,7.002,4.021,17.021-2.981,22.376c-7.002,5.355-17.021,4.021-22.376-2.98
	c-5.356-7.004-4.021-17.021,2.98-22.376C51.277,15.376,61.296,16.711,66.651,23.713"/>
<path fill="#FFFFFF" d="M63.201,26.352c3.897,5.097,2.927,12.389-2.171,16.287c-5.097,3.898-12.389,2.927-16.287-2.17
	c-3.897-5.098-2.927-12.39,2.172-16.287C52.012,20.283,59.304,21.255,63.201,26.352"/>
<polygon fill="#FF0000" points="37.894,50.316 45.998,54.78 19.604,86.198 "/>
</svg>
