<?xml version="1.0" encoding="utf-8"?>
<!-- Generator: Adobe Illustrator 16.0.3, SVG Export Plug-In . SVG Version: 6.00 Build 0)  -->
<!DOCTYPE svg PUBLIC "-//W3C//DTD SVG 1.1//EN" "http://www.w3.org/Graphics/SVG/1.1/DTD/svg11.dtd">
<svg version="1.1" id="Capa_1" xmlns="http://www.w3.org/2000/svg" xmlns:xlink="http://www.w3.org/1999/xlink" x="0px" y="0px"
	 width="123.495px" height="137.025px" viewBox="0 0 123.495 137.025" enable-background="new 0 0 123.495 137.025"
	 xml:space="preserve">
<g>
	<path fill="#FCFCFB" d="M116.954,2.299C105.805-5.82,5.288,9.99,2.532,12.373c-7.723,6.66,3.965,50.572,11.773,55.381
		c4.754,2.928,94.051,5.262,99.66,2.732C123.758,66.07,127.981,10.334,116.954,2.299"/>
	<polygon fill="#FCFCFB" points="43.444,62.25 58.252,88.969 25.504,68.15 	"/>
	<path fill="#17141C" d="M105.872,85.416c0,0,17.996,8.773,9.898,20.92c-8.098,12.148-26.994,12.148-27.443-0.674
		C87.877,92.838,105.872,85.416,105.872,85.416"/>
	<path fill="#1F1C25" d="M75.954,102.736c9.125,0.23,5.211-3.314,12.873-8.674c3.527-2.467,6.047-5.73,8.408-9.291
		c2.268-3.424,4.869-7.156,4.814-11.416c-0.006-0.443,0.039-0.854,0.125-1.238c-4.238-2.49-9.859-4.773-17.281-6.141
		c-23.781-4.381-21.697,9.057-21.086,19.666c0.674,11.695,15.129,10.199,16.195,12.822C80.602,98.201,75.145,102.717,75.954,102.736
		"/>
	<path fill="#F69574" d="M83.657,118.545l0.053-11.658h9.453l-0.607,13.396c-0.316,3.119-3.455,3.729-4.789,3.729
		C85.124,124.012,83.905,122.998,83.657,118.545"/>
	<path fill="#F69574" d="M70.51,84.123c0,0-3.689,24.785,10.787,28.598c10.283,2.709,24.969-6.793,24.137-22.871
		c-0.836-16.08-11.107-23.133-18.355-22.758C79.834,67.467,72.245,72.967,70.51,84.123"/>
	<path fill="#A75846" d="M81.124,94.49c-0.67,1.311-1.674,2.5-3.041,3.217l0.09-0.459c0.631,0.799,1.221,1.629,1.715,2.541
		c-0.805-0.654-1.514-1.387-2.18-2.154l-0.24-0.273l0.328-0.186C79.008,96.488,79.999,95.455,81.124,94.49"/>
	<path fill="#100E14" d="M74.243,92.232c0.092,1.752,0.945,3.133,1.908,3.084c0.963-0.051,1.668-1.512,1.578-3.266
		c-0.092-1.752-0.945-3.131-1.908-3.082C74.858,89.021,74.151,90.48,74.243,92.232"/>
	<path fill="#100E14" d="M90.682,92.846c0.092,1.752,0.945,3.133,1.908,3.084c0.961-0.051,1.668-1.51,1.578-3.266
		c-0.092-1.752-0.945-3.131-1.908-3.082C91.297,89.635,90.59,91.096,90.682,92.846"/>
	<path fill="#F69574" d="M104.614,96.734c0,0-0.098-8.605,4.551-6.818c4.65,1.783,0.707,13.32-6.143,10.635L104.614,96.734z"/>
	<g opacity="0.5">
		<g>
			<defs>
				<rect id="SVGID_1_" x="105.323" y="91.643" width="4.172" height="7.316"/>
			</defs>
			<clipPath id="SVGID_2_">
				<use xlink:href="#SVGID_1_"  overflow="visible"/>
			</clipPath>
			<path clip-path="url(#SVGID_2_)" fill="#CF876F" d="M109.495,93.842c0,0-0.947-3.635-2.486-1.561
				c-1.539,2.076-0.875,2.656-0.875,2.656s2.037,2.654-0.811,3.877C105.323,98.814,109.45,100.287,109.495,93.842"/>
		</g>
	</g>
	<path fill="#1F1C25" d="M81.772,66.215c0,0,0.82,20.605,23.746,25.236c0,0,1.254-4.01,4.852-0.637
		c1.623-5.123,6.043-18.143-1.281-24.863C101.766,59.229,84.379,52.814,81.772,66.215"/>
	<path fill="#040305" d="M97.499,85.43c-0.719-0.586-1.422-1.09-2.158-1.494c-0.738-0.395-1.498-0.713-2.281-0.859
		c-0.779-0.164-1.57-0.152-2.352,0.027c-0.785,0.184-1.545,0.568-2.328,1.074c0.383-0.844,1.094-1.574,1.996-1.994
		c0.898-0.438,1.957-0.52,2.93-0.332C95.247,82.264,96.887,83.67,97.499,85.43"/>
	<path fill="#040305" d="M80.428,83.355c-0.744-0.516-1.484-0.873-2.252-1.076c-0.766-0.191-1.547-0.26-2.314-0.168
		c-1.547,0.16-2.967,0.867-4.25,2.129c0.197-0.885,0.744-1.703,1.488-2.295c0.74-0.605,1.676-0.967,2.631-1.076
		c0.961-0.092,1.951,0.063,2.803,0.508C79.385,81.801,80.092,82.51,80.428,83.355"/>
	<path fill="#C5464D" d="M90.227,103.527c0,0-8.385-3.33-11.318,0H90.227z"/>
	<path fill="#C5464D" d="M90.227,103.527c0,0-2.777,5.459-7.074,5.125c-5.006-0.389-4.244-5.125-4.244-5.125H90.227z"/>
	<path fill="#FFFFFF" d="M90.227,103.527H78.909C78.909,103.527,81.401,111.02,90.227,103.527"/>
	<path fill="#FFFFFF" d="M103.417,100.441c0,1.199,0.973,2.172,2.172,2.172c1.197,0,2.17-0.973,2.17-2.172
		c0-1.197-0.973-2.17-2.17-2.17C104.389,98.271,103.417,99.244,103.417,100.441"/>
	<path fill="#F69574" d="M77.481,133.045c0.432,1.336,0.895,2.66,1.365,3.98H96.85c0.225-0.285,0.477-0.605,0.576-0.756
		c2.242-3.412,6.006-0.293,7.934-3.873c-0.656-1.242,0.611-6.709,0.465-8.045c-4.139-1.861-12.287-3.043-13.18-3.01l0.639-11.555
		H83.69l-0.064,11.412c-0.051-0.141-0.072-0.23-0.072-0.23s-6.18,1.371-9.141,1.832c-3.301,1.023-2.854,4.355-2.631,5.418
		C72.319,130.768,76.686,130.568,77.481,133.045"/>
	<path fill="#F5FB8E" d="M114.356,137.025l-2.031-6.949c-3.469-0.822-10.639-2.252-9.193,6.949H114.356z"/>
	<path fill="#F5FB8E" d="M108.028,137.025c3.115-1.814,7.283-5.439,2.184-10.115c-2.373-2.176-4.551-2.408-6.416-3.402
		c0.01,0.188,0.016,0.375,0.016,0.568c0.002,6.771-9.781,9.311-15.912,9.311c-5.828,0-13.465-3.547-14.26-10.352
		c-3.271-0.105-6.131,7.768-7.514,13.99H108.028z"/>
</g>
</svg>
