<?xml version="1.0" encoding="utf-8"?>
<!-- Generator: Adobe Illustrator 16.0.3, SVG Export Plug-In . SVG Version: 6.00 Build 0)  -->
<!DOCTYPE svg PUBLIC "-//W3C//DTD SVG 1.1//EN" "http://www.w3.org/Graphics/SVG/1.1/DTD/svg11.dtd">
<svg version="1.1" id="Capa_1" xmlns="http://www.w3.org/2000/svg" xmlns:xlink="http://www.w3.org/1999/xlink" x="0px" y="0px"
	 width="841.89px" height="595.28px" viewBox="0 0 841.89 595.28" enable-background="new 0 0 841.89 595.28" xml:space="preserve">
<g>
	<g>
		<text transform="matrix(1 0 0 1 258.9438 218.1719)"><tspan x="0" y="0" font-family="'MyriadPro-Bold'" font-size="15.4537" letter-spacing="4">BIENV</tspan><tspan x="65.662" y="0" font-family="'MyriadPro-Bold'" font-size="15.4537" letter-spacing="4">E</tspan><tspan x="78.535" y="0" font-family="'MyriadPro-Bold'" font-size="15.4537" letter-spacing="4">NI</tspan><tspan x="102.874" y="0" font-family="'MyriadPro-Bold'" font-size="15.4537" letter-spacing="4">D</tspan><tspan x="118.25" y="0" font-family="'MyriadPro-Bold'" font-size="15.4537">O</tspan></text>
		<text transform="matrix(1 0 0 1 319.2095 306.3516)"><tspan x="0" y="0" fill="#FCFCFB" font-family="'MyriadPro-It'" font-size="17.3849">ap</tspan><tspan x="18.202" y="0" fill="#FCFCFB" font-family="'MyriadPro-It'" font-size="17.3849">r</tspan><tspan x="23.643" y="0" fill="#FCFCFB" font-family="'MyriadPro-It'" font-size="17.3849">ende Inglés </tspan><tspan x="104.916" y="0" fill="#FCFCFB" font-family="'MyriadPro-It'" font-size="17.3849">f</tspan><tspan x="109.731" y="0" fill="#FCFCFB" font-family="'MyriadPro-It'" font-size="17.3849">ácilmen</tspan><tspan x="165.327" y="0" fill="#FCFCFB" font-family="'MyriadPro-It'" font-size="17.3849">t</tspan><tspan x="170.715" y="0" fill="#FCFCFB" font-family="'MyriadPro-It'" font-size="17.3849">e</tspan></text>
		<g>
			<defs>
				<rect id="SVGID_1_" x="24.945" y="-25.392" width="792" height="612"/>
			</defs>
			<clipPath id="SVGID_2_">
				<use xlink:href="#SVGID_1_"  overflow="visible"/>
			</clipPath>
			<polygon clip-path="url(#SVGID_2_)" fill="#0B307F" points="274.204,233.03 244.583,234.985 245.403,282.629 272.912,282.276 
				273.87,267.806 257.729,269.304 258.677,261.528 271.291,262.232 272.438,251.284 258.812,252.083 257.897,243.513 
				272.871,244.187 			"/>
			<path clip-path="url(#SVGID_2_)" fill="#0B307F" d="M303.985,246.729c-1.795-1.561-4.033-3.367-8.501-2.875
				c-5.892,0.646-8.024,3.053-9.042,4.669h-0.121v-3.531l-10.423,0.632l1.143,32.6l9.108,0.494l0.83-18.576
				c0-2.037,0-6.948,5.689-6.948c5.21,0,5.21,4.552,5.21,6.887l-0.187,18.879l10.978-1.05l-0.852-20.464
				C307.377,250.789,305.781,248.284,303.985,246.729"/>
			<path clip-path="url(#SVGID_2_)" fill="#0B307F" d="M336.917,248.105h-0.121c-1.796-2.875-5.449-4.192-9.161-4.192
				c-8.622,0-16.546,6.154-16.546,17.529c0,10.658,7.504,17.859,16.546,17.859c5.208,0,8.082-2.816,9.101-4.731h0.12v1.018
				c0,8.923-7.558,9.586-8.814,9.586c-0.66,0-4.293-1.47-5.732-4.761l-11.704,1.855c0.66,4.729,5.892,10.744,17.448,10.744
				c8.203,0,14.251-3.654,16.825-7.844c1.618-2.815,1.979-5.988,1.979-10.957l0.718-29.8l-10.658,0.58V248.105z M328.606,270.726
				c-4.132,0-7.346-4.034-7.346-9.363c0-4.85,4.062-8.717,8.314-8.717c4.43,0,7.342,3.782,7.342,9.111
				C336.917,266.548,333.396,270.726,328.606,270.726"/>
			<polygon clip-path="url(#SVGID_2_)" fill="#0B307F" points="350.642,278.959 360.028,278.224 360.571,233.03 350.088,233.915 			
				"/>
			<polygon clip-path="url(#SVGID_2_)" fill="#0B307F" points="365.494,278.798 373.728,277.264 376.068,243.927 364.756,244.992 
							"/>
			<polygon clip-path="url(#SVGID_2_)" fill="#0B307F" points="375.665,233.03 365.735,232.708 364.756,241.459 375.181,242.072 			
				"/>
			<path clip-path="url(#SVGID_2_)" fill="#0B307F" d="M392.718,257.625c-3.17,0.024-5.088-1.796-5.088-3.593
				c0-0.898,0.718-2.215,2.814-2.215c2.934,0,2.918,2.208,2.979,2.926l10.654-1.291c-0.838-8.742-10.008-9.605-14.61-9.201
				c-6.858,0.602-11.865,4.795-11.865,11.38c0,4.493,3.553,6.862,7.992,7.861c6.64,1.496,10.089,2.756,10.089,5.329
				c0,1.617-3.084,2.575-4.761,2.575c-0.419,0-3.7-1.169-4.118-4.224l-10.413,1.777c0.898,8.742,9.383,10.411,14.412,10.411
				c7.364,0,14.163-3.309,14.163-11.784C404.966,259.505,398.669,257.625,392.718,257.625"/>
			<path clip-path="url(#SVGID_2_)" fill="#0B307F" d="M435.153,247.56c-2.096-2.515-5.221-3.793-8.395-3.793
				c-3.532,0-8.176,1.285-9.852,4.279h-0.12l0.528-14.45l-11.221,0.969l0.646,44.637l10.047-0.978l-0.36-18.072
				c0-1.617,0.459-5.92,5.93-6.957c5.451-1.033,5.328,5.329,5.328,6.947l-0.684,19.141l11.057-2.744l-0.433-16.877
				C437.625,253.733,437.967,250.853,435.153,247.56"/>
			<path clip-path="url(#SVGID_2_)" fill="#0B307F" d="M480.033,246.833c0-6.286-4.809-13.758-14.688-13.758
				c-3.232,0-10.115,0.546-13.887,6.412c-2.395,3.654-3.029,6.491-3.146,9.364l11.944,1.13c0.18-2.574,0.978-7.588,5.408-7.588
				c3.173,0,3.472,3.611,3.472,5.408c0,4.49-4.517,9.744-5.894,11.302c-4.19,4.67-9.606,7.001-15.174,10.653l-1.454,8.395
				l33.579,1.372l2.259-12.269l-17.999,2.422C471.458,263.511,480.033,256.235,480.033,246.833"/>
			<polygon clip-path="url(#SVGID_2_)" fill="#0B307F" points="484.793,237.47 485.036,246.511 490.848,243.686 487.054,278.313 
				500.454,277.345 502.31,231.336 			"/>
			<polygon clip-path="url(#SVGID_2_)" fill="#FFD900" points="275.707,231.276 246.088,233.231 246.907,280.874 274.415,280.522 
				275.374,266.051 259.234,267.549 260.181,259.772 272.794,260.479 273.943,249.528 260.315,250.328 259.4,241.759 
				274.374,242.433 			"/>
			<path clip-path="url(#SVGID_2_)" fill="#FFD900" d="M305.489,244.974c-1.795-1.558-4.033-3.366-8.501-2.874
				c-5.893,0.647-8.024,3.054-9.042,4.67h-0.121v-3.532l-10.423,0.631l1.144,32.601l9.108,0.493l0.832-18.576
				c0-2.037,0-6.945,5.688-6.945c5.21,0,5.21,4.549,5.21,6.885l-0.187,18.879l10.978-1.049l-0.853-20.465
				C308.881,249.034,307.286,246.531,305.489,244.974"/>
			<path clip-path="url(#SVGID_2_)" fill="#FFD900" d="M338.42,246.351H338.3c-1.796-2.875-5.449-4.191-9.161-4.191
				c-8.622,0-16.546,6.153-16.546,17.529c0,10.658,7.504,17.858,16.546,17.858c5.209,0,8.083-2.815,9.101-4.73h0.119v1.018
				c0,8.92-7.558,9.585-8.814,9.585c-0.66,0-4.293-1.469-5.732-4.762l-11.704,1.856c0.66,4.729,5.892,10.745,17.448,10.745
				c8.203,0,14.251-3.652,16.825-7.844c1.617-2.815,1.978-5.988,1.978-10.959l0.718-29.799l-10.658,0.58V246.351z M330.111,268.972
				c-4.133,0-7.346-4.035-7.346-9.363c0-4.852,4.062-8.718,8.314-8.718c4.432,0,7.341,3.782,7.341,9.112
				C338.42,264.792,334.899,268.972,330.111,268.972"/>
			<polygon clip-path="url(#SVGID_2_)" fill="#FFD900" points="352.146,277.204 361.531,276.469 362.075,231.276 351.591,232.161 
							"/>
			<polygon clip-path="url(#SVGID_2_)" fill="#FFD900" points="366.998,277.043 375.231,275.509 377.572,242.173 366.261,243.237 
							"/>
			<polygon clip-path="url(#SVGID_2_)" fill="#FFD900" points="377.168,231.276 367.241,230.954 366.26,239.704 376.685,240.317 			
				"/>
			<path clip-path="url(#SVGID_2_)" fill="#FFD900" d="M394.222,255.87c-3.17,0.025-5.088-1.796-5.088-3.592
				c0-0.898,0.718-2.215,2.813-2.215c2.935,0,2.92,2.207,2.979,2.926l10.653-1.291c-0.837-8.742-10.007-9.605-14.608-9.201
				c-6.86,0.601-11.866,4.793-11.866,11.379c0,4.493,3.552,6.862,7.991,7.862c6.641,1.495,10.09,2.755,10.09,5.328
				c0,1.617-3.084,2.575-4.76,2.575c-0.42,0-3.701-1.169-4.119-4.223l-10.413,1.776c0.898,8.742,9.383,10.41,14.412,10.41
				c7.364,0,14.163-3.308,14.163-11.782C406.47,257.751,400.173,255.87,394.222,255.87"/>
			<path clip-path="url(#SVGID_2_)" fill="#FFD900" d="M436.658,245.805c-2.097-2.515-5.223-3.792-8.396-3.792
				c-3.531,0-8.173,1.284-9.851,4.279h-0.119l0.527-14.451l-11.221,0.969l0.645,44.637l10.049-0.978l-0.361-18.071
				c0-1.617,0.459-5.92,5.93-6.957c5.451-1.033,5.328,5.328,5.328,6.945l-0.684,19.143l11.058-2.745l-0.435-16.876
				C439.128,251.979,439.471,249.099,436.658,245.805"/>
			<path clip-path="url(#SVGID_2_)" fill="#FFD900" d="M481.537,245.079c0-6.287-4.808-13.756-14.688-13.756
				c-3.232,0-10.113,0.542-13.887,6.41c-2.394,3.652-3.028,6.489-3.147,9.363l11.945,1.131c0.18-2.576,0.979-7.587,5.408-7.587
				c3.173,0,3.471,3.612,3.471,5.407c0,4.49-4.515,9.744-5.893,11.3c-4.19,4.67-9.605,7.003-15.174,10.655l-1.454,8.395l33.58,1.372
				l2.26-12.271l-18.002,2.422C472.963,261.755,481.537,254.479,481.537,245.079"/>
			<polygon clip-path="url(#SVGID_2_)" fill="#FFD900" points="486.297,235.716 486.539,244.756 492.352,241.931 488.557,276.558 
				501.959,275.591 503.813,229.581 			"/>
		</g>
		<g>
			<defs>
				<path id="SVGID_3_" d="M382.054,385.777c120.499,0,170.477-104.569,170.477-104.569l-2.977-12.43l-15.55,1.238
					c0,0-12.538,17.475-33.45,43.263c-24.604,30.34-67.944,61.5-112,61.5c-167,0-194-125.501-194-125.501
					S218.553,385.777,382.054,385.777"/>
			</defs>
			<clipPath id="SVGID_4_">
				<use xlink:href="#SVGID_3_"  overflow="visible"/>
			</clipPath>
			<defs>
				<filter id="Adobe_OpacityMaskFilter" filterUnits="userSpaceOnUse" x="194.554" y="249.278" width="357.977" height="136.499">
					<feColorMatrix  type="matrix" values="1 0 0 0 0  0 1 0 0 0  0 0 1 0 0  0 0 0 1 0"/>
				</filter>
			</defs>
			<mask maskUnits="userSpaceOnUse" x="194.554" y="249.278" width="357.977" height="136.499" id="SVGID_5_">
				<g filter="url(#Adobe_OpacityMaskFilter)">
					
						<linearGradient id="SVGID_6_" gradientUnits="userSpaceOnUse" x1="26.3081" y1="603.6475" x2="27.3081" y2="603.6475" gradientTransform="matrix(-357.9775 0 0 357.9775 9970.3828 -215774.75)">
						<stop  offset="0" style="stop-color:#FFFFFF"/>
						<stop  offset="1" style="stop-color:#000000"/>
					</linearGradient>
					<rect x="194.554" y="249.278" clip-path="url(#SVGID_4_)" fill="url(#SVGID_6_)" width="357.977" height="136.499"/>
				</g>
			</mask>
			
				<linearGradient id="SVGID_7_" gradientUnits="userSpaceOnUse" x1="26.3081" y1="603.6475" x2="27.3081" y2="603.6475" gradientTransform="matrix(-357.9775 0 0 357.9775 9970.3828 -215774.75)">
				<stop  offset="0" style="stop-color:#FFFFFF"/>
				<stop  offset="1" style="stop-color:#386CAF"/>
			</linearGradient>
			
				<rect x="194.554" y="249.278" clip-path="url(#SVGID_4_)" mask="url(#SVGID_5_)" fill="url(#SVGID_7_)" width="357.977" height="136.499"/>
		</g>
	</g>
	<g>
		<defs>
			<rect id="SVGID_8_" x="24.945" y="-25.392" width="792" height="612"/>
		</defs>
		<clipPath id="SVGID_9_">
			<use xlink:href="#SVGID_8_"  overflow="visible"/>
		</clipPath>
		<path clip-path="url(#SVGID_9_)" fill="#FFD900" d="M538.22,275.238c0,0-6.649,2.759-10.481,7.74
			c-5.714,7.43-0.679,16.92-0.679,16.92s8.315,1.424,14.783-5.748c6.469-7.172,6.045-14.631,6.045-14.631L538.22,275.238z"/>
		<path clip-path="url(#SVGID_9_)" fill="#FF8C00" d="M539.252,276.952c0,0-5.849,2.527-8.675,7.191
			c-2.512,4.143-0.793,10.984-0.3,10.513c0,0,8.912-0.701,11.74-5.364c2.827-4.665,3.89-9.091,3.89-9.091L539.252,276.952z"/>
		<polygon clip-path="url(#SVGID_9_)" fill="#FF0000" points="539.475,243.009 527.981,246.517 517.274,272.498 536.919,262.197 		
			"/>
		<polygon clip-path="url(#SVGID_9_)" fill="#FF0000" points="575.628,267.138 576.613,279.114 556.425,298.661 558.739,276.603 		
			"/>
		<path clip-path="url(#SVGID_9_)" fill="#FF0000" d="M535.743,263.932l-2.104,6.335c0,0,0.309,4.768,7.15,8.986
			c6.84,4.218,11.203,3.383,11.203,3.383l6.966-6.16L535.743,263.932z"/>
		<path clip-path="url(#SVGID_9_)" fill="#FFD900" d="M533.709,263.819c0,0,0.999-25.227,19.703-41.478
			c18.702-16.252,40.422-17.295,40.422-17.295s8.369,30.569-8.261,51.349c-16.629,20.78-28.484,23.455-28.484,23.455
			s-6.242-1.619-12.731-6.107C537.868,269.256,533.709,263.819,533.709,263.819"/>
		<path clip-path="url(#SVGID_9_)" fill="#FF0000" d="M581.434,227.872c5.156,6.74,3.87,16.385-2.87,21.541
			c-6.739,5.154-16.385,3.868-21.539-2.871c-5.155-6.74-3.869-16.383,2.869-21.539C566.636,219.848,576.277,221.133,581.434,227.872
			"/>
	</g>
	<g>
		<defs>
			<path id="SVGID_10_" d="M562.435,228.323c-4.906,3.752-5.841,10.772-2.088,15.678c3.752,4.906,10.771,5.842,15.677,2.09
				c4.907-3.753,5.843-10.771,2.091-15.678c-2.203-2.879-5.529-4.391-8.893-4.391C566.85,226.022,564.461,226.772,562.435,228.323"
				/>
		</defs>
		<clipPath id="SVGID_11_">
			<use xlink:href="#SVGID_10_"  overflow="visible"/>
		</clipPath>
		
			<linearGradient id="SVGID_12_" gradientUnits="userSpaceOnUse" x1="26.2441" y1="604.4268" x2="27.2437" y2="604.4268" gradientTransform="matrix(22.3694 0 0 -22.3694 -29.0121 13758.6006)">
			<stop  offset="0" style="stop-color:#C0E7F1"/>
			<stop  offset="0.7317" style="stop-color:#40B7D4"/>
			<stop  offset="1" style="stop-color:#056CA2"/>
		</linearGradient>
		<rect x="556.594" y="226.022" clip-path="url(#SVGID_11_)" fill="url(#SVGID_12_)" width="25.272" height="23.82"/>
	</g>
</g>
</svg>
